%TF.GenerationSoftware,KiCad,Pcbnew,8.0.8*%
%TF.CreationDate,2025-07-15T02:17:25+09:00*%
%TF.ProjectId,monolith,6d6f6e6f-6c69-4746-982e-6b696361645f,rev?*%
%TF.SameCoordinates,Original*%
%TF.FileFunction,Copper,L2,Bot*%
%TF.FilePolarity,Positive*%
%FSLAX46Y46*%
G04 Gerber Fmt 4.6, Leading zero omitted, Abs format (unit mm)*
G04 Created by KiCad (PCBNEW 8.0.8) date 2025-07-15 02:17:25*
%MOMM*%
%LPD*%
G01*
G04 APERTURE LIST*
G04 Aperture macros list*
%AMRoundRect*
0 Rectangle with rounded corners*
0 $1 Rounding radius*
0 $2 $3 $4 $5 $6 $7 $8 $9 X,Y pos of 4 corners*
0 Add a 4 corners polygon primitive as box body*
4,1,4,$2,$3,$4,$5,$6,$7,$8,$9,$2,$3,0*
0 Add four circle primitives for the rounded corners*
1,1,$1+$1,$2,$3*
1,1,$1+$1,$4,$5*
1,1,$1+$1,$6,$7*
1,1,$1+$1,$8,$9*
0 Add four rect primitives between the rounded corners*
20,1,$1+$1,$2,$3,$4,$5,0*
20,1,$1+$1,$4,$5,$6,$7,0*
20,1,$1+$1,$6,$7,$8,$9,0*
20,1,$1+$1,$8,$9,$2,$3,0*%
G04 Aperture macros list end*
%TA.AperFunction,ComponentPad*%
%ADD10RoundRect,0.250001X1.099999X1.599999X-1.099999X1.599999X-1.099999X-1.599999X1.099999X-1.599999X0*%
%TD*%
%TA.AperFunction,ComponentPad*%
%ADD11O,2.700000X3.700000*%
%TD*%
%TA.AperFunction,HeatsinkPad*%
%ADD12C,0.600000*%
%TD*%
%TA.AperFunction,ComponentPad*%
%ADD13R,0.850000X0.850000*%
%TD*%
%TA.AperFunction,ComponentPad*%
%ADD14R,1.700000X1.700000*%
%TD*%
%TA.AperFunction,ComponentPad*%
%ADD15O,1.700000X1.700000*%
%TD*%
%TA.AperFunction,ComponentPad*%
%ADD16C,3.400000*%
%TD*%
%TA.AperFunction,ConnectorPad*%
%ADD17C,6.000000*%
%TD*%
%TA.AperFunction,ComponentPad*%
%ADD18C,0.600000*%
%TD*%
%TA.AperFunction,SMDPad,CuDef*%
%ADD19R,2.950000X4.500000*%
%TD*%
%TA.AperFunction,ComponentPad*%
%ADD20O,0.850000X0.850000*%
%TD*%
%TA.AperFunction,ViaPad*%
%ADD21C,0.600000*%
%TD*%
%TA.AperFunction,Conductor*%
%ADD22C,0.300000*%
%TD*%
%TA.AperFunction,Conductor*%
%ADD23C,0.200000*%
%TD*%
%TA.AperFunction,Conductor*%
%ADD24C,0.400000*%
%TD*%
%TA.AperFunction,Conductor*%
%ADD25C,0.600000*%
%TD*%
G04 APERTURE END LIST*
D10*
%TO.P,J3,1,Pin_1*%
%TO.N,+3V3*%
X86650000Y-148300000D03*
D11*
%TO.P,J3,2,Pin_2*%
%TO.N,GND*%
X82450000Y-148300000D03*
%TO.P,J3,3,Pin_3*%
%TO.N,/DBGRX*%
X86650000Y-142800000D03*
%TO.P,J3,4,Pin_4*%
%TO.N,/DBGTX*%
X82450000Y-142800000D03*
%TD*%
D10*
%TO.P,J5,1,Pin_1*%
%TO.N,+5V*%
X142150000Y-148300000D03*
D11*
%TO.P,J5,2,Pin_2*%
%TO.N,GNDA*%
X137950000Y-148300000D03*
%TO.P,J5,3,Pin_3*%
%TO.N,/AIN4*%
X142150000Y-142800000D03*
%TO.P,J5,4,Pin_4*%
%TO.N,/AIN3*%
X137950000Y-142800000D03*
%TD*%
D12*
%TO.P,U2,41,GND*%
%TO.N,GND*%
X109400000Y-100300000D03*
X109400000Y-101700000D03*
X110100000Y-99600000D03*
X110100000Y-101000000D03*
X110100000Y-102400000D03*
X110800000Y-100300000D03*
X110800000Y-101700000D03*
X111500000Y-99600000D03*
X111500000Y-101000000D03*
X111500000Y-102400000D03*
X112200000Y-100300000D03*
X112200000Y-101700000D03*
%TD*%
D13*
%TO.P,TP2,1,1*%
%TO.N,Net-(D8-A1)*%
X151500000Y-132800000D03*
%TD*%
D14*
%TO.P,JP7,1,A*%
%TO.N,Net-(D5-A1)*%
X141900000Y-134375000D03*
D15*
%TO.P,JP7,2,B*%
%TO.N,Net-(JP7-B)*%
X141900000Y-131835000D03*
%TD*%
D10*
%TO.P,J4,1,Pin_1*%
%TO.N,+5V*%
X131050000Y-148300000D03*
D11*
%TO.P,J4,2,Pin_2*%
%TO.N,GNDA*%
X126850000Y-148300000D03*
%TO.P,J4,3,Pin_3*%
%TO.N,/AIN2*%
X131050000Y-142800000D03*
%TO.P,J4,4,Pin_4*%
%TO.N,/AIN1*%
X126850000Y-142800000D03*
%TD*%
D14*
%TO.P,JP8,1,A*%
%TO.N,Net-(JP8-A)*%
X72150000Y-130100000D03*
D15*
%TO.P,JP8,2,B*%
%TO.N,/CANL*%
X69610000Y-130100000D03*
%TD*%
D13*
%TO.P,TP1,1,1*%
%TO.N,Net-(D7-A1)*%
X147300000Y-132800000D03*
%TD*%
D14*
%TO.P,J10,1,Pin_1*%
%TO.N,+3V3*%
X70050000Y-99940000D03*
D15*
%TO.P,J10,2,Pin_2*%
%TO.N,GND*%
X67510000Y-99940000D03*
%TO.P,J10,3,Pin_3*%
%TO.N,/RX*%
X70050000Y-97400000D03*
%TO.P,J10,4,Pin_4*%
%TO.N,/RTS*%
X67510000Y-97400000D03*
%TO.P,J10,5,Pin_5*%
%TO.N,/TX*%
X70050000Y-94860000D03*
%TO.P,J10,6,Pin_6*%
%TO.N,/DTR*%
X67510000Y-94860000D03*
%TD*%
D16*
%TO.P,REF\u002A\u002A,1*%
%TO.N,N/C*%
X68300000Y-88200000D03*
D17*
X68300000Y-88200000D03*
%TD*%
D18*
%TO.P,U5,9,GNDPAD*%
%TO.N,GND*%
X81400000Y-130075000D03*
X81400000Y-128875000D03*
X81400000Y-127575000D03*
X81400000Y-126475000D03*
D19*
X80800000Y-128275000D03*
D18*
X80200000Y-130075000D03*
X80200000Y-128875000D03*
X80200000Y-127575000D03*
X80200000Y-126475000D03*
%TD*%
D14*
%TO.P,JP3,1,A*%
%TO.N,Net-(D2-A1)*%
X130800000Y-134400000D03*
D15*
%TO.P,JP3,2,B*%
%TO.N,Net-(JP3-B)*%
X130800000Y-131860000D03*
%TD*%
D10*
%TO.P,J6,1,Pin_1*%
%TO.N,+5V*%
X153250000Y-148300000D03*
D11*
%TO.P,J6,2,Pin_2*%
%TO.N,GNDA*%
X149050000Y-148300000D03*
%TO.P,J6,3,Pin_3*%
%TO.N,/AIN6*%
X153250000Y-142800000D03*
%TO.P,J6,4,Pin_4*%
%TO.N,/AIN5*%
X149050000Y-142800000D03*
%TD*%
D10*
%TO.P,J12,1,Pin_1*%
%TO.N,+5V*%
X108850000Y-148300000D03*
D11*
%TO.P,J12,2,Pin_2*%
%TO.N,GND*%
X104650000Y-148300000D03*
%TO.P,J12,3,Pin_3*%
%TO.N,/DIN2*%
X108850000Y-142800000D03*
%TO.P,J12,4,Pin_4*%
%TO.N,/DIN1*%
X104650000Y-142800000D03*
%TD*%
D13*
%TO.P,J14,1,Pin_1*%
%TO.N,/SDA2*%
X107950000Y-113175000D03*
D20*
%TO.P,J14,2,Pin_2*%
%TO.N,/SCL2*%
X108950000Y-113175000D03*
%TD*%
D16*
%TO.P,REF\u002A\u002A,1*%
%TO.N,N/C*%
X156300000Y-136850000D03*
D17*
X156300000Y-136850000D03*
%TD*%
D16*
%TO.P,REF\u002A\u002A,1*%
%TO.N,N/C*%
X68300000Y-136850000D03*
D17*
X68300000Y-136850000D03*
%TD*%
D13*
%TO.P,JP4,1,A*%
%TO.N,/BOOT*%
X93700000Y-97600000D03*
D20*
%TO.P,JP4,2,B*%
%TO.N,GND*%
X92700000Y-97600000D03*
%TD*%
D14*
%TO.P,JP6,1,A*%
%TO.N,Net-(D4-A1)*%
X138200000Y-134375000D03*
D15*
%TO.P,JP6,2,B*%
%TO.N,Net-(JP6-B)*%
X138200000Y-131835000D03*
%TD*%
D13*
%TO.P,J9,1,Pin_1*%
%TO.N,/SDA1*%
X116900000Y-113200000D03*
D20*
%TO.P,J9,2,Pin_2*%
%TO.N,/SCL1*%
X117900000Y-113200000D03*
%TD*%
D13*
%TO.P,JP5,1,A*%
%TO.N,Net-(JP5-A)*%
X116150000Y-115800000D03*
D20*
%TO.P,JP5,2,B*%
%TO.N,+3V3*%
X117150000Y-115800000D03*
%TD*%
D10*
%TO.P,J11,1,Pin_1*%
%TO.N,+5V*%
X119950000Y-148300000D03*
D11*
%TO.P,J11,2,Pin_2*%
%TO.N,GND*%
X115750000Y-148300000D03*
%TO.P,J11,3,Pin_3*%
%TO.N,/DIN4*%
X119950000Y-142800000D03*
%TO.P,J11,4,Pin_4*%
%TO.N,/DIN3*%
X115750000Y-142800000D03*
%TD*%
D13*
%TO.P,J7,1,Pin_1*%
%TO.N,Net-(J7-Pin_1)*%
X99500000Y-108500000D03*
D20*
%TO.P,J7,2,Pin_2*%
%TO.N,Net-(J7-Pin_2)*%
X99500000Y-109500000D03*
%TD*%
D10*
%TO.P,J2,1,Pin_1*%
%TO.N,+3V3*%
X97750000Y-148300000D03*
D11*
%TO.P,J2,2,Pin_2*%
%TO.N,GND*%
X93550000Y-148300000D03*
%TO.P,J2,3,Pin_3*%
%TO.N,/GPS_RX*%
X97750000Y-142800000D03*
%TO.P,J2,4,Pin_4*%
%TO.N,/GPS_TX*%
X93550000Y-142800000D03*
%TD*%
D14*
%TO.P,JP2,1,A*%
%TO.N,Net-(D1-A1)*%
X127100000Y-134375000D03*
D15*
%TO.P,JP2,2,B*%
%TO.N,Net-(JP2-B)*%
X127100000Y-131835000D03*
%TD*%
D13*
%TO.P,J8,1,Pin_1*%
%TO.N,/CANRX*%
X93550000Y-99750000D03*
D20*
%TO.P,J8,2,Pin_2*%
%TO.N,/CANTX*%
X93550000Y-100750000D03*
%TD*%
D16*
%TO.P,REF\u002A\u002A,1*%
%TO.N,N/C*%
X156300000Y-108350000D03*
D17*
X156300000Y-108350000D03*
%TD*%
D13*
%TO.P,JP1,1,A*%
%TO.N,/EN*%
X93700000Y-95250000D03*
D20*
%TO.P,JP1,2,B*%
%TO.N,GND*%
X92700000Y-95250000D03*
%TD*%
D10*
%TO.P,J1,1,Pin_1*%
%TO.N,VBUS*%
X75550000Y-148300000D03*
D11*
%TO.P,J1,2,Pin_2*%
%TO.N,GND*%
X71350000Y-148300000D03*
%TO.P,J1,3,Pin_3*%
%TO.N,/CANH*%
X75550000Y-142800000D03*
%TO.P,J1,4,Pin_4*%
%TO.N,/CANL*%
X71350000Y-142800000D03*
%TD*%
D21*
%TO.N,GND*%
X73700000Y-127150000D03*
X98900000Y-134850000D03*
X90100000Y-142450000D03*
X90400000Y-126050000D03*
X73250000Y-97900000D03*
X109950000Y-128850000D03*
X118900000Y-107500000D03*
X96250000Y-119375000D03*
X90450000Y-122400000D03*
X79200000Y-111150000D03*
X103050000Y-128300000D03*
X81650000Y-122050000D03*
X98425000Y-97375000D03*
X109900000Y-125850000D03*
X124625000Y-108275000D03*
X104950000Y-116850000D03*
X95700000Y-136650000D03*
X112900000Y-118750000D03*
X105500000Y-98550000D03*
X136800000Y-104000000D03*
X106700000Y-132450000D03*
X89550000Y-115200000D03*
X105450000Y-138750000D03*
X113950000Y-126900000D03*
X144750000Y-104400000D03*
X86200000Y-136700000D03*
X86050000Y-120750000D03*
X97600000Y-123750000D03*
X90300000Y-112350000D03*
X105970000Y-93280000D03*
X91100000Y-95850000D03*
X82800000Y-97950000D03*
X144000000Y-98300000D03*
X93650000Y-115500000D03*
X95950000Y-126650000D03*
X121000000Y-126250000D03*
X118500000Y-117100000D03*
X149150000Y-93550000D03*
X75650000Y-122050000D03*
X121000000Y-139300000D03*
X119000000Y-99700000D03*
X117750000Y-132450000D03*
X114200000Y-123650000D03*
X95350000Y-133750000D03*
X82900000Y-135800000D03*
X130150000Y-107900000D03*
X119280000Y-93280000D03*
X95350000Y-95400000D03*
X68750000Y-102550000D03*
X88950000Y-119950000D03*
X84550000Y-111150000D03*
X96100000Y-101900000D03*
X114250000Y-119550000D03*
X118600000Y-122400000D03*
X104625000Y-126725000D03*
X149300000Y-106250000D03*
X96000000Y-113450000D03*
X91700000Y-103600000D03*
X77700000Y-136200000D03*
X100350000Y-132400000D03*
X98000000Y-115650000D03*
X70825000Y-118700000D03*
X81650000Y-116000000D03*
X86050000Y-118800000D03*
X69000000Y-140950000D03*
X107750000Y-108350000D03*
X113550000Y-130800000D03*
X86050000Y-131400000D03*
X69400000Y-109650000D03*
X75650000Y-116000000D03*
X98900000Y-139400000D03*
X104950000Y-120200000D03*
X93700000Y-123650000D03*
X91100000Y-130450000D03*
%TO.N,+3V3*%
X71050000Y-113500000D03*
X94850000Y-111400000D03*
X117550000Y-96500000D03*
X136650000Y-96500000D03*
X94850000Y-98800000D03*
X136650000Y-101350000D03*
X94850000Y-127950000D03*
X136650000Y-92350000D03*
%TO.N,Net-(BT1-+)*%
X89650000Y-108150000D03*
X93825000Y-112325000D03*
%TO.N,/D4*%
X114205000Y-134020000D03*
X114205000Y-116550000D03*
%TO.N,/D3*%
X112935000Y-134015000D03*
X112935000Y-116550000D03*
%TO.N,/D2*%
X111665000Y-113900000D03*
X111665000Y-134035000D03*
%TO.N,/D1*%
X110395000Y-113900000D03*
X110400000Y-133950000D03*
%TO.N,VBUS*%
X144900000Y-152500000D03*
X154050000Y-132000000D03*
%TO.N,+5V*%
X97318750Y-113868750D03*
X136150000Y-106250000D03*
%TO.N,/GPS_TX*%
X91450000Y-114750000D03*
%TO.N,/GPS_RX*%
X92500000Y-114750000D03*
%TO.N,/EN*%
X97150000Y-97000000D03*
%TO.N,/BOOT*%
X106200000Y-101800000D03*
%TO.N,/RX*%
X105600000Y-96700000D03*
%TO.N,/TX*%
X106600000Y-95850000D03*
%TO.N,GNDA*%
X144250000Y-145350000D03*
X149950000Y-112600000D03*
X149400000Y-133600000D03*
X134500000Y-134850000D03*
X130250000Y-113050000D03*
X145650000Y-130400000D03*
X155725000Y-116325000D03*
X146025000Y-115375000D03*
X136275000Y-127675000D03*
X128650000Y-125500000D03*
X150225000Y-121225000D03*
X140975000Y-118000000D03*
X124200000Y-122800000D03*
X129850000Y-117950000D03*
X144800000Y-122650000D03*
X124350000Y-134650000D03*
X143725000Y-127675000D03*
X157612500Y-129987500D03*
X145200000Y-136800000D03*
X135300000Y-122800000D03*
X139500000Y-125505000D03*
X153150000Y-130400000D03*
X132600000Y-127700000D03*
X154750000Y-120450000D03*
X146950000Y-145350000D03*
X147650000Y-109450000D03*
X154350000Y-122250000D03*
X125250000Y-127650000D03*
%TO.N,/SCL2*%
X102850000Y-115250000D03*
%TO.N,/DBGTX*%
X83950000Y-115750000D03*
%TO.N,/DBGRX*%
X84850000Y-116250000D03*
%TO.N,/DTR*%
X86550000Y-98550000D03*
X84700000Y-95150000D03*
%TD*%
D22*
%TO.N,+3V3*%
X71050000Y-113500000D02*
X71050000Y-100940000D01*
X136650000Y-96500000D02*
X136650000Y-92350000D01*
X94850000Y-113300000D02*
X94850000Y-127950000D01*
X94850000Y-111400000D02*
X94850000Y-113300000D01*
X136650000Y-96500000D02*
X136650000Y-101350000D01*
X71050000Y-100940000D02*
X70050000Y-99940000D01*
X117550000Y-96500000D02*
X136650000Y-96500000D01*
X94850000Y-98800000D02*
X94850000Y-111400000D01*
X71050000Y-113500000D02*
X94850000Y-113500000D01*
%TO.N,Net-(BT1-+)*%
X89650000Y-108150000D02*
X93825000Y-112325000D01*
D23*
%TO.N,/D4*%
X114205000Y-134020000D02*
X117500000Y-130725000D01*
X114200000Y-134025000D02*
X114205000Y-134020000D01*
X117500000Y-119845000D02*
X114205000Y-116550000D01*
X117500000Y-130725000D02*
X117500000Y-119845000D01*
%TO.N,/D3*%
X116600000Y-130350000D02*
X116600000Y-120215000D01*
X116600000Y-120215000D02*
X112935000Y-116550000D01*
X112935000Y-134015000D02*
X116600000Y-130350000D01*
%TO.N,/D2*%
X108700000Y-116865000D02*
X111665000Y-113900000D01*
X111665000Y-134035000D02*
X108700000Y-131070000D01*
X108700000Y-131070000D02*
X108700000Y-116865000D01*
%TO.N,/D1*%
X107850000Y-116445000D02*
X107850000Y-131400000D01*
X107850000Y-131400000D02*
X110400000Y-133950000D01*
X110395000Y-113900000D02*
X107850000Y-116445000D01*
D24*
%TO.N,VBUS*%
X145800000Y-140250000D02*
X145800000Y-142000000D01*
X154050000Y-132000000D02*
X145800000Y-140250000D01*
D23*
X75550000Y-147750000D02*
X75550000Y-148300000D01*
X75550000Y-147700000D02*
X75550000Y-148300000D01*
D24*
X145800000Y-142000000D02*
X145800000Y-151600000D01*
X145800000Y-151600000D02*
X144900000Y-152500000D01*
D25*
%TO.N,+5V*%
X104937500Y-106250000D02*
X136150000Y-106250000D01*
X97318750Y-113868750D02*
X104937500Y-106250000D01*
D22*
%TO.N,/GPS_TX*%
X91450000Y-129000000D02*
X93550000Y-131100000D01*
X93550000Y-131100000D02*
X93550000Y-142800000D01*
X91450000Y-114750000D02*
X91450000Y-129000000D01*
%TO.N,/GPS_RX*%
X97750000Y-133700000D02*
X97750000Y-142800000D01*
X92500000Y-128450000D02*
X97750000Y-133700000D01*
X92500000Y-114750000D02*
X92500000Y-128450000D01*
D23*
%TO.N,/EN*%
X97150000Y-97000000D02*
X95450000Y-97000000D01*
X95450000Y-97000000D02*
X93700000Y-95250000D01*
%TO.N,/BOOT*%
X100350000Y-101800000D02*
X96150000Y-97600000D01*
X96150000Y-97600000D02*
X93700000Y-97600000D01*
X106200000Y-101800000D02*
X100350000Y-101800000D01*
%TO.N,/RX*%
X105600000Y-96700000D02*
X103250000Y-94350000D01*
X103250000Y-94350000D02*
X73100000Y-94350000D01*
X73100000Y-94350000D02*
X70050000Y-97400000D01*
%TO.N,/TX*%
X71760000Y-93150000D02*
X70050000Y-94860000D01*
X106600000Y-95850000D02*
X103900000Y-93150000D01*
X103900000Y-93150000D02*
X71760000Y-93150000D01*
%TO.N,/SCL2*%
X108950000Y-114000000D02*
X108950000Y-113175000D01*
X102850000Y-115250000D02*
X107700000Y-115250000D01*
X107700000Y-115250000D02*
X108950000Y-114000000D01*
D22*
%TO.N,/DBGTX*%
X82450000Y-141050000D02*
X82450000Y-142800000D01*
X83950000Y-141300000D02*
X82450000Y-142800000D01*
X83950000Y-115750000D02*
X83950000Y-141300000D01*
%TO.N,/DBGRX*%
X84850000Y-116250000D02*
X84850000Y-141000000D01*
X84850000Y-141000000D02*
X86650000Y-142800000D01*
D23*
%TO.N,/DTR*%
X84700000Y-96700000D02*
X86550000Y-98550000D01*
X84700000Y-95150000D02*
X84700000Y-96700000D01*
%TD*%
%TA.AperFunction,Conductor*%
%TO.N,GND*%
G36*
X119743039Y-92769685D02*
G01*
X119788794Y-92822489D01*
X119800000Y-92874000D01*
X119800000Y-95725500D01*
X119780315Y-95792539D01*
X119727511Y-95838294D01*
X119676000Y-95849500D01*
X118055068Y-95849500D01*
X117989096Y-95830494D01*
X117899522Y-95774210D01*
X117899518Y-95774209D01*
X117729262Y-95714633D01*
X117729249Y-95714630D01*
X117550004Y-95694435D01*
X117549996Y-95694435D01*
X117370750Y-95714630D01*
X117370745Y-95714631D01*
X117200476Y-95774211D01*
X117047737Y-95870184D01*
X116920184Y-95997737D01*
X116824211Y-96150476D01*
X116764631Y-96320745D01*
X116764630Y-96320750D01*
X116744435Y-96499996D01*
X116744435Y-96500003D01*
X116764630Y-96679249D01*
X116764631Y-96679254D01*
X116824211Y-96849523D01*
X116907390Y-96981900D01*
X116920184Y-97002262D01*
X117047738Y-97129816D01*
X117138080Y-97186582D01*
X117196021Y-97222989D01*
X117200478Y-97225789D01*
X117339686Y-97274500D01*
X117370745Y-97285368D01*
X117370750Y-97285369D01*
X117549996Y-97305565D01*
X117550000Y-97305565D01*
X117550004Y-97305565D01*
X117729249Y-97285369D01*
X117729251Y-97285368D01*
X117729255Y-97285368D01*
X117729258Y-97285366D01*
X117729262Y-97285366D01*
X117819377Y-97253832D01*
X117899522Y-97225789D01*
X117989096Y-97169505D01*
X118055068Y-97150500D01*
X135875500Y-97150500D01*
X135942539Y-97170185D01*
X135988294Y-97222989D01*
X135999500Y-97274500D01*
X135999500Y-100844931D01*
X135980494Y-100910903D01*
X135924211Y-101000477D01*
X135924209Y-101000481D01*
X135864633Y-101170737D01*
X135864630Y-101170750D01*
X135844435Y-101349996D01*
X135844435Y-101350003D01*
X135864630Y-101529249D01*
X135864631Y-101529254D01*
X135924211Y-101699523D01*
X135987347Y-101800003D01*
X136020184Y-101852262D01*
X136147738Y-101979816D01*
X136300478Y-102075789D01*
X136470745Y-102135368D01*
X136470750Y-102135369D01*
X136649996Y-102155565D01*
X136650000Y-102155565D01*
X136650004Y-102155565D01*
X136829249Y-102135369D01*
X136829252Y-102135368D01*
X136829255Y-102135368D01*
X136999522Y-102075789D01*
X137152262Y-101979816D01*
X137279816Y-101852262D01*
X137375789Y-101699522D01*
X137435368Y-101529255D01*
X137444244Y-101450478D01*
X137455565Y-101350003D01*
X137455565Y-101349996D01*
X137435369Y-101170750D01*
X137435366Y-101170737D01*
X137375790Y-101000481D01*
X137375789Y-101000478D01*
X137339976Y-100943482D01*
X137319506Y-100910903D01*
X137300500Y-100844931D01*
X137300500Y-97005067D01*
X137319507Y-96939094D01*
X137375788Y-96849524D01*
X137375789Y-96849522D01*
X137435368Y-96679255D01*
X137435904Y-96674500D01*
X137455565Y-96500003D01*
X137455565Y-96499996D01*
X137435369Y-96320750D01*
X137435366Y-96320737D01*
X137379280Y-96160456D01*
X137375789Y-96150478D01*
X137354008Y-96115814D01*
X137319506Y-96060903D01*
X137300500Y-95994931D01*
X137300500Y-92874000D01*
X137320185Y-92806961D01*
X137372989Y-92761206D01*
X137424500Y-92750000D01*
X149926000Y-92750000D01*
X149993039Y-92769685D01*
X150038794Y-92822489D01*
X150050000Y-92874000D01*
X150050000Y-106826000D01*
X150030315Y-106893039D01*
X149977511Y-106938794D01*
X149926000Y-106950000D01*
X136879614Y-106950000D01*
X136812575Y-106930315D01*
X136766820Y-106877511D01*
X136756876Y-106808353D01*
X136778044Y-106759375D01*
X136776110Y-106758160D01*
X136779816Y-106752262D01*
X136820931Y-106686825D01*
X136822777Y-106683979D01*
X136859389Y-106629186D01*
X136859394Y-106629179D01*
X136859720Y-106628390D01*
X136869287Y-106609868D01*
X136875789Y-106599522D01*
X136897023Y-106538837D01*
X136899484Y-106532389D01*
X136919737Y-106483497D01*
X136922448Y-106469862D01*
X136927023Y-106453100D01*
X136935368Y-106429255D01*
X136941110Y-106378283D01*
X136942707Y-106368017D01*
X136950500Y-106328842D01*
X136950500Y-106301914D01*
X136951280Y-106288029D01*
X136955565Y-106250001D01*
X136955565Y-106249998D01*
X136951280Y-106211969D01*
X136950500Y-106198085D01*
X136950500Y-106171157D01*
X136942711Y-106132003D01*
X136941110Y-106121714D01*
X136935368Y-106070745D01*
X136927023Y-106046898D01*
X136922449Y-106030139D01*
X136919737Y-106016503D01*
X136899484Y-105967607D01*
X136897028Y-105961175D01*
X136875789Y-105900478D01*
X136869289Y-105890134D01*
X136859719Y-105871606D01*
X136859394Y-105870821D01*
X136822790Y-105816040D01*
X136820905Y-105813131D01*
X136797552Y-105775965D01*
X136779816Y-105747738D01*
X136652262Y-105620184D01*
X136652260Y-105620182D01*
X136652257Y-105620180D01*
X136586900Y-105579114D01*
X136583982Y-105577223D01*
X136529179Y-105540605D01*
X136529173Y-105540603D01*
X136528365Y-105540268D01*
X136509865Y-105530709D01*
X136499524Y-105524212D01*
X136499523Y-105524211D01*
X136499522Y-105524211D01*
X136438867Y-105502986D01*
X136432377Y-105500509D01*
X136383496Y-105480262D01*
X136369860Y-105477550D01*
X136353104Y-105472976D01*
X136329260Y-105464633D01*
X136329256Y-105464632D01*
X136329255Y-105464632D01*
X136308575Y-105462301D01*
X136278303Y-105458890D01*
X136268003Y-105457288D01*
X136228844Y-105449500D01*
X136228842Y-105449500D01*
X136201915Y-105449500D01*
X136188031Y-105448720D01*
X136150002Y-105444435D01*
X136149998Y-105444435D01*
X136111969Y-105448720D01*
X136098085Y-105449500D01*
X104858653Y-105449500D01*
X104704010Y-105480260D01*
X104704002Y-105480262D01*
X104558324Y-105540604D01*
X104558314Y-105540609D01*
X104427211Y-105628210D01*
X104427207Y-105628213D01*
X100626296Y-109429124D01*
X100564973Y-109462609D01*
X100495281Y-109457625D01*
X100439348Y-109415753D01*
X100415295Y-109354407D01*
X100410262Y-109306518D01*
X100380150Y-109213844D01*
X100378156Y-109144006D01*
X100381895Y-109132210D01*
X100419091Y-109032483D01*
X100425500Y-108972873D01*
X100425499Y-108027128D01*
X100419091Y-107967517D01*
X100368796Y-107832669D01*
X100368795Y-107832668D01*
X100368793Y-107832664D01*
X100282547Y-107717455D01*
X100282544Y-107717452D01*
X100167335Y-107631206D01*
X100167328Y-107631202D01*
X100032482Y-107580908D01*
X100032483Y-107580908D01*
X99972883Y-107574501D01*
X99972881Y-107574500D01*
X99972873Y-107574500D01*
X99972864Y-107574500D01*
X99027129Y-107574500D01*
X99027123Y-107574501D01*
X98967516Y-107580908D01*
X98832671Y-107631202D01*
X98832664Y-107631206D01*
X98717455Y-107717452D01*
X98717452Y-107717455D01*
X98631206Y-107832664D01*
X98631202Y-107832671D01*
X98580908Y-107967517D01*
X98574501Y-108027116D01*
X98574501Y-108027123D01*
X98574500Y-108027135D01*
X98574500Y-108972870D01*
X98574501Y-108972876D01*
X98580908Y-109032483D01*
X98618099Y-109132195D01*
X98623083Y-109201887D01*
X98619848Y-109213845D01*
X98589740Y-109306511D01*
X98589738Y-109306516D01*
X98569402Y-109500000D01*
X98589738Y-109693483D01*
X98649856Y-109878510D01*
X98649857Y-109878511D01*
X98730159Y-110017597D01*
X98747130Y-110046992D01*
X98776685Y-110079816D01*
X98877302Y-110191564D01*
X98877305Y-110191566D01*
X98877308Y-110191569D01*
X98965391Y-110255565D01*
X99034702Y-110305923D01*
X99102926Y-110336297D01*
X99212429Y-110385051D01*
X99212431Y-110385051D01*
X99212432Y-110385052D01*
X99279059Y-110399213D01*
X99366706Y-110417843D01*
X99428187Y-110451035D01*
X99461964Y-110512198D01*
X99457312Y-110581912D01*
X99428606Y-110626814D01*
X96816488Y-113238934D01*
X96688936Y-113366485D01*
X96688930Y-113366492D01*
X96647842Y-113431882D01*
X96645954Y-113434797D01*
X96609354Y-113489574D01*
X96609350Y-113489582D01*
X96609016Y-113490389D01*
X96599463Y-113508877D01*
X96592962Y-113519224D01*
X96592960Y-113519227D01*
X96571732Y-113579890D01*
X96569254Y-113586381D01*
X96549014Y-113635246D01*
X96549013Y-113635252D01*
X96546300Y-113648890D01*
X96541725Y-113665648D01*
X96533384Y-113689485D01*
X96533382Y-113689492D01*
X96527640Y-113740446D01*
X96526038Y-113750744D01*
X96518250Y-113789902D01*
X96518250Y-113816835D01*
X96517470Y-113830719D01*
X96513185Y-113868748D01*
X96513185Y-113868751D01*
X96517470Y-113906779D01*
X96518250Y-113920664D01*
X96518250Y-113947594D01*
X96526038Y-113986753D01*
X96527640Y-113997053D01*
X96532907Y-114043793D01*
X96533382Y-114048002D01*
X96533383Y-114048010D01*
X96541726Y-114071854D01*
X96546300Y-114088610D01*
X96549012Y-114102246D01*
X96569259Y-114151127D01*
X96571736Y-114157617D01*
X96575896Y-114169506D01*
X96592962Y-114218274D01*
X96599459Y-114228615D01*
X96609018Y-114247115D01*
X96609353Y-114247923D01*
X96609355Y-114247929D01*
X96645973Y-114302732D01*
X96647864Y-114305650D01*
X96688930Y-114371007D01*
X96688932Y-114371010D01*
X96688934Y-114371012D01*
X96816488Y-114498566D01*
X96866222Y-114529816D01*
X96881881Y-114539655D01*
X96884790Y-114541540D01*
X96939571Y-114578144D01*
X96940356Y-114578469D01*
X96958884Y-114588039D01*
X96969228Y-114594539D01*
X97029925Y-114615778D01*
X97036357Y-114618234D01*
X97054597Y-114625789D01*
X97085247Y-114638485D01*
X97085248Y-114638485D01*
X97085253Y-114638487D01*
X97098889Y-114641199D01*
X97115648Y-114645773D01*
X97139495Y-114654118D01*
X97190464Y-114659860D01*
X97200742Y-114661459D01*
X97227890Y-114666859D01*
X97239907Y-114669250D01*
X97239908Y-114669250D01*
X97266835Y-114669250D01*
X97280719Y-114670030D01*
X97318748Y-114674315D01*
X97318750Y-114674315D01*
X97318752Y-114674315D01*
X97356781Y-114670030D01*
X97370665Y-114669250D01*
X97397591Y-114669250D01*
X97397592Y-114669250D01*
X97436767Y-114661457D01*
X97447033Y-114659860D01*
X97498005Y-114654118D01*
X97521850Y-114645773D01*
X97538612Y-114641198D01*
X97552247Y-114638487D01*
X97601139Y-114618234D01*
X97607587Y-114615773D01*
X97668272Y-114594539D01*
X97678618Y-114588037D01*
X97697140Y-114578470D01*
X97697929Y-114578144D01*
X97752737Y-114541521D01*
X97755575Y-114539681D01*
X97821012Y-114498566D01*
X97948566Y-114371012D01*
X105232759Y-107086819D01*
X105294082Y-107053334D01*
X105320440Y-107050500D01*
X132500138Y-107050500D01*
X132567177Y-107070185D01*
X132612932Y-107122989D01*
X132622876Y-107192147D01*
X132593851Y-107255703D01*
X132587819Y-107262181D01*
X122200000Y-117649999D01*
X122200000Y-151376000D01*
X122180315Y-151443039D01*
X122127511Y-151488794D01*
X122076000Y-151500000D01*
X68274000Y-151500000D01*
X68206961Y-151480315D01*
X68161206Y-151427511D01*
X68150000Y-151376000D01*
X68150000Y-147678751D01*
X69500000Y-147678751D01*
X69500000Y-148050000D01*
X70482096Y-148050000D01*
X70450000Y-148211358D01*
X70450000Y-148388642D01*
X70482096Y-148550000D01*
X69500000Y-148550000D01*
X69500000Y-148921248D01*
X69500001Y-148921264D01*
X69531653Y-149161687D01*
X69594421Y-149395939D01*
X69687220Y-149619978D01*
X69687227Y-149619993D01*
X69808480Y-149830009D01*
X69956110Y-150022405D01*
X69956116Y-150022412D01*
X70127587Y-150193883D01*
X70127594Y-150193889D01*
X70319990Y-150341519D01*
X70530006Y-150462772D01*
X70530021Y-150462779D01*
X70754060Y-150555578D01*
X70988312Y-150618346D01*
X71100000Y-150633049D01*
X71100000Y-149167904D01*
X71261358Y-149200000D01*
X71438642Y-149200000D01*
X71600000Y-149167904D01*
X71600000Y-150633048D01*
X71711687Y-150618346D01*
X71945939Y-150555578D01*
X72169978Y-150462779D01*
X72169993Y-150462772D01*
X72380009Y-150341519D01*
X72572405Y-150193889D01*
X72572412Y-150193883D01*
X72743883Y-150022412D01*
X72743889Y-150022405D01*
X72891519Y-149830009D01*
X73012772Y-149619993D01*
X73012779Y-149619978D01*
X73105578Y-149395939D01*
X73168346Y-149161687D01*
X73199998Y-148921264D01*
X73200000Y-148921248D01*
X73200000Y-148550000D01*
X72217904Y-148550000D01*
X72250000Y-148388642D01*
X72250000Y-148211358D01*
X72217904Y-148050000D01*
X73200000Y-148050000D01*
X73200000Y-147678751D01*
X73199998Y-147678735D01*
X73168346Y-147438312D01*
X73105578Y-147204060D01*
X73012779Y-146980021D01*
X73012772Y-146980006D01*
X72891519Y-146769990D01*
X72799436Y-146649984D01*
X73699500Y-146649984D01*
X73699500Y-149950015D01*
X73710000Y-150052795D01*
X73710001Y-150052796D01*
X73765186Y-150219335D01*
X73765187Y-150219337D01*
X73857286Y-150368651D01*
X73857289Y-150368655D01*
X73981344Y-150492710D01*
X73981348Y-150492713D01*
X74130662Y-150584812D01*
X74130664Y-150584813D01*
X74130666Y-150584814D01*
X74297203Y-150639999D01*
X74399992Y-150650500D01*
X74399997Y-150650500D01*
X76700003Y-150650500D01*
X76700008Y-150650500D01*
X76802797Y-150639999D01*
X76969334Y-150584814D01*
X77118655Y-150492711D01*
X77242711Y-150368655D01*
X77334814Y-150219334D01*
X77389999Y-150052797D01*
X77400500Y-149950008D01*
X77400500Y-147678751D01*
X80600000Y-147678751D01*
X80600000Y-148050000D01*
X81582096Y-148050000D01*
X81550000Y-148211358D01*
X81550000Y-148388642D01*
X81582096Y-148550000D01*
X80600000Y-148550000D01*
X80600000Y-148921248D01*
X80600001Y-148921264D01*
X80631653Y-149161687D01*
X80694421Y-149395939D01*
X80787220Y-149619978D01*
X80787227Y-149619993D01*
X80908480Y-149830009D01*
X81056110Y-150022405D01*
X81056116Y-150022412D01*
X81227587Y-150193883D01*
X81227594Y-150193889D01*
X81419990Y-150341519D01*
X81630006Y-150462772D01*
X81630021Y-150462779D01*
X81854060Y-150555578D01*
X82088312Y-150618346D01*
X82200000Y-150633049D01*
X82200000Y-149167904D01*
X82361358Y-149200000D01*
X82538642Y-149200000D01*
X82700000Y-149167904D01*
X82700000Y-150633048D01*
X82811687Y-150618346D01*
X83045939Y-150555578D01*
X83269978Y-150462779D01*
X83269993Y-150462772D01*
X83480009Y-150341519D01*
X83672405Y-150193889D01*
X83672412Y-150193883D01*
X83843883Y-150022412D01*
X83843889Y-150022405D01*
X83991519Y-149830009D01*
X84112772Y-149619993D01*
X84112779Y-149619978D01*
X84205578Y-149395939D01*
X84268346Y-149161687D01*
X84299998Y-148921264D01*
X84300000Y-148921248D01*
X84300000Y-148550000D01*
X83317904Y-148550000D01*
X83350000Y-148388642D01*
X83350000Y-148211358D01*
X83317904Y-148050000D01*
X84300000Y-148050000D01*
X84300000Y-147678751D01*
X84299998Y-147678735D01*
X84268346Y-147438312D01*
X84205578Y-147204060D01*
X84112779Y-146980021D01*
X84112772Y-146980006D01*
X83991519Y-146769990D01*
X83899436Y-146649984D01*
X84799500Y-146649984D01*
X84799500Y-149950015D01*
X84810000Y-150052795D01*
X84810001Y-150052796D01*
X84865186Y-150219335D01*
X84865187Y-150219337D01*
X84957286Y-150368651D01*
X84957289Y-150368655D01*
X85081344Y-150492710D01*
X85081348Y-150492713D01*
X85230662Y-150584812D01*
X85230664Y-150584813D01*
X85230666Y-150584814D01*
X85397203Y-150639999D01*
X85499992Y-150650500D01*
X85499997Y-150650500D01*
X87800003Y-150650500D01*
X87800008Y-150650500D01*
X87902797Y-150639999D01*
X88069334Y-150584814D01*
X88218655Y-150492711D01*
X88342711Y-150368655D01*
X88434814Y-150219334D01*
X88489999Y-150052797D01*
X88500500Y-149950008D01*
X88500500Y-147678751D01*
X91700000Y-147678751D01*
X91700000Y-148050000D01*
X92682096Y-148050000D01*
X92650000Y-148211358D01*
X92650000Y-148388642D01*
X92682096Y-148550000D01*
X91700000Y-148550000D01*
X91700000Y-148921248D01*
X91700001Y-148921264D01*
X91731653Y-149161687D01*
X91794421Y-149395939D01*
X91887220Y-149619978D01*
X91887227Y-149619993D01*
X92008480Y-149830009D01*
X92156110Y-150022405D01*
X92156116Y-150022412D01*
X92327587Y-150193883D01*
X92327594Y-150193889D01*
X92519990Y-150341519D01*
X92730006Y-150462772D01*
X92730021Y-150462779D01*
X92954060Y-150555578D01*
X93188312Y-150618346D01*
X93300000Y-150633049D01*
X93300000Y-149167904D01*
X93461358Y-149200000D01*
X93638642Y-149200000D01*
X93800000Y-149167904D01*
X93800000Y-150633048D01*
X93911687Y-150618346D01*
X94145939Y-150555578D01*
X94369978Y-150462779D01*
X94369993Y-150462772D01*
X94580009Y-150341519D01*
X94772405Y-150193889D01*
X94772412Y-150193883D01*
X94943883Y-150022412D01*
X94943889Y-150022405D01*
X95091519Y-149830009D01*
X95212772Y-149619993D01*
X95212779Y-149619978D01*
X95305578Y-149395939D01*
X95368346Y-149161687D01*
X95399998Y-148921264D01*
X95400000Y-148921248D01*
X95400000Y-148550000D01*
X94417904Y-148550000D01*
X94450000Y-148388642D01*
X94450000Y-148211358D01*
X94417904Y-148050000D01*
X95400000Y-148050000D01*
X95400000Y-147678751D01*
X95399998Y-147678735D01*
X95368346Y-147438312D01*
X95305578Y-147204060D01*
X95212779Y-146980021D01*
X95212772Y-146980006D01*
X95091519Y-146769990D01*
X94999436Y-146649984D01*
X95899500Y-146649984D01*
X95899500Y-149950015D01*
X95910000Y-150052795D01*
X95910001Y-150052796D01*
X95965186Y-150219335D01*
X95965187Y-150219337D01*
X96057286Y-150368651D01*
X96057289Y-150368655D01*
X96181344Y-150492710D01*
X96181348Y-150492713D01*
X96330662Y-150584812D01*
X96330664Y-150584813D01*
X96330666Y-150584814D01*
X96497203Y-150639999D01*
X96599992Y-150650500D01*
X96599997Y-150650500D01*
X98900003Y-150650500D01*
X98900008Y-150650500D01*
X99002797Y-150639999D01*
X99169334Y-150584814D01*
X99318655Y-150492711D01*
X99442711Y-150368655D01*
X99534814Y-150219334D01*
X99589999Y-150052797D01*
X99600500Y-149950008D01*
X99600500Y-147678751D01*
X102800000Y-147678751D01*
X102800000Y-148050000D01*
X103782096Y-148050000D01*
X103750000Y-148211358D01*
X103750000Y-148388642D01*
X103782096Y-148550000D01*
X102800000Y-148550000D01*
X102800000Y-148921248D01*
X102800001Y-148921264D01*
X102831653Y-149161687D01*
X102894421Y-149395939D01*
X102987220Y-149619978D01*
X102987227Y-149619993D01*
X103108480Y-149830009D01*
X103256110Y-150022405D01*
X103256116Y-150022412D01*
X103427587Y-150193883D01*
X103427594Y-150193889D01*
X103619990Y-150341519D01*
X103830006Y-150462772D01*
X103830021Y-150462779D01*
X104054060Y-150555578D01*
X104288312Y-150618346D01*
X104400000Y-150633049D01*
X104400000Y-149167904D01*
X104561358Y-149200000D01*
X104738642Y-149200000D01*
X104900000Y-149167904D01*
X104900000Y-150633048D01*
X105011687Y-150618346D01*
X105245939Y-150555578D01*
X105469978Y-150462779D01*
X105469993Y-150462772D01*
X105680009Y-150341519D01*
X105872405Y-150193889D01*
X105872412Y-150193883D01*
X106043883Y-150022412D01*
X106043889Y-150022405D01*
X106191519Y-149830009D01*
X106312772Y-149619993D01*
X106312779Y-149619978D01*
X106405578Y-149395939D01*
X106468346Y-149161687D01*
X106499998Y-148921264D01*
X106500000Y-148921248D01*
X106500000Y-148550000D01*
X105517904Y-148550000D01*
X105550000Y-148388642D01*
X105550000Y-148211358D01*
X105517904Y-148050000D01*
X106500000Y-148050000D01*
X106500000Y-147678751D01*
X106499998Y-147678735D01*
X106468346Y-147438312D01*
X106405578Y-147204060D01*
X106312779Y-146980021D01*
X106312772Y-146980006D01*
X106191519Y-146769990D01*
X106099436Y-146649984D01*
X106999500Y-146649984D01*
X106999500Y-149950015D01*
X107010000Y-150052795D01*
X107010001Y-150052796D01*
X107065186Y-150219335D01*
X107065187Y-150219337D01*
X107157286Y-150368651D01*
X107157289Y-150368655D01*
X107281344Y-150492710D01*
X107281348Y-150492713D01*
X107430662Y-150584812D01*
X107430664Y-150584813D01*
X107430666Y-150584814D01*
X107597203Y-150639999D01*
X107699992Y-150650500D01*
X107699997Y-150650500D01*
X110000003Y-150650500D01*
X110000008Y-150650500D01*
X110102797Y-150639999D01*
X110269334Y-150584814D01*
X110418655Y-150492711D01*
X110542711Y-150368655D01*
X110634814Y-150219334D01*
X110689999Y-150052797D01*
X110700500Y-149950008D01*
X110700500Y-147678751D01*
X113900000Y-147678751D01*
X113900000Y-148050000D01*
X114882096Y-148050000D01*
X114850000Y-148211358D01*
X114850000Y-148388642D01*
X114882096Y-148550000D01*
X113900000Y-148550000D01*
X113900000Y-148921248D01*
X113900001Y-148921264D01*
X113931653Y-149161687D01*
X113994421Y-149395939D01*
X114087220Y-149619978D01*
X114087227Y-149619993D01*
X114208480Y-149830009D01*
X114356110Y-150022405D01*
X114356116Y-150022412D01*
X114527587Y-150193883D01*
X114527594Y-150193889D01*
X114719990Y-150341519D01*
X114930006Y-150462772D01*
X114930021Y-150462779D01*
X115154060Y-150555578D01*
X115388312Y-150618346D01*
X115500000Y-150633049D01*
X115500000Y-149167904D01*
X115661358Y-149200000D01*
X115838642Y-149200000D01*
X116000000Y-149167904D01*
X116000000Y-150633048D01*
X116111687Y-150618346D01*
X116345939Y-150555578D01*
X116569978Y-150462779D01*
X116569993Y-150462772D01*
X116780009Y-150341519D01*
X116972405Y-150193889D01*
X116972412Y-150193883D01*
X117143883Y-150022412D01*
X117143889Y-150022405D01*
X117291519Y-149830009D01*
X117412772Y-149619993D01*
X117412779Y-149619978D01*
X117505578Y-149395939D01*
X117568346Y-149161687D01*
X117599998Y-148921264D01*
X117600000Y-148921248D01*
X117600000Y-148550000D01*
X116617904Y-148550000D01*
X116650000Y-148388642D01*
X116650000Y-148211358D01*
X116617904Y-148050000D01*
X117600000Y-148050000D01*
X117600000Y-147678751D01*
X117599998Y-147678735D01*
X117568346Y-147438312D01*
X117505578Y-147204060D01*
X117412779Y-146980021D01*
X117412772Y-146980006D01*
X117291519Y-146769990D01*
X117199436Y-146649984D01*
X118099500Y-146649984D01*
X118099500Y-149950015D01*
X118110000Y-150052795D01*
X118110001Y-150052796D01*
X118165186Y-150219335D01*
X118165187Y-150219337D01*
X118257286Y-150368651D01*
X118257289Y-150368655D01*
X118381344Y-150492710D01*
X118381348Y-150492713D01*
X118530662Y-150584812D01*
X118530664Y-150584813D01*
X118530666Y-150584814D01*
X118697203Y-150639999D01*
X118799992Y-150650500D01*
X118799997Y-150650500D01*
X121100003Y-150650500D01*
X121100008Y-150650500D01*
X121202797Y-150639999D01*
X121369334Y-150584814D01*
X121518655Y-150492711D01*
X121642711Y-150368655D01*
X121734814Y-150219334D01*
X121789999Y-150052797D01*
X121800500Y-149950008D01*
X121800500Y-146649992D01*
X121789999Y-146547203D01*
X121734814Y-146380666D01*
X121642711Y-146231345D01*
X121518655Y-146107289D01*
X121518651Y-146107286D01*
X121369337Y-146015187D01*
X121369335Y-146015186D01*
X121268138Y-145981653D01*
X121202797Y-145960001D01*
X121202795Y-145960000D01*
X121100015Y-145949500D01*
X121100008Y-145949500D01*
X118799992Y-145949500D01*
X118799984Y-145949500D01*
X118697204Y-145960000D01*
X118697203Y-145960001D01*
X118530664Y-146015186D01*
X118530662Y-146015187D01*
X118381348Y-146107286D01*
X118381344Y-146107289D01*
X118257289Y-146231344D01*
X118257286Y-146231348D01*
X118165187Y-146380662D01*
X118165186Y-146380664D01*
X118110001Y-146547203D01*
X118110000Y-146547204D01*
X118099500Y-146649984D01*
X117199436Y-146649984D01*
X117143889Y-146577594D01*
X117143883Y-146577587D01*
X116972412Y-146406116D01*
X116972405Y-146406110D01*
X116780009Y-146258480D01*
X116569993Y-146137227D01*
X116569978Y-146137220D01*
X116345939Y-146044421D01*
X116111687Y-145981653D01*
X116000000Y-145966948D01*
X116000000Y-147432095D01*
X115838642Y-147400000D01*
X115661358Y-147400000D01*
X115500000Y-147432095D01*
X115500000Y-145966948D01*
X115499999Y-145966948D01*
X115388312Y-145981653D01*
X115154060Y-146044421D01*
X114930021Y-146137220D01*
X114930006Y-146137227D01*
X114719990Y-146258480D01*
X114527594Y-146406110D01*
X114527587Y-146406116D01*
X114356116Y-146577587D01*
X114356110Y-146577594D01*
X114208480Y-146769990D01*
X114087227Y-146980006D01*
X114087220Y-146980021D01*
X113994421Y-147204060D01*
X113931653Y-147438312D01*
X113900001Y-147678735D01*
X113900000Y-147678751D01*
X110700500Y-147678751D01*
X110700500Y-146649992D01*
X110689999Y-146547203D01*
X110634814Y-146380666D01*
X110542711Y-146231345D01*
X110418655Y-146107289D01*
X110418651Y-146107286D01*
X110269337Y-146015187D01*
X110269335Y-146015186D01*
X110168138Y-145981653D01*
X110102797Y-145960001D01*
X110102795Y-145960000D01*
X110000015Y-145949500D01*
X110000008Y-145949500D01*
X107699992Y-145949500D01*
X107699984Y-145949500D01*
X107597204Y-145960000D01*
X107597203Y-145960001D01*
X107430664Y-146015186D01*
X107430662Y-146015187D01*
X107281348Y-146107286D01*
X107281344Y-146107289D01*
X107157289Y-146231344D01*
X107157286Y-146231348D01*
X107065187Y-146380662D01*
X107065186Y-146380664D01*
X107010001Y-146547203D01*
X107010000Y-146547204D01*
X106999500Y-146649984D01*
X106099436Y-146649984D01*
X106043889Y-146577594D01*
X106043883Y-146577587D01*
X105872412Y-146406116D01*
X105872405Y-146406110D01*
X105680009Y-146258480D01*
X105469993Y-146137227D01*
X105469978Y-146137220D01*
X105245939Y-146044421D01*
X105011687Y-145981653D01*
X104900000Y-145966948D01*
X104900000Y-147432095D01*
X104738642Y-147400000D01*
X104561358Y-147400000D01*
X104400000Y-147432095D01*
X104400000Y-145966948D01*
X104399999Y-145966948D01*
X104288312Y-145981653D01*
X104054060Y-146044421D01*
X103830021Y-146137220D01*
X103830006Y-146137227D01*
X103619990Y-146258480D01*
X103427594Y-146406110D01*
X103427587Y-146406116D01*
X103256116Y-146577587D01*
X103256110Y-146577594D01*
X103108480Y-146769990D01*
X102987227Y-146980006D01*
X102987220Y-146980021D01*
X102894421Y-147204060D01*
X102831653Y-147438312D01*
X102800001Y-147678735D01*
X102800000Y-147678751D01*
X99600500Y-147678751D01*
X99600500Y-146649992D01*
X99589999Y-146547203D01*
X99534814Y-146380666D01*
X99442711Y-146231345D01*
X99318655Y-146107289D01*
X99318651Y-146107286D01*
X99169337Y-146015187D01*
X99169335Y-146015186D01*
X99068138Y-145981653D01*
X99002797Y-145960001D01*
X99002795Y-145960000D01*
X98900015Y-145949500D01*
X98900008Y-145949500D01*
X96599992Y-145949500D01*
X96599984Y-145949500D01*
X96497204Y-145960000D01*
X96497203Y-145960001D01*
X96330664Y-146015186D01*
X96330662Y-146015187D01*
X96181348Y-146107286D01*
X96181344Y-146107289D01*
X96057289Y-146231344D01*
X96057286Y-146231348D01*
X95965187Y-146380662D01*
X95965186Y-146380664D01*
X95910001Y-146547203D01*
X95910000Y-146547204D01*
X95899500Y-146649984D01*
X94999436Y-146649984D01*
X94943889Y-146577594D01*
X94943883Y-146577587D01*
X94772412Y-146406116D01*
X94772405Y-146406110D01*
X94580009Y-146258480D01*
X94369993Y-146137227D01*
X94369978Y-146137220D01*
X94145939Y-146044421D01*
X93911687Y-145981653D01*
X93800000Y-145966948D01*
X93800000Y-147432095D01*
X93638642Y-147400000D01*
X93461358Y-147400000D01*
X93300000Y-147432095D01*
X93300000Y-145966948D01*
X93299999Y-145966948D01*
X93188312Y-145981653D01*
X92954060Y-146044421D01*
X92730021Y-146137220D01*
X92730006Y-146137227D01*
X92519990Y-146258480D01*
X92327594Y-146406110D01*
X92327587Y-146406116D01*
X92156116Y-146577587D01*
X92156110Y-146577594D01*
X92008480Y-146769990D01*
X91887227Y-146980006D01*
X91887220Y-146980021D01*
X91794421Y-147204060D01*
X91731653Y-147438312D01*
X91700001Y-147678735D01*
X91700000Y-147678751D01*
X88500500Y-147678751D01*
X88500500Y-146649992D01*
X88489999Y-146547203D01*
X88434814Y-146380666D01*
X88342711Y-146231345D01*
X88218655Y-146107289D01*
X88218651Y-146107286D01*
X88069337Y-146015187D01*
X88069335Y-146015186D01*
X87968138Y-145981653D01*
X87902797Y-145960001D01*
X87902795Y-145960000D01*
X87800015Y-145949500D01*
X87800008Y-145949500D01*
X85499992Y-145949500D01*
X85499984Y-145949500D01*
X85397204Y-145960000D01*
X85397203Y-145960001D01*
X85230664Y-146015186D01*
X85230662Y-146015187D01*
X85081348Y-146107286D01*
X85081344Y-146107289D01*
X84957289Y-146231344D01*
X84957286Y-146231348D01*
X84865187Y-146380662D01*
X84865186Y-146380664D01*
X84810001Y-146547203D01*
X84810000Y-146547204D01*
X84799500Y-146649984D01*
X83899436Y-146649984D01*
X83843889Y-146577594D01*
X83843883Y-146577587D01*
X83672412Y-146406116D01*
X83672405Y-146406110D01*
X83480009Y-146258480D01*
X83269993Y-146137227D01*
X83269978Y-146137220D01*
X83045939Y-146044421D01*
X82811687Y-145981653D01*
X82700000Y-145966948D01*
X82700000Y-147432095D01*
X82538642Y-147400000D01*
X82361358Y-147400000D01*
X82200000Y-147432095D01*
X82200000Y-145966948D01*
X82199999Y-145966948D01*
X82088312Y-145981653D01*
X81854060Y-146044421D01*
X81630021Y-146137220D01*
X81630006Y-146137227D01*
X81419990Y-146258480D01*
X81227594Y-146406110D01*
X81227587Y-146406116D01*
X81056116Y-146577587D01*
X81056110Y-146577594D01*
X80908480Y-146769990D01*
X80787227Y-146980006D01*
X80787220Y-146980021D01*
X80694421Y-147204060D01*
X80631653Y-147438312D01*
X80600001Y-147678735D01*
X80600000Y-147678751D01*
X77400500Y-147678751D01*
X77400500Y-146649992D01*
X77389999Y-146547203D01*
X77334814Y-146380666D01*
X77242711Y-146231345D01*
X77118655Y-146107289D01*
X77118651Y-146107286D01*
X76969337Y-146015187D01*
X76969335Y-146015186D01*
X76868138Y-145981653D01*
X76802797Y-145960001D01*
X76802795Y-145960000D01*
X76700015Y-145949500D01*
X76700008Y-145949500D01*
X74399992Y-145949500D01*
X74399984Y-145949500D01*
X74297204Y-145960000D01*
X74297203Y-145960001D01*
X74130664Y-146015186D01*
X74130662Y-146015187D01*
X73981348Y-146107286D01*
X73981344Y-146107289D01*
X73857289Y-146231344D01*
X73857286Y-146231348D01*
X73765187Y-146380662D01*
X73765186Y-146380664D01*
X73710001Y-146547203D01*
X73710000Y-146547204D01*
X73699500Y-146649984D01*
X72799436Y-146649984D01*
X72743889Y-146577594D01*
X72743883Y-146577587D01*
X72572412Y-146406116D01*
X72572405Y-146406110D01*
X72380009Y-146258480D01*
X72169993Y-146137227D01*
X72169978Y-146137220D01*
X71945939Y-146044421D01*
X71711687Y-145981653D01*
X71600000Y-145966948D01*
X71600000Y-147432095D01*
X71438642Y-147400000D01*
X71261358Y-147400000D01*
X71100000Y-147432095D01*
X71100000Y-145966948D01*
X71099999Y-145966948D01*
X70988312Y-145981653D01*
X70754060Y-146044421D01*
X70530021Y-146137220D01*
X70530006Y-146137227D01*
X70319990Y-146258480D01*
X70127594Y-146406110D01*
X70127587Y-146406116D01*
X69956116Y-146577587D01*
X69956110Y-146577594D01*
X69808480Y-146769990D01*
X69687227Y-146980006D01*
X69687220Y-146980021D01*
X69594421Y-147204060D01*
X69531653Y-147438312D01*
X69500001Y-147678735D01*
X69500000Y-147678751D01*
X68150000Y-147678751D01*
X68150000Y-142178711D01*
X69499500Y-142178711D01*
X69499500Y-143421288D01*
X69531161Y-143661785D01*
X69593947Y-143896104D01*
X69686773Y-144120205D01*
X69686776Y-144120212D01*
X69808064Y-144330289D01*
X69808066Y-144330292D01*
X69808067Y-144330293D01*
X69955733Y-144522736D01*
X69955739Y-144522743D01*
X70127256Y-144694260D01*
X70127262Y-144694265D01*
X70319711Y-144841936D01*
X70529788Y-144963224D01*
X70753900Y-145056054D01*
X70988211Y-145118838D01*
X71168586Y-145142584D01*
X71228711Y-145150500D01*
X71228712Y-145150500D01*
X71471289Y-145150500D01*
X71519388Y-145144167D01*
X71711789Y-145118838D01*
X71946100Y-145056054D01*
X72170212Y-144963224D01*
X72380289Y-144841936D01*
X72572738Y-144694265D01*
X72744265Y-144522738D01*
X72891936Y-144330289D01*
X73013224Y-144120212D01*
X73106054Y-143896100D01*
X73168838Y-143661789D01*
X73200500Y-143421288D01*
X73200500Y-142178712D01*
X73200500Y-142178711D01*
X73699500Y-142178711D01*
X73699500Y-143421288D01*
X73731161Y-143661785D01*
X73793947Y-143896104D01*
X73886773Y-144120205D01*
X73886776Y-144120212D01*
X74008064Y-144330289D01*
X74008066Y-144330292D01*
X74008067Y-144330293D01*
X74155733Y-144522736D01*
X74155739Y-144522743D01*
X74327256Y-144694260D01*
X74327262Y-144694265D01*
X74519711Y-144841936D01*
X74729788Y-144963224D01*
X74953900Y-145056054D01*
X75188211Y-145118838D01*
X75368586Y-145142584D01*
X75428711Y-145150500D01*
X75428712Y-145150500D01*
X75671289Y-145150500D01*
X75719388Y-145144167D01*
X75911789Y-145118838D01*
X76146100Y-145056054D01*
X76370212Y-144963224D01*
X76580289Y-144841936D01*
X76772738Y-144694265D01*
X76944265Y-144522738D01*
X77091936Y-144330289D01*
X77213224Y-144120212D01*
X77306054Y-143896100D01*
X77368838Y-143661789D01*
X77400500Y-143421288D01*
X77400500Y-142178712D01*
X77400500Y-142178711D01*
X80599500Y-142178711D01*
X80599500Y-143421288D01*
X80631161Y-143661785D01*
X80693947Y-143896104D01*
X80786773Y-144120205D01*
X80786776Y-144120212D01*
X80908064Y-144330289D01*
X80908066Y-144330292D01*
X80908067Y-144330293D01*
X81055733Y-144522736D01*
X81055739Y-144522743D01*
X81227256Y-144694260D01*
X81227262Y-144694265D01*
X81419711Y-144841936D01*
X81629788Y-144963224D01*
X81853900Y-145056054D01*
X82088211Y-145118838D01*
X82268586Y-145142584D01*
X82328711Y-145150500D01*
X82328712Y-145150500D01*
X82571289Y-145150500D01*
X82619388Y-145144167D01*
X82811789Y-145118838D01*
X83046100Y-145056054D01*
X83270212Y-144963224D01*
X83480289Y-144841936D01*
X83672738Y-144694265D01*
X83844265Y-144522738D01*
X83991936Y-144330289D01*
X84113224Y-144120212D01*
X84206054Y-143896100D01*
X84268838Y-143661789D01*
X84300500Y-143421288D01*
X84300500Y-142178712D01*
X84272502Y-141966047D01*
X84283267Y-141897015D01*
X84307760Y-141862185D01*
X84392668Y-141777277D01*
X84459585Y-141710362D01*
X84460849Y-141711626D01*
X84511620Y-141677041D01*
X84581465Y-141675168D01*
X84637412Y-141707358D01*
X84792239Y-141862185D01*
X84825724Y-141923508D01*
X84827497Y-141966051D01*
X84799500Y-142178711D01*
X84799500Y-143421288D01*
X84831161Y-143661785D01*
X84893947Y-143896104D01*
X84986773Y-144120205D01*
X84986776Y-144120212D01*
X85108064Y-144330289D01*
X85108066Y-144330292D01*
X85108067Y-144330293D01*
X85255733Y-144522736D01*
X85255739Y-144522743D01*
X85427256Y-144694260D01*
X85427262Y-144694265D01*
X85619711Y-144841936D01*
X85829788Y-144963224D01*
X86053900Y-145056054D01*
X86288211Y-145118838D01*
X86468586Y-145142584D01*
X86528711Y-145150500D01*
X86528712Y-145150500D01*
X86771289Y-145150500D01*
X86819388Y-145144167D01*
X87011789Y-145118838D01*
X87246100Y-145056054D01*
X87470212Y-144963224D01*
X87680289Y-144841936D01*
X87872738Y-144694265D01*
X88044265Y-144522738D01*
X88191936Y-144330289D01*
X88313224Y-144120212D01*
X88406054Y-143896100D01*
X88468838Y-143661789D01*
X88500500Y-143421288D01*
X88500500Y-142178712D01*
X88468838Y-141938211D01*
X88406054Y-141703900D01*
X88313224Y-141479788D01*
X88191936Y-141269711D01*
X88044265Y-141077262D01*
X88044260Y-141077256D01*
X87872743Y-140905739D01*
X87872736Y-140905733D01*
X87680293Y-140758067D01*
X87680292Y-140758066D01*
X87680289Y-140758064D01*
X87470212Y-140636776D01*
X87470205Y-140636773D01*
X87246104Y-140543947D01*
X87011785Y-140481161D01*
X86771289Y-140449500D01*
X86771288Y-140449500D01*
X86528712Y-140449500D01*
X86528711Y-140449500D01*
X86288214Y-140481161D01*
X86053895Y-140543947D01*
X85829794Y-140636773D01*
X85829784Y-140636777D01*
X85686500Y-140719503D01*
X85618600Y-140735976D01*
X85552573Y-140713123D01*
X85509382Y-140658202D01*
X85500500Y-140612116D01*
X85500500Y-116755067D01*
X85519507Y-116689094D01*
X85575788Y-116599524D01*
X85613565Y-116491564D01*
X85635368Y-116429255D01*
X85635369Y-116429249D01*
X85655565Y-116250003D01*
X85655565Y-116249996D01*
X85635369Y-116070750D01*
X85635368Y-116070745D01*
X85630056Y-116055565D01*
X85575789Y-115900478D01*
X85561201Y-115877262D01*
X85490431Y-115764632D01*
X85479816Y-115747738D01*
X85352262Y-115620184D01*
X85319379Y-115599522D01*
X85199523Y-115524211D01*
X85029254Y-115464631D01*
X85029249Y-115464630D01*
X84850004Y-115444435D01*
X84850001Y-115444435D01*
X84850000Y-115444435D01*
X84790523Y-115451135D01*
X84721702Y-115439080D01*
X84671648Y-115393887D01*
X84581237Y-115250000D01*
X84579816Y-115247738D01*
X84452262Y-115120184D01*
X84433564Y-115108435D01*
X84299523Y-115024211D01*
X84129254Y-114964631D01*
X84129249Y-114964630D01*
X83950004Y-114944435D01*
X83949996Y-114944435D01*
X83770750Y-114964630D01*
X83770745Y-114964631D01*
X83600476Y-115024211D01*
X83447737Y-115120184D01*
X83320184Y-115247737D01*
X83224211Y-115400476D01*
X83164631Y-115570745D01*
X83164630Y-115570750D01*
X83144435Y-115749996D01*
X83144435Y-115750003D01*
X83164630Y-115929249D01*
X83164631Y-115929254D01*
X83224211Y-116099524D01*
X83280493Y-116189094D01*
X83299500Y-116255067D01*
X83299500Y-140463328D01*
X83279815Y-140530367D01*
X83227011Y-140576122D01*
X83157853Y-140586066D01*
X83128048Y-140577889D01*
X83046107Y-140543948D01*
X83031959Y-140540157D01*
X82811789Y-140481162D01*
X82802329Y-140479916D01*
X82776298Y-140476489D01*
X82745035Y-140468111D01*
X82639748Y-140424500D01*
X82639738Y-140424497D01*
X82514071Y-140399500D01*
X82514069Y-140399500D01*
X82385931Y-140399500D01*
X82385929Y-140399500D01*
X82260261Y-140424497D01*
X82260251Y-140424500D01*
X82154965Y-140468111D01*
X82123701Y-140476489D01*
X82088216Y-140481161D01*
X82088211Y-140481162D01*
X81853895Y-140543947D01*
X81629794Y-140636773D01*
X81629785Y-140636777D01*
X81419706Y-140758067D01*
X81227263Y-140905733D01*
X81227256Y-140905739D01*
X81055739Y-141077256D01*
X81055733Y-141077263D01*
X80908067Y-141269706D01*
X80786777Y-141479785D01*
X80786773Y-141479794D01*
X80693947Y-141703895D01*
X80631161Y-141938214D01*
X80599500Y-142178711D01*
X77400500Y-142178711D01*
X77368838Y-141938211D01*
X77306054Y-141703900D01*
X77213224Y-141479788D01*
X77091936Y-141269711D01*
X76944265Y-141077262D01*
X76944260Y-141077256D01*
X76772743Y-140905739D01*
X76772736Y-140905733D01*
X76580293Y-140758067D01*
X76580292Y-140758066D01*
X76580289Y-140758064D01*
X76370212Y-140636776D01*
X76370205Y-140636773D01*
X76146104Y-140543947D01*
X75911785Y-140481161D01*
X75671289Y-140449500D01*
X75671288Y-140449500D01*
X75428712Y-140449500D01*
X75428711Y-140449500D01*
X75188214Y-140481161D01*
X74953895Y-140543947D01*
X74729794Y-140636773D01*
X74729785Y-140636777D01*
X74519706Y-140758067D01*
X74327263Y-140905733D01*
X74327256Y-140905739D01*
X74155739Y-141077256D01*
X74155733Y-141077263D01*
X74008067Y-141269706D01*
X73886777Y-141479785D01*
X73886773Y-141479794D01*
X73793947Y-141703895D01*
X73731161Y-141938214D01*
X73699500Y-142178711D01*
X73200500Y-142178711D01*
X73168838Y-141938211D01*
X73106054Y-141703900D01*
X73013224Y-141479788D01*
X72891936Y-141269711D01*
X72744265Y-141077262D01*
X72744260Y-141077256D01*
X72572743Y-140905739D01*
X72572736Y-140905733D01*
X72380293Y-140758067D01*
X72380292Y-140758066D01*
X72380289Y-140758064D01*
X72170212Y-140636776D01*
X72170205Y-140636773D01*
X71946104Y-140543947D01*
X71711785Y-140481161D01*
X71471289Y-140449500D01*
X71471288Y-140449500D01*
X71228712Y-140449500D01*
X71228711Y-140449500D01*
X70988214Y-140481161D01*
X70753895Y-140543947D01*
X70529794Y-140636773D01*
X70529785Y-140636777D01*
X70319706Y-140758067D01*
X70127263Y-140905733D01*
X70127256Y-140905739D01*
X69955739Y-141077256D01*
X69955733Y-141077263D01*
X69808067Y-141269706D01*
X69686777Y-141479785D01*
X69686773Y-141479794D01*
X69593947Y-141703895D01*
X69531161Y-141938214D01*
X69499500Y-142178711D01*
X68150000Y-142178711D01*
X68150000Y-140478111D01*
X68169685Y-140411072D01*
X68222489Y-140365317D01*
X68280490Y-140354281D01*
X68300000Y-140355304D01*
X68666404Y-140336102D01*
X69028794Y-140278705D01*
X69383199Y-140183742D01*
X69725736Y-140052255D01*
X70052652Y-139885682D01*
X70360366Y-139685851D01*
X70645506Y-139454949D01*
X70904949Y-139195506D01*
X71135851Y-138910366D01*
X71335682Y-138602652D01*
X71502255Y-138275736D01*
X71633742Y-137933199D01*
X71728705Y-137578794D01*
X71786102Y-137216404D01*
X71805304Y-136850000D01*
X71786102Y-136483596D01*
X71728705Y-136121206D01*
X71633742Y-135766801D01*
X71625024Y-135744091D01*
X71563013Y-135582546D01*
X71502255Y-135424264D01*
X71335682Y-135097348D01*
X71291462Y-135029255D01*
X71135852Y-134789635D01*
X70967111Y-134581258D01*
X70904949Y-134504494D01*
X70645506Y-134245051D01*
X70481613Y-134112333D01*
X70360364Y-134014147D01*
X70052656Y-133814320D01*
X69725739Y-133647746D01*
X69383206Y-133516260D01*
X69370062Y-133512738D01*
X69028794Y-133421295D01*
X69028790Y-133421294D01*
X69028789Y-133421294D01*
X68666405Y-133363898D01*
X68300001Y-133344696D01*
X68299996Y-133344696D01*
X68280487Y-133345718D01*
X68212510Y-133329568D01*
X68164055Y-133279230D01*
X68150000Y-133221888D01*
X68150000Y-130723903D01*
X68169685Y-130656864D01*
X68222489Y-130611109D01*
X68291647Y-130601165D01*
X68355203Y-130630190D01*
X68386380Y-130671496D01*
X68420499Y-130744663D01*
X68435965Y-130777830D01*
X68435967Y-130777834D01*
X68523093Y-130902262D01*
X68571505Y-130971401D01*
X68738599Y-131138495D01*
X68834385Y-131205565D01*
X68932165Y-131274032D01*
X68932167Y-131274033D01*
X68932170Y-131274035D01*
X69146337Y-131373903D01*
X69374592Y-131435063D01*
X69551034Y-131450500D01*
X69609999Y-131455659D01*
X69610000Y-131455659D01*
X69610001Y-131455659D01*
X69668966Y-131450500D01*
X69845408Y-131435063D01*
X70073663Y-131373903D01*
X70287830Y-131274035D01*
X70481401Y-131138495D01*
X70603329Y-131016566D01*
X70664648Y-130983084D01*
X70734340Y-130988068D01*
X70790274Y-131029939D01*
X70807189Y-131060917D01*
X70856202Y-131192328D01*
X70856206Y-131192335D01*
X70942452Y-131307544D01*
X70942455Y-131307547D01*
X71057664Y-131393793D01*
X71057671Y-131393797D01*
X71192517Y-131444091D01*
X71192516Y-131444091D01*
X71199444Y-131444835D01*
X71252127Y-131450500D01*
X73047872Y-131450499D01*
X73107483Y-131444091D01*
X73242331Y-131393796D01*
X73357546Y-131307546D01*
X73443796Y-131192331D01*
X73494091Y-131057483D01*
X73500500Y-130997873D01*
X73500500Y-130572844D01*
X78825000Y-130572844D01*
X78831401Y-130632372D01*
X78831403Y-130632379D01*
X78881645Y-130767086D01*
X78881649Y-130767093D01*
X78967809Y-130882187D01*
X78967812Y-130882190D01*
X79082906Y-130968350D01*
X79082913Y-130968354D01*
X79217620Y-131018596D01*
X79217627Y-131018598D01*
X79277155Y-131024999D01*
X79277172Y-131025000D01*
X80550000Y-131025000D01*
X80550000Y-130778553D01*
X80549999Y-130778552D01*
X81050000Y-130778552D01*
X81050000Y-131025000D01*
X82322828Y-131025000D01*
X82322844Y-131024999D01*
X82382372Y-131018598D01*
X82382379Y-131018596D01*
X82517086Y-130968354D01*
X82517093Y-130968350D01*
X82632187Y-130882190D01*
X82632190Y-130882187D01*
X82718350Y-130767093D01*
X82718354Y-130767086D01*
X82768596Y-130632379D01*
X82768598Y-130632372D01*
X82774999Y-130572844D01*
X82775000Y-130572827D01*
X82775000Y-128525000D01*
X82103552Y-128525000D01*
X81753553Y-128875000D01*
X82146704Y-129268151D01*
X82180189Y-129329474D01*
X82175205Y-129399166D01*
X82146704Y-129443513D01*
X82115218Y-129474999D01*
X82146704Y-129506485D01*
X82180189Y-129567808D01*
X82175205Y-129637500D01*
X82146704Y-129681848D01*
X81576777Y-130251777D01*
X81050000Y-130778552D01*
X80549999Y-130778552D01*
X80023223Y-130251777D01*
X79816609Y-130045163D01*
X80050000Y-130045163D01*
X80050000Y-130104837D01*
X80072836Y-130159968D01*
X80115032Y-130202164D01*
X80170163Y-130225000D01*
X80229837Y-130225000D01*
X80284968Y-130202164D01*
X80327164Y-130159968D01*
X80350000Y-130104837D01*
X80350000Y-130045163D01*
X81250000Y-130045163D01*
X81250000Y-130104837D01*
X81272836Y-130159968D01*
X81315032Y-130202164D01*
X81370163Y-130225000D01*
X81429837Y-130225000D01*
X81484968Y-130202164D01*
X81527164Y-130159968D01*
X81550000Y-130104837D01*
X81550000Y-130045163D01*
X81527164Y-129990032D01*
X81484968Y-129947836D01*
X81429837Y-129925000D01*
X81370163Y-129925000D01*
X81315032Y-129947836D01*
X81272836Y-129990032D01*
X81250000Y-130045163D01*
X80350000Y-130045163D01*
X80327164Y-129990032D01*
X80284968Y-129947836D01*
X80229837Y-129925000D01*
X80170163Y-129925000D01*
X80115032Y-129947836D01*
X80072836Y-129990032D01*
X80050000Y-130045163D01*
X79816609Y-130045163D01*
X79453294Y-129681848D01*
X79419809Y-129620525D01*
X79424793Y-129550833D01*
X79453294Y-129506485D01*
X79484780Y-129474999D01*
X79953553Y-129474999D01*
X80200000Y-129721446D01*
X80446446Y-129475001D01*
X80446446Y-129475000D01*
X80446445Y-129474999D01*
X81153553Y-129474999D01*
X81400000Y-129721446D01*
X81646446Y-129475001D01*
X81646446Y-129475000D01*
X81400000Y-129228553D01*
X81153553Y-129474999D01*
X80446445Y-129474999D01*
X80200000Y-129228553D01*
X79953553Y-129474999D01*
X79484780Y-129474999D01*
X79453295Y-129443514D01*
X79419810Y-129382191D01*
X79424794Y-129312499D01*
X79453295Y-129268152D01*
X79846446Y-128875001D01*
X79846446Y-128874999D01*
X79816610Y-128845163D01*
X80050000Y-128845163D01*
X80050000Y-128904837D01*
X80072836Y-128959968D01*
X80115032Y-129002164D01*
X80170163Y-129025000D01*
X80229837Y-129025000D01*
X80284968Y-129002164D01*
X80327164Y-128959968D01*
X80350000Y-128904837D01*
X80350000Y-128845163D01*
X81250000Y-128845163D01*
X81250000Y-128904837D01*
X81272836Y-128959968D01*
X81315032Y-129002164D01*
X81370163Y-129025000D01*
X81429837Y-129025000D01*
X81484968Y-129002164D01*
X81527164Y-128959968D01*
X81550000Y-128904837D01*
X81550000Y-128845163D01*
X81527164Y-128790032D01*
X81484968Y-128747836D01*
X81429837Y-128725000D01*
X81370163Y-128725000D01*
X81315032Y-128747836D01*
X81272836Y-128790032D01*
X81250000Y-128845163D01*
X80350000Y-128845163D01*
X80327164Y-128790032D01*
X80284968Y-128747836D01*
X80229837Y-128725000D01*
X80170163Y-128725000D01*
X80115032Y-128747836D01*
X80072836Y-128790032D01*
X80050000Y-128845163D01*
X79816610Y-128845163D01*
X79496447Y-128525000D01*
X78825000Y-128525000D01*
X78825000Y-130572844D01*
X73500500Y-130572844D01*
X73500499Y-129202128D01*
X73494091Y-129142517D01*
X73492810Y-129139083D01*
X73443797Y-129007671D01*
X73443793Y-129007664D01*
X73357547Y-128892455D01*
X73357544Y-128892452D01*
X73242335Y-128806206D01*
X73242328Y-128806202D01*
X73107482Y-128755908D01*
X73107483Y-128755908D01*
X73047883Y-128749501D01*
X73047881Y-128749500D01*
X73047873Y-128749500D01*
X73047864Y-128749500D01*
X71252129Y-128749500D01*
X71252123Y-128749501D01*
X71192516Y-128755908D01*
X71057671Y-128806202D01*
X71057664Y-128806206D01*
X70942455Y-128892452D01*
X70942452Y-128892455D01*
X70856206Y-129007664D01*
X70856203Y-129007669D01*
X70807189Y-129139083D01*
X70765317Y-129195016D01*
X70699853Y-129219433D01*
X70631580Y-129204581D01*
X70603326Y-129183430D01*
X70481402Y-129061506D01*
X70481395Y-129061501D01*
X70287834Y-128925967D01*
X70287830Y-128925965D01*
X70242521Y-128904837D01*
X70073663Y-128826097D01*
X70073659Y-128826096D01*
X70073655Y-128826094D01*
X69845413Y-128764938D01*
X69845403Y-128764936D01*
X69610001Y-128744341D01*
X69609999Y-128744341D01*
X69374596Y-128764936D01*
X69374586Y-128764938D01*
X69146344Y-128826094D01*
X69146335Y-128826098D01*
X68932171Y-128925964D01*
X68932169Y-128925965D01*
X68738597Y-129061505D01*
X68571505Y-129228597D01*
X68435965Y-129422169D01*
X68435964Y-129422171D01*
X68386382Y-129528501D01*
X68340210Y-129580940D01*
X68273016Y-129600092D01*
X68206135Y-129579876D01*
X68160800Y-129526711D01*
X68150000Y-129476096D01*
X68150000Y-125977155D01*
X78825000Y-125977155D01*
X78825000Y-128025000D01*
X79396447Y-128025000D01*
X80103554Y-128025000D01*
X80296445Y-128025000D01*
X81303554Y-128025000D01*
X81496445Y-128025000D01*
X81400000Y-127928553D01*
X81303554Y-128025000D01*
X80296445Y-128025000D01*
X80200000Y-127928553D01*
X80103554Y-128025000D01*
X79396447Y-128025000D01*
X79396447Y-128024999D01*
X79846446Y-127575000D01*
X79816609Y-127545163D01*
X80050000Y-127545163D01*
X80050000Y-127604837D01*
X80072836Y-127659968D01*
X80115032Y-127702164D01*
X80170163Y-127725000D01*
X80229837Y-127725000D01*
X80284968Y-127702164D01*
X80327164Y-127659968D01*
X80350000Y-127604837D01*
X80350000Y-127545163D01*
X81250000Y-127545163D01*
X81250000Y-127604837D01*
X81272836Y-127659968D01*
X81315032Y-127702164D01*
X81370163Y-127725000D01*
X81429837Y-127725000D01*
X81484968Y-127702164D01*
X81527164Y-127659968D01*
X81550000Y-127604837D01*
X81550000Y-127545163D01*
X81527164Y-127490032D01*
X81484968Y-127447836D01*
X81429837Y-127425000D01*
X81370163Y-127425000D01*
X81315032Y-127447836D01*
X81272836Y-127490032D01*
X81250000Y-127545163D01*
X80350000Y-127545163D01*
X80327164Y-127490032D01*
X80284968Y-127447836D01*
X80229837Y-127425000D01*
X80170163Y-127425000D01*
X80115032Y-127447836D01*
X80072836Y-127490032D01*
X80050000Y-127545163D01*
X79816609Y-127545163D01*
X79453294Y-127181848D01*
X79419809Y-127120525D01*
X79424793Y-127050833D01*
X79434781Y-127035291D01*
X79434781Y-127024999D01*
X80003553Y-127024999D01*
X80200000Y-127221446D01*
X80396446Y-127025001D01*
X80396446Y-127025000D01*
X80396445Y-127024999D01*
X81203553Y-127024999D01*
X81400000Y-127221446D01*
X81596446Y-127025001D01*
X81596446Y-127025000D01*
X81400000Y-126828553D01*
X81203553Y-127024999D01*
X80396445Y-127024999D01*
X80200000Y-126828553D01*
X80003553Y-127024999D01*
X79434781Y-127024999D01*
X79434781Y-127009609D01*
X79419809Y-126982190D01*
X79424793Y-126912498D01*
X79453294Y-126868151D01*
X79876283Y-126445163D01*
X80050000Y-126445163D01*
X80050000Y-126504837D01*
X80072836Y-126559968D01*
X80115032Y-126602164D01*
X80170163Y-126625000D01*
X80229837Y-126625000D01*
X80284968Y-126602164D01*
X80327164Y-126559968D01*
X80350000Y-126504837D01*
X80350000Y-126445163D01*
X81250000Y-126445163D01*
X81250000Y-126504837D01*
X81272836Y-126559968D01*
X81315032Y-126602164D01*
X81370163Y-126625000D01*
X81429837Y-126625000D01*
X81484968Y-126602164D01*
X81527164Y-126559968D01*
X81550000Y-126504837D01*
X81550000Y-126445163D01*
X81527164Y-126390032D01*
X81484968Y-126347836D01*
X81429837Y-126325000D01*
X81370163Y-126325000D01*
X81315032Y-126347836D01*
X81272836Y-126390032D01*
X81250000Y-126445163D01*
X80350000Y-126445163D01*
X80327164Y-126390032D01*
X80284968Y-126347836D01*
X80229837Y-126325000D01*
X80170163Y-126325000D01*
X80115032Y-126347836D01*
X80072836Y-126390032D01*
X80050000Y-126445163D01*
X79876283Y-126445163D01*
X80023223Y-126298223D01*
X80549999Y-125771446D01*
X81050000Y-125771446D01*
X81576777Y-126298223D01*
X82146704Y-126868151D01*
X82180189Y-126929474D01*
X82175205Y-126999166D01*
X82165218Y-127014705D01*
X82165218Y-127040391D01*
X82180188Y-127067806D01*
X82175206Y-127137497D01*
X82146704Y-127181848D01*
X81753553Y-127574999D01*
X81753553Y-127575000D01*
X82203553Y-128025000D01*
X82775000Y-128025000D01*
X82775000Y-125977172D01*
X82774999Y-125977155D01*
X82768598Y-125917627D01*
X82768596Y-125917620D01*
X82718354Y-125782913D01*
X82718350Y-125782906D01*
X82632190Y-125667812D01*
X82632187Y-125667809D01*
X82517093Y-125581649D01*
X82517086Y-125581645D01*
X82382379Y-125531403D01*
X82382372Y-125531401D01*
X82322844Y-125525000D01*
X81050000Y-125525000D01*
X81050000Y-125771446D01*
X80549999Y-125771446D01*
X80550000Y-125771445D01*
X80550000Y-125525000D01*
X79277155Y-125525000D01*
X79217627Y-125531401D01*
X79217620Y-125531403D01*
X79082913Y-125581645D01*
X79082906Y-125581649D01*
X78967812Y-125667809D01*
X78967809Y-125667812D01*
X78881649Y-125782906D01*
X78881645Y-125782913D01*
X78831403Y-125917620D01*
X78831401Y-125917627D01*
X78825000Y-125977155D01*
X68150000Y-125977155D01*
X68150000Y-101204463D01*
X68169685Y-101137424D01*
X68202876Y-101102888D01*
X68381078Y-100978108D01*
X68503133Y-100856053D01*
X68564456Y-100822568D01*
X68634148Y-100827552D01*
X68690082Y-100869423D01*
X68706997Y-100900401D01*
X68756202Y-101032328D01*
X68756206Y-101032335D01*
X68842452Y-101147544D01*
X68842455Y-101147547D01*
X68957664Y-101233793D01*
X68957671Y-101233797D01*
X69092517Y-101284091D01*
X69092516Y-101284091D01*
X69099444Y-101284835D01*
X69152127Y-101290500D01*
X70275500Y-101290499D01*
X70342539Y-101310184D01*
X70388294Y-101362987D01*
X70399500Y-101414499D01*
X70399500Y-112994931D01*
X70380494Y-113060903D01*
X70324211Y-113150477D01*
X70324209Y-113150481D01*
X70264633Y-113320737D01*
X70264630Y-113320750D01*
X70244435Y-113499996D01*
X70244435Y-113500003D01*
X70264630Y-113679249D01*
X70264631Y-113679254D01*
X70324211Y-113849523D01*
X70407794Y-113982544D01*
X70420184Y-114002262D01*
X70547738Y-114129816D01*
X70591991Y-114157622D01*
X70696021Y-114222989D01*
X70700478Y-114225789D01*
X70768306Y-114249523D01*
X70870745Y-114285368D01*
X70870750Y-114285369D01*
X71049996Y-114305565D01*
X71050000Y-114305565D01*
X71050004Y-114305565D01*
X71229249Y-114285369D01*
X71229251Y-114285368D01*
X71229255Y-114285368D01*
X71229258Y-114285366D01*
X71229262Y-114285366D01*
X71331697Y-114249522D01*
X71399522Y-114225789D01*
X71489096Y-114169505D01*
X71555068Y-114150500D01*
X90656921Y-114150500D01*
X90723960Y-114170185D01*
X90769715Y-114222989D01*
X90779659Y-114292147D01*
X90761915Y-114340472D01*
X90724211Y-114400476D01*
X90664631Y-114570745D01*
X90664630Y-114570750D01*
X90644435Y-114749996D01*
X90644435Y-114750003D01*
X90664630Y-114929249D01*
X90664631Y-114929254D01*
X90724211Y-115099524D01*
X90780493Y-115189094D01*
X90799500Y-115255067D01*
X90799500Y-129064069D01*
X90806747Y-129100499D01*
X90806747Y-129100502D01*
X90815104Y-129142517D01*
X90824499Y-129189744D01*
X90873535Y-129308127D01*
X90944723Y-129414669D01*
X90944726Y-129414673D01*
X90944727Y-129414674D01*
X92863181Y-131333127D01*
X92896666Y-131394450D01*
X92899500Y-131420808D01*
X92899500Y-140483624D01*
X92879815Y-140550663D01*
X92827011Y-140596418D01*
X92822953Y-140598185D01*
X92729792Y-140636773D01*
X92729780Y-140636779D01*
X92519706Y-140758067D01*
X92327263Y-140905733D01*
X92327256Y-140905739D01*
X92155739Y-141077256D01*
X92155733Y-141077263D01*
X92008067Y-141269706D01*
X91886777Y-141479785D01*
X91886773Y-141479794D01*
X91793947Y-141703895D01*
X91731161Y-141938214D01*
X91699500Y-142178711D01*
X91699500Y-143421288D01*
X91731161Y-143661785D01*
X91793947Y-143896104D01*
X91886773Y-144120205D01*
X91886776Y-144120212D01*
X92008064Y-144330289D01*
X92008066Y-144330292D01*
X92008067Y-144330293D01*
X92155733Y-144522736D01*
X92155739Y-144522743D01*
X92327256Y-144694260D01*
X92327262Y-144694265D01*
X92519711Y-144841936D01*
X92729788Y-144963224D01*
X92953900Y-145056054D01*
X93188211Y-145118838D01*
X93368586Y-145142584D01*
X93428711Y-145150500D01*
X93428712Y-145150500D01*
X93671289Y-145150500D01*
X93719388Y-145144167D01*
X93911789Y-145118838D01*
X94146100Y-145056054D01*
X94370212Y-144963224D01*
X94580289Y-144841936D01*
X94772738Y-144694265D01*
X94944265Y-144522738D01*
X95091936Y-144330289D01*
X95213224Y-144120212D01*
X95306054Y-143896100D01*
X95368838Y-143661789D01*
X95400500Y-143421288D01*
X95400500Y-142178712D01*
X95368838Y-141938211D01*
X95306054Y-141703900D01*
X95213224Y-141479788D01*
X95091936Y-141269711D01*
X94944265Y-141077262D01*
X94944260Y-141077256D01*
X94772743Y-140905739D01*
X94772736Y-140905733D01*
X94580293Y-140758067D01*
X94580292Y-140758066D01*
X94580289Y-140758064D01*
X94496532Y-140709707D01*
X94370219Y-140636779D01*
X94370207Y-140636773D01*
X94277047Y-140598185D01*
X94222644Y-140554344D01*
X94200579Y-140488049D01*
X94200500Y-140483624D01*
X94200500Y-131369807D01*
X94220185Y-131302768D01*
X94272989Y-131257013D01*
X94342147Y-131247069D01*
X94405703Y-131276094D01*
X94412181Y-131282126D01*
X97063181Y-133933126D01*
X97096666Y-133994449D01*
X97099500Y-134020807D01*
X97099500Y-140483624D01*
X97079815Y-140550663D01*
X97027011Y-140596418D01*
X97022953Y-140598185D01*
X96929792Y-140636773D01*
X96929780Y-140636779D01*
X96719706Y-140758067D01*
X96527263Y-140905733D01*
X96527256Y-140905739D01*
X96355739Y-141077256D01*
X96355733Y-141077263D01*
X96208067Y-141269706D01*
X96086777Y-141479785D01*
X96086773Y-141479794D01*
X95993947Y-141703895D01*
X95931161Y-141938214D01*
X95899500Y-142178711D01*
X95899500Y-143421288D01*
X95931161Y-143661785D01*
X95993947Y-143896104D01*
X96086773Y-144120205D01*
X96086776Y-144120212D01*
X96208064Y-144330289D01*
X96208066Y-144330292D01*
X96208067Y-144330293D01*
X96355733Y-144522736D01*
X96355739Y-144522743D01*
X96527256Y-144694260D01*
X96527262Y-144694265D01*
X96719711Y-144841936D01*
X96929788Y-144963224D01*
X97153900Y-145056054D01*
X97388211Y-145118838D01*
X97568586Y-145142584D01*
X97628711Y-145150500D01*
X97628712Y-145150500D01*
X97871289Y-145150500D01*
X97919388Y-145144167D01*
X98111789Y-145118838D01*
X98346100Y-145056054D01*
X98570212Y-144963224D01*
X98780289Y-144841936D01*
X98972738Y-144694265D01*
X99144265Y-144522738D01*
X99291936Y-144330289D01*
X99413224Y-144120212D01*
X99506054Y-143896100D01*
X99568838Y-143661789D01*
X99600500Y-143421288D01*
X99600500Y-142178712D01*
X99600500Y-142178711D01*
X102799500Y-142178711D01*
X102799500Y-143421288D01*
X102831161Y-143661785D01*
X102893947Y-143896104D01*
X102986773Y-144120205D01*
X102986776Y-144120212D01*
X103108064Y-144330289D01*
X103108066Y-144330292D01*
X103108067Y-144330293D01*
X103255733Y-144522736D01*
X103255739Y-144522743D01*
X103427256Y-144694260D01*
X103427262Y-144694265D01*
X103619711Y-144841936D01*
X103829788Y-144963224D01*
X104053900Y-145056054D01*
X104288211Y-145118838D01*
X104468586Y-145142584D01*
X104528711Y-145150500D01*
X104528712Y-145150500D01*
X104771289Y-145150500D01*
X104819388Y-145144167D01*
X105011789Y-145118838D01*
X105246100Y-145056054D01*
X105470212Y-144963224D01*
X105680289Y-144841936D01*
X105872738Y-144694265D01*
X106044265Y-144522738D01*
X106191936Y-144330289D01*
X106313224Y-144120212D01*
X106406054Y-143896100D01*
X106468838Y-143661789D01*
X106500500Y-143421288D01*
X106500500Y-142178712D01*
X106500500Y-142178711D01*
X106999500Y-142178711D01*
X106999500Y-143421288D01*
X107031161Y-143661785D01*
X107093947Y-143896104D01*
X107186773Y-144120205D01*
X107186776Y-144120212D01*
X107308064Y-144330289D01*
X107308066Y-144330292D01*
X107308067Y-144330293D01*
X107455733Y-144522736D01*
X107455739Y-144522743D01*
X107627256Y-144694260D01*
X107627262Y-144694265D01*
X107819711Y-144841936D01*
X108029788Y-144963224D01*
X108253900Y-145056054D01*
X108488211Y-145118838D01*
X108668586Y-145142584D01*
X108728711Y-145150500D01*
X108728712Y-145150500D01*
X108971289Y-145150500D01*
X109019388Y-145144167D01*
X109211789Y-145118838D01*
X109446100Y-145056054D01*
X109670212Y-144963224D01*
X109880289Y-144841936D01*
X110072738Y-144694265D01*
X110244265Y-144522738D01*
X110391936Y-144330289D01*
X110513224Y-144120212D01*
X110606054Y-143896100D01*
X110668838Y-143661789D01*
X110700500Y-143421288D01*
X110700500Y-142178712D01*
X110700500Y-142178711D01*
X113899500Y-142178711D01*
X113899500Y-143421288D01*
X113931161Y-143661785D01*
X113993947Y-143896104D01*
X114086773Y-144120205D01*
X114086776Y-144120212D01*
X114208064Y-144330289D01*
X114208066Y-144330292D01*
X114208067Y-144330293D01*
X114355733Y-144522736D01*
X114355739Y-144522743D01*
X114527256Y-144694260D01*
X114527262Y-144694265D01*
X114719711Y-144841936D01*
X114929788Y-144963224D01*
X115153900Y-145056054D01*
X115388211Y-145118838D01*
X115568586Y-145142584D01*
X115628711Y-145150500D01*
X115628712Y-145150500D01*
X115871289Y-145150500D01*
X115919388Y-145144167D01*
X116111789Y-145118838D01*
X116346100Y-145056054D01*
X116570212Y-144963224D01*
X116780289Y-144841936D01*
X116972738Y-144694265D01*
X117144265Y-144522738D01*
X117291936Y-144330289D01*
X117413224Y-144120212D01*
X117506054Y-143896100D01*
X117568838Y-143661789D01*
X117600500Y-143421288D01*
X117600500Y-142178712D01*
X117600500Y-142178711D01*
X118099500Y-142178711D01*
X118099500Y-143421288D01*
X118131161Y-143661785D01*
X118193947Y-143896104D01*
X118286773Y-144120205D01*
X118286776Y-144120212D01*
X118408064Y-144330289D01*
X118408066Y-144330292D01*
X118408067Y-144330293D01*
X118555733Y-144522736D01*
X118555739Y-144522743D01*
X118727256Y-144694260D01*
X118727262Y-144694265D01*
X118919711Y-144841936D01*
X119129788Y-144963224D01*
X119353900Y-145056054D01*
X119588211Y-145118838D01*
X119768586Y-145142584D01*
X119828711Y-145150500D01*
X119828712Y-145150500D01*
X120071289Y-145150500D01*
X120119388Y-145144167D01*
X120311789Y-145118838D01*
X120546100Y-145056054D01*
X120770212Y-144963224D01*
X120980289Y-144841936D01*
X121172738Y-144694265D01*
X121344265Y-144522738D01*
X121491936Y-144330289D01*
X121613224Y-144120212D01*
X121706054Y-143896100D01*
X121768838Y-143661789D01*
X121800500Y-143421288D01*
X121800500Y-142178712D01*
X121768838Y-141938211D01*
X121706054Y-141703900D01*
X121613224Y-141479788D01*
X121491936Y-141269711D01*
X121344265Y-141077262D01*
X121344260Y-141077256D01*
X121172743Y-140905739D01*
X121172736Y-140905733D01*
X120980293Y-140758067D01*
X120980292Y-140758066D01*
X120980289Y-140758064D01*
X120770212Y-140636776D01*
X120770205Y-140636773D01*
X120546104Y-140543947D01*
X120311785Y-140481161D01*
X120071289Y-140449500D01*
X120071288Y-140449500D01*
X119828712Y-140449500D01*
X119828711Y-140449500D01*
X119588214Y-140481161D01*
X119353895Y-140543947D01*
X119129794Y-140636773D01*
X119129785Y-140636777D01*
X118919706Y-140758067D01*
X118727263Y-140905733D01*
X118727256Y-140905739D01*
X118555739Y-141077256D01*
X118555733Y-141077263D01*
X118408067Y-141269706D01*
X118286777Y-141479785D01*
X118286773Y-141479794D01*
X118193947Y-141703895D01*
X118131161Y-141938214D01*
X118099500Y-142178711D01*
X117600500Y-142178711D01*
X117568838Y-141938211D01*
X117506054Y-141703900D01*
X117413224Y-141479788D01*
X117291936Y-141269711D01*
X117144265Y-141077262D01*
X117144260Y-141077256D01*
X116972743Y-140905739D01*
X116972736Y-140905733D01*
X116780293Y-140758067D01*
X116780292Y-140758066D01*
X116780289Y-140758064D01*
X116570212Y-140636776D01*
X116570205Y-140636773D01*
X116346104Y-140543947D01*
X116111785Y-140481161D01*
X115871289Y-140449500D01*
X115871288Y-140449500D01*
X115628712Y-140449500D01*
X115628711Y-140449500D01*
X115388214Y-140481161D01*
X115153895Y-140543947D01*
X114929794Y-140636773D01*
X114929785Y-140636777D01*
X114719706Y-140758067D01*
X114527263Y-140905733D01*
X114527256Y-140905739D01*
X114355739Y-141077256D01*
X114355733Y-141077263D01*
X114208067Y-141269706D01*
X114086777Y-141479785D01*
X114086773Y-141479794D01*
X113993947Y-141703895D01*
X113931161Y-141938214D01*
X113899500Y-142178711D01*
X110700500Y-142178711D01*
X110668838Y-141938211D01*
X110606054Y-141703900D01*
X110513224Y-141479788D01*
X110391936Y-141269711D01*
X110244265Y-141077262D01*
X110244260Y-141077256D01*
X110072743Y-140905739D01*
X110072736Y-140905733D01*
X109880293Y-140758067D01*
X109880292Y-140758066D01*
X109880289Y-140758064D01*
X109670212Y-140636776D01*
X109670205Y-140636773D01*
X109446104Y-140543947D01*
X109211785Y-140481161D01*
X108971289Y-140449500D01*
X108971288Y-140449500D01*
X108728712Y-140449500D01*
X108728711Y-140449500D01*
X108488214Y-140481161D01*
X108253895Y-140543947D01*
X108029794Y-140636773D01*
X108029785Y-140636777D01*
X107819706Y-140758067D01*
X107627263Y-140905733D01*
X107627256Y-140905739D01*
X107455739Y-141077256D01*
X107455733Y-141077263D01*
X107308067Y-141269706D01*
X107186777Y-141479785D01*
X107186773Y-141479794D01*
X107093947Y-141703895D01*
X107031161Y-141938214D01*
X106999500Y-142178711D01*
X106500500Y-142178711D01*
X106468838Y-141938211D01*
X106406054Y-141703900D01*
X106313224Y-141479788D01*
X106191936Y-141269711D01*
X106044265Y-141077262D01*
X106044260Y-141077256D01*
X105872743Y-140905739D01*
X105872736Y-140905733D01*
X105680293Y-140758067D01*
X105680292Y-140758066D01*
X105680289Y-140758064D01*
X105470212Y-140636776D01*
X105470205Y-140636773D01*
X105246104Y-140543947D01*
X105011785Y-140481161D01*
X104771289Y-140449500D01*
X104771288Y-140449500D01*
X104528712Y-140449500D01*
X104528711Y-140449500D01*
X104288214Y-140481161D01*
X104053895Y-140543947D01*
X103829794Y-140636773D01*
X103829785Y-140636777D01*
X103619706Y-140758067D01*
X103427263Y-140905733D01*
X103427256Y-140905739D01*
X103255739Y-141077256D01*
X103255733Y-141077263D01*
X103108067Y-141269706D01*
X102986777Y-141479785D01*
X102986773Y-141479794D01*
X102893947Y-141703895D01*
X102831161Y-141938214D01*
X102799500Y-142178711D01*
X99600500Y-142178711D01*
X99568838Y-141938211D01*
X99506054Y-141703900D01*
X99413224Y-141479788D01*
X99291936Y-141269711D01*
X99144265Y-141077262D01*
X99144260Y-141077256D01*
X98972743Y-140905739D01*
X98972736Y-140905733D01*
X98780293Y-140758067D01*
X98780292Y-140758066D01*
X98780289Y-140758064D01*
X98696532Y-140709707D01*
X98570219Y-140636779D01*
X98570207Y-140636773D01*
X98477047Y-140598185D01*
X98422644Y-140554344D01*
X98400579Y-140488049D01*
X98400500Y-140483624D01*
X98400500Y-133635928D01*
X98375502Y-133510261D01*
X98375501Y-133510260D01*
X98375501Y-133510256D01*
X98326465Y-133391873D01*
X98326464Y-133391872D01*
X98326461Y-133391866D01*
X98255277Y-133285332D01*
X98219575Y-133249630D01*
X98164669Y-133194724D01*
X93186819Y-128216873D01*
X93153334Y-128155550D01*
X93150500Y-128129192D01*
X93150500Y-115255067D01*
X93169507Y-115189094D01*
X93225788Y-115099524D01*
X93225789Y-115099522D01*
X93285368Y-114929255D01*
X93286754Y-114916958D01*
X93305565Y-114750003D01*
X93305565Y-114749996D01*
X93285369Y-114570750D01*
X93285368Y-114570745D01*
X93225788Y-114400476D01*
X93188085Y-114340472D01*
X93169085Y-114273235D01*
X93189453Y-114206400D01*
X93242721Y-114161186D01*
X93293079Y-114150500D01*
X94075500Y-114150500D01*
X94142539Y-114170185D01*
X94188294Y-114222989D01*
X94199500Y-114274500D01*
X94199500Y-127444931D01*
X94180494Y-127510903D01*
X94124211Y-127600477D01*
X94124209Y-127600481D01*
X94064633Y-127770737D01*
X94064630Y-127770750D01*
X94044435Y-127949996D01*
X94044435Y-127950003D01*
X94064630Y-128129249D01*
X94064631Y-128129254D01*
X94124211Y-128299523D01*
X94187841Y-128400789D01*
X94220184Y-128452262D01*
X94347738Y-128579816D01*
X94500478Y-128675789D01*
X94641115Y-128725000D01*
X94670745Y-128735368D01*
X94670750Y-128735369D01*
X94849996Y-128755565D01*
X94850000Y-128755565D01*
X94850004Y-128755565D01*
X95029249Y-128735369D01*
X95029252Y-128735368D01*
X95029255Y-128735368D01*
X95199522Y-128675789D01*
X95352262Y-128579816D01*
X95479816Y-128452262D01*
X95575789Y-128299522D01*
X95635368Y-128129255D01*
X95647115Y-128024999D01*
X95655565Y-127950003D01*
X95655565Y-127949996D01*
X95635369Y-127770750D01*
X95635366Y-127770737D01*
X95575790Y-127600481D01*
X95575789Y-127600478D01*
X95554008Y-127565814D01*
X95519506Y-127510903D01*
X95500500Y-127444931D01*
X95500500Y-115249996D01*
X102044435Y-115249996D01*
X102044435Y-115250003D01*
X102064630Y-115429249D01*
X102064631Y-115429254D01*
X102124211Y-115599523D01*
X102202754Y-115724522D01*
X102220184Y-115752262D01*
X102347738Y-115879816D01*
X102426410Y-115929249D01*
X102482476Y-115964478D01*
X102500478Y-115975789D01*
X102670745Y-116035368D01*
X102670750Y-116035369D01*
X102849996Y-116055565D01*
X102850000Y-116055565D01*
X102850004Y-116055565D01*
X103029249Y-116035369D01*
X103029252Y-116035368D01*
X103029255Y-116035368D01*
X103199522Y-115975789D01*
X103352262Y-115879816D01*
X103352267Y-115879810D01*
X103355097Y-115877555D01*
X103357275Y-115876665D01*
X103358158Y-115876111D01*
X103358255Y-115876265D01*
X103419783Y-115851145D01*
X103432412Y-115850500D01*
X107295902Y-115850500D01*
X107362941Y-115870185D01*
X107408696Y-115922989D01*
X107418640Y-115992147D01*
X107389615Y-116055703D01*
X107383583Y-116062181D01*
X107369481Y-116076282D01*
X107369479Y-116076285D01*
X107323749Y-116155494D01*
X107323747Y-116155496D01*
X107290425Y-116213209D01*
X107290423Y-116213212D01*
X107274436Y-116272877D01*
X107249499Y-116365943D01*
X107249499Y-116365945D01*
X107249499Y-116534046D01*
X107249500Y-116534059D01*
X107249500Y-131313330D01*
X107249499Y-131313348D01*
X107249499Y-131479054D01*
X107249498Y-131479054D01*
X107290424Y-131631789D01*
X107290425Y-131631790D01*
X107311440Y-131668188D01*
X107311441Y-131668190D01*
X107369475Y-131768709D01*
X107369481Y-131768717D01*
X107488349Y-131887585D01*
X107488355Y-131887590D01*
X109569298Y-133968534D01*
X109602783Y-134029857D01*
X109604837Y-134042331D01*
X109614630Y-134129249D01*
X109674210Y-134299521D01*
X109704507Y-134347738D01*
X109770184Y-134452262D01*
X109897738Y-134579816D01*
X109945392Y-134609759D01*
X110042450Y-134670745D01*
X110050478Y-134675789D01*
X110220745Y-134735368D01*
X110220750Y-134735369D01*
X110399996Y-134755565D01*
X110400000Y-134755565D01*
X110400004Y-134755565D01*
X110579249Y-134735369D01*
X110579252Y-134735368D01*
X110579255Y-134735368D01*
X110749522Y-134675789D01*
X110902262Y-134579816D01*
X110902310Y-134579768D01*
X110902350Y-134579746D01*
X110907710Y-134575472D01*
X110908458Y-134576410D01*
X110963630Y-134546276D01*
X111033322Y-134551254D01*
X111077681Y-134579759D01*
X111162738Y-134664816D01*
X111253080Y-134721582D01*
X111291605Y-134745789D01*
X111315478Y-134760789D01*
X111485745Y-134820368D01*
X111485750Y-134820369D01*
X111664996Y-134840565D01*
X111665000Y-134840565D01*
X111665004Y-134840565D01*
X111844249Y-134820369D01*
X111844252Y-134820368D01*
X111844255Y-134820368D01*
X112014522Y-134760789D01*
X112167262Y-134664816D01*
X112222319Y-134609759D01*
X112283642Y-134576274D01*
X112353334Y-134581258D01*
X112397681Y-134609759D01*
X112432738Y-134644816D01*
X112464568Y-134664816D01*
X112576850Y-134735368D01*
X112585478Y-134740789D01*
X112642632Y-134760788D01*
X112755745Y-134800368D01*
X112755750Y-134800369D01*
X112934996Y-134820565D01*
X112935000Y-134820565D01*
X112935004Y-134820565D01*
X113114249Y-134800369D01*
X113114252Y-134800368D01*
X113114255Y-134800368D01*
X113284522Y-134740789D01*
X113437262Y-134644816D01*
X113479819Y-134602258D01*
X113541140Y-134568774D01*
X113610831Y-134573758D01*
X113655179Y-134602258D01*
X113697737Y-134644815D01*
X113702738Y-134649816D01*
X113744072Y-134675788D01*
X113847520Y-134740789D01*
X113855478Y-134745789D01*
X113898343Y-134760788D01*
X114025745Y-134805368D01*
X114025750Y-134805369D01*
X114204996Y-134825565D01*
X114205000Y-134825565D01*
X114205004Y-134825565D01*
X114384249Y-134805369D01*
X114384252Y-134805368D01*
X114384255Y-134805368D01*
X114554522Y-134745789D01*
X114707262Y-134649816D01*
X114834816Y-134522262D01*
X114930789Y-134369522D01*
X114990368Y-134199255D01*
X115000161Y-134112329D01*
X115027226Y-134047918D01*
X115035690Y-134038543D01*
X117980520Y-131093716D01*
X118059577Y-130956784D01*
X118100501Y-130804057D01*
X118100501Y-130645942D01*
X118100501Y-130638347D01*
X118100500Y-130638329D01*
X118100500Y-119934060D01*
X118100501Y-119934047D01*
X118100501Y-119765944D01*
X118059576Y-119613214D01*
X118059573Y-119613209D01*
X117980524Y-119476290D01*
X117980518Y-119476282D01*
X116803758Y-118299522D01*
X115391906Y-116887671D01*
X115358422Y-116826349D01*
X115363406Y-116756657D01*
X115405278Y-116700724D01*
X115470742Y-116676307D01*
X115522921Y-116683809D01*
X115617517Y-116719091D01*
X115617516Y-116719091D01*
X115624444Y-116719835D01*
X115677127Y-116725500D01*
X116622872Y-116725499D01*
X116682483Y-116719091D01*
X116774530Y-116684759D01*
X116844218Y-116679776D01*
X116856039Y-116683678D01*
X116856246Y-116683042D01*
X116862426Y-116685049D01*
X116862429Y-116685051D01*
X117052726Y-116725500D01*
X117247274Y-116725500D01*
X117437571Y-116685051D01*
X117615299Y-116605922D01*
X117772692Y-116491569D01*
X117902870Y-116346992D01*
X118000144Y-116178508D01*
X118060262Y-115993482D01*
X118080598Y-115800000D01*
X118060262Y-115606518D01*
X118000144Y-115421492D01*
X118000143Y-115421491D01*
X118000143Y-115421489D01*
X118000142Y-115421488D01*
X117945667Y-115327135D01*
X117902870Y-115253008D01*
X117851310Y-115195745D01*
X117772697Y-115108435D01*
X117772694Y-115108433D01*
X117772693Y-115108432D01*
X117772692Y-115108431D01*
X117693995Y-115051254D01*
X117615297Y-114994076D01*
X117469701Y-114929254D01*
X117437571Y-114914949D01*
X117437569Y-114914948D01*
X117247274Y-114874500D01*
X117052726Y-114874500D01*
X116862429Y-114914948D01*
X116856245Y-114916958D01*
X116855349Y-114914201D01*
X116798341Y-114921511D01*
X116774527Y-114915239D01*
X116682482Y-114880908D01*
X116682483Y-114880908D01*
X116622883Y-114874501D01*
X116622881Y-114874500D01*
X116622873Y-114874500D01*
X116622864Y-114874500D01*
X115677129Y-114874500D01*
X115677123Y-114874501D01*
X115617516Y-114880908D01*
X115482671Y-114931202D01*
X115482664Y-114931206D01*
X115367455Y-115017452D01*
X115367452Y-115017455D01*
X115281206Y-115132664D01*
X115281202Y-115132671D01*
X115230908Y-115267517D01*
X115224501Y-115327116D01*
X115224500Y-115327135D01*
X115224500Y-116272870D01*
X115224501Y-116272877D01*
X115228527Y-116310328D01*
X115216120Y-116379088D01*
X115168508Y-116430224D01*
X115100809Y-116447502D01*
X115034515Y-116425436D01*
X114990675Y-116371031D01*
X114988195Y-116364535D01*
X114956122Y-116272877D01*
X114930789Y-116200478D01*
X114834816Y-116047738D01*
X114707262Y-115920184D01*
X114643017Y-115879816D01*
X114554523Y-115824211D01*
X114384254Y-115764631D01*
X114384249Y-115764630D01*
X114205004Y-115744435D01*
X114204996Y-115744435D01*
X114025750Y-115764630D01*
X114025745Y-115764631D01*
X113855476Y-115824211D01*
X113702737Y-115920184D01*
X113657680Y-115965241D01*
X113596357Y-115998725D01*
X113526665Y-115993740D01*
X113482320Y-115965241D01*
X113437263Y-115920185D01*
X113437262Y-115920184D01*
X113284523Y-115824211D01*
X113114254Y-115764631D01*
X113114249Y-115764630D01*
X112935004Y-115744435D01*
X112934996Y-115744435D01*
X112755750Y-115764630D01*
X112755745Y-115764631D01*
X112585476Y-115824211D01*
X112432737Y-115920184D01*
X112305184Y-116047737D01*
X112209211Y-116200476D01*
X112149631Y-116370745D01*
X112149630Y-116370750D01*
X112129435Y-116549996D01*
X112129435Y-116550003D01*
X112149630Y-116729249D01*
X112149631Y-116729254D01*
X112209211Y-116899523D01*
X112305184Y-117052262D01*
X112432738Y-117179816D01*
X112585478Y-117275789D01*
X112755745Y-117335368D01*
X112842669Y-117345161D01*
X112907080Y-117372226D01*
X112916465Y-117380700D01*
X115963181Y-120427416D01*
X115996666Y-120488739D01*
X115999500Y-120515097D01*
X115999500Y-130049902D01*
X115979815Y-130116941D01*
X115963181Y-130137583D01*
X112916465Y-133184298D01*
X112855142Y-133217783D01*
X112842668Y-133219837D01*
X112755750Y-133229630D01*
X112585478Y-133289210D01*
X112432737Y-133385184D01*
X112377681Y-133440241D01*
X112316358Y-133473726D01*
X112246666Y-133468742D01*
X112202319Y-133440241D01*
X112167262Y-133405184D01*
X112014521Y-133309210D01*
X111866849Y-133257538D01*
X111844255Y-133249632D01*
X111844254Y-133249631D01*
X111844249Y-133249630D01*
X111757330Y-133239837D01*
X111692916Y-133212770D01*
X111683533Y-133204298D01*
X109336819Y-130857584D01*
X109303334Y-130796261D01*
X109300500Y-130769903D01*
X109300500Y-117165096D01*
X109320185Y-117098057D01*
X109336814Y-117077420D01*
X111683535Y-114730698D01*
X111744856Y-114697215D01*
X111757311Y-114695163D01*
X111844255Y-114685368D01*
X112014522Y-114625789D01*
X112167262Y-114529816D01*
X112294816Y-114402262D01*
X112390789Y-114249522D01*
X112450368Y-114079255D01*
X112451202Y-114071854D01*
X112470565Y-113900003D01*
X112470565Y-113899996D01*
X112450369Y-113720750D01*
X112450368Y-113720745D01*
X112433618Y-113672876D01*
X112390789Y-113550478D01*
X112294816Y-113397738D01*
X112167262Y-113270184D01*
X112102124Y-113229255D01*
X112014523Y-113174211D01*
X111844254Y-113114631D01*
X111844249Y-113114630D01*
X111665004Y-113094435D01*
X111664996Y-113094435D01*
X111485750Y-113114630D01*
X111485745Y-113114631D01*
X111315476Y-113174211D01*
X111162737Y-113270184D01*
X111117680Y-113315241D01*
X111056357Y-113348725D01*
X110986665Y-113343740D01*
X110942320Y-113315241D01*
X110897263Y-113270185D01*
X110897262Y-113270184D01*
X110744523Y-113174211D01*
X110574254Y-113114631D01*
X110574249Y-113114630D01*
X110395004Y-113094435D01*
X110394996Y-113094435D01*
X110215750Y-113114630D01*
X110215745Y-113114631D01*
X110038905Y-113176511D01*
X110038325Y-113174855D01*
X109978205Y-113184743D01*
X109914076Y-113157009D01*
X109875122Y-113099006D01*
X109870050Y-113074645D01*
X109860262Y-112981518D01*
X109800144Y-112796492D01*
X109800143Y-112796491D01*
X109800143Y-112796489D01*
X109800142Y-112796488D01*
X109760101Y-112727135D01*
X115974500Y-112727135D01*
X115974500Y-113672870D01*
X115974501Y-113672876D01*
X115980908Y-113732483D01*
X116031202Y-113867328D01*
X116031206Y-113867335D01*
X116117452Y-113982544D01*
X116117455Y-113982547D01*
X116232664Y-114068793D01*
X116232671Y-114068797D01*
X116367517Y-114119091D01*
X116367516Y-114119091D01*
X116374444Y-114119835D01*
X116427127Y-114125500D01*
X117372872Y-114125499D01*
X117432483Y-114119091D01*
X117524530Y-114084759D01*
X117594218Y-114079776D01*
X117606039Y-114083678D01*
X117606246Y-114083042D01*
X117612426Y-114085049D01*
X117612429Y-114085051D01*
X117802726Y-114125500D01*
X117997274Y-114125500D01*
X118187571Y-114085051D01*
X118365299Y-114005922D01*
X118522692Y-113891569D01*
X118543238Y-113868751D01*
X118560551Y-113849522D01*
X118652870Y-113746992D01*
X118750144Y-113578508D01*
X118810262Y-113393482D01*
X118830598Y-113200000D01*
X118810262Y-113006518D01*
X118750144Y-112821492D01*
X118750143Y-112821491D01*
X118750143Y-112821489D01*
X118750142Y-112821488D01*
X118695667Y-112727135D01*
X118652870Y-112653008D01*
X118601882Y-112596381D01*
X118522697Y-112508435D01*
X118522694Y-112508433D01*
X118522693Y-112508432D01*
X118522692Y-112508431D01*
X118397475Y-112417455D01*
X118365297Y-112394076D01*
X118208374Y-112324211D01*
X118187571Y-112314949D01*
X118187569Y-112314948D01*
X117997274Y-112274500D01*
X117802726Y-112274500D01*
X117612429Y-112314948D01*
X117606245Y-112316958D01*
X117605349Y-112314201D01*
X117548341Y-112321511D01*
X117524527Y-112315239D01*
X117432482Y-112280908D01*
X117432483Y-112280908D01*
X117372883Y-112274501D01*
X117372881Y-112274500D01*
X117372873Y-112274500D01*
X117372864Y-112274500D01*
X116427129Y-112274500D01*
X116427123Y-112274501D01*
X116367516Y-112280908D01*
X116232671Y-112331202D01*
X116232664Y-112331206D01*
X116117455Y-112417452D01*
X116117452Y-112417455D01*
X116031206Y-112532664D01*
X116031202Y-112532671D01*
X115980908Y-112667517D01*
X115974501Y-112727116D01*
X115974500Y-112727135D01*
X109760101Y-112727135D01*
X109745667Y-112702135D01*
X109702870Y-112628008D01*
X109651882Y-112571381D01*
X109572697Y-112483435D01*
X109572694Y-112483433D01*
X109572693Y-112483432D01*
X109572692Y-112483431D01*
X109481880Y-112417452D01*
X109415297Y-112369076D01*
X109274076Y-112306202D01*
X109237571Y-112289949D01*
X109237569Y-112289948D01*
X109047274Y-112249500D01*
X108852726Y-112249500D01*
X108662429Y-112289948D01*
X108656245Y-112291958D01*
X108655349Y-112289201D01*
X108598341Y-112296511D01*
X108574527Y-112290239D01*
X108482482Y-112255908D01*
X108482483Y-112255908D01*
X108422883Y-112249501D01*
X108422881Y-112249500D01*
X108422873Y-112249500D01*
X108422864Y-112249500D01*
X107477129Y-112249500D01*
X107477123Y-112249501D01*
X107417516Y-112255908D01*
X107282671Y-112306202D01*
X107282664Y-112306206D01*
X107167455Y-112392452D01*
X107167452Y-112392455D01*
X107081206Y-112507664D01*
X107081202Y-112507671D01*
X107030908Y-112642517D01*
X107024501Y-112702116D01*
X107024500Y-112702135D01*
X107024500Y-113647870D01*
X107024501Y-113647876D01*
X107030908Y-113707483D01*
X107081202Y-113842328D01*
X107081206Y-113842335D01*
X107167452Y-113957544D01*
X107167455Y-113957547D01*
X107282664Y-114043793D01*
X107282671Y-114043797D01*
X107293967Y-114048010D01*
X107417517Y-114094091D01*
X107477127Y-114100500D01*
X107700902Y-114100499D01*
X107767941Y-114120183D01*
X107813696Y-114172987D01*
X107823640Y-114242145D01*
X107794615Y-114305701D01*
X107788584Y-114312180D01*
X107487582Y-114613182D01*
X107426261Y-114646666D01*
X107399903Y-114649500D01*
X103432412Y-114649500D01*
X103365373Y-114629815D01*
X103355097Y-114622445D01*
X103352263Y-114620185D01*
X103352262Y-114620184D01*
X103285348Y-114578139D01*
X103199523Y-114524211D01*
X103029254Y-114464631D01*
X103029249Y-114464630D01*
X102850004Y-114444435D01*
X102849996Y-114444435D01*
X102670750Y-114464630D01*
X102670745Y-114464631D01*
X102500476Y-114524211D01*
X102347737Y-114620184D01*
X102220184Y-114747737D01*
X102124211Y-114900476D01*
X102064631Y-115070745D01*
X102064630Y-115070750D01*
X102044435Y-115249996D01*
X95500500Y-115249996D01*
X95500500Y-111905067D01*
X95519507Y-111839094D01*
X95575788Y-111749524D01*
X95635368Y-111579254D01*
X95635369Y-111579249D01*
X95655565Y-111400003D01*
X95655565Y-111399996D01*
X95635369Y-111220750D01*
X95635366Y-111220737D01*
X95575790Y-111050481D01*
X95575789Y-111050478D01*
X95554008Y-111015814D01*
X95519506Y-110960903D01*
X95500500Y-110894931D01*
X95500500Y-99305067D01*
X95519507Y-99239094D01*
X95575788Y-99149524D01*
X95599182Y-99082669D01*
X95635368Y-98979255D01*
X95644352Y-98899521D01*
X95655565Y-98800003D01*
X95655565Y-98799996D01*
X95635369Y-98620750D01*
X95635368Y-98620745D01*
X95627125Y-98597189D01*
X95575789Y-98450478D01*
X95575788Y-98450476D01*
X95538085Y-98390472D01*
X95519085Y-98323235D01*
X95539453Y-98256400D01*
X95592721Y-98211186D01*
X95643079Y-98200500D01*
X95849903Y-98200500D01*
X95916942Y-98220185D01*
X95937584Y-98236819D01*
X99865139Y-102164374D01*
X99865149Y-102164385D01*
X99869479Y-102168715D01*
X99869480Y-102168716D01*
X99981284Y-102280520D01*
X100068095Y-102330639D01*
X100068097Y-102330641D01*
X100106151Y-102352611D01*
X100118215Y-102359577D01*
X100270943Y-102400501D01*
X100270946Y-102400501D01*
X100436653Y-102400501D01*
X100436669Y-102400500D01*
X105617588Y-102400500D01*
X105684627Y-102420185D01*
X105694903Y-102427555D01*
X105697736Y-102429814D01*
X105697738Y-102429816D01*
X105850478Y-102525789D01*
X106020745Y-102585368D01*
X106020750Y-102585369D01*
X106199996Y-102605565D01*
X106200000Y-102605565D01*
X106200004Y-102605565D01*
X106379249Y-102585369D01*
X106379252Y-102585368D01*
X106379255Y-102585368D01*
X106549522Y-102525789D01*
X106702262Y-102429816D01*
X106829816Y-102302262D01*
X106925789Y-102149522D01*
X106985368Y-101979255D01*
X107005565Y-101800000D01*
X106994244Y-101699523D01*
X106985369Y-101620750D01*
X106985368Y-101620745D01*
X106925788Y-101450476D01*
X106829815Y-101297737D01*
X106702262Y-101170184D01*
X106549523Y-101074211D01*
X106379254Y-101014631D01*
X106379249Y-101014630D01*
X106200004Y-100994435D01*
X106199996Y-100994435D01*
X106020750Y-101014630D01*
X106020745Y-101014631D01*
X105850476Y-101074211D01*
X105697736Y-101170185D01*
X105694903Y-101172445D01*
X105692724Y-101173334D01*
X105691842Y-101173889D01*
X105691744Y-101173734D01*
X105630217Y-101198855D01*
X105617588Y-101199500D01*
X100650097Y-101199500D01*
X100583058Y-101179815D01*
X100562416Y-101163181D01*
X97361642Y-97962407D01*
X97328157Y-97901084D01*
X97333141Y-97831392D01*
X97375013Y-97775459D01*
X97408367Y-97757685D01*
X97493861Y-97727770D01*
X97499520Y-97725790D01*
X97509852Y-97719298D01*
X97652262Y-97629816D01*
X97779816Y-97502262D01*
X97875789Y-97349522D01*
X97935368Y-97179255D01*
X97936390Y-97170185D01*
X97955565Y-97000003D01*
X97955565Y-96999996D01*
X97935369Y-96820750D01*
X97935368Y-96820745D01*
X97913311Y-96757710D01*
X97875789Y-96650478D01*
X97875342Y-96649767D01*
X97799206Y-96528597D01*
X97779816Y-96497738D01*
X97652262Y-96370184D01*
X97638451Y-96361506D01*
X97499523Y-96274211D01*
X97329254Y-96214631D01*
X97329249Y-96214630D01*
X97150004Y-96194435D01*
X97149996Y-96194435D01*
X96970750Y-96214630D01*
X96970745Y-96214631D01*
X96800476Y-96274211D01*
X96647736Y-96370185D01*
X96644903Y-96372445D01*
X96642724Y-96373334D01*
X96641842Y-96373889D01*
X96641744Y-96373734D01*
X96580217Y-96398855D01*
X96567588Y-96399500D01*
X95750098Y-96399500D01*
X95683059Y-96379815D01*
X95662417Y-96363181D01*
X94661818Y-95362582D01*
X94628333Y-95301259D01*
X94625499Y-95274901D01*
X94625499Y-95074500D01*
X94645184Y-95007461D01*
X94697988Y-94961706D01*
X94749499Y-94950500D01*
X102949903Y-94950500D01*
X103016942Y-94970185D01*
X103037584Y-94986819D01*
X104769298Y-96718533D01*
X104802783Y-96779856D01*
X104804837Y-96792330D01*
X104814630Y-96879249D01*
X104874210Y-97049521D01*
X104922979Y-97127136D01*
X104970184Y-97202262D01*
X105097738Y-97329816D01*
X105250478Y-97425789D01*
X105343635Y-97458386D01*
X105420745Y-97485368D01*
X105420750Y-97485369D01*
X105599996Y-97505565D01*
X105600000Y-97505565D01*
X105600004Y-97505565D01*
X105779249Y-97485369D01*
X105779252Y-97485368D01*
X105779255Y-97485368D01*
X105949522Y-97425789D01*
X106102262Y-97329816D01*
X106229816Y-97202262D01*
X106325789Y-97049522D01*
X106385368Y-96879255D01*
X106391961Y-96820745D01*
X106399063Y-96757710D01*
X106426129Y-96693296D01*
X106483724Y-96653741D01*
X106536167Y-96648373D01*
X106599997Y-96655565D01*
X106600000Y-96655565D01*
X106600004Y-96655565D01*
X106779249Y-96635369D01*
X106779252Y-96635368D01*
X106779255Y-96635368D01*
X106949522Y-96575789D01*
X107102262Y-96479816D01*
X107229816Y-96352262D01*
X107325789Y-96199522D01*
X107385368Y-96029255D01*
X107388919Y-95997738D01*
X107405565Y-95850003D01*
X107405565Y-95849996D01*
X107385369Y-95670750D01*
X107385368Y-95670745D01*
X107378901Y-95652263D01*
X107325789Y-95500478D01*
X107325188Y-95499522D01*
X107257385Y-95391614D01*
X107229816Y-95347738D01*
X107102262Y-95220184D01*
X106990559Y-95149996D01*
X106949521Y-95124210D01*
X106779249Y-95064630D01*
X106692331Y-95054837D01*
X106627917Y-95027770D01*
X106618534Y-95019298D01*
X105773394Y-94174158D01*
X104560915Y-92961680D01*
X104527431Y-92900358D01*
X104532415Y-92830666D01*
X104574287Y-92774733D01*
X104639751Y-92750316D01*
X104648597Y-92750000D01*
X119676000Y-92750000D01*
X119743039Y-92769685D01*
G37*
%TD.AperFunction*%
%TA.AperFunction,Conductor*%
G36*
X83845196Y-94970185D02*
G01*
X83890951Y-95022989D01*
X83901377Y-95088383D01*
X83894435Y-95149996D01*
X83894435Y-95150003D01*
X83914630Y-95329249D01*
X83914631Y-95329254D01*
X83974211Y-95499523D01*
X84034515Y-95595496D01*
X84055131Y-95628306D01*
X84070185Y-95652263D01*
X84072445Y-95655097D01*
X84073334Y-95657275D01*
X84073889Y-95658158D01*
X84073734Y-95658255D01*
X84098855Y-95719783D01*
X84099500Y-95732412D01*
X84099500Y-96613330D01*
X84099499Y-96613348D01*
X84099499Y-96779054D01*
X84099498Y-96779054D01*
X84110669Y-96820745D01*
X84140423Y-96931785D01*
X84160807Y-96967091D01*
X84169358Y-96981900D01*
X84169359Y-96981904D01*
X84169360Y-96981904D01*
X84218785Y-97067513D01*
X84219479Y-97068714D01*
X84219481Y-97068717D01*
X84338349Y-97187585D01*
X84338355Y-97187590D01*
X85719298Y-98568533D01*
X85752783Y-98629856D01*
X85754837Y-98642330D01*
X85764630Y-98729249D01*
X85824210Y-98899521D01*
X85876360Y-98982517D01*
X85920184Y-99052262D01*
X86047738Y-99179816D01*
X86200478Y-99275789D01*
X86204325Y-99277135D01*
X86370745Y-99335368D01*
X86370750Y-99335369D01*
X86549996Y-99355565D01*
X86550000Y-99355565D01*
X86550004Y-99355565D01*
X86729249Y-99335369D01*
X86729252Y-99335368D01*
X86729255Y-99335368D01*
X86899522Y-99275789D01*
X87052262Y-99179816D01*
X87179816Y-99052262D01*
X87275789Y-98899522D01*
X87335368Y-98729255D01*
X87335369Y-98729249D01*
X87355565Y-98550003D01*
X87355565Y-98549996D01*
X87335369Y-98370750D01*
X87335368Y-98370745D01*
X87275789Y-98200478D01*
X87179816Y-98047738D01*
X87052262Y-97920184D01*
X86962311Y-97863664D01*
X86940565Y-97850000D01*
X91808628Y-97850000D01*
X91850316Y-97978306D01*
X91850317Y-97978307D01*
X91947536Y-98146694D01*
X91947535Y-98146694D01*
X92077639Y-98291190D01*
X92077642Y-98291192D01*
X92234950Y-98405484D01*
X92412587Y-98484573D01*
X92449999Y-98492524D01*
X92450000Y-98492524D01*
X92450000Y-97850000D01*
X91808628Y-97850000D01*
X86940565Y-97850000D01*
X86899521Y-97824210D01*
X86729249Y-97764630D01*
X86642330Y-97754837D01*
X86577916Y-97727770D01*
X86568533Y-97719298D01*
X86199234Y-97349999D01*
X91808628Y-97349999D01*
X91808628Y-97350000D01*
X92450000Y-97350000D01*
X92450000Y-96707473D01*
X92412585Y-96715426D01*
X92412580Y-96715428D01*
X92234953Y-96794513D01*
X92077643Y-96908806D01*
X91947535Y-97053305D01*
X91850317Y-97221692D01*
X91850316Y-97221693D01*
X91808628Y-97349999D01*
X86199234Y-97349999D01*
X85336819Y-96487584D01*
X85303334Y-96426261D01*
X85300500Y-96399903D01*
X85300500Y-95732412D01*
X85320185Y-95665373D01*
X85327555Y-95655097D01*
X85329810Y-95652267D01*
X85329816Y-95652262D01*
X85425489Y-95500000D01*
X91808628Y-95500000D01*
X91850316Y-95628306D01*
X91850317Y-95628307D01*
X91947536Y-95796694D01*
X91947535Y-95796694D01*
X92077639Y-95941190D01*
X92077642Y-95941192D01*
X92234950Y-96055484D01*
X92412587Y-96134573D01*
X92449999Y-96142524D01*
X92450000Y-96142524D01*
X92450000Y-95500000D01*
X91808628Y-95500000D01*
X85425489Y-95500000D01*
X85425789Y-95499522D01*
X85485368Y-95329255D01*
X85485998Y-95323663D01*
X85505565Y-95150003D01*
X85505565Y-95149996D01*
X85498623Y-95088383D01*
X85510678Y-95019561D01*
X85558027Y-94968182D01*
X85621843Y-94950500D01*
X91709483Y-94950500D01*
X91776522Y-94970185D01*
X91808092Y-95000000D01*
X92576000Y-95000000D01*
X92619461Y-95012761D01*
X92558386Y-95038060D01*
X92488060Y-95108386D01*
X92450000Y-95200272D01*
X92450000Y-95299728D01*
X92488060Y-95391614D01*
X92558386Y-95461940D01*
X92650272Y-95500000D01*
X92749728Y-95500000D01*
X92774500Y-95489739D01*
X92774500Y-95722869D01*
X92774501Y-95722876D01*
X92780908Y-95782483D01*
X92831202Y-95917328D01*
X92831203Y-95917329D01*
X92831204Y-95917331D01*
X92891396Y-95997737D01*
X92922769Y-96039646D01*
X92920529Y-96041322D01*
X92947161Y-96090072D01*
X92950000Y-96116454D01*
X92950000Y-96142524D01*
X92987410Y-96134574D01*
X92993063Y-96132737D01*
X93062904Y-96130735D01*
X93074721Y-96134480D01*
X93167517Y-96169091D01*
X93227127Y-96175500D01*
X93724902Y-96175499D01*
X93791941Y-96195183D01*
X93812583Y-96211818D01*
X94063583Y-96462819D01*
X94097068Y-96524142D01*
X94092084Y-96593834D01*
X94050212Y-96649767D01*
X93984748Y-96674184D01*
X93975902Y-96674500D01*
X93227129Y-96674500D01*
X93227123Y-96674501D01*
X93167516Y-96680908D01*
X93074727Y-96715517D01*
X93005035Y-96720501D01*
X92993079Y-96717267D01*
X92987414Y-96715426D01*
X92950000Y-96707473D01*
X92950000Y-96733546D01*
X92930315Y-96800585D01*
X92922564Y-96810202D01*
X92922768Y-96810355D01*
X92831206Y-96932664D01*
X92831202Y-96932671D01*
X92780910Y-97067513D01*
X92780909Y-97067517D01*
X92774500Y-97127127D01*
X92774500Y-97360260D01*
X92749728Y-97350000D01*
X92650272Y-97350000D01*
X92558386Y-97388060D01*
X92488060Y-97458386D01*
X92450000Y-97550272D01*
X92450000Y-97649728D01*
X92488060Y-97741614D01*
X92558386Y-97811940D01*
X92650272Y-97850000D01*
X92749728Y-97850000D01*
X92774501Y-97839738D01*
X92774501Y-98072876D01*
X92780908Y-98132483D01*
X92831202Y-98267328D01*
X92831203Y-98267329D01*
X92831204Y-98267331D01*
X92853967Y-98297738D01*
X92922769Y-98389646D01*
X92920529Y-98391322D01*
X92947161Y-98440072D01*
X92950000Y-98466454D01*
X92950000Y-98492524D01*
X92987410Y-98484574D01*
X92993063Y-98482737D01*
X93062904Y-98480735D01*
X93074721Y-98484480D01*
X93167517Y-98519091D01*
X93167516Y-98519091D01*
X93174444Y-98519835D01*
X93227127Y-98525500D01*
X93936607Y-98525499D01*
X94003646Y-98545183D01*
X94049401Y-98597987D01*
X94059827Y-98663382D01*
X94054081Y-98714383D01*
X94027015Y-98778797D01*
X93969421Y-98818352D01*
X93930861Y-98824500D01*
X93077129Y-98824500D01*
X93077123Y-98824501D01*
X93017516Y-98830908D01*
X92882671Y-98881202D01*
X92882664Y-98881206D01*
X92767455Y-98967452D01*
X92767452Y-98967455D01*
X92681206Y-99082664D01*
X92681202Y-99082671D01*
X92630908Y-99217517D01*
X92624501Y-99277116D01*
X92624500Y-99277135D01*
X92624500Y-100222870D01*
X92624501Y-100222876D01*
X92630908Y-100282483D01*
X92668099Y-100382195D01*
X92673083Y-100451887D01*
X92669848Y-100463845D01*
X92639740Y-100556511D01*
X92639738Y-100556516D01*
X92619402Y-100750000D01*
X92639738Y-100943483D01*
X92699856Y-101128510D01*
X92699857Y-101128511D01*
X92760642Y-101233793D01*
X92797130Y-101296992D01*
X92842476Y-101347354D01*
X92927302Y-101441564D01*
X92927305Y-101441566D01*
X92927308Y-101441569D01*
X93045352Y-101527333D01*
X93084702Y-101555923D01*
X93152926Y-101586297D01*
X93262429Y-101635051D01*
X93452726Y-101675500D01*
X93647274Y-101675500D01*
X93837571Y-101635051D01*
X94015297Y-101555923D01*
X94021236Y-101553279D01*
X94021962Y-101554909D01*
X94081392Y-101540488D01*
X94147421Y-101563336D01*
X94190615Y-101618255D01*
X94199500Y-101664348D01*
X94199500Y-110894931D01*
X94180494Y-110960903D01*
X94124211Y-111050477D01*
X94124209Y-111050481D01*
X94064633Y-111220737D01*
X94064630Y-111220749D01*
X94050531Y-111345887D01*
X94023464Y-111410301D01*
X93965869Y-111449856D01*
X93896032Y-111451993D01*
X93839630Y-111419684D01*
X90471722Y-108051776D01*
X90438237Y-107990453D01*
X90436182Y-107977973D01*
X90435368Y-107970745D01*
X90375789Y-107800478D01*
X90279816Y-107647738D01*
X90152262Y-107520184D01*
X89999523Y-107424211D01*
X89829254Y-107364631D01*
X89829249Y-107364630D01*
X89650004Y-107344435D01*
X89649996Y-107344435D01*
X89470750Y-107364630D01*
X89470745Y-107364631D01*
X89300476Y-107424211D01*
X89147737Y-107520184D01*
X89020184Y-107647737D01*
X88924211Y-107800476D01*
X88864631Y-107970745D01*
X88864630Y-107970750D01*
X88844435Y-108149996D01*
X88844435Y-108150003D01*
X88864630Y-108329249D01*
X88864631Y-108329254D01*
X88924211Y-108499523D01*
X89015266Y-108644435D01*
X89020184Y-108652262D01*
X89147738Y-108779816D01*
X89300478Y-108875789D01*
X89470745Y-108935368D01*
X89477974Y-108936182D01*
X89542388Y-108963246D01*
X89551776Y-108971722D01*
X93003277Y-112423223D01*
X93036762Y-112484546D01*
X93038815Y-112497012D01*
X93039630Y-112504246D01*
X93039632Y-112504255D01*
X93101511Y-112681096D01*
X93099515Y-112681794D01*
X93109201Y-112740652D01*
X93081472Y-112804784D01*
X93023472Y-112843744D01*
X92986130Y-112849500D01*
X71824500Y-112849500D01*
X71757461Y-112829815D01*
X71711706Y-112777011D01*
X71700500Y-112725500D01*
X71700500Y-106273615D01*
X74024500Y-106273615D01*
X74024500Y-106426384D01*
X74054300Y-106576197D01*
X74054302Y-106576205D01*
X74112759Y-106717334D01*
X74112764Y-106717343D01*
X74197629Y-106844351D01*
X74197632Y-106844355D01*
X74305644Y-106952367D01*
X74305648Y-106952370D01*
X74432656Y-107037235D01*
X74432662Y-107037238D01*
X74432663Y-107037239D01*
X74573795Y-107095698D01*
X74723615Y-107125499D01*
X74723619Y-107125500D01*
X74723620Y-107125500D01*
X74876381Y-107125500D01*
X74876382Y-107125499D01*
X75026205Y-107095698D01*
X75167337Y-107037239D01*
X75294352Y-106952370D01*
X75402370Y-106844352D01*
X75487239Y-106717337D01*
X75545698Y-106576205D01*
X75575500Y-106426380D01*
X75575500Y-106273620D01*
X75573050Y-106261304D01*
X81349500Y-106261304D01*
X81349500Y-106438695D01*
X81384103Y-106612658D01*
X81384106Y-106612667D01*
X81451983Y-106776540D01*
X81451990Y-106776553D01*
X81550535Y-106924034D01*
X81550538Y-106924038D01*
X81675961Y-107049461D01*
X81675965Y-107049464D01*
X81823446Y-107148009D01*
X81823459Y-107148016D01*
X81930003Y-107192147D01*
X81987334Y-107215894D01*
X81987336Y-107215894D01*
X81987341Y-107215896D01*
X82161304Y-107250499D01*
X82161307Y-107250500D01*
X82161309Y-107250500D01*
X82338693Y-107250500D01*
X82338694Y-107250499D01*
X82396682Y-107238964D01*
X82512658Y-107215896D01*
X82512661Y-107215894D01*
X82512666Y-107215894D01*
X82676547Y-107148013D01*
X82824035Y-107049464D01*
X82949464Y-106924035D01*
X83048013Y-106776547D01*
X83115894Y-106612666D01*
X83116455Y-106609850D01*
X83150499Y-106438695D01*
X83150500Y-106438693D01*
X83150500Y-106261306D01*
X83150499Y-106261304D01*
X83115896Y-106087341D01*
X83115893Y-106087332D01*
X83048016Y-105923459D01*
X83048009Y-105923446D01*
X82949464Y-105775965D01*
X82949461Y-105775961D01*
X82824038Y-105650538D01*
X82824034Y-105650535D01*
X82676553Y-105551990D01*
X82676540Y-105551983D01*
X82512667Y-105484106D01*
X82512658Y-105484103D01*
X82338694Y-105449500D01*
X82338691Y-105449500D01*
X82161309Y-105449500D01*
X82161306Y-105449500D01*
X81987341Y-105484103D01*
X81987332Y-105484106D01*
X81823459Y-105551983D01*
X81823446Y-105551990D01*
X81675965Y-105650535D01*
X81675961Y-105650538D01*
X81550538Y-105775961D01*
X81550535Y-105775965D01*
X81451990Y-105923446D01*
X81451983Y-105923459D01*
X81384106Y-106087332D01*
X81384103Y-106087341D01*
X81349500Y-106261304D01*
X75573050Y-106261304D01*
X75545698Y-106123795D01*
X75487239Y-105982663D01*
X75487238Y-105982662D01*
X75487235Y-105982656D01*
X75402370Y-105855648D01*
X75402367Y-105855644D01*
X75294355Y-105747632D01*
X75294351Y-105747629D01*
X75167343Y-105662764D01*
X75167334Y-105662759D01*
X75026205Y-105604302D01*
X75026197Y-105604300D01*
X74876384Y-105574500D01*
X74876380Y-105574500D01*
X74723620Y-105574500D01*
X74723615Y-105574500D01*
X74573802Y-105604300D01*
X74573794Y-105604302D01*
X74432665Y-105662759D01*
X74432656Y-105662764D01*
X74305648Y-105747629D01*
X74305644Y-105747632D01*
X74197632Y-105855644D01*
X74197629Y-105855648D01*
X74112764Y-105982656D01*
X74112759Y-105982665D01*
X74054302Y-106123794D01*
X74054300Y-106123802D01*
X74024500Y-106273615D01*
X71700500Y-106273615D01*
X71700500Y-100875928D01*
X71675502Y-100750261D01*
X71675501Y-100750260D01*
X71675501Y-100750256D01*
X71644536Y-100675499D01*
X71626466Y-100631874D01*
X71626464Y-100631871D01*
X71555278Y-100525332D01*
X71555272Y-100525325D01*
X71436818Y-100406871D01*
X71403333Y-100345548D01*
X71400499Y-100319190D01*
X71400499Y-99042129D01*
X71400498Y-99042123D01*
X71394091Y-98982516D01*
X71343797Y-98847671D01*
X71343793Y-98847664D01*
X71257547Y-98732455D01*
X71257544Y-98732452D01*
X71142335Y-98646206D01*
X71142328Y-98646202D01*
X71010917Y-98597189D01*
X70954983Y-98555318D01*
X70930566Y-98489853D01*
X70945418Y-98421580D01*
X70966563Y-98393332D01*
X71088495Y-98271401D01*
X71224035Y-98077830D01*
X71323903Y-97863663D01*
X71385063Y-97635408D01*
X71405659Y-97400000D01*
X71385063Y-97164592D01*
X71350671Y-97036239D01*
X71352334Y-96966393D01*
X71382763Y-96916470D01*
X73312416Y-94986819D01*
X73373739Y-94953334D01*
X73400097Y-94950500D01*
X83778157Y-94950500D01*
X83845196Y-94970185D01*
G37*
%TD.AperFunction*%
%TD*%
%TA.AperFunction,Conductor*%
%TO.N,GNDA*%
G36*
X149465677Y-109019685D02*
G01*
X149486319Y-109036319D01*
X159063681Y-118613681D01*
X159097166Y-118675004D01*
X159100000Y-118701362D01*
X159100000Y-134400183D01*
X159080315Y-134467222D01*
X159027511Y-134512977D01*
X158958353Y-134522921D01*
X158894797Y-134493896D01*
X158888319Y-134487864D01*
X158645509Y-134245054D01*
X158645501Y-134245047D01*
X158360364Y-134014147D01*
X158052656Y-133814320D01*
X157725739Y-133647746D01*
X157383206Y-133516260D01*
X157383199Y-133516258D01*
X157028794Y-133421295D01*
X157028790Y-133421294D01*
X157028789Y-133421294D01*
X156666405Y-133363898D01*
X156300001Y-133344696D01*
X156299999Y-133344696D01*
X155933594Y-133363898D01*
X155571211Y-133421294D01*
X155571209Y-133421294D01*
X155216793Y-133516260D01*
X154874260Y-133647746D01*
X154547343Y-133814320D01*
X154239635Y-134014147D01*
X153954498Y-134245047D01*
X153954490Y-134245054D01*
X153695054Y-134504490D01*
X153695047Y-134504498D01*
X153464147Y-134789635D01*
X153264320Y-135097343D01*
X153097746Y-135424260D01*
X152966260Y-135766793D01*
X152871294Y-136121209D01*
X152871294Y-136121211D01*
X152813898Y-136483594D01*
X152794696Y-136849999D01*
X152794696Y-136850000D01*
X152813898Y-137216405D01*
X152871294Y-137578788D01*
X152871294Y-137578790D01*
X152966260Y-137933206D01*
X153097746Y-138275739D01*
X153264320Y-138602656D01*
X153464147Y-138910364D01*
X153464149Y-138910366D01*
X153695051Y-139195506D01*
X153954494Y-139454949D01*
X153954498Y-139454952D01*
X154239635Y-139685852D01*
X154420727Y-139803454D01*
X154547348Y-139885682D01*
X154874264Y-140052255D01*
X155216801Y-140183742D01*
X155571206Y-140278705D01*
X155933596Y-140336102D01*
X156279734Y-140354241D01*
X156299999Y-140355304D01*
X156300000Y-140355304D01*
X156300001Y-140355304D01*
X156319203Y-140354297D01*
X156666404Y-140336102D01*
X157028794Y-140278705D01*
X157383199Y-140183742D01*
X157725736Y-140052255D01*
X158052652Y-139885682D01*
X158360366Y-139685851D01*
X158645506Y-139454949D01*
X158888319Y-139212136D01*
X158949642Y-139178651D01*
X159019334Y-139183635D01*
X159075267Y-139225507D01*
X159099684Y-139290971D01*
X159100000Y-139299817D01*
X159100000Y-151376000D01*
X159080315Y-151443039D01*
X159027511Y-151488794D01*
X158976000Y-151500000D01*
X146624500Y-151500000D01*
X146557461Y-151480315D01*
X146511706Y-151427511D01*
X146500500Y-151376000D01*
X146500500Y-147678751D01*
X147200000Y-147678751D01*
X147200000Y-148050000D01*
X148182096Y-148050000D01*
X148150000Y-148211358D01*
X148150000Y-148388642D01*
X148182096Y-148550000D01*
X147200000Y-148550000D01*
X147200000Y-148921248D01*
X147200001Y-148921264D01*
X147231653Y-149161687D01*
X147294421Y-149395939D01*
X147387220Y-149619978D01*
X147387227Y-149619993D01*
X147508480Y-149830009D01*
X147656110Y-150022405D01*
X147656116Y-150022412D01*
X147827587Y-150193883D01*
X147827594Y-150193889D01*
X148019990Y-150341519D01*
X148230006Y-150462772D01*
X148230021Y-150462779D01*
X148454060Y-150555578D01*
X148688312Y-150618346D01*
X148800000Y-150633049D01*
X148800000Y-149167904D01*
X148961358Y-149200000D01*
X149138642Y-149200000D01*
X149300000Y-149167904D01*
X149300000Y-150633048D01*
X149411687Y-150618346D01*
X149645939Y-150555578D01*
X149869978Y-150462779D01*
X149869993Y-150462772D01*
X150080009Y-150341519D01*
X150272405Y-150193889D01*
X150272412Y-150193883D01*
X150443883Y-150022412D01*
X150443889Y-150022405D01*
X150591519Y-149830009D01*
X150712772Y-149619993D01*
X150712779Y-149619978D01*
X150805578Y-149395939D01*
X150868346Y-149161687D01*
X150899998Y-148921264D01*
X150900000Y-148921248D01*
X150900000Y-148550000D01*
X149917904Y-148550000D01*
X149950000Y-148388642D01*
X149950000Y-148211358D01*
X149917904Y-148050000D01*
X150900000Y-148050000D01*
X150900000Y-147678751D01*
X150899998Y-147678735D01*
X150868346Y-147438312D01*
X150805578Y-147204060D01*
X150712779Y-146980021D01*
X150712772Y-146980006D01*
X150591519Y-146769990D01*
X150499436Y-146649984D01*
X151399500Y-146649984D01*
X151399500Y-149950015D01*
X151410000Y-150052795D01*
X151410001Y-150052796D01*
X151465186Y-150219335D01*
X151465187Y-150219337D01*
X151557286Y-150368651D01*
X151557289Y-150368655D01*
X151681344Y-150492710D01*
X151681348Y-150492713D01*
X151830662Y-150584812D01*
X151830664Y-150584813D01*
X151830666Y-150584814D01*
X151997203Y-150639999D01*
X152099992Y-150650500D01*
X152099997Y-150650500D01*
X154400003Y-150650500D01*
X154400008Y-150650500D01*
X154502797Y-150639999D01*
X154669334Y-150584814D01*
X154818655Y-150492711D01*
X154942711Y-150368655D01*
X155034814Y-150219334D01*
X155089999Y-150052797D01*
X155100500Y-149950008D01*
X155100500Y-146649992D01*
X155089999Y-146547203D01*
X155034814Y-146380666D01*
X154942711Y-146231345D01*
X154818655Y-146107289D01*
X154818651Y-146107286D01*
X154669337Y-146015187D01*
X154669335Y-146015186D01*
X154568138Y-145981653D01*
X154502797Y-145960001D01*
X154502795Y-145960000D01*
X154400015Y-145949500D01*
X154400008Y-145949500D01*
X152099992Y-145949500D01*
X152099984Y-145949500D01*
X151997204Y-145960000D01*
X151997203Y-145960001D01*
X151830664Y-146015186D01*
X151830662Y-146015187D01*
X151681348Y-146107286D01*
X151681344Y-146107289D01*
X151557289Y-146231344D01*
X151557286Y-146231348D01*
X151465187Y-146380662D01*
X151465186Y-146380664D01*
X151410001Y-146547203D01*
X151410000Y-146547204D01*
X151399500Y-146649984D01*
X150499436Y-146649984D01*
X150443889Y-146577594D01*
X150443883Y-146577587D01*
X150272412Y-146406116D01*
X150272405Y-146406110D01*
X150080009Y-146258480D01*
X149869993Y-146137227D01*
X149869978Y-146137220D01*
X149645939Y-146044421D01*
X149411687Y-145981653D01*
X149300000Y-145966948D01*
X149300000Y-147432095D01*
X149138642Y-147400000D01*
X148961358Y-147400000D01*
X148800000Y-147432095D01*
X148800000Y-145966948D01*
X148799999Y-145966948D01*
X148688312Y-145981653D01*
X148454060Y-146044421D01*
X148230021Y-146137220D01*
X148230006Y-146137227D01*
X148019990Y-146258480D01*
X147827594Y-146406110D01*
X147827587Y-146406116D01*
X147656116Y-146577587D01*
X147656110Y-146577594D01*
X147508480Y-146769990D01*
X147387227Y-146980006D01*
X147387220Y-146980021D01*
X147294421Y-147204060D01*
X147231653Y-147438312D01*
X147200001Y-147678735D01*
X147200000Y-147678751D01*
X146500500Y-147678751D01*
X146500500Y-142178711D01*
X147199500Y-142178711D01*
X147199500Y-143421288D01*
X147231161Y-143661785D01*
X147293947Y-143896104D01*
X147386773Y-144120205D01*
X147386776Y-144120212D01*
X147508064Y-144330289D01*
X147508066Y-144330292D01*
X147508067Y-144330293D01*
X147655733Y-144522736D01*
X147655739Y-144522743D01*
X147827256Y-144694260D01*
X147827262Y-144694265D01*
X148019711Y-144841936D01*
X148229788Y-144963224D01*
X148453900Y-145056054D01*
X148688211Y-145118838D01*
X148868586Y-145142584D01*
X148928711Y-145150500D01*
X148928712Y-145150500D01*
X149171289Y-145150500D01*
X149219388Y-145144167D01*
X149411789Y-145118838D01*
X149646100Y-145056054D01*
X149870212Y-144963224D01*
X150080289Y-144841936D01*
X150272738Y-144694265D01*
X150444265Y-144522738D01*
X150591936Y-144330289D01*
X150713224Y-144120212D01*
X150806054Y-143896100D01*
X150868838Y-143661789D01*
X150900500Y-143421288D01*
X150900500Y-142178712D01*
X150900500Y-142178711D01*
X151399500Y-142178711D01*
X151399500Y-143421288D01*
X151431161Y-143661785D01*
X151493947Y-143896104D01*
X151586773Y-144120205D01*
X151586776Y-144120212D01*
X151708064Y-144330289D01*
X151708066Y-144330292D01*
X151708067Y-144330293D01*
X151855733Y-144522736D01*
X151855739Y-144522743D01*
X152027256Y-144694260D01*
X152027262Y-144694265D01*
X152219711Y-144841936D01*
X152429788Y-144963224D01*
X152653900Y-145056054D01*
X152888211Y-145118838D01*
X153068586Y-145142584D01*
X153128711Y-145150500D01*
X153128712Y-145150500D01*
X153371289Y-145150500D01*
X153419388Y-145144167D01*
X153611789Y-145118838D01*
X153846100Y-145056054D01*
X154070212Y-144963224D01*
X154280289Y-144841936D01*
X154472738Y-144694265D01*
X154644265Y-144522738D01*
X154791936Y-144330289D01*
X154913224Y-144120212D01*
X155006054Y-143896100D01*
X155068838Y-143661789D01*
X155100500Y-143421288D01*
X155100500Y-142178712D01*
X155068838Y-141938211D01*
X155006054Y-141703900D01*
X154913224Y-141479788D01*
X154791936Y-141269711D01*
X154644265Y-141077262D01*
X154644260Y-141077256D01*
X154472743Y-140905739D01*
X154472736Y-140905733D01*
X154280293Y-140758067D01*
X154280292Y-140758066D01*
X154280289Y-140758064D01*
X154070212Y-140636776D01*
X154070205Y-140636773D01*
X153846104Y-140543947D01*
X153728944Y-140512554D01*
X153611789Y-140481162D01*
X153611788Y-140481161D01*
X153611785Y-140481161D01*
X153371289Y-140449500D01*
X153371288Y-140449500D01*
X153128712Y-140449500D01*
X153128711Y-140449500D01*
X152888214Y-140481161D01*
X152653895Y-140543947D01*
X152429794Y-140636773D01*
X152429785Y-140636777D01*
X152219706Y-140758067D01*
X152027263Y-140905733D01*
X152027256Y-140905739D01*
X151855739Y-141077256D01*
X151855733Y-141077263D01*
X151708067Y-141269706D01*
X151586777Y-141479785D01*
X151586773Y-141479794D01*
X151493947Y-141703895D01*
X151431161Y-141938214D01*
X151399500Y-142178711D01*
X150900500Y-142178711D01*
X150868838Y-141938211D01*
X150806054Y-141703900D01*
X150713224Y-141479788D01*
X150591936Y-141269711D01*
X150444265Y-141077262D01*
X150444260Y-141077256D01*
X150272743Y-140905739D01*
X150272736Y-140905733D01*
X150080293Y-140758067D01*
X150080292Y-140758066D01*
X150080289Y-140758064D01*
X149870212Y-140636776D01*
X149870205Y-140636773D01*
X149646104Y-140543947D01*
X149528944Y-140512554D01*
X149411789Y-140481162D01*
X149411788Y-140481161D01*
X149411785Y-140481161D01*
X149171289Y-140449500D01*
X149171288Y-140449500D01*
X148928712Y-140449500D01*
X148928711Y-140449500D01*
X148688214Y-140481161D01*
X148453895Y-140543947D01*
X148229794Y-140636773D01*
X148229785Y-140636777D01*
X148019706Y-140758067D01*
X147827263Y-140905733D01*
X147827256Y-140905739D01*
X147655739Y-141077256D01*
X147655733Y-141077263D01*
X147508067Y-141269706D01*
X147386777Y-141479785D01*
X147386773Y-141479794D01*
X147293947Y-141703895D01*
X147231161Y-141938214D01*
X147199500Y-142178711D01*
X146500500Y-142178711D01*
X146500500Y-140591518D01*
X146520185Y-140524479D01*
X146536814Y-140503842D01*
X154249290Y-132791365D01*
X154296013Y-132762007D01*
X154399522Y-132725789D01*
X154552262Y-132629816D01*
X154679816Y-132502262D01*
X154775789Y-132349522D01*
X154835368Y-132179255D01*
X154840617Y-132132669D01*
X154855565Y-132000003D01*
X154855565Y-131999996D01*
X154835369Y-131820750D01*
X154835368Y-131820745D01*
X154775788Y-131650476D01*
X154679815Y-131497737D01*
X154552262Y-131370184D01*
X154399523Y-131274211D01*
X154229254Y-131214631D01*
X154229249Y-131214630D01*
X154050004Y-131194435D01*
X154049996Y-131194435D01*
X153870750Y-131214630D01*
X153870745Y-131214631D01*
X153700476Y-131274211D01*
X153547737Y-131370184D01*
X153420184Y-131497737D01*
X153324212Y-131650475D01*
X153324211Y-131650476D01*
X153287992Y-131753984D01*
X153258632Y-131800709D01*
X152637180Y-132422162D01*
X152575857Y-132455647D01*
X152506166Y-132450663D01*
X152450232Y-132408792D01*
X152425815Y-132343327D01*
X152425499Y-132334481D01*
X152425499Y-132327129D01*
X152425498Y-132327123D01*
X152425497Y-132327116D01*
X152419091Y-132267517D01*
X152386171Y-132179255D01*
X152368797Y-132132671D01*
X152368793Y-132132664D01*
X152282547Y-132017455D01*
X152282544Y-132017452D01*
X152167335Y-131931206D01*
X152167328Y-131931202D01*
X152032482Y-131880908D01*
X152032483Y-131880908D01*
X151972883Y-131874501D01*
X151972881Y-131874500D01*
X151972873Y-131874500D01*
X151972864Y-131874500D01*
X151027129Y-131874500D01*
X151027123Y-131874501D01*
X150967516Y-131880908D01*
X150832671Y-131931202D01*
X150832664Y-131931206D01*
X150717455Y-132017452D01*
X150717452Y-132017455D01*
X150631206Y-132132664D01*
X150631202Y-132132671D01*
X150580908Y-132267517D01*
X150577561Y-132298655D01*
X150574501Y-132327123D01*
X150574500Y-132327135D01*
X150574500Y-133272870D01*
X150574501Y-133272876D01*
X150580908Y-133332483D01*
X150631202Y-133467328D01*
X150631206Y-133467335D01*
X150717452Y-133582544D01*
X150717455Y-133582547D01*
X150832664Y-133668793D01*
X150832671Y-133668797D01*
X150877618Y-133685561D01*
X150967517Y-133719091D01*
X151027127Y-133725500D01*
X151034471Y-133725499D01*
X151101510Y-133745177D01*
X151147270Y-133797977D01*
X151157220Y-133867135D01*
X151128201Y-133930693D01*
X151122161Y-133937180D01*
X145255887Y-139803454D01*
X145179222Y-139918192D01*
X145126421Y-140045667D01*
X145126418Y-140045677D01*
X145099500Y-140181004D01*
X145099500Y-151258481D01*
X145079815Y-151325520D01*
X145063181Y-151346162D01*
X144945662Y-151463681D01*
X144884339Y-151497166D01*
X144857981Y-151500000D01*
X123474000Y-151500000D01*
X123406961Y-151480315D01*
X123361206Y-151427511D01*
X123350000Y-151376000D01*
X123350000Y-147678751D01*
X125000000Y-147678751D01*
X125000000Y-148050000D01*
X125982096Y-148050000D01*
X125950000Y-148211358D01*
X125950000Y-148388642D01*
X125982096Y-148550000D01*
X125000000Y-148550000D01*
X125000000Y-148921248D01*
X125000001Y-148921264D01*
X125031653Y-149161687D01*
X125094421Y-149395939D01*
X125187220Y-149619978D01*
X125187227Y-149619993D01*
X125308480Y-149830009D01*
X125456110Y-150022405D01*
X125456116Y-150022412D01*
X125627587Y-150193883D01*
X125627594Y-150193889D01*
X125819990Y-150341519D01*
X126030006Y-150462772D01*
X126030021Y-150462779D01*
X126254060Y-150555578D01*
X126488312Y-150618346D01*
X126600000Y-150633049D01*
X126600000Y-149167904D01*
X126761358Y-149200000D01*
X126938642Y-149200000D01*
X127100000Y-149167904D01*
X127100000Y-150633048D01*
X127211687Y-150618346D01*
X127445939Y-150555578D01*
X127669978Y-150462779D01*
X127669993Y-150462772D01*
X127880009Y-150341519D01*
X128072405Y-150193889D01*
X128072412Y-150193883D01*
X128243883Y-150022412D01*
X128243889Y-150022405D01*
X128391519Y-149830009D01*
X128512772Y-149619993D01*
X128512779Y-149619978D01*
X128605578Y-149395939D01*
X128668346Y-149161687D01*
X128699998Y-148921264D01*
X128700000Y-148921248D01*
X128700000Y-148550000D01*
X127717904Y-148550000D01*
X127750000Y-148388642D01*
X127750000Y-148211358D01*
X127717904Y-148050000D01*
X128700000Y-148050000D01*
X128700000Y-147678751D01*
X128699998Y-147678735D01*
X128668346Y-147438312D01*
X128605578Y-147204060D01*
X128512779Y-146980021D01*
X128512772Y-146980006D01*
X128391519Y-146769990D01*
X128299436Y-146649984D01*
X129199500Y-146649984D01*
X129199500Y-149950015D01*
X129210000Y-150052795D01*
X129210001Y-150052796D01*
X129265186Y-150219335D01*
X129265187Y-150219337D01*
X129357286Y-150368651D01*
X129357289Y-150368655D01*
X129481344Y-150492710D01*
X129481348Y-150492713D01*
X129630662Y-150584812D01*
X129630664Y-150584813D01*
X129630666Y-150584814D01*
X129797203Y-150639999D01*
X129899992Y-150650500D01*
X129899997Y-150650500D01*
X132200003Y-150650500D01*
X132200008Y-150650500D01*
X132302797Y-150639999D01*
X132469334Y-150584814D01*
X132618655Y-150492711D01*
X132742711Y-150368655D01*
X132834814Y-150219334D01*
X132889999Y-150052797D01*
X132900500Y-149950008D01*
X132900500Y-147678751D01*
X136100000Y-147678751D01*
X136100000Y-148050000D01*
X137082096Y-148050000D01*
X137050000Y-148211358D01*
X137050000Y-148388642D01*
X137082096Y-148550000D01*
X136100000Y-148550000D01*
X136100000Y-148921248D01*
X136100001Y-148921264D01*
X136131653Y-149161687D01*
X136194421Y-149395939D01*
X136287220Y-149619978D01*
X136287227Y-149619993D01*
X136408480Y-149830009D01*
X136556110Y-150022405D01*
X136556116Y-150022412D01*
X136727587Y-150193883D01*
X136727594Y-150193889D01*
X136919990Y-150341519D01*
X137130006Y-150462772D01*
X137130021Y-150462779D01*
X137354060Y-150555578D01*
X137588312Y-150618346D01*
X137700000Y-150633049D01*
X137700000Y-149167904D01*
X137861358Y-149200000D01*
X138038642Y-149200000D01*
X138200000Y-149167904D01*
X138200000Y-150633048D01*
X138311687Y-150618346D01*
X138545939Y-150555578D01*
X138769978Y-150462779D01*
X138769993Y-150462772D01*
X138980009Y-150341519D01*
X139172405Y-150193889D01*
X139172412Y-150193883D01*
X139343883Y-150022412D01*
X139343889Y-150022405D01*
X139491519Y-149830009D01*
X139612772Y-149619993D01*
X139612779Y-149619978D01*
X139705578Y-149395939D01*
X139768346Y-149161687D01*
X139799998Y-148921264D01*
X139800000Y-148921248D01*
X139800000Y-148550000D01*
X138817904Y-148550000D01*
X138850000Y-148388642D01*
X138850000Y-148211358D01*
X138817904Y-148050000D01*
X139800000Y-148050000D01*
X139800000Y-147678751D01*
X139799998Y-147678735D01*
X139768346Y-147438312D01*
X139705578Y-147204060D01*
X139612779Y-146980021D01*
X139612772Y-146980006D01*
X139491519Y-146769990D01*
X139399436Y-146649984D01*
X140299500Y-146649984D01*
X140299500Y-149950015D01*
X140310000Y-150052795D01*
X140310001Y-150052796D01*
X140365186Y-150219335D01*
X140365187Y-150219337D01*
X140457286Y-150368651D01*
X140457289Y-150368655D01*
X140581344Y-150492710D01*
X140581348Y-150492713D01*
X140730662Y-150584812D01*
X140730664Y-150584813D01*
X140730666Y-150584814D01*
X140897203Y-150639999D01*
X140999992Y-150650500D01*
X140999997Y-150650500D01*
X143300003Y-150650500D01*
X143300008Y-150650500D01*
X143402797Y-150639999D01*
X143569334Y-150584814D01*
X143718655Y-150492711D01*
X143842711Y-150368655D01*
X143934814Y-150219334D01*
X143989999Y-150052797D01*
X144000500Y-149950008D01*
X144000500Y-146649992D01*
X143989999Y-146547203D01*
X143934814Y-146380666D01*
X143842711Y-146231345D01*
X143718655Y-146107289D01*
X143718651Y-146107286D01*
X143569337Y-146015187D01*
X143569335Y-146015186D01*
X143468138Y-145981653D01*
X143402797Y-145960001D01*
X143402795Y-145960000D01*
X143300015Y-145949500D01*
X143300008Y-145949500D01*
X140999992Y-145949500D01*
X140999984Y-145949500D01*
X140897204Y-145960000D01*
X140897203Y-145960001D01*
X140730664Y-146015186D01*
X140730662Y-146015187D01*
X140581348Y-146107286D01*
X140581344Y-146107289D01*
X140457289Y-146231344D01*
X140457286Y-146231348D01*
X140365187Y-146380662D01*
X140365186Y-146380664D01*
X140310001Y-146547203D01*
X140310000Y-146547204D01*
X140299500Y-146649984D01*
X139399436Y-146649984D01*
X139343889Y-146577594D01*
X139343883Y-146577587D01*
X139172412Y-146406116D01*
X139172405Y-146406110D01*
X138980009Y-146258480D01*
X138769993Y-146137227D01*
X138769978Y-146137220D01*
X138545939Y-146044421D01*
X138311687Y-145981653D01*
X138200000Y-145966948D01*
X138200000Y-147432095D01*
X138038642Y-147400000D01*
X137861358Y-147400000D01*
X137700000Y-147432095D01*
X137700000Y-145966948D01*
X137699999Y-145966948D01*
X137588312Y-145981653D01*
X137354060Y-146044421D01*
X137130021Y-146137220D01*
X137130006Y-146137227D01*
X136919990Y-146258480D01*
X136727594Y-146406110D01*
X136727587Y-146406116D01*
X136556116Y-146577587D01*
X136556110Y-146577594D01*
X136408480Y-146769990D01*
X136287227Y-146980006D01*
X136287220Y-146980021D01*
X136194421Y-147204060D01*
X136131653Y-147438312D01*
X136100001Y-147678735D01*
X136100000Y-147678751D01*
X132900500Y-147678751D01*
X132900500Y-146649992D01*
X132889999Y-146547203D01*
X132834814Y-146380666D01*
X132742711Y-146231345D01*
X132618655Y-146107289D01*
X132618651Y-146107286D01*
X132469337Y-146015187D01*
X132469335Y-146015186D01*
X132368138Y-145981653D01*
X132302797Y-145960001D01*
X132302795Y-145960000D01*
X132200015Y-145949500D01*
X132200008Y-145949500D01*
X129899992Y-145949500D01*
X129899984Y-145949500D01*
X129797204Y-145960000D01*
X129797203Y-145960001D01*
X129630664Y-146015186D01*
X129630662Y-146015187D01*
X129481348Y-146107286D01*
X129481344Y-146107289D01*
X129357289Y-146231344D01*
X129357286Y-146231348D01*
X129265187Y-146380662D01*
X129265186Y-146380664D01*
X129210001Y-146547203D01*
X129210000Y-146547204D01*
X129199500Y-146649984D01*
X128299436Y-146649984D01*
X128243889Y-146577594D01*
X128243883Y-146577587D01*
X128072412Y-146406116D01*
X128072405Y-146406110D01*
X127880009Y-146258480D01*
X127669993Y-146137227D01*
X127669978Y-146137220D01*
X127445939Y-146044421D01*
X127211687Y-145981653D01*
X127100000Y-145966948D01*
X127100000Y-147432095D01*
X126938642Y-147400000D01*
X126761358Y-147400000D01*
X126600000Y-147432095D01*
X126600000Y-145966948D01*
X126599999Y-145966948D01*
X126488312Y-145981653D01*
X126254060Y-146044421D01*
X126030021Y-146137220D01*
X126030006Y-146137227D01*
X125819990Y-146258480D01*
X125627594Y-146406110D01*
X125627587Y-146406116D01*
X125456116Y-146577587D01*
X125456110Y-146577594D01*
X125308480Y-146769990D01*
X125187227Y-146980006D01*
X125187220Y-146980021D01*
X125094421Y-147204060D01*
X125031653Y-147438312D01*
X125000001Y-147678735D01*
X125000000Y-147678751D01*
X123350000Y-147678751D01*
X123350000Y-142178711D01*
X124999500Y-142178711D01*
X124999500Y-143421288D01*
X125031161Y-143661785D01*
X125093947Y-143896104D01*
X125186773Y-144120205D01*
X125186776Y-144120212D01*
X125308064Y-144330289D01*
X125308066Y-144330292D01*
X125308067Y-144330293D01*
X125455733Y-144522736D01*
X125455739Y-144522743D01*
X125627256Y-144694260D01*
X125627262Y-144694265D01*
X125819711Y-144841936D01*
X126029788Y-144963224D01*
X126253900Y-145056054D01*
X126488211Y-145118838D01*
X126668586Y-145142584D01*
X126728711Y-145150500D01*
X126728712Y-145150500D01*
X126971289Y-145150500D01*
X127019388Y-145144167D01*
X127211789Y-145118838D01*
X127446100Y-145056054D01*
X127670212Y-144963224D01*
X127880289Y-144841936D01*
X128072738Y-144694265D01*
X128244265Y-144522738D01*
X128391936Y-144330289D01*
X128513224Y-144120212D01*
X128606054Y-143896100D01*
X128668838Y-143661789D01*
X128700500Y-143421288D01*
X128700500Y-142178712D01*
X128700500Y-142178711D01*
X129199500Y-142178711D01*
X129199500Y-143421288D01*
X129231161Y-143661785D01*
X129293947Y-143896104D01*
X129386773Y-144120205D01*
X129386776Y-144120212D01*
X129508064Y-144330289D01*
X129508066Y-144330292D01*
X129508067Y-144330293D01*
X129655733Y-144522736D01*
X129655739Y-144522743D01*
X129827256Y-144694260D01*
X129827262Y-144694265D01*
X130019711Y-144841936D01*
X130229788Y-144963224D01*
X130453900Y-145056054D01*
X130688211Y-145118838D01*
X130868586Y-145142584D01*
X130928711Y-145150500D01*
X130928712Y-145150500D01*
X131171289Y-145150500D01*
X131219388Y-145144167D01*
X131411789Y-145118838D01*
X131646100Y-145056054D01*
X131870212Y-144963224D01*
X132080289Y-144841936D01*
X132272738Y-144694265D01*
X132444265Y-144522738D01*
X132591936Y-144330289D01*
X132713224Y-144120212D01*
X132806054Y-143896100D01*
X132868838Y-143661789D01*
X132900500Y-143421288D01*
X132900500Y-142178712D01*
X132900500Y-142178711D01*
X136099500Y-142178711D01*
X136099500Y-143421288D01*
X136131161Y-143661785D01*
X136193947Y-143896104D01*
X136286773Y-144120205D01*
X136286776Y-144120212D01*
X136408064Y-144330289D01*
X136408066Y-144330292D01*
X136408067Y-144330293D01*
X136555733Y-144522736D01*
X136555739Y-144522743D01*
X136727256Y-144694260D01*
X136727262Y-144694265D01*
X136919711Y-144841936D01*
X137129788Y-144963224D01*
X137353900Y-145056054D01*
X137588211Y-145118838D01*
X137768586Y-145142584D01*
X137828711Y-145150500D01*
X137828712Y-145150500D01*
X138071289Y-145150500D01*
X138119388Y-145144167D01*
X138311789Y-145118838D01*
X138546100Y-145056054D01*
X138770212Y-144963224D01*
X138980289Y-144841936D01*
X139172738Y-144694265D01*
X139344265Y-144522738D01*
X139491936Y-144330289D01*
X139613224Y-144120212D01*
X139706054Y-143896100D01*
X139768838Y-143661789D01*
X139800500Y-143421288D01*
X139800500Y-142178712D01*
X139800500Y-142178711D01*
X140299500Y-142178711D01*
X140299500Y-143421288D01*
X140331161Y-143661785D01*
X140393947Y-143896104D01*
X140486773Y-144120205D01*
X140486776Y-144120212D01*
X140608064Y-144330289D01*
X140608066Y-144330292D01*
X140608067Y-144330293D01*
X140755733Y-144522736D01*
X140755739Y-144522743D01*
X140927256Y-144694260D01*
X140927262Y-144694265D01*
X141119711Y-144841936D01*
X141329788Y-144963224D01*
X141553900Y-145056054D01*
X141788211Y-145118838D01*
X141968586Y-145142584D01*
X142028711Y-145150500D01*
X142028712Y-145150500D01*
X142271289Y-145150500D01*
X142319388Y-145144167D01*
X142511789Y-145118838D01*
X142746100Y-145056054D01*
X142970212Y-144963224D01*
X143180289Y-144841936D01*
X143372738Y-144694265D01*
X143544265Y-144522738D01*
X143691936Y-144330289D01*
X143813224Y-144120212D01*
X143906054Y-143896100D01*
X143968838Y-143661789D01*
X144000500Y-143421288D01*
X144000500Y-142178712D01*
X143968838Y-141938211D01*
X143906054Y-141703900D01*
X143813224Y-141479788D01*
X143691936Y-141269711D01*
X143544265Y-141077262D01*
X143544260Y-141077256D01*
X143372743Y-140905739D01*
X143372736Y-140905733D01*
X143180293Y-140758067D01*
X143180292Y-140758066D01*
X143180289Y-140758064D01*
X142970212Y-140636776D01*
X142970205Y-140636773D01*
X142746104Y-140543947D01*
X142628944Y-140512554D01*
X142511789Y-140481162D01*
X142511788Y-140481161D01*
X142511785Y-140481161D01*
X142271289Y-140449500D01*
X142271288Y-140449500D01*
X142028712Y-140449500D01*
X142028711Y-140449500D01*
X141788214Y-140481161D01*
X141553895Y-140543947D01*
X141329794Y-140636773D01*
X141329785Y-140636777D01*
X141119706Y-140758067D01*
X140927263Y-140905733D01*
X140927256Y-140905739D01*
X140755739Y-141077256D01*
X140755733Y-141077263D01*
X140608067Y-141269706D01*
X140486777Y-141479785D01*
X140486773Y-141479794D01*
X140393947Y-141703895D01*
X140331161Y-141938214D01*
X140299500Y-142178711D01*
X139800500Y-142178711D01*
X139768838Y-141938211D01*
X139706054Y-141703900D01*
X139613224Y-141479788D01*
X139491936Y-141269711D01*
X139344265Y-141077262D01*
X139344260Y-141077256D01*
X139172743Y-140905739D01*
X139172736Y-140905733D01*
X138980293Y-140758067D01*
X138980292Y-140758066D01*
X138980289Y-140758064D01*
X138770212Y-140636776D01*
X138770205Y-140636773D01*
X138546104Y-140543947D01*
X138428944Y-140512554D01*
X138311789Y-140481162D01*
X138311788Y-140481161D01*
X138311785Y-140481161D01*
X138071289Y-140449500D01*
X138071288Y-140449500D01*
X137828712Y-140449500D01*
X137828711Y-140449500D01*
X137588214Y-140481161D01*
X137353895Y-140543947D01*
X137129794Y-140636773D01*
X137129785Y-140636777D01*
X136919706Y-140758067D01*
X136727263Y-140905733D01*
X136727256Y-140905739D01*
X136555739Y-141077256D01*
X136555733Y-141077263D01*
X136408067Y-141269706D01*
X136286777Y-141479785D01*
X136286773Y-141479794D01*
X136193947Y-141703895D01*
X136131161Y-141938214D01*
X136099500Y-142178711D01*
X132900500Y-142178711D01*
X132868838Y-141938211D01*
X132806054Y-141703900D01*
X132713224Y-141479788D01*
X132591936Y-141269711D01*
X132444265Y-141077262D01*
X132444260Y-141077256D01*
X132272743Y-140905739D01*
X132272736Y-140905733D01*
X132080293Y-140758067D01*
X132080292Y-140758066D01*
X132080289Y-140758064D01*
X131870212Y-140636776D01*
X131870205Y-140636773D01*
X131646104Y-140543947D01*
X131528944Y-140512554D01*
X131411789Y-140481162D01*
X131411788Y-140481161D01*
X131411785Y-140481161D01*
X131171289Y-140449500D01*
X131171288Y-140449500D01*
X130928712Y-140449500D01*
X130928711Y-140449500D01*
X130688214Y-140481161D01*
X130453895Y-140543947D01*
X130229794Y-140636773D01*
X130229785Y-140636777D01*
X130019706Y-140758067D01*
X129827263Y-140905733D01*
X129827256Y-140905739D01*
X129655739Y-141077256D01*
X129655733Y-141077263D01*
X129508067Y-141269706D01*
X129386777Y-141479785D01*
X129386773Y-141479794D01*
X129293947Y-141703895D01*
X129231161Y-141938214D01*
X129199500Y-142178711D01*
X128700500Y-142178711D01*
X128668838Y-141938211D01*
X128606054Y-141703900D01*
X128513224Y-141479788D01*
X128391936Y-141269711D01*
X128244265Y-141077262D01*
X128244260Y-141077256D01*
X128072743Y-140905739D01*
X128072736Y-140905733D01*
X127880293Y-140758067D01*
X127880292Y-140758066D01*
X127880289Y-140758064D01*
X127670212Y-140636776D01*
X127670205Y-140636773D01*
X127446104Y-140543947D01*
X127328944Y-140512554D01*
X127211789Y-140481162D01*
X127211788Y-140481161D01*
X127211785Y-140481161D01*
X126971289Y-140449500D01*
X126971288Y-140449500D01*
X126728712Y-140449500D01*
X126728711Y-140449500D01*
X126488214Y-140481161D01*
X126253895Y-140543947D01*
X126029794Y-140636773D01*
X126029785Y-140636777D01*
X125819706Y-140758067D01*
X125627263Y-140905733D01*
X125627256Y-140905739D01*
X125455739Y-141077256D01*
X125455733Y-141077263D01*
X125308067Y-141269706D01*
X125186777Y-141479785D01*
X125186773Y-141479794D01*
X125093947Y-141703895D01*
X125031161Y-141938214D01*
X124999500Y-142178711D01*
X123350000Y-142178711D01*
X123350000Y-131834999D01*
X125744341Y-131834999D01*
X125744341Y-131835000D01*
X125764936Y-132070403D01*
X125764938Y-132070413D01*
X125826094Y-132298655D01*
X125826096Y-132298659D01*
X125826097Y-132298663D01*
X125877451Y-132408792D01*
X125925965Y-132512830D01*
X125925967Y-132512834D01*
X126010699Y-132633843D01*
X126061501Y-132706396D01*
X126061506Y-132706402D01*
X126183430Y-132828326D01*
X126216915Y-132889649D01*
X126211931Y-132959341D01*
X126170059Y-133015274D01*
X126139083Y-133032189D01*
X126007669Y-133081203D01*
X126007664Y-133081206D01*
X125892455Y-133167452D01*
X125892452Y-133167455D01*
X125806206Y-133282664D01*
X125806202Y-133282671D01*
X125755908Y-133417517D01*
X125749501Y-133477116D01*
X125749501Y-133477123D01*
X125749500Y-133477135D01*
X125749500Y-135272870D01*
X125749501Y-135272876D01*
X125755908Y-135332483D01*
X125806202Y-135467328D01*
X125806206Y-135467335D01*
X125892452Y-135582544D01*
X125892455Y-135582547D01*
X126007664Y-135668793D01*
X126007671Y-135668797D01*
X126142517Y-135719091D01*
X126142516Y-135719091D01*
X126149444Y-135719835D01*
X126202127Y-135725500D01*
X127997872Y-135725499D01*
X128057483Y-135719091D01*
X128192331Y-135668796D01*
X128307546Y-135582546D01*
X128393796Y-135467331D01*
X128444091Y-135332483D01*
X128450500Y-135272873D01*
X128450499Y-133477128D01*
X128444091Y-133417517D01*
X128424092Y-133363898D01*
X128393797Y-133282671D01*
X128393793Y-133282664D01*
X128307547Y-133167455D01*
X128307544Y-133167452D01*
X128192335Y-133081206D01*
X128192328Y-133081202D01*
X128060917Y-133032189D01*
X128004983Y-132990318D01*
X127980566Y-132924853D01*
X127995418Y-132856580D01*
X128016563Y-132828332D01*
X128138495Y-132706401D01*
X128274035Y-132512830D01*
X128373903Y-132298663D01*
X128435063Y-132070408D01*
X128453472Y-131859999D01*
X129444341Y-131859999D01*
X129444341Y-131860000D01*
X129464936Y-132095403D01*
X129464938Y-132095413D01*
X129526094Y-132323655D01*
X129526096Y-132323659D01*
X129526097Y-132323663D01*
X129609379Y-132502262D01*
X129625965Y-132537830D01*
X129625967Y-132537834D01*
X129690374Y-132629816D01*
X129761501Y-132731396D01*
X129761506Y-132731402D01*
X129883430Y-132853326D01*
X129916915Y-132914649D01*
X129911931Y-132984341D01*
X129870059Y-133040274D01*
X129839083Y-133057189D01*
X129707669Y-133106203D01*
X129707664Y-133106206D01*
X129592455Y-133192452D01*
X129592452Y-133192455D01*
X129506206Y-133307664D01*
X129506202Y-133307671D01*
X129455908Y-133442517D01*
X129452187Y-133477135D01*
X129449501Y-133502123D01*
X129449500Y-133502135D01*
X129449500Y-135297870D01*
X129449501Y-135297876D01*
X129455908Y-135357483D01*
X129506202Y-135492328D01*
X129506206Y-135492335D01*
X129592452Y-135607544D01*
X129592455Y-135607547D01*
X129707664Y-135693793D01*
X129707671Y-135693797D01*
X129842517Y-135744091D01*
X129842516Y-135744091D01*
X129849444Y-135744835D01*
X129902127Y-135750500D01*
X131697872Y-135750499D01*
X131757483Y-135744091D01*
X131892331Y-135693796D01*
X132007546Y-135607546D01*
X132093796Y-135492331D01*
X132144091Y-135357483D01*
X132150500Y-135297873D01*
X132150499Y-133502128D01*
X132144091Y-133442517D01*
X132136175Y-133421294D01*
X132093797Y-133307671D01*
X132093793Y-133307664D01*
X132007547Y-133192455D01*
X132007544Y-133192452D01*
X131892335Y-133106206D01*
X131892328Y-133106202D01*
X131760917Y-133057189D01*
X131704983Y-133015318D01*
X131680566Y-132949853D01*
X131695418Y-132881580D01*
X131716563Y-132853332D01*
X131838495Y-132731401D01*
X131974035Y-132537830D01*
X132073903Y-132323663D01*
X132135063Y-132095408D01*
X132155659Y-131860000D01*
X132153472Y-131834999D01*
X136844341Y-131834999D01*
X136844341Y-131835000D01*
X136864936Y-132070403D01*
X136864938Y-132070413D01*
X136926094Y-132298655D01*
X136926096Y-132298659D01*
X136926097Y-132298663D01*
X136977451Y-132408792D01*
X137025965Y-132512830D01*
X137025967Y-132512834D01*
X137110699Y-132633843D01*
X137161501Y-132706396D01*
X137161506Y-132706402D01*
X137283430Y-132828326D01*
X137316915Y-132889649D01*
X137311931Y-132959341D01*
X137270059Y-133015274D01*
X137239083Y-133032189D01*
X137107669Y-133081203D01*
X137107664Y-133081206D01*
X136992455Y-133167452D01*
X136992452Y-133167455D01*
X136906206Y-133282664D01*
X136906202Y-133282671D01*
X136855908Y-133417517D01*
X136849501Y-133477116D01*
X136849501Y-133477123D01*
X136849500Y-133477135D01*
X136849500Y-135272870D01*
X136849501Y-135272876D01*
X136855908Y-135332483D01*
X136906202Y-135467328D01*
X136906206Y-135467335D01*
X136992452Y-135582544D01*
X136992455Y-135582547D01*
X137107664Y-135668793D01*
X137107671Y-135668797D01*
X137242517Y-135719091D01*
X137242516Y-135719091D01*
X137249444Y-135719835D01*
X137302127Y-135725500D01*
X139097872Y-135725499D01*
X139157483Y-135719091D01*
X139292331Y-135668796D01*
X139407546Y-135582546D01*
X139493796Y-135467331D01*
X139544091Y-135332483D01*
X139550500Y-135272873D01*
X139550499Y-133477128D01*
X139544091Y-133417517D01*
X139524092Y-133363898D01*
X139493797Y-133282671D01*
X139493793Y-133282664D01*
X139407547Y-133167455D01*
X139407544Y-133167452D01*
X139292335Y-133081206D01*
X139292328Y-133081202D01*
X139160917Y-133032189D01*
X139104983Y-132990318D01*
X139080566Y-132924853D01*
X139095418Y-132856580D01*
X139116563Y-132828332D01*
X139238495Y-132706401D01*
X139374035Y-132512830D01*
X139473903Y-132298663D01*
X139535063Y-132070408D01*
X139555659Y-131835000D01*
X139555659Y-131834999D01*
X140544341Y-131834999D01*
X140544341Y-131835000D01*
X140564936Y-132070403D01*
X140564938Y-132070413D01*
X140626094Y-132298655D01*
X140626096Y-132298659D01*
X140626097Y-132298663D01*
X140677451Y-132408792D01*
X140725965Y-132512830D01*
X140725967Y-132512834D01*
X140810699Y-132633843D01*
X140861501Y-132706396D01*
X140861506Y-132706402D01*
X140983430Y-132828326D01*
X141016915Y-132889649D01*
X141011931Y-132959341D01*
X140970059Y-133015274D01*
X140939083Y-133032189D01*
X140807669Y-133081203D01*
X140807664Y-133081206D01*
X140692455Y-133167452D01*
X140692452Y-133167455D01*
X140606206Y-133282664D01*
X140606202Y-133282671D01*
X140555908Y-133417517D01*
X140549501Y-133477116D01*
X140549501Y-133477123D01*
X140549500Y-133477135D01*
X140549500Y-135272870D01*
X140549501Y-135272876D01*
X140555908Y-135332483D01*
X140606202Y-135467328D01*
X140606206Y-135467335D01*
X140692452Y-135582544D01*
X140692455Y-135582547D01*
X140807664Y-135668793D01*
X140807671Y-135668797D01*
X140942517Y-135719091D01*
X140942516Y-135719091D01*
X140949444Y-135719835D01*
X141002127Y-135725500D01*
X142797872Y-135725499D01*
X142857483Y-135719091D01*
X142992331Y-135668796D01*
X143107546Y-135582546D01*
X143193796Y-135467331D01*
X143244091Y-135332483D01*
X143250500Y-135272873D01*
X143250499Y-133477128D01*
X143244091Y-133417517D01*
X143224092Y-133363898D01*
X143193797Y-133282671D01*
X143193793Y-133282664D01*
X143107547Y-133167455D01*
X143107544Y-133167452D01*
X142992335Y-133081206D01*
X142992328Y-133081202D01*
X142860917Y-133032189D01*
X142804983Y-132990318D01*
X142780566Y-132924853D01*
X142795418Y-132856580D01*
X142816563Y-132828332D01*
X142938495Y-132706401D01*
X143074035Y-132512830D01*
X143160626Y-132327135D01*
X146374500Y-132327135D01*
X146374500Y-133272870D01*
X146374501Y-133272876D01*
X146380908Y-133332483D01*
X146431202Y-133467328D01*
X146431206Y-133467335D01*
X146517452Y-133582544D01*
X146517455Y-133582547D01*
X146632664Y-133668793D01*
X146632671Y-133668797D01*
X146767517Y-133719091D01*
X146767516Y-133719091D01*
X146774444Y-133719835D01*
X146827127Y-133725500D01*
X147772872Y-133725499D01*
X147832483Y-133719091D01*
X147967331Y-133668796D01*
X148082546Y-133582546D01*
X148168796Y-133467331D01*
X148219091Y-133332483D01*
X148225500Y-133272873D01*
X148225499Y-132327128D01*
X148219091Y-132267517D01*
X148186171Y-132179255D01*
X148168797Y-132132671D01*
X148168793Y-132132664D01*
X148082547Y-132017455D01*
X148082544Y-132017452D01*
X147967335Y-131931206D01*
X147967328Y-131931202D01*
X147832482Y-131880908D01*
X147832483Y-131880908D01*
X147772883Y-131874501D01*
X147772881Y-131874500D01*
X147772873Y-131874500D01*
X147772864Y-131874500D01*
X146827129Y-131874500D01*
X146827123Y-131874501D01*
X146767516Y-131880908D01*
X146632671Y-131931202D01*
X146632664Y-131931206D01*
X146517455Y-132017452D01*
X146517452Y-132017455D01*
X146431206Y-132132664D01*
X146431202Y-132132671D01*
X146380908Y-132267517D01*
X146377561Y-132298655D01*
X146374501Y-132327123D01*
X146374500Y-132327135D01*
X143160626Y-132327135D01*
X143173903Y-132298663D01*
X143235063Y-132070408D01*
X143255659Y-131835000D01*
X143235063Y-131599592D01*
X143173903Y-131371337D01*
X143074035Y-131157171D01*
X142956001Y-130988599D01*
X142938494Y-130963597D01*
X142771402Y-130796506D01*
X142771395Y-130796501D01*
X142577834Y-130660967D01*
X142577830Y-130660965D01*
X142577828Y-130660964D01*
X142363663Y-130561097D01*
X142363659Y-130561096D01*
X142363655Y-130561094D01*
X142135413Y-130499938D01*
X142135403Y-130499936D01*
X141900001Y-130479341D01*
X141899999Y-130479341D01*
X141664596Y-130499936D01*
X141664586Y-130499938D01*
X141436344Y-130561094D01*
X141436335Y-130561098D01*
X141222171Y-130660964D01*
X141222169Y-130660965D01*
X141028597Y-130796505D01*
X140861505Y-130963597D01*
X140725965Y-131157169D01*
X140725964Y-131157171D01*
X140626098Y-131371335D01*
X140626094Y-131371344D01*
X140564938Y-131599586D01*
X140564936Y-131599596D01*
X140544341Y-131834999D01*
X139555659Y-131834999D01*
X139535063Y-131599592D01*
X139473903Y-131371337D01*
X139374035Y-131157171D01*
X139256001Y-130988599D01*
X139238494Y-130963597D01*
X139071402Y-130796506D01*
X139071395Y-130796501D01*
X138877834Y-130660967D01*
X138877830Y-130660965D01*
X138877828Y-130660964D01*
X138663663Y-130561097D01*
X138663659Y-130561096D01*
X138663655Y-130561094D01*
X138435413Y-130499938D01*
X138435403Y-130499936D01*
X138200001Y-130479341D01*
X138199999Y-130479341D01*
X137964596Y-130499936D01*
X137964586Y-130499938D01*
X137736344Y-130561094D01*
X137736335Y-130561098D01*
X137522171Y-130660964D01*
X137522169Y-130660965D01*
X137328597Y-130796505D01*
X137161505Y-130963597D01*
X137025965Y-131157169D01*
X137025964Y-131157171D01*
X136926098Y-131371335D01*
X136926094Y-131371344D01*
X136864938Y-131599586D01*
X136864936Y-131599596D01*
X136844341Y-131834999D01*
X132153472Y-131834999D01*
X132135063Y-131624592D01*
X132073903Y-131396337D01*
X131974035Y-131182171D01*
X131956529Y-131157169D01*
X131838494Y-130988597D01*
X131671402Y-130821506D01*
X131671395Y-130821501D01*
X131477834Y-130685967D01*
X131477830Y-130685965D01*
X131477828Y-130685964D01*
X131263663Y-130586097D01*
X131263659Y-130586096D01*
X131263655Y-130586094D01*
X131035413Y-130524938D01*
X131035403Y-130524936D01*
X130800001Y-130504341D01*
X130799999Y-130504341D01*
X130564596Y-130524936D01*
X130564586Y-130524938D01*
X130336344Y-130586094D01*
X130336335Y-130586098D01*
X130122171Y-130685964D01*
X130122169Y-130685965D01*
X129928597Y-130821505D01*
X129761505Y-130988597D01*
X129625965Y-131182169D01*
X129625964Y-131182171D01*
X129526098Y-131396335D01*
X129526094Y-131396344D01*
X129464938Y-131624586D01*
X129464936Y-131624596D01*
X129444341Y-131859999D01*
X128453472Y-131859999D01*
X128455659Y-131835000D01*
X128435063Y-131599592D01*
X128373903Y-131371337D01*
X128274035Y-131157171D01*
X128156001Y-130988599D01*
X128138494Y-130963597D01*
X127971402Y-130796506D01*
X127971395Y-130796501D01*
X127777834Y-130660967D01*
X127777830Y-130660965D01*
X127777828Y-130660964D01*
X127563663Y-130561097D01*
X127563659Y-130561096D01*
X127563655Y-130561094D01*
X127335413Y-130499938D01*
X127335403Y-130499936D01*
X127100001Y-130479341D01*
X127099999Y-130479341D01*
X126864596Y-130499936D01*
X126864586Y-130499938D01*
X126636344Y-130561094D01*
X126636335Y-130561098D01*
X126422171Y-130660964D01*
X126422169Y-130660965D01*
X126228597Y-130796505D01*
X126061505Y-130963597D01*
X125925965Y-131157169D01*
X125925964Y-131157171D01*
X125826098Y-131371335D01*
X125826094Y-131371344D01*
X125764938Y-131599586D01*
X125764936Y-131599596D01*
X125744341Y-131834999D01*
X123350000Y-131834999D01*
X123350000Y-118701362D01*
X123369685Y-118634323D01*
X123386319Y-118613681D01*
X132963681Y-109036319D01*
X133025004Y-109002834D01*
X133051362Y-109000000D01*
X149398638Y-109000000D01*
X149465677Y-109019685D01*
G37*
%TD.AperFunction*%
%TD*%
M02*
