<?xml version="1.0" encoding="UTF-8" standalone="no"?>
<!DOCTYPE svg PUBLIC "-//W3C//DTD SVG 1.1//EN" "http://www.w3.org/Graphics/SVG/1.1/DTD/svg11.dtd">
<svg xmlns="http://www.w3.org/2000/svg" version="1.1" viewBox="0.00 0.00 1024.00 1024.00">
<g stroke-width="2.00" fill="none" stroke-linecap="butt">
<path stroke="#808080" vector-effect="non-scaling-stroke" d="
  M 700.18 705.88
  Q 700.18 482.00 700.27 325.72
  C 700.30 289.72 699.88 247.01 700.07 203.86
  Q 700.09 198.26 699.27 196.24
  Q 697.98 193.07 693.89 190.84
  Q 683.64 185.26 622.45 150.15
  C 611.70 143.98 600.58 138.08 589.02 131.30
  C 585.12 129.02 580.64 126.85 576.71 124.53
  Q 556.64 112.70 520.68 92.50
  Q 516.72 90.27 514.05 89.91
  Q 509.97 89.35 507.03 91.03
  Q 435.81 131.74 405.82 148.78
  Q 356.79 176.64 332.79 190.03
  C 328.95 192.17 325.76 193.97 324.96 198.02
  Q 324.94 198.12 324.94 204.00
  Q 324.94 401.26 325.01 706.10
  A 1.09 1.08 -16.4 0 1 324.51 707.01
  Q 306.86 718.34 286.15 731.09
  C 283.63 732.64 282.43 734.10 282.45 737.00
  Q 282.70 761.89 282.50 779.87
  C 282.42 786.82 283.48 787.06 289.69 791.18
  Q 398.55 863.42 410.77 871.22
  C 427.89 882.15 440.11 890.70 458.20 902.40
  Q 476.78 914.41 506.42 934.37
  C 508.13 935.52 511.14 937.14 513.02 936.76
  Q 516.56 936.04 519.71 933.96
  Q 591.92 886.30 641.01 853.83
  Q 645.05 851.16 653.62 845.38
  Q 699.08 814.72 738.34 789.48
  C 740.50 788.10 742.92 786.02 742.91 783.71
  Q 742.73 743.78 742.75 736.28
  A 1.91 1.74 -56.2 0 0 742.67 735.74
  Q 741.92 733.08 739.67 731.59
  Q 732.18 726.63 702.89 708.67
  Q 701.53 707.83 700.45 706.60
  A 1.10 1.09 24.6 0 1 700.18 705.88"
/>
<path stroke="#808080" vector-effect="non-scaling-stroke" d="
  M 677.20 198.08
  Q 676.36 197.28 667.21 192.20
  Q 661.21 188.88 657.05 186.37
  Q 644.57 178.86 625.90 168.47
  C 601.75 155.02 577.19 140.52 552.87 127.12
  Q 535.34 117.46 513.14 104.70
  A 2.00 1.99 45.1 0 0 511.16 104.69
  L 347.02 198.19
  A 0.58 0.58 0.0 0 0 347.05 199.22
  Q 356.45 203.97 365.82 209.46
  Q 388.02 222.48 409.73 235.05
  C 446.60 256.41 486.26 280.25 512.03 295.50
  A 1.93 1.91 -44.7 0 0 513.96 295.50
  L 677.17 199.24
  A 0.69 0.68 46.7 0 0 677.20 198.08"
/>
<path stroke="#808080" vector-effect="non-scaling-stroke" d="
  M 686.68 211.16
  A 0.62 0.62 0.0 0 0 685.75 210.63
  L 520.27 307.83
  A 0.62 0.62 0.0 0 0 519.96 308.36
  L 519.96 376.52
  A 0.62 0.62 0.0 0 0 520.90 377.06
  L 686.38 279.01
  A 0.62 0.62 0.0 0 0 686.68 278.48
  L 686.68 211.16"
/>
<path stroke="#808080" vector-effect="non-scaling-stroke" d="
  M 338.58 278.48
  A 0.93 0.93 0.0 0 0 339.04 279.28
  L 504.60 377.04
  A 0.93 0.93 0.0 0 0 506.00 376.24
  L 506.00 308.15
  A 0.93 0.93 0.0 0 0 505.54 307.35
  L 339.98 211.00
  A 0.93 0.93 0.0 0 0 338.58 211.81
  L 338.58 278.48"
/>
<path stroke="#808080" vector-effect="non-scaling-stroke" d="
  M 339.07 295.15
  A 0.32 0.32 0.0 0 0 338.59 295.42
  L 338.59 708.60
  A 0.32 0.32 0.0 0 0 338.74 708.86
  L 468.93 792.80
  A 0.32 0.32 0.0 0 0 469.42 792.53
  L 469.42 372.88
  A 0.32 0.32 0.0 0 0 469.26 372.61
  L 339.07 295.15"
/>
<path stroke="#808080" vector-effect="non-scaling-stroke" d="
  M 664.24 308.26
  A 0.45 0.45 0.0 0 0 664.02 308.65
  L 664.02 722.64
  A 0.45 0.45 0.0 0 0 664.72 723.02
  L 686.51 708.56
  A 0.45 0.45 0.0 0 0 686.71 708.19
  L 686.71 295.73
  A 0.45 0.45 0.0 0 0 686.03 295.34
  L 664.24 308.26"
/>
<path stroke="#808080" vector-effect="non-scaling-stroke" d="
  M 650.02 317.83
  A 0.55 0.55 0.0 0 0 649.19 317.35
  L 556.95 372.01
  A 0.55 0.55 0.0 0 0 556.68 372.48
  L 556.68 791.45
  A 0.55 0.55 0.0 0 0 557.53 791.91
  L 649.77 732.51
  A 0.55 0.55 0.0 0 0 650.02 732.05
  L 650.02 317.83"
/>
<path stroke="#808080" vector-effect="non-scaling-stroke" d="
  M 520.33 393.67
  A 0.46 0.46 0.0 0 0 520.10 394.06
  L 520.10 814.97
  A 0.46 0.46 0.0 0 0 520.81 815.35
  L 542.84 801.17
  A 0.46 0.46 0.0 0 0 543.05 800.78
  L 543.05 381.00
  A 0.46 0.46 0.0 0 0 542.36 380.60
  L 520.33 393.67"
/>
<path stroke="#808080" vector-effect="non-scaling-stroke" d="
  M 484.12 381.25
  A 0.50 0.50 0.0 0 0 483.37 381.68
  L 483.37 801.65
  A 0.50 0.50 0.0 0 0 483.60 802.07
  L 505.37 816.10
  A 0.50 0.50 0.0 0 0 506.14 815.68
  L 506.14 394.35
  A 0.50 0.50 0.0 0 0 505.89 393.92
  L 484.12 381.25"
/>
<path stroke="#808080" vector-effect="non-scaling-stroke" d="
  M 302.74 737.25
  L 512.97 874.97
  A 1.06 1.05 44.6 0 0 514.14 874.97
  L 721.63 737.36
  A 0.30 0.29 44.8 0 0 721.62 736.87
  L 695.90 720.29
  A 1.02 1.02 0.0 0 0 694.80 720.29
  L 514.05 836.70
  A 2.41 2.39 38.6 0 1 511.93 836.93
  Q 509.74 836.12 507.93 834.83
  C 499.96 829.20 490.62 823.78 484.22 819.62
  Q 428.60 783.49 352.59 734.66
  Q 352.50 734.60 331.05 720.33
  A 1.29 1.28 -43.8 0 0 329.65 720.30
  L 302.75 736.82
  A 0.26 0.25 -43.9 0 0 302.74 737.25"
/>
<path stroke="#808080" vector-effect="non-scaling-stroke" d="
  M 519.86 916.18
  A 0.62 0.62 0.0 0 0 520.82 916.70
  L 728.59 778.90
  A 0.62 0.62 0.0 0 0 728.87 778.39
  L 728.87 750.39
  A 0.62 0.62 0.0 0 0 727.91 749.87
  L 520.14 887.66
  A 0.62 0.62 0.0 0 0 519.86 888.17
  L 519.86 916.18"
/>
<path stroke="#808080" vector-effect="non-scaling-stroke" d="
  M 506.16 916.69
  L 506.16 887.66
  A 0.54 0.53 16.7 0 0 505.91 887.21
  C 498.66 882.61 491.35 877.52 483.50 872.49
  Q 462.58 859.09 450.28 850.76
  Q 446.08 847.92 436.48 841.48
  Q 417.72 828.88 398.83 816.60
  Q 355.72 788.56 297.01 750.50
  Q 296.65 750.26 296.37 750.28
  A 0.34 0.33 89.1 0 0 296.05 750.62
  L 296.05 777.96
  A 0.94 0.93 17.0 0 0 296.47 778.74
  L 505.65 916.96
  A 0.33 0.33 0.0 0 0 506.16 916.69"
/>
</g>
<path fill="#000000" d="
  M 1024.00 0.00
  L 1024.00 1024.00
  L 0.00 1024.00
  L 0.00 0.00
  L 1024.00 0.00
  Z
  M 700.18 705.88
  Q 700.18 482.00 700.27 325.72
  C 700.30 289.72 699.88 247.01 700.07 203.86
  Q 700.09 198.26 699.27 196.24
  Q 697.98 193.07 693.89 190.84
  Q 683.64 185.26 622.45 150.15
  C 611.70 143.98 600.58 138.08 589.02 131.30
  C 585.12 129.02 580.64 126.85 576.71 124.53
  Q 556.64 112.70 520.68 92.50
  Q 516.72 90.27 514.05 89.91
  Q 509.97 89.35 507.03 91.03
  Q 435.81 131.74 405.82 148.78
  Q 356.79 176.64 332.79 190.03
  C 328.95 192.17 325.76 193.97 324.96 198.02
  Q 324.94 198.12 324.94 204.00
  Q 324.94 401.26 325.01 706.10
  A 1.09 1.08 -16.4 0 1 324.51 707.01
  Q 306.86 718.34 286.15 731.09
  C 283.63 732.64 282.43 734.10 282.45 737.00
  Q 282.70 761.89 282.50 779.87
  C 282.42 786.82 283.48 787.06 289.69 791.18
  Q 398.55 863.42 410.77 871.22
  C 427.89 882.15 440.11 890.70 458.20 902.40
  Q 476.78 914.41 506.42 934.37
  C 508.13 935.52 511.14 937.14 513.02 936.76
  Q 516.56 936.04 519.71 933.96
  Q 591.92 886.30 641.01 853.83
  Q 645.05 851.16 653.62 845.38
  Q 699.08 814.72 738.34 789.48
  C 740.50 788.10 742.92 786.02 742.91 783.71
  Q 742.73 743.78 742.75 736.28
  A 1.91 1.74 -56.2 0 0 742.67 735.74
  Q 741.92 733.08 739.67 731.59
  Q 732.18 726.63 702.89 708.67
  Q 701.53 707.83 700.45 706.60
  A 1.10 1.09 24.6 0 1 700.18 705.88
  Z"
/>
<path fill="#ffffff" d="
  M 700.45 706.60
  Q 701.53 707.83 702.89 708.67
  Q 732.18 726.63 739.67 731.59
  Q 741.92 733.08 742.67 735.74
  A 1.91 1.74 -56.2 0 1 742.75 736.28
  Q 742.73 743.78 742.91 783.71
  C 742.92 786.02 740.50 788.10 738.34 789.48
  Q 699.08 814.72 653.62 845.38
  Q 645.05 851.16 641.01 853.83
  Q 591.92 886.30 519.71 933.96
  Q 516.56 936.04 513.02 936.76
  C 511.14 937.14 508.13 935.52 506.42 934.37
  Q 476.78 914.41 458.20 902.40
  C 440.11 890.70 427.89 882.15 410.77 871.22
  Q 398.55 863.42 289.69 791.18
  C 283.48 787.06 282.42 786.82 282.50 779.87
  Q 282.70 761.89 282.45 737.00
  C 282.43 734.10 283.63 732.64 286.15 731.09
  Q 306.86 718.34 324.51 707.01
  A 1.09 1.08 -16.4 0 0 325.01 706.10
  Q 324.94 401.26 324.94 204.00
  Q 324.94 198.12 324.96 198.02
  C 325.76 193.97 328.95 192.17 332.79 190.03
  Q 356.79 176.64 405.82 148.78
  Q 435.81 131.74 507.03 91.03
  Q 509.97 89.35 514.05 89.91
  Q 516.72 90.27 520.68 92.50
  Q 556.64 112.70 576.71 124.53
  C 580.64 126.85 585.12 129.02 589.02 131.30
  C 600.58 138.08 611.70 143.98 622.45 150.15
  Q 683.64 185.26 693.89 190.84
  Q 697.98 193.07 699.27 196.24
  Q 700.09 198.26 700.07 203.86
  C 699.88 247.01 700.30 289.72 700.27 325.72
  Q 700.18 482.00 700.18 705.88
  A 1.10 1.09 24.6 0 0 700.45 706.60
  Z
  M 677.20 198.08
  Q 676.36 197.28 667.21 192.20
  Q 661.21 188.88 657.05 186.37
  Q 644.57 178.86 625.90 168.47
  C 601.75 155.02 577.19 140.52 552.87 127.12
  Q 535.34 117.46 513.14 104.70
  A 2.00 1.99 45.1 0 0 511.16 104.69
  L 347.02 198.19
  A 0.58 0.58 0.0 0 0 347.05 199.22
  Q 356.45 203.97 365.82 209.46
  Q 388.02 222.48 409.73 235.05
  C 446.60 256.41 486.26 280.25 512.03 295.50
  A 1.93 1.91 -44.7 0 0 513.96 295.50
  L 677.17 199.24
  A 0.69 0.68 46.7 0 0 677.20 198.08
  Z
  M 686.68 211.16
  A 0.62 0.62 0.0 0 0 685.75 210.63
  L 520.27 307.83
  A 0.62 0.62 0.0 0 0 519.96 308.36
  L 519.96 376.52
  A 0.62 0.62 0.0 0 0 520.90 377.06
  L 686.38 279.01
  A 0.62 0.62 0.0 0 0 686.68 278.48
  L 686.68 211.16
  Z
  M 338.58 278.48
  A 0.93 0.93 0.0 0 0 339.04 279.28
  L 504.60 377.04
  A 0.93 0.93 0.0 0 0 506.00 376.24
  L 506.00 308.15
  A 0.93 0.93 0.0 0 0 505.54 307.35
  L 339.98 211.00
  A 0.93 0.93 0.0 0 0 338.58 211.81
  L 338.58 278.48
  Z
  M 339.07 295.15
  A 0.32 0.32 0.0 0 0 338.59 295.42
  L 338.59 708.60
  A 0.32 0.32 0.0 0 0 338.74 708.86
  L 468.93 792.80
  A 0.32 0.32 0.0 0 0 469.42 792.53
  L 469.42 372.88
  A 0.32 0.32 0.0 0 0 469.26 372.61
  L 339.07 295.15
  Z
  M 664.24 308.26
  A 0.45 0.45 0.0 0 0 664.02 308.65
  L 664.02 722.64
  A 0.45 0.45 0.0 0 0 664.72 723.02
  L 686.51 708.56
  A 0.45 0.45 0.0 0 0 686.71 708.19
  L 686.71 295.73
  A 0.45 0.45 0.0 0 0 686.03 295.34
  L 664.24 308.26
  Z
  M 650.02 317.83
  A 0.55 0.55 0.0 0 0 649.19 317.35
  L 556.95 372.01
  A 0.55 0.55 0.0 0 0 556.68 372.48
  L 556.68 791.45
  A 0.55 0.55 0.0 0 0 557.53 791.91
  L 649.77 732.51
  A 0.55 0.55 0.0 0 0 650.02 732.05
  L 650.02 317.83
  Z
  M 520.33 393.67
  A 0.46 0.46 0.0 0 0 520.10 394.06
  L 520.10 814.97
  A 0.46 0.46 0.0 0 0 520.81 815.35
  L 542.84 801.17
  A 0.46 0.46 0.0 0 0 543.05 800.78
  L 543.05 381.00
  A 0.46 0.46 0.0 0 0 542.36 380.60
  L 520.33 393.67
  Z
  M 484.12 381.25
  A 0.50 0.50 0.0 0 0 483.37 381.68
  L 483.37 801.65
  A 0.50 0.50 0.0 0 0 483.60 802.07
  L 505.37 816.10
  A 0.50 0.50 0.0 0 0 506.14 815.68
  L 506.14 394.35
  A 0.50 0.50 0.0 0 0 505.89 393.92
  L 484.12 381.25
  Z
  M 302.74 737.25
  L 512.97 874.97
  A 1.06 1.05 44.6 0 0 514.14 874.97
  L 721.63 737.36
  A 0.30 0.29 44.8 0 0 721.62 736.87
  L 695.90 720.29
  A 1.02 1.02 0.0 0 0 694.80 720.29
  L 514.05 836.70
  A 2.41 2.39 38.6 0 1 511.93 836.93
  Q 509.74 836.12 507.93 834.83
  C 499.96 829.20 490.62 823.78 484.22 819.62
  Q 428.60 783.49 352.59 734.66
  Q 352.50 734.60 331.05 720.33
  A 1.29 1.28 -43.8 0 0 329.65 720.30
  L 302.75 736.82
  A 0.26 0.25 -43.9 0 0 302.74 737.25
  Z
  M 519.86 916.18
  A 0.62 0.62 0.0 0 0 520.82 916.70
  L 728.59 778.90
  A 0.62 0.62 0.0 0 0 728.87 778.39
  L 728.87 750.39
  A 0.62 0.62 0.0 0 0 727.91 749.87
  L 520.14 887.66
  A 0.62 0.62 0.0 0 0 519.86 888.17
  L 519.86 916.18
  Z
  M 506.16 916.69
  L 506.16 887.66
  A 0.54 0.53 16.7 0 0 505.91 887.21
  C 498.66 882.61 491.35 877.52 483.50 872.49
  Q 462.58 859.09 450.28 850.76
  Q 446.08 847.92 436.48 841.48
  Q 417.72 828.88 398.83 816.60
  Q 355.72 788.56 297.01 750.50
  Q 296.65 750.26 296.37 750.28
  A 0.34 0.33 89.1 0 0 296.05 750.62
  L 296.05 777.96
  A 0.94 0.93 17.0 0 0 296.47 778.74
  L 505.65 916.96
  A 0.33 0.33 0.0 0 0 506.16 916.69
  Z"
/>
<path fill="#000000" d="
  M 677.17 199.24
  L 513.96 295.50
  A 1.93 1.91 -44.7 0 1 512.03 295.50
  C 486.26 280.25 446.60 256.41 409.73 235.05
  Q 388.02 222.48 365.82 209.46
  Q 356.45 203.97 347.05 199.22
  A 0.58 0.58 0.0 0 1 347.02 198.19
  L 511.16 104.69
  A 2.00 1.99 45.1 0 1 513.14 104.70
  Q 535.34 117.46 552.87 127.12
  C 577.19 140.52 601.75 155.02 625.90 168.47
  Q 644.57 178.86 657.05 186.37
  Q 661.21 188.88 667.21 192.20
  Q 676.36 197.28 677.20 198.08
  A 0.69 0.68 46.7 0 1 677.17 199.24
  Z"
/>
<path fill="#000000" d="
  M 686.68 211.16
  L 686.68 278.48
  A 0.62 0.62 0.0 0 1 686.38 279.01
  L 520.90 377.06
  A 0.62 0.62 0.0 0 1 519.96 376.52
  L 519.96 308.36
  A 0.62 0.62 0.0 0 1 520.27 307.83
  L 685.75 210.63
  A 0.62 0.62 0.0 0 1 686.68 211.16
  Z"
/>
<path fill="#000000" d="
  M 338.58 278.48
  L 338.58 211.81
  A 0.93 0.93 0.0 0 1 339.98 211.00
  L 505.54 307.35
  A 0.93 0.93 0.0 0 1 506.00 308.15
  L 506.00 376.24
  A 0.93 0.93 0.0 0 1 504.60 377.04
  L 339.04 279.28
  A 0.93 0.93 0.0 0 1 338.58 278.48
  Z"
/>
<path fill="#000000" d="
  M 339.07 295.15
  L 469.26 372.61
  A 0.32 0.32 0.0 0 1 469.42 372.88
  L 469.42 792.53
  A 0.32 0.32 0.0 0 1 468.93 792.80
  L 338.74 708.86
  A 0.32 0.32 0.0 0 1 338.59 708.60
  L 338.59 295.42
  A 0.32 0.32 0.0 0 1 339.07 295.15
  Z"
/>
<path fill="#000000" d="
  M 664.24 308.26
  L 686.03 295.34
  A 0.45 0.45 0.0 0 1 686.71 295.73
  L 686.71 708.19
  A 0.45 0.45 0.0 0 1 686.51 708.56
  L 664.72 723.02
  A 0.45 0.45 0.0 0 1 664.02 722.64
  L 664.02 308.65
  A 0.45 0.45 0.0 0 1 664.24 308.26
  Z"
/>
<path fill="#000000" d="
  M 650.02 317.83
  L 650.02 732.05
  A 0.55 0.55 0.0 0 1 649.77 732.51
  L 557.53 791.91
  A 0.55 0.55 0.0 0 1 556.68 791.45
  L 556.68 372.48
  A 0.55 0.55 0.0 0 1 556.95 372.01
  L 649.19 317.35
  A 0.55 0.55 0.0 0 1 650.02 317.83
  Z"
/>
<path fill="#000000" d="
  M 520.33 393.67
  L 542.36 380.60
  A 0.46 0.46 0.0 0 1 543.05 381.00
  L 543.05 800.78
  A 0.46 0.46 0.0 0 1 542.84 801.17
  L 520.81 815.35
  A 0.46 0.46 0.0 0 1 520.10 814.97
  L 520.10 394.06
  A 0.46 0.46 0.0 0 1 520.33 393.67
  Z"
/>
<path fill="#000000" d="
  M 484.12 381.25
  L 505.89 393.92
  A 0.50 0.50 0.0 0 1 506.14 394.35
  L 506.14 815.68
  A 0.50 0.50 0.0 0 1 505.37 816.10
  L 483.60 802.07
  A 0.50 0.50 0.0 0 1 483.37 801.65
  L 483.37 381.68
  A 0.50 0.50 0.0 0 1 484.12 381.25
  Z"
/>
<path fill="#000000" d="
  M 302.74 737.25
  A 0.26 0.25 -43.9 0 1 302.75 736.82
  L 329.65 720.30
  A 1.29 1.28 -43.8 0 1 331.05 720.33
  Q 352.50 734.60 352.59 734.66
  Q 428.60 783.49 484.22 819.62
  C 490.62 823.78 499.96 829.20 507.93 834.83
  Q 509.74 836.12 511.93 836.93
  A 2.41 2.39 38.6 0 0 514.05 836.70
  L 694.80 720.29
  A 1.02 1.02 0.0 0 1 695.90 720.29
  L 721.62 736.87
  A 0.30 0.29 44.8 0 1 721.63 737.36
  L 514.14 874.97
  A 1.06 1.05 44.6 0 1 512.97 874.97
  L 302.74 737.25
  Z"
/>
<path fill="#000000" d="
  M 519.86 916.18
  L 519.86 888.17
  A 0.62 0.62 0.0 0 1 520.14 887.66
  L 727.91 749.87
  A 0.62 0.62 0.0 0 1 728.87 750.39
  L 728.87 778.39
  A 0.62 0.62 0.0 0 1 728.59 778.90
  L 520.82 916.70
  A 0.62 0.62 0.0 0 1 519.86 916.18
  Z"
/>
<path fill="#000000" d="
  M 506.16 916.69
  A 0.33 0.33 0.0 0 1 505.65 916.96
  L 296.47 778.74
  A 0.94 0.93 17.0 0 1 296.05 777.96
  L 296.05 750.62
  A 0.34 0.33 89.1 0 1 296.37 750.28
  Q 296.65 750.26 297.01 750.50
  Q 355.72 788.56 398.83 816.60
  Q 417.72 828.88 436.48 841.48
  Q 446.08 847.92 450.28 850.76
  Q 462.58 859.09 483.50 872.49
  C 491.35 877.52 498.66 882.61 505.91 887.21
  A 0.54 0.53 16.7 0 1 506.16 887.66
  L 506.16 916.69
  Z"
/>
</svg>
