M48
; DRILL file {KiCad 9.0.4} date 2025-08-28T11:20:26+0900
; FORMAT={-:-/ absolute / inch / decimal}
; #@! TF.CreationDate,2025-08-28T11:20:26+09:00
; #@! TF.GenerationSoftware,Kicad,Pcbnew,9.0.4
; #@! TF.FileFunction,Plated,1,2,PTH
FMAT,2
INCH
; #@! TA.AperFunction,Plated,PTH,ComponentDrill
T1C0.0079
; #@! TA.AperFunction,Plated,PTH,ViaDrill
T2C0.0118
; #@! TA.AperFunction,Plated,PTH,ComponentDrill
T3C0.0118
; #@! TA.AperFunction,Plated,PTH,ComponentDrill
T4C0.0394
; #@! TA.AperFunction,Plated,PTH,ComponentDrill
T5C0.0709
; #@! TA.AperFunction,Plated,PTH,ComponentDrill
T6C0.1181
%
G90
G05
T1
X5.4065Y-3.3474
X5.4065Y-3.4026
X5.4341Y-3.3199
X5.4341Y-3.375
X5.4341Y-3.4301
X5.4616Y-3.3474
X5.4616Y-3.4026
X5.4892Y-3.3199
X5.4892Y-3.375
X5.4892Y-3.4301
X5.5167Y-3.3474
X5.5167Y-3.4026
T2
X4.9409Y-3.2283
X4.9547Y-3.3573
X4.9862Y-3.2323
X5.0512Y-4.0079
X5.061Y-4.2402
X5.1181Y-3.3632
X5.1299Y-4.3775
X5.1762Y-3.7785
X5.2352Y-3.0711
X5.2382Y-3.6959
X5.2392Y-3.6211
X5.249Y-3.5207
X5.2559Y-3.4705
X5.2746Y-4.0305
X5.2785Y-3.2215
X5.2785Y-3.2707
X5.2934Y-4.1918
X5.3681Y-3.5709
X5.3701Y-4.4035
X5.3917Y-4.1909
X5.3996Y-3.689
X5.4026Y-4.1388
X5.4528Y-4.4409
X5.6496Y-4.1457
X5.6506Y-3.1211
X5.7717Y-3.6024
X5.7736Y-3.3287
X5.7884Y-3.7018
X5.7955Y-3.0711
X5.8701Y-3.9961
X5.872Y-3.7874
X5.8986Y-4.0876
X5.9272Y-3.2864
X5.9272Y-3.4498
X5.9272Y-3.6407
X5.9272Y-4.0581
X5.9665Y-4.2894
X5.998Y-3.1378
X6.0098Y-4.1555
X6.0138Y-3.7815
X6.0472Y-4.7205
X6.0492Y-4.3022
X6.0591Y-4.4055
X6.1693Y-4.0925
X6.1713Y-4.3051
X6.2165Y-3.5207
X6.3071Y-3.1909
X6.3386Y-3.7618
X6.4075Y-4.5256
X6.4429Y-4.7382
X6.6339Y-3.189
X6.6398Y-3.5394
T3
X5.44Y-4.5108
X5.44Y-4.5541
X5.44Y-4.6053
X5.44Y-4.6526
X5.4872Y-4.5108
X5.4872Y-4.5541
X5.4872Y-4.6053
X5.4872Y-4.6526
T4
X4.9404Y-3.7419
X4.9404Y-3.8419
X4.9404Y-3.9419
X4.9551Y-4.475
X5.0404Y-3.7419
X5.0404Y-3.8419
X5.0404Y-3.9419
X5.0551Y-4.475
X5.8012Y-3.8868
X5.9012Y-3.8868
T5
X5.1014Y-5.0207
X5.1014Y-5.2372
X5.2667Y-5.0207
X5.2667Y-5.2372
X5.5384Y-5.0207
X5.5384Y-5.2372
X5.7037Y-5.0207
X5.7037Y-5.2372
X5.9754Y-5.0207
X5.9754Y-5.2372
X6.1407Y-5.0207
X6.1407Y-5.2372
X6.4124Y-5.0207
X6.4124Y-5.2372
X6.5778Y-5.0207
X6.5778Y-5.2372
T6
X4.9813Y-2.8711
X4.9813Y-4.7864
X6.6978Y-2.8711
X6.6978Y-4.7864
M30
