%TF.GenerationSoftware,KiCad,Pcbnew,9.0.4*%
%TF.CreationDate,2025-08-28T11:20:26+09:00*%
%TF.ProjectId,monolith-mini,6d6f6e6f-6c69-4746-982d-6d696e692e6b,rev?*%
%TF.SameCoordinates,Original*%
%TF.FileFunction,Copper,L2,Bot*%
%TF.FilePolarity,Positive*%
%FSLAX46Y46*%
G04 Gerber Fmt 4.6, Leading zero omitted, Abs format (unit mm)*
G04 Created by KiCad (PCBNEW 9.0.4) date 2025-08-28 11:20:26*
%MOMM*%
%LPD*%
G01*
G04 APERTURE LIST*
G04 Aperture macros list*
%AMRoundRect*
0 Rectangle with rounded corners*
0 $1 Rounding radius*
0 $2 $3 $4 $5 $6 $7 $8 $9 X,Y pos of 4 corners*
0 Add a 4 corners polygon primitive as box body*
4,1,4,$2,$3,$4,$5,$6,$7,$8,$9,$2,$3,0*
0 Add four circle primitives for the rounded corners*
1,1,$1+$1,$2,$3*
1,1,$1+$1,$4,$5*
1,1,$1+$1,$6,$7*
1,1,$1+$1,$8,$9*
0 Add four rect primitives between the rounded corners*
20,1,$1+$1,$2,$3,$4,$5,0*
20,1,$1+$1,$4,$5,$6,$7,0*
20,1,$1+$1,$6,$7,$8,$9,0*
20,1,$1+$1,$8,$9,$2,$3,0*%
G04 Aperture macros list end*
%TA.AperFunction,ComponentPad*%
%ADD10RoundRect,0.250001X1.099999X1.599999X-1.099999X1.599999X-1.099999X-1.599999X1.099999X-1.599999X0*%
%TD*%
%TA.AperFunction,ComponentPad*%
%ADD11O,2.700000X3.700000*%
%TD*%
%TA.AperFunction,HeatsinkPad*%
%ADD12C,0.600000*%
%TD*%
%TA.AperFunction,ComponentPad*%
%ADD13R,1.700000X1.700000*%
%TD*%
%TA.AperFunction,ComponentPad*%
%ADD14C,1.700000*%
%TD*%
%TA.AperFunction,ComponentPad*%
%ADD15C,3.400000*%
%TD*%
%TA.AperFunction,ConnectorPad*%
%ADD16C,6.000000*%
%TD*%
%TA.AperFunction,ComponentPad*%
%ADD17C,0.600000*%
%TD*%
%TA.AperFunction,SMDPad,CuDef*%
%ADD18R,2.950000X4.500000*%
%TD*%
%TA.AperFunction,ViaPad*%
%ADD19C,0.600000*%
%TD*%
%TA.AperFunction,Conductor*%
%ADD20C,0.200000*%
%TD*%
%TA.AperFunction,Conductor*%
%ADD21C,0.300000*%
%TD*%
G04 APERTURE END LIST*
D10*
%TO.P,J3,1,Pin_1*%
%TO.N,+3V3*%
X155975000Y-133025000D03*
D11*
%TO.P,J3,2,Pin_2*%
%TO.N,GND*%
X151775000Y-133025000D03*
%TO.P,J3,3,Pin_3*%
%TO.N,/DBGRX*%
X155975000Y-127525000D03*
%TO.P,J3,4,Pin_4*%
%TO.N,/DBGTX*%
X151775000Y-127525000D03*
%TD*%
D12*
%TO.P,U2,41,GND*%
%TO.N,GND*%
X137325000Y-85025000D03*
X137325000Y-86425000D03*
X138025000Y-84325000D03*
X138025000Y-85725000D03*
X138025000Y-87125000D03*
X138725000Y-85025000D03*
X138725000Y-86425000D03*
X139425000Y-84325000D03*
X139425000Y-85725000D03*
X139425000Y-87125000D03*
X140125000Y-85025000D03*
X140125000Y-86425000D03*
%TD*%
D10*
%TO.P,J4,1,Pin_1*%
%TO.N,+3V3*%
X167075000Y-133025000D03*
D11*
%TO.P,J4,2,Pin_2*%
%TO.N,GND*%
X162875000Y-133025000D03*
%TO.P,J4,3,Pin_3*%
%TO.N,+5V*%
X167075000Y-127525000D03*
%TO.P,J4,4,Pin_4*%
%TO.N,GND*%
X162875000Y-127525000D03*
%TD*%
D13*
%TO.P,JP8,1,A*%
%TO.N,Net-(JP8-A)*%
X128400000Y-113665000D03*
D14*
%TO.P,JP8,2,B*%
%TO.N,/CANL*%
X125860000Y-113665000D03*
%TD*%
D13*
%TO.P,J10,1,Pin_1*%
%TO.N,+3V3*%
X128025000Y-100125000D03*
D14*
%TO.P,J10,2,Pin_2*%
%TO.N,GND*%
X125485000Y-100125000D03*
%TO.P,J10,3,Pin_3*%
%TO.N,/RX*%
X128025000Y-97585000D03*
%TO.P,J10,4,Pin_4*%
%TO.N,/RTS*%
X125485000Y-97585000D03*
%TO.P,J10,5,Pin_5*%
%TO.N,/TX*%
X128025000Y-95045000D03*
%TO.P,J10,6,Pin_6*%
%TO.N,/DTR*%
X125485000Y-95045000D03*
%TD*%
D15*
%TO.P,REF\u002A\u002A,1*%
%TO.N,N/C*%
X126525000Y-72925000D03*
D16*
X126525000Y-72925000D03*
%TD*%
D17*
%TO.P,U5,9,GNDPAD*%
%TO.N,GND*%
X139375000Y-118175000D03*
X139375000Y-116975000D03*
X139375000Y-115675000D03*
X139375000Y-114575000D03*
D18*
X138775000Y-116375000D03*
D17*
X138175000Y-118175000D03*
X138175000Y-116975000D03*
X138175000Y-115675000D03*
X138175000Y-114575000D03*
%TD*%
D15*
%TO.P,REF\u002A\u002A,1*%
%TO.N,N/C*%
X170125000Y-121575000D03*
D16*
X170125000Y-121575000D03*
%TD*%
D15*
%TO.P,REF\u002A\u002A,1*%
%TO.N,N/C*%
X126525000Y-121575000D03*
D16*
X126525000Y-121575000D03*
%TD*%
D13*
%TO.P,JP5,1,A*%
%TO.N,Net-(JP5-A)*%
X147350000Y-98725000D03*
D14*
%TO.P,JP5,2,B*%
%TO.N,+3V3*%
X149890000Y-98725000D03*
%TD*%
D10*
%TO.P,J2,1,Pin_1*%
%TO.N,+3V3*%
X144875000Y-133025000D03*
D11*
%TO.P,J2,2,Pin_2*%
%TO.N,GND*%
X140675000Y-133025000D03*
%TO.P,J2,3,Pin_3*%
%TO.N,/GPS_RX*%
X144875000Y-127525000D03*
%TO.P,J2,4,Pin_4*%
%TO.N,/GPS_TX*%
X140675000Y-127525000D03*
%TD*%
D15*
%TO.P,REF\u002A\u002A,1*%
%TO.N,N/C*%
X170125000Y-72925000D03*
D16*
X170125000Y-72925000D03*
%TD*%
D10*
%TO.P,J1,1,Pin_1*%
%TO.N,VBUS*%
X133775000Y-133025000D03*
D11*
%TO.P,J1,2,Pin_2*%
%TO.N,GND*%
X129575000Y-133025000D03*
%TO.P,J1,3,Pin_3*%
%TO.N,/CANH*%
X133775000Y-127525000D03*
%TO.P,J1,4,Pin_4*%
%TO.N,/CANL*%
X129575000Y-127525000D03*
%TD*%
D19*
%TO.N,GND*%
X163650000Y-120350000D03*
X153600000Y-119900000D03*
X168500000Y-81000000D03*
X130300000Y-111187500D03*
X156750000Y-109350000D03*
X126650000Y-82100000D03*
X168650000Y-89900000D03*
X161000000Y-95550000D03*
X136400000Y-111850000D03*
X153900000Y-111900000D03*
X152350000Y-79700000D03*
X149100000Y-101500000D03*
X132975000Y-78005000D03*
X157900000Y-89425000D03*
X151550000Y-108950000D03*
X138500000Y-112800000D03*
X143500000Y-105300000D03*
X147205000Y-78005000D03*
X149825000Y-103825000D03*
X160200000Y-81050000D03*
X162750000Y-114950000D03*
X149150000Y-96200000D03*
X152650000Y-105550000D03*
X137225000Y-105125000D03*
X137150000Y-93700000D03*
X128550000Y-107700000D03*
X146650000Y-84550000D03*
X152750000Y-96050000D03*
X146600000Y-91500000D03*
X133500000Y-88150000D03*
X156700000Y-103950000D03*
X128300000Y-101800000D03*
%TO.N,+3V3*%
X143525000Y-79275000D03*
X136950000Y-106450000D03*
X153650000Y-109275000D03*
X150550000Y-87625000D03*
X150550000Y-92475000D03*
X150550000Y-83475000D03*
X150550000Y-103075000D03*
X134452880Y-106472120D03*
%TO.N,/ADC7*%
X133975000Y-102375000D03*
X133075000Y-91975000D03*
%TO.N,/GPS_TX*%
X133325000Y-89425000D03*
%TO.N,/GPS_RX*%
X136350000Y-90700000D03*
%TO.N,/EN*%
X125850000Y-85275000D03*
X125500000Y-82000000D03*
%TO.N,/BOOT*%
X147025000Y-94025000D03*
X130000000Y-85425000D03*
%TO.N,/RX*%
X134075000Y-83075000D03*
%TO.N,/TX*%
X134075000Y-81825000D03*
%TO.N,/DBGTX*%
X133050000Y-93875000D03*
%TO.N,/DBGRX*%
X131475000Y-95975000D03*
%TD*%
D20*
%TO.N,/DBGRX*%
X152925000Y-130575000D02*
X155975000Y-127525000D01*
X138000000Y-130575000D02*
X152925000Y-130575000D01*
X136450000Y-129025000D02*
X138000000Y-130575000D01*
X136450000Y-126400000D02*
X136450000Y-129025000D01*
X131475000Y-121425000D02*
X136450000Y-126400000D01*
X131475000Y-95975000D02*
X131475000Y-121425000D01*
%TO.N,/DBGTX*%
X133050000Y-120525000D02*
X133050000Y-93875000D01*
X138000000Y-125475000D02*
X133050000Y-120525000D01*
X139250000Y-130000000D02*
X138000000Y-128750000D01*
X138000000Y-128750000D02*
X138000000Y-125475000D01*
X149300000Y-130000000D02*
X139250000Y-130000000D01*
X151775000Y-127525000D02*
X149300000Y-130000000D01*
D21*
%TO.N,+3V3*%
X150550000Y-87625000D02*
X150550000Y-83475000D01*
X136950000Y-106450000D02*
X134475000Y-106450000D01*
X150550000Y-87625000D02*
X150550000Y-92475000D01*
X143525000Y-79275000D02*
X146350000Y-79275000D01*
X150550000Y-103075000D02*
X150550000Y-92475000D01*
X150550000Y-106175000D02*
X150550000Y-103075000D01*
X134475000Y-106450000D02*
X134452880Y-106472120D01*
X146350000Y-79275000D02*
X150550000Y-83475000D01*
X153650000Y-109275000D02*
X150550000Y-106175000D01*
D20*
%TO.N,/ADC7*%
X133975000Y-102375000D02*
X133975000Y-92875000D01*
X133975000Y-92875000D02*
X133075000Y-91975000D01*
%TO.N,VBUS*%
X133775000Y-132475000D02*
X133775000Y-133025000D01*
X133775000Y-132425000D02*
X133775000Y-133025000D01*
%TO.N,/GPS_TX*%
X144200000Y-94950000D02*
X141125000Y-91875000D01*
X141125000Y-91875000D02*
X136000000Y-91875000D01*
X136000000Y-91875000D02*
X135775000Y-91875000D01*
X140675000Y-127525000D02*
X144200000Y-124000000D01*
X135775000Y-91875000D02*
X133325000Y-89425000D01*
X144200000Y-124000000D02*
X144200000Y-94950000D01*
%TO.N,/GPS_RX*%
X136350000Y-90700000D02*
X141875000Y-90700000D01*
X145575000Y-94400000D02*
X145575000Y-126825000D01*
X141875000Y-90700000D02*
X145575000Y-94400000D01*
X145575000Y-126825000D02*
X144875000Y-127525000D01*
%TO.N,/EN*%
X125500000Y-84925000D02*
X125500000Y-82000000D01*
X125850000Y-85275000D02*
X125500000Y-84925000D01*
%TO.N,/BOOT*%
X130000000Y-85425000D02*
X133175000Y-85425000D01*
X136275000Y-88525000D02*
X141525000Y-88525000D01*
X141525000Y-88525000D02*
X147025000Y-94025000D01*
X133175000Y-85425000D02*
X136275000Y-88525000D01*
%TO.N,/RX*%
X134075000Y-83075000D02*
X130775000Y-83075000D01*
X129200000Y-96150000D02*
X127765000Y-97585000D01*
X127765000Y-97585000D02*
X127750000Y-97585000D01*
X130775000Y-83075000D02*
X129200000Y-84650000D01*
X129200000Y-84650000D02*
X129200000Y-96150000D01*
%TO.N,/TX*%
X134075000Y-81825000D02*
X130025000Y-81825000D01*
X128025000Y-94770000D02*
X127750000Y-95045000D01*
X128025000Y-83825000D02*
X128025000Y-94770000D01*
X130025000Y-81825000D02*
X128025000Y-83825000D01*
%TD*%
%TA.AperFunction,Conductor*%
%TO.N,GND*%
G36*
X132941942Y-86045185D02*
G01*
X132962584Y-86061819D01*
X135790139Y-88889374D01*
X135790149Y-88889385D01*
X135794479Y-88893715D01*
X135794480Y-88893716D01*
X135906284Y-89005520D01*
X135976088Y-89045821D01*
X136043215Y-89084577D01*
X136195943Y-89125501D01*
X136195946Y-89125501D01*
X136361653Y-89125501D01*
X136361669Y-89125500D01*
X141224903Y-89125500D01*
X141291942Y-89145185D01*
X141312584Y-89161819D01*
X142038583Y-89887818D01*
X142049194Y-89907251D01*
X142063696Y-89923987D01*
X142065613Y-89937319D01*
X142072068Y-89949141D01*
X142070488Y-89971227D01*
X142073640Y-89993145D01*
X142068044Y-90005396D01*
X142067084Y-90018833D01*
X142053812Y-90036561D01*
X142044615Y-90056701D01*
X142033284Y-90063983D01*
X142025212Y-90074766D01*
X142004466Y-90082503D01*
X141985838Y-90094476D01*
X141963918Y-90097627D01*
X141959748Y-90099183D01*
X141950903Y-90099499D01*
X141795943Y-90099499D01*
X141795939Y-90099499D01*
X141788332Y-90099500D01*
X141788331Y-90099499D01*
X141788331Y-90099500D01*
X136929766Y-90099500D01*
X136862727Y-90079815D01*
X136860875Y-90078602D01*
X136729185Y-89990609D01*
X136729172Y-89990602D01*
X136583501Y-89930264D01*
X136583489Y-89930261D01*
X136428845Y-89899500D01*
X136428842Y-89899500D01*
X136271158Y-89899500D01*
X136271155Y-89899500D01*
X136116510Y-89930261D01*
X136116498Y-89930264D01*
X135970827Y-89990602D01*
X135970814Y-89990609D01*
X135839711Y-90078210D01*
X135839707Y-90078213D01*
X135728213Y-90189707D01*
X135728210Y-90189711D01*
X135640609Y-90320814D01*
X135640602Y-90320827D01*
X135580264Y-90466498D01*
X135580261Y-90466508D01*
X135565042Y-90543020D01*
X135532657Y-90604931D01*
X135471941Y-90639505D01*
X135402171Y-90635764D01*
X135355744Y-90606509D01*
X134159574Y-89410339D01*
X134126089Y-89349016D01*
X134125638Y-89346849D01*
X134094738Y-89191510D01*
X134094737Y-89191503D01*
X134075552Y-89145185D01*
X134034397Y-89045827D01*
X134034390Y-89045814D01*
X133946789Y-88914711D01*
X133946786Y-88914707D01*
X133835292Y-88803213D01*
X133835288Y-88803210D01*
X133704185Y-88715609D01*
X133704172Y-88715602D01*
X133558501Y-88655264D01*
X133558489Y-88655261D01*
X133403845Y-88624500D01*
X133403842Y-88624500D01*
X133246158Y-88624500D01*
X133246155Y-88624500D01*
X133091510Y-88655261D01*
X133091498Y-88655264D01*
X132945827Y-88715602D01*
X132945814Y-88715609D01*
X132814711Y-88803210D01*
X132814707Y-88803213D01*
X132703213Y-88914707D01*
X132703210Y-88914711D01*
X132615609Y-89045814D01*
X132615602Y-89045827D01*
X132555264Y-89191498D01*
X132555261Y-89191510D01*
X132524500Y-89346153D01*
X132524500Y-89503846D01*
X132555261Y-89658489D01*
X132555264Y-89658501D01*
X132615602Y-89804172D01*
X132615609Y-89804185D01*
X132703210Y-89935288D01*
X132703213Y-89935292D01*
X132814707Y-90046786D01*
X132814711Y-90046789D01*
X132945814Y-90134390D01*
X132945827Y-90134397D01*
X133079359Y-90189707D01*
X133091503Y-90194737D01*
X133156147Y-90207595D01*
X133246849Y-90225638D01*
X133308760Y-90258023D01*
X133310339Y-90259574D01*
X135290139Y-92239374D01*
X135290149Y-92239385D01*
X135294479Y-92243715D01*
X135294480Y-92243716D01*
X135406284Y-92355520D01*
X135406286Y-92355521D01*
X135406290Y-92355524D01*
X135476667Y-92396156D01*
X135476671Y-92396157D01*
X135476672Y-92396158D01*
X135509943Y-92415367D01*
X135543212Y-92434576D01*
X135543214Y-92434576D01*
X135543215Y-92434577D01*
X135695942Y-92475500D01*
X135695943Y-92475500D01*
X135920943Y-92475500D01*
X140824903Y-92475500D01*
X140891942Y-92495185D01*
X140912584Y-92511819D01*
X143563181Y-95162416D01*
X143596666Y-95223739D01*
X143599500Y-95250097D01*
X143599500Y-123699902D01*
X143579815Y-123766941D01*
X143563181Y-123787583D01*
X141874079Y-125476684D01*
X141812756Y-125510169D01*
X141743064Y-125505185D01*
X141710915Y-125487381D01*
X141705289Y-125483064D01*
X141705286Y-125483062D01*
X141705279Y-125483057D01*
X141495981Y-125362220D01*
X141495212Y-125361776D01*
X141421685Y-125331320D01*
X141271104Y-125268947D01*
X141036785Y-125206161D01*
X140796289Y-125174500D01*
X140796288Y-125174500D01*
X140553712Y-125174500D01*
X140553711Y-125174500D01*
X140313214Y-125206161D01*
X140078895Y-125268947D01*
X139854794Y-125361773D01*
X139854790Y-125361775D01*
X139854788Y-125361776D01*
X139644723Y-125483057D01*
X139644706Y-125483067D01*
X139452263Y-125630733D01*
X139452256Y-125630739D01*
X139280739Y-125802256D01*
X139280733Y-125802263D01*
X139133067Y-125994706D01*
X139011777Y-126204785D01*
X139011773Y-126204794D01*
X138918947Y-126428895D01*
X138856161Y-126663214D01*
X138847439Y-126729470D01*
X138819173Y-126793367D01*
X138760848Y-126831838D01*
X138690984Y-126832669D01*
X138631760Y-126795597D01*
X138601981Y-126732391D01*
X138600500Y-126713285D01*
X138600500Y-125395945D01*
X138600499Y-125395941D01*
X138597900Y-125386242D01*
X138591345Y-125361776D01*
X138559577Y-125243215D01*
X138519904Y-125174500D01*
X138495633Y-125132461D01*
X138480521Y-125106285D01*
X138364385Y-124990149D01*
X138364374Y-124990139D01*
X133686819Y-120312584D01*
X133653334Y-120251261D01*
X133650500Y-120224903D01*
X133650500Y-118672844D01*
X136800000Y-118672844D01*
X136806401Y-118732372D01*
X136806403Y-118732379D01*
X136856645Y-118867086D01*
X136856649Y-118867093D01*
X136942809Y-118982187D01*
X136942812Y-118982190D01*
X137057906Y-119068350D01*
X137057913Y-119068354D01*
X137192620Y-119118596D01*
X137192627Y-119118598D01*
X137252155Y-119124999D01*
X137252172Y-119125000D01*
X138525000Y-119125000D01*
X138525000Y-118878553D01*
X138524999Y-118878552D01*
X139025000Y-118878552D01*
X139025000Y-119125000D01*
X140297828Y-119125000D01*
X140297844Y-119124999D01*
X140357372Y-119118598D01*
X140357379Y-119118596D01*
X140492086Y-119068354D01*
X140492093Y-119068350D01*
X140607187Y-118982190D01*
X140607190Y-118982187D01*
X140693350Y-118867093D01*
X140693354Y-118867086D01*
X140743596Y-118732379D01*
X140743598Y-118732372D01*
X140749999Y-118672844D01*
X140750000Y-118672827D01*
X140750000Y-116625000D01*
X140078552Y-116625000D01*
X139728553Y-116975000D01*
X140121704Y-117368151D01*
X140155189Y-117429474D01*
X140158023Y-117455832D01*
X140158023Y-117694167D01*
X140151784Y-117715412D01*
X140150205Y-117737500D01*
X140141171Y-117751556D01*
X140138338Y-117761206D01*
X140130737Y-117767792D01*
X140121704Y-117781848D01*
X139551777Y-118351777D01*
X139025000Y-118878552D01*
X138524999Y-118878552D01*
X137998223Y-118351777D01*
X137791609Y-118145163D01*
X138025000Y-118145163D01*
X138025000Y-118204837D01*
X138047836Y-118259968D01*
X138090032Y-118302164D01*
X138145163Y-118325000D01*
X138204837Y-118325000D01*
X138259968Y-118302164D01*
X138302164Y-118259968D01*
X138325000Y-118204837D01*
X138325000Y-118145163D01*
X139225000Y-118145163D01*
X139225000Y-118204837D01*
X139247836Y-118259968D01*
X139290032Y-118302164D01*
X139345163Y-118325000D01*
X139404837Y-118325000D01*
X139459968Y-118302164D01*
X139502164Y-118259968D01*
X139525000Y-118204837D01*
X139525000Y-118145163D01*
X139502164Y-118090032D01*
X139459968Y-118047836D01*
X139404837Y-118025000D01*
X139345163Y-118025000D01*
X139290032Y-118047836D01*
X139247836Y-118090032D01*
X139225000Y-118145163D01*
X138325000Y-118145163D01*
X138302164Y-118090032D01*
X138259968Y-118047836D01*
X138204837Y-118025000D01*
X138145163Y-118025000D01*
X138090032Y-118047836D01*
X138047836Y-118090032D01*
X138025000Y-118145163D01*
X137791609Y-118145163D01*
X137428294Y-117781848D01*
X137394809Y-117720525D01*
X137399793Y-117650833D01*
X137400750Y-117648351D01*
X137429916Y-117574999D01*
X137928553Y-117574999D01*
X138175000Y-117821446D01*
X138421446Y-117575001D01*
X138421446Y-117575000D01*
X138421445Y-117574999D01*
X139128553Y-117574999D01*
X139375000Y-117821446D01*
X139621446Y-117575001D01*
X139621446Y-117575000D01*
X139375000Y-117328553D01*
X139128553Y-117574999D01*
X138421445Y-117574999D01*
X138175000Y-117328553D01*
X137928553Y-117574999D01*
X137429916Y-117574999D01*
X137438412Y-117553631D01*
X137428295Y-117543514D01*
X137394810Y-117482191D01*
X137399794Y-117412499D01*
X137428295Y-117368152D01*
X137821446Y-116975001D01*
X137821446Y-116974999D01*
X137791610Y-116945163D01*
X138025000Y-116945163D01*
X138025000Y-117004837D01*
X138047836Y-117059968D01*
X138090032Y-117102164D01*
X138145163Y-117125000D01*
X138204837Y-117125000D01*
X138259968Y-117102164D01*
X138302164Y-117059968D01*
X138325000Y-117004837D01*
X138325000Y-116945163D01*
X139225000Y-116945163D01*
X139225000Y-117004837D01*
X139247836Y-117059968D01*
X139290032Y-117102164D01*
X139345163Y-117125000D01*
X139404837Y-117125000D01*
X139459968Y-117102164D01*
X139502164Y-117059968D01*
X139525000Y-117004837D01*
X139525000Y-116945163D01*
X139502164Y-116890032D01*
X139459968Y-116847836D01*
X139404837Y-116825000D01*
X139345163Y-116825000D01*
X139290032Y-116847836D01*
X139247836Y-116890032D01*
X139225000Y-116945163D01*
X138325000Y-116945163D01*
X138302164Y-116890032D01*
X138259968Y-116847836D01*
X138204837Y-116825000D01*
X138145163Y-116825000D01*
X138090032Y-116847836D01*
X138047836Y-116890032D01*
X138025000Y-116945163D01*
X137791610Y-116945163D01*
X137471447Y-116625000D01*
X136800000Y-116625000D01*
X136800000Y-118672844D01*
X133650500Y-118672844D01*
X133650500Y-114077155D01*
X136800000Y-114077155D01*
X136800000Y-116125000D01*
X137371447Y-116125000D01*
X138078554Y-116125000D01*
X138271445Y-116125000D01*
X139278554Y-116125000D01*
X139471445Y-116125000D01*
X139375000Y-116028553D01*
X139278554Y-116125000D01*
X138271445Y-116125000D01*
X138175000Y-116028553D01*
X138078554Y-116125000D01*
X137371447Y-116125000D01*
X137371447Y-116124999D01*
X137488222Y-116008225D01*
X137821446Y-115675000D01*
X137791609Y-115645163D01*
X138025000Y-115645163D01*
X138025000Y-115704837D01*
X138047836Y-115759968D01*
X138090032Y-115802164D01*
X138145163Y-115825000D01*
X138204837Y-115825000D01*
X138259968Y-115802164D01*
X138302164Y-115759968D01*
X138325000Y-115704837D01*
X138325000Y-115645163D01*
X139225000Y-115645163D01*
X139225000Y-115704837D01*
X139247836Y-115759968D01*
X139290032Y-115802164D01*
X139345163Y-115825000D01*
X139404837Y-115825000D01*
X139459968Y-115802164D01*
X139502164Y-115759968D01*
X139525000Y-115704837D01*
X139525000Y-115645163D01*
X139502164Y-115590032D01*
X139459968Y-115547836D01*
X139404837Y-115525000D01*
X139345163Y-115525000D01*
X139290032Y-115547836D01*
X139247836Y-115590032D01*
X139225000Y-115645163D01*
X138325000Y-115645163D01*
X138302164Y-115590032D01*
X138259968Y-115547836D01*
X138204837Y-115525000D01*
X138145163Y-115525000D01*
X138090032Y-115547836D01*
X138047836Y-115590032D01*
X138025000Y-115645163D01*
X137791609Y-115645163D01*
X137428294Y-115281848D01*
X137394809Y-115220525D01*
X137393306Y-115176045D01*
X137400846Y-115124999D01*
X137978553Y-115124999D01*
X138175000Y-115321446D01*
X138371446Y-115125001D01*
X138371446Y-115125000D01*
X138371445Y-115124999D01*
X139178553Y-115124999D01*
X139375000Y-115321446D01*
X139571446Y-115125001D01*
X139571446Y-115125000D01*
X139375000Y-114928553D01*
X139178553Y-115124999D01*
X138371445Y-115124999D01*
X138175000Y-114928553D01*
X137978553Y-115124999D01*
X137400846Y-115124999D01*
X137404538Y-115100009D01*
X137394809Y-115082190D01*
X137399793Y-115012498D01*
X137428294Y-114968151D01*
X137851283Y-114545163D01*
X138025000Y-114545163D01*
X138025000Y-114604837D01*
X138047836Y-114659968D01*
X138090032Y-114702164D01*
X138145163Y-114725000D01*
X138204837Y-114725000D01*
X138259968Y-114702164D01*
X138302164Y-114659968D01*
X138325000Y-114604837D01*
X138325000Y-114545163D01*
X139225000Y-114545163D01*
X139225000Y-114604837D01*
X139247836Y-114659968D01*
X139290032Y-114702164D01*
X139345163Y-114725000D01*
X139404837Y-114725000D01*
X139459968Y-114702164D01*
X139502164Y-114659968D01*
X139525000Y-114604837D01*
X139525000Y-114545163D01*
X139502164Y-114490032D01*
X139459968Y-114447836D01*
X139404837Y-114425000D01*
X139345163Y-114425000D01*
X139290032Y-114447836D01*
X139247836Y-114490032D01*
X139225000Y-114545163D01*
X138325000Y-114545163D01*
X138302164Y-114490032D01*
X138259968Y-114447836D01*
X138204837Y-114425000D01*
X138145163Y-114425000D01*
X138090032Y-114447836D01*
X138047836Y-114490032D01*
X138025000Y-114545163D01*
X137851283Y-114545163D01*
X137998223Y-114398223D01*
X138524999Y-113871446D01*
X139025000Y-113871446D01*
X139551777Y-114398223D01*
X140121704Y-114968151D01*
X140155189Y-115029474D01*
X140158023Y-115055832D01*
X140158023Y-115194167D01*
X140151784Y-115215411D01*
X140150206Y-115237497D01*
X140141172Y-115251554D01*
X140138338Y-115261206D01*
X140130736Y-115267792D01*
X140121704Y-115281848D01*
X139728553Y-115674999D01*
X139728553Y-115675000D01*
X140178553Y-116125000D01*
X140750000Y-116125000D01*
X140750000Y-114077172D01*
X140749999Y-114077155D01*
X140743598Y-114017627D01*
X140743596Y-114017620D01*
X140693354Y-113882913D01*
X140693350Y-113882906D01*
X140607190Y-113767812D01*
X140607187Y-113767809D01*
X140492093Y-113681649D01*
X140492086Y-113681645D01*
X140357379Y-113631403D01*
X140357372Y-113631401D01*
X140297844Y-113625000D01*
X139025000Y-113625000D01*
X139025000Y-113871446D01*
X138524999Y-113871446D01*
X138525000Y-113871445D01*
X138525000Y-113625000D01*
X137252155Y-113625000D01*
X137192627Y-113631401D01*
X137192620Y-113631403D01*
X137057913Y-113681645D01*
X137057906Y-113681649D01*
X136942812Y-113767809D01*
X136942809Y-113767812D01*
X136856649Y-113882906D01*
X136856645Y-113882913D01*
X136806403Y-114017620D01*
X136806401Y-114017627D01*
X136800000Y-114077155D01*
X133650500Y-114077155D01*
X133650500Y-107101181D01*
X133670185Y-107034142D01*
X133722989Y-106988387D01*
X133792147Y-106978443D01*
X133855703Y-107007468D01*
X133862181Y-107013500D01*
X133942587Y-107093906D01*
X133942591Y-107093909D01*
X134073694Y-107181510D01*
X134073707Y-107181517D01*
X134219378Y-107241855D01*
X134219383Y-107241857D01*
X134374033Y-107272619D01*
X134374036Y-107272620D01*
X134374038Y-107272620D01*
X134531724Y-107272620D01*
X134531725Y-107272619D01*
X134686377Y-107241857D01*
X134832059Y-107181514D01*
X134922029Y-107121398D01*
X134988706Y-107100520D01*
X134990920Y-107100500D01*
X136445065Y-107100500D01*
X136512104Y-107120185D01*
X136513909Y-107121366D01*
X136570821Y-107159394D01*
X136570823Y-107159395D01*
X136570827Y-107159397D01*
X136716498Y-107219735D01*
X136716503Y-107219737D01*
X136871153Y-107250499D01*
X136871156Y-107250500D01*
X136871158Y-107250500D01*
X137028844Y-107250500D01*
X137028845Y-107250499D01*
X137183497Y-107219737D01*
X137329179Y-107159394D01*
X137460289Y-107071789D01*
X137571789Y-106960289D01*
X137659394Y-106829179D01*
X137719737Y-106683497D01*
X137750500Y-106528842D01*
X137750500Y-106371158D01*
X137750500Y-106371155D01*
X137750499Y-106371153D01*
X137732840Y-106282375D01*
X137719737Y-106216503D01*
X137719735Y-106216498D01*
X137659397Y-106070827D01*
X137659390Y-106070814D01*
X137571789Y-105939711D01*
X137571786Y-105939707D01*
X137460292Y-105828213D01*
X137460288Y-105828210D01*
X137329185Y-105740609D01*
X137329172Y-105740602D01*
X137183501Y-105680264D01*
X137183489Y-105680261D01*
X137028845Y-105649500D01*
X137028842Y-105649500D01*
X136871158Y-105649500D01*
X136871155Y-105649500D01*
X136716510Y-105680261D01*
X136716498Y-105680264D01*
X136570827Y-105740602D01*
X136570820Y-105740606D01*
X136541928Y-105759911D01*
X136513955Y-105778602D01*
X136447279Y-105799480D01*
X136445065Y-105799500D01*
X134924711Y-105799500D01*
X134857672Y-105779815D01*
X134855820Y-105778602D01*
X134832065Y-105762729D01*
X134832052Y-105762722D01*
X134686381Y-105702384D01*
X134686369Y-105702381D01*
X134531725Y-105671620D01*
X134531722Y-105671620D01*
X134374038Y-105671620D01*
X134374035Y-105671620D01*
X134219390Y-105702381D01*
X134219378Y-105702384D01*
X134073707Y-105762722D01*
X134073694Y-105762729D01*
X133942591Y-105850330D01*
X133942587Y-105850333D01*
X133862181Y-105930740D01*
X133800858Y-105964225D01*
X133731166Y-105959241D01*
X133675233Y-105917369D01*
X133650816Y-105851905D01*
X133650500Y-105843059D01*
X133650500Y-103277730D01*
X133670185Y-103210691D01*
X133722989Y-103164936D01*
X133792147Y-103154992D01*
X133798692Y-103156113D01*
X133896155Y-103175500D01*
X133896158Y-103175500D01*
X134053844Y-103175500D01*
X134053845Y-103175499D01*
X134208497Y-103144737D01*
X134354179Y-103084394D01*
X134485289Y-102996789D01*
X134596789Y-102885289D01*
X134684394Y-102754179D01*
X134744737Y-102608497D01*
X134775500Y-102453842D01*
X134775500Y-102296158D01*
X134775500Y-102296155D01*
X134775499Y-102296153D01*
X134753211Y-102184106D01*
X134744737Y-102141503D01*
X134744735Y-102141498D01*
X134684397Y-101995827D01*
X134684390Y-101995814D01*
X134596398Y-101864125D01*
X134575520Y-101797447D01*
X134575500Y-101795234D01*
X134575500Y-92795945D01*
X134575498Y-92795936D01*
X134570060Y-92775638D01*
X134570023Y-92775500D01*
X134534577Y-92643215D01*
X134474448Y-92539069D01*
X134455520Y-92506284D01*
X134343716Y-92394480D01*
X134343713Y-92394478D01*
X133909574Y-91960339D01*
X133876089Y-91899016D01*
X133875638Y-91896849D01*
X133844738Y-91741510D01*
X133844737Y-91741503D01*
X133844735Y-91741498D01*
X133784397Y-91595827D01*
X133784390Y-91595814D01*
X133696789Y-91464711D01*
X133696786Y-91464707D01*
X133585292Y-91353213D01*
X133585288Y-91353210D01*
X133454185Y-91265609D01*
X133454172Y-91265602D01*
X133308501Y-91205264D01*
X133308489Y-91205261D01*
X133153845Y-91174500D01*
X133153842Y-91174500D01*
X132996158Y-91174500D01*
X132996155Y-91174500D01*
X132841510Y-91205261D01*
X132841498Y-91205264D01*
X132695827Y-91265602D01*
X132695814Y-91265609D01*
X132564711Y-91353210D01*
X132564707Y-91353213D01*
X132453213Y-91464707D01*
X132453210Y-91464711D01*
X132365609Y-91595814D01*
X132365602Y-91595827D01*
X132305264Y-91741498D01*
X132305261Y-91741510D01*
X132274500Y-91896153D01*
X132274500Y-92053846D01*
X132305261Y-92208489D01*
X132305264Y-92208501D01*
X132365602Y-92354172D01*
X132365609Y-92354185D01*
X132453210Y-92485288D01*
X132453213Y-92485292D01*
X132564707Y-92596786D01*
X132564711Y-92596789D01*
X132695814Y-92684390D01*
X132695827Y-92684397D01*
X132841498Y-92744735D01*
X132841503Y-92744737D01*
X132906147Y-92757595D01*
X132996849Y-92775638D01*
X133013605Y-92784402D01*
X133032085Y-92788423D01*
X133057123Y-92807167D01*
X133058760Y-92808023D01*
X133060339Y-92809574D01*
X133113584Y-92862819D01*
X133147069Y-92924142D01*
X133142085Y-92993834D01*
X133100213Y-93049767D01*
X133034749Y-93074184D01*
X133025903Y-93074500D01*
X132971155Y-93074500D01*
X132816510Y-93105261D01*
X132816498Y-93105264D01*
X132670827Y-93165602D01*
X132670814Y-93165609D01*
X132539711Y-93253210D01*
X132539707Y-93253213D01*
X132428213Y-93364707D01*
X132428210Y-93364711D01*
X132340609Y-93495814D01*
X132340602Y-93495827D01*
X132280264Y-93641498D01*
X132280261Y-93641510D01*
X132249500Y-93796153D01*
X132249500Y-93953846D01*
X132280261Y-94108489D01*
X132280264Y-94108501D01*
X132340602Y-94254172D01*
X132340609Y-94254185D01*
X132428602Y-94385874D01*
X132449480Y-94452551D01*
X132449500Y-94454765D01*
X132449500Y-95612453D01*
X132429815Y-95679492D01*
X132377011Y-95725247D01*
X132307853Y-95735191D01*
X132244297Y-95706166D01*
X132210939Y-95659906D01*
X132184395Y-95595823D01*
X132184390Y-95595814D01*
X132096789Y-95464711D01*
X132096786Y-95464707D01*
X131985292Y-95353213D01*
X131985288Y-95353210D01*
X131854185Y-95265609D01*
X131854172Y-95265602D01*
X131708501Y-95205264D01*
X131708489Y-95205261D01*
X131553845Y-95174500D01*
X131553842Y-95174500D01*
X131396158Y-95174500D01*
X131396155Y-95174500D01*
X131241510Y-95205261D01*
X131241498Y-95205264D01*
X131095827Y-95265602D01*
X131095814Y-95265609D01*
X130964711Y-95353210D01*
X130964707Y-95353213D01*
X130853213Y-95464707D01*
X130853210Y-95464711D01*
X130765609Y-95595814D01*
X130765602Y-95595827D01*
X130705264Y-95741498D01*
X130705261Y-95741510D01*
X130674500Y-95896153D01*
X130674500Y-96053846D01*
X130705261Y-96208489D01*
X130705264Y-96208501D01*
X130765602Y-96354172D01*
X130765609Y-96354185D01*
X130853602Y-96485874D01*
X130874480Y-96552551D01*
X130874500Y-96554765D01*
X130874500Y-121338330D01*
X130874499Y-121338348D01*
X130874499Y-121504054D01*
X130874498Y-121504054D01*
X130915423Y-121656785D01*
X130943906Y-121706119D01*
X130943908Y-121706121D01*
X130994479Y-121793714D01*
X130994481Y-121793717D01*
X131113349Y-121912585D01*
X131113355Y-121912590D01*
X134189583Y-124988818D01*
X134223068Y-125050141D01*
X134218084Y-125119833D01*
X134176212Y-125175766D01*
X134110748Y-125200183D01*
X134085717Y-125199438D01*
X133896289Y-125174500D01*
X133896288Y-125174500D01*
X133653712Y-125174500D01*
X133653711Y-125174500D01*
X133413214Y-125206161D01*
X133178895Y-125268947D01*
X132954794Y-125361773D01*
X132954790Y-125361775D01*
X132954788Y-125361776D01*
X132744723Y-125483057D01*
X132744706Y-125483067D01*
X132552263Y-125630733D01*
X132552256Y-125630739D01*
X132380739Y-125802256D01*
X132380733Y-125802263D01*
X132233067Y-125994706D01*
X132111777Y-126204785D01*
X132111773Y-126204794D01*
X132018947Y-126428895D01*
X131956161Y-126663214D01*
X131924500Y-126903711D01*
X131924500Y-128146288D01*
X131956161Y-128386785D01*
X132018947Y-128621104D01*
X132105084Y-128829057D01*
X132111776Y-128845212D01*
X132233064Y-129055289D01*
X132233066Y-129055292D01*
X132233067Y-129055293D01*
X132380733Y-129247736D01*
X132380739Y-129247743D01*
X132552256Y-129419260D01*
X132552262Y-129419265D01*
X132744711Y-129566936D01*
X132954788Y-129688224D01*
X133178900Y-129781054D01*
X133413211Y-129843838D01*
X133593586Y-129867584D01*
X133653711Y-129875500D01*
X133653712Y-129875500D01*
X133896289Y-129875500D01*
X133944388Y-129869167D01*
X134136789Y-129843838D01*
X134371100Y-129781054D01*
X134595212Y-129688224D01*
X134805289Y-129566936D01*
X134997738Y-129419265D01*
X135169265Y-129247738D01*
X135316936Y-129055289D01*
X135438224Y-128845212D01*
X135531054Y-128621100D01*
X135593838Y-128386789D01*
X135602561Y-128320528D01*
X135630827Y-128256632D01*
X135689152Y-128218161D01*
X135759016Y-128217329D01*
X135818240Y-128254402D01*
X135848019Y-128317607D01*
X135849500Y-128336714D01*
X135849500Y-128938330D01*
X135849499Y-128938348D01*
X135849499Y-129104054D01*
X135849498Y-129104054D01*
X135890423Y-129256785D01*
X135919358Y-129306900D01*
X135919359Y-129306904D01*
X135919360Y-129306904D01*
X135963649Y-129383617D01*
X135969479Y-129393714D01*
X135969481Y-129393717D01*
X136088349Y-129512585D01*
X136088355Y-129512590D01*
X137515139Y-130939374D01*
X137515149Y-130939385D01*
X137519479Y-130943715D01*
X137519480Y-130943716D01*
X137631284Y-131055520D01*
X137718095Y-131105639D01*
X137718097Y-131105641D01*
X137733161Y-131114338D01*
X137768215Y-131134577D01*
X137920943Y-131175501D01*
X137920946Y-131175501D01*
X138086653Y-131175501D01*
X138086669Y-131175500D01*
X139127187Y-131175500D01*
X139194226Y-131195185D01*
X139239981Y-131247989D01*
X139249925Y-131317147D01*
X139225563Y-131374986D01*
X139133480Y-131494990D01*
X139012227Y-131705006D01*
X139012220Y-131705021D01*
X138919421Y-131929060D01*
X138856653Y-132163312D01*
X138825001Y-132403735D01*
X138825000Y-132403751D01*
X138825000Y-132775000D01*
X139807096Y-132775000D01*
X139775000Y-132936358D01*
X139775000Y-133113642D01*
X139807096Y-133275000D01*
X138825000Y-133275000D01*
X138825000Y-133646262D01*
X138853116Y-133859814D01*
X138842351Y-133928850D01*
X138795971Y-133981106D01*
X138730177Y-134000000D01*
X135749500Y-134000000D01*
X135682461Y-133980315D01*
X135636706Y-133927511D01*
X135625500Y-133876000D01*
X135625500Y-131374997D01*
X135625499Y-131374984D01*
X135619590Y-131317147D01*
X135614999Y-131272203D01*
X135559814Y-131105666D01*
X135559797Y-131105639D01*
X135467713Y-130956348D01*
X135467710Y-130956344D01*
X135343655Y-130832289D01*
X135343651Y-130832286D01*
X135194337Y-130740187D01*
X135194335Y-130740186D01*
X135093138Y-130706653D01*
X135027797Y-130685001D01*
X135027795Y-130685000D01*
X134925015Y-130674500D01*
X134925008Y-130674500D01*
X132624992Y-130674500D01*
X132624984Y-130674500D01*
X132522204Y-130685000D01*
X132522203Y-130685001D01*
X132355664Y-130740186D01*
X132355662Y-130740187D01*
X132206348Y-130832286D01*
X132206344Y-130832289D01*
X132082289Y-130956344D01*
X132082286Y-130956348D01*
X131990187Y-131105662D01*
X131990186Y-131105664D01*
X131935001Y-131272203D01*
X131935000Y-131272204D01*
X131924500Y-131374984D01*
X131924500Y-133876000D01*
X131904815Y-133943039D01*
X131852011Y-133988794D01*
X131800500Y-134000000D01*
X131519823Y-134000000D01*
X131452784Y-133980315D01*
X131407029Y-133927511D01*
X131396884Y-133859814D01*
X131424999Y-133646262D01*
X131425000Y-133646248D01*
X131425000Y-133275000D01*
X130442904Y-133275000D01*
X130475000Y-133113642D01*
X130475000Y-132936358D01*
X130442904Y-132775000D01*
X131425000Y-132775000D01*
X131425000Y-132403751D01*
X131424998Y-132403735D01*
X131393346Y-132163312D01*
X131330578Y-131929060D01*
X131237779Y-131705021D01*
X131237772Y-131705006D01*
X131116519Y-131494990D01*
X130968889Y-131302594D01*
X130968883Y-131302587D01*
X130797412Y-131131116D01*
X130797405Y-131131110D01*
X130605009Y-130983480D01*
X130394993Y-130862227D01*
X130394978Y-130862220D01*
X130170939Y-130769421D01*
X129936687Y-130706653D01*
X129825000Y-130691948D01*
X129825000Y-132157095D01*
X129663642Y-132125000D01*
X129486358Y-132125000D01*
X129325000Y-132157095D01*
X129325000Y-130691948D01*
X129324999Y-130691948D01*
X129213312Y-130706653D01*
X128979060Y-130769421D01*
X128755021Y-130862220D01*
X128755006Y-130862227D01*
X128544990Y-130983480D01*
X128352594Y-131131110D01*
X128352587Y-131131116D01*
X128181116Y-131302587D01*
X128181110Y-131302594D01*
X128033480Y-131494990D01*
X127912227Y-131705006D01*
X127912220Y-131705021D01*
X127819421Y-131929060D01*
X127756653Y-132163312D01*
X127725001Y-132403735D01*
X127725000Y-132403751D01*
X127725000Y-132775000D01*
X128707096Y-132775000D01*
X128675000Y-132936358D01*
X128675000Y-133113642D01*
X128707096Y-133275000D01*
X127725000Y-133275000D01*
X127725000Y-133646262D01*
X127753116Y-133859814D01*
X127742351Y-133928850D01*
X127695971Y-133981106D01*
X127630177Y-134000000D01*
X126474000Y-134000000D01*
X126406961Y-133980315D01*
X126361206Y-133927511D01*
X126350000Y-133876000D01*
X126350000Y-126903711D01*
X127724500Y-126903711D01*
X127724500Y-128146288D01*
X127756161Y-128386785D01*
X127818947Y-128621104D01*
X127905084Y-128829057D01*
X127911776Y-128845212D01*
X128033064Y-129055289D01*
X128033066Y-129055292D01*
X128033067Y-129055293D01*
X128180733Y-129247736D01*
X128180739Y-129247743D01*
X128352256Y-129419260D01*
X128352262Y-129419265D01*
X128544711Y-129566936D01*
X128754788Y-129688224D01*
X128978900Y-129781054D01*
X129213211Y-129843838D01*
X129393586Y-129867584D01*
X129453711Y-129875500D01*
X129453712Y-129875500D01*
X129696289Y-129875500D01*
X129744388Y-129869167D01*
X129936789Y-129843838D01*
X130171100Y-129781054D01*
X130395212Y-129688224D01*
X130605289Y-129566936D01*
X130797738Y-129419265D01*
X130969265Y-129247738D01*
X131116936Y-129055289D01*
X131238224Y-128845212D01*
X131331054Y-128621100D01*
X131393838Y-128386789D01*
X131425500Y-128146288D01*
X131425500Y-126903712D01*
X131393838Y-126663211D01*
X131331054Y-126428900D01*
X131238224Y-126204788D01*
X131116936Y-125994711D01*
X130969520Y-125802594D01*
X130969266Y-125802263D01*
X130969260Y-125802256D01*
X130797743Y-125630739D01*
X130797736Y-125630733D01*
X130605293Y-125483067D01*
X130605292Y-125483066D01*
X130605289Y-125483064D01*
X130395212Y-125361776D01*
X130321685Y-125331320D01*
X130171104Y-125268947D01*
X129936785Y-125206161D01*
X129696289Y-125174500D01*
X129696288Y-125174500D01*
X129453712Y-125174500D01*
X129453711Y-125174500D01*
X129213214Y-125206161D01*
X128978895Y-125268947D01*
X128754794Y-125361773D01*
X128754790Y-125361775D01*
X128754788Y-125361776D01*
X128544723Y-125483057D01*
X128544706Y-125483067D01*
X128352263Y-125630733D01*
X128352256Y-125630739D01*
X128180739Y-125802256D01*
X128180733Y-125802263D01*
X128033067Y-125994706D01*
X127911777Y-126204785D01*
X127911773Y-126204794D01*
X127818947Y-126428895D01*
X127756161Y-126663214D01*
X127724500Y-126903711D01*
X126350000Y-126903711D01*
X126350000Y-125199500D01*
X126369685Y-125132461D01*
X126422489Y-125086706D01*
X126474000Y-125075500D01*
X126696966Y-125075500D01*
X126696969Y-125075500D01*
X127039250Y-125041789D01*
X127376578Y-124974690D01*
X127705705Y-124874850D01*
X128023462Y-124743231D01*
X128326787Y-124581100D01*
X128612760Y-124390019D01*
X128878627Y-124171828D01*
X129121828Y-123928627D01*
X129340019Y-123662760D01*
X129531100Y-123376787D01*
X129693231Y-123073462D01*
X129824850Y-122755705D01*
X129924690Y-122426578D01*
X129991789Y-122089250D01*
X130025500Y-121746969D01*
X130025500Y-121403031D01*
X129991789Y-121060750D01*
X129924690Y-120723422D01*
X129824850Y-120394295D01*
X129693231Y-120076538D01*
X129531100Y-119773213D01*
X129340019Y-119487240D01*
X129121828Y-119221373D01*
X129121827Y-119221372D01*
X129121823Y-119221367D01*
X128878632Y-118978176D01*
X128612765Y-118759985D01*
X128612764Y-118759984D01*
X128612760Y-118759981D01*
X128326787Y-118568900D01*
X128326782Y-118568897D01*
X128326775Y-118568893D01*
X128023469Y-118406772D01*
X128023464Y-118406770D01*
X127705706Y-118275150D01*
X127376572Y-118175308D01*
X127039248Y-118108210D01*
X127039249Y-118108210D01*
X126781456Y-118082821D01*
X126696969Y-118074500D01*
X126474000Y-118074500D01*
X126406961Y-118054815D01*
X126361206Y-118002011D01*
X126350000Y-117950500D01*
X126350000Y-115007020D01*
X126369685Y-114939981D01*
X126417704Y-114896536D01*
X126567816Y-114820051D01*
X126669790Y-114745962D01*
X126739784Y-114695110D01*
X126739784Y-114695109D01*
X126739792Y-114695104D01*
X126853329Y-114581566D01*
X126914648Y-114548084D01*
X126984340Y-114553068D01*
X127040274Y-114594939D01*
X127057189Y-114625917D01*
X127106202Y-114757328D01*
X127106206Y-114757335D01*
X127192452Y-114872544D01*
X127192455Y-114872547D01*
X127307664Y-114958793D01*
X127307671Y-114958797D01*
X127442517Y-115009091D01*
X127442516Y-115009091D01*
X127449444Y-115009835D01*
X127502127Y-115015500D01*
X129297872Y-115015499D01*
X129357483Y-115009091D01*
X129492331Y-114958796D01*
X129607546Y-114872546D01*
X129693796Y-114757331D01*
X129744091Y-114622483D01*
X129750500Y-114562873D01*
X129750499Y-112767128D01*
X129744091Y-112707517D01*
X129742810Y-112704083D01*
X129693797Y-112572671D01*
X129693793Y-112572664D01*
X129607547Y-112457455D01*
X129607544Y-112457452D01*
X129492335Y-112371206D01*
X129492328Y-112371202D01*
X129357482Y-112320908D01*
X129357483Y-112320908D01*
X129297883Y-112314501D01*
X129297881Y-112314500D01*
X129297873Y-112314500D01*
X129297864Y-112314500D01*
X127502129Y-112314500D01*
X127502123Y-112314501D01*
X127442516Y-112320908D01*
X127307671Y-112371202D01*
X127307664Y-112371206D01*
X127192455Y-112457452D01*
X127192452Y-112457455D01*
X127106206Y-112572664D01*
X127106203Y-112572669D01*
X127057189Y-112704083D01*
X127015317Y-112760016D01*
X126949853Y-112784433D01*
X126881580Y-112769581D01*
X126853326Y-112748430D01*
X126739786Y-112634890D01*
X126567820Y-112509951D01*
X126547923Y-112499813D01*
X126417704Y-112433463D01*
X126366909Y-112385490D01*
X126350000Y-112322979D01*
X126350000Y-98681258D01*
X126369685Y-98614219D01*
X126386319Y-98593577D01*
X126401571Y-98578325D01*
X126515104Y-98464792D01*
X126515106Y-98464788D01*
X126515109Y-98464786D01*
X126640048Y-98292820D01*
X126640047Y-98292820D01*
X126640051Y-98292816D01*
X126644514Y-98284054D01*
X126692488Y-98233259D01*
X126760308Y-98216463D01*
X126826444Y-98238999D01*
X126865486Y-98284056D01*
X126869951Y-98292820D01*
X126994890Y-98464786D01*
X127108430Y-98578326D01*
X127141915Y-98639649D01*
X127136931Y-98709341D01*
X127095059Y-98765274D01*
X127064083Y-98782189D01*
X126932669Y-98831203D01*
X126932664Y-98831206D01*
X126817455Y-98917452D01*
X126817452Y-98917455D01*
X126731206Y-99032664D01*
X126731202Y-99032671D01*
X126680908Y-99167517D01*
X126674501Y-99227116D01*
X126674501Y-99227123D01*
X126674500Y-99227135D01*
X126674500Y-101022870D01*
X126674501Y-101022876D01*
X126680908Y-101082483D01*
X126731202Y-101217328D01*
X126731206Y-101217335D01*
X126817452Y-101332544D01*
X126817455Y-101332547D01*
X126932664Y-101418793D01*
X126932671Y-101418797D01*
X127067517Y-101469091D01*
X127067516Y-101469091D01*
X127074444Y-101469835D01*
X127127127Y-101475500D01*
X128922872Y-101475499D01*
X128982483Y-101469091D01*
X129117331Y-101418796D01*
X129232546Y-101332546D01*
X129318796Y-101217331D01*
X129369091Y-101082483D01*
X129375500Y-101022873D01*
X129375499Y-99227128D01*
X129369091Y-99167517D01*
X129329737Y-99062004D01*
X129318797Y-99032671D01*
X129318793Y-99032664D01*
X129232547Y-98917455D01*
X129232544Y-98917452D01*
X129117335Y-98831206D01*
X129117328Y-98831202D01*
X128985917Y-98782189D01*
X128929983Y-98740318D01*
X128905566Y-98674853D01*
X128920418Y-98606580D01*
X128941563Y-98578332D01*
X129055104Y-98464792D01*
X129180051Y-98292816D01*
X129276557Y-98103412D01*
X129342246Y-97901243D01*
X129375500Y-97691287D01*
X129375500Y-97478713D01*
X129342246Y-97268757D01*
X129276557Y-97066588D01*
X129268879Y-97051520D01*
X129255985Y-96982853D01*
X129282262Y-96918113D01*
X129291676Y-96907557D01*
X129558506Y-96640728D01*
X129558511Y-96640724D01*
X129568714Y-96630520D01*
X129568716Y-96630520D01*
X129680520Y-96518716D01*
X129759577Y-96381784D01*
X129800500Y-96229057D01*
X129800500Y-86349500D01*
X129820185Y-86282461D01*
X129872989Y-86236706D01*
X129924500Y-86225500D01*
X130078844Y-86225500D01*
X130078845Y-86225499D01*
X130233497Y-86194737D01*
X130379179Y-86134394D01*
X130379185Y-86134390D01*
X130510875Y-86046398D01*
X130577553Y-86025520D01*
X130579766Y-86025500D01*
X132874903Y-86025500D01*
X132941942Y-86045185D01*
G37*
%TD.AperFunction*%
%TA.AperFunction,Conductor*%
G36*
X142974606Y-131195185D02*
G01*
X143020361Y-131247989D01*
X143030924Y-131312102D01*
X143029594Y-131325122D01*
X143024500Y-131374984D01*
X143024500Y-133876000D01*
X143004815Y-133943039D01*
X142952011Y-133988794D01*
X142900500Y-134000000D01*
X142619823Y-134000000D01*
X142552784Y-133980315D01*
X142507029Y-133927511D01*
X142496884Y-133859814D01*
X142524999Y-133646262D01*
X142525000Y-133646248D01*
X142525000Y-133275000D01*
X141542904Y-133275000D01*
X141575000Y-133113642D01*
X141575000Y-132936358D01*
X141542904Y-132775000D01*
X142525000Y-132775000D01*
X142525000Y-132403751D01*
X142524998Y-132403735D01*
X142493346Y-132163312D01*
X142430578Y-131929060D01*
X142337779Y-131705021D01*
X142337772Y-131705006D01*
X142216519Y-131494990D01*
X142124437Y-131374986D01*
X142099243Y-131309817D01*
X142113281Y-131241372D01*
X142162095Y-131191383D01*
X142222813Y-131175500D01*
X142907567Y-131175500D01*
X142974606Y-131195185D01*
G37*
%TD.AperFunction*%
%TA.AperFunction,Conductor*%
G36*
X150294226Y-131195185D02*
G01*
X150339981Y-131247989D01*
X150349925Y-131317147D01*
X150325563Y-131374986D01*
X150233480Y-131494990D01*
X150112227Y-131705006D01*
X150112220Y-131705021D01*
X150019421Y-131929060D01*
X149956653Y-132163312D01*
X149925001Y-132403735D01*
X149925000Y-132403751D01*
X149925000Y-132775000D01*
X150907096Y-132775000D01*
X150875000Y-132936358D01*
X150875000Y-133113642D01*
X150907096Y-133275000D01*
X149925000Y-133275000D01*
X149925000Y-133646262D01*
X149953116Y-133859814D01*
X149942351Y-133928850D01*
X149895971Y-133981106D01*
X149830177Y-134000000D01*
X146849500Y-134000000D01*
X146782461Y-133980315D01*
X146736706Y-133927511D01*
X146725500Y-133876000D01*
X146725500Y-131374997D01*
X146725499Y-131374984D01*
X146719075Y-131312102D01*
X146731844Y-131243410D01*
X146779724Y-131192525D01*
X146842433Y-131175500D01*
X150227187Y-131175500D01*
X150294226Y-131195185D01*
G37*
%TD.AperFunction*%
%TA.AperFunction,Conductor*%
G36*
X170243039Y-77569685D02*
G01*
X170288794Y-77622489D01*
X170300000Y-77674000D01*
X170300000Y-117950500D01*
X170280315Y-118017539D01*
X170227511Y-118063294D01*
X170176000Y-118074500D01*
X169953031Y-118074500D01*
X169874966Y-118082188D01*
X169610750Y-118108210D01*
X169273427Y-118175308D01*
X168944293Y-118275150D01*
X168626535Y-118406770D01*
X168626530Y-118406772D01*
X168323224Y-118568893D01*
X168323206Y-118568904D01*
X168037248Y-118759975D01*
X168037234Y-118759985D01*
X167771367Y-118978176D01*
X167528176Y-119221367D01*
X167309985Y-119487234D01*
X167309975Y-119487248D01*
X167118904Y-119773206D01*
X167118893Y-119773224D01*
X166956772Y-120076530D01*
X166956770Y-120076535D01*
X166825150Y-120394293D01*
X166725308Y-120723427D01*
X166658210Y-121060750D01*
X166624500Y-121403034D01*
X166624500Y-121746965D01*
X166658210Y-122089249D01*
X166725308Y-122426572D01*
X166825150Y-122755706D01*
X166956770Y-123073464D01*
X166956772Y-123073469D01*
X167118893Y-123376775D01*
X167118904Y-123376793D01*
X167309975Y-123662751D01*
X167309985Y-123662765D01*
X167528176Y-123928632D01*
X167771367Y-124171823D01*
X167771372Y-124171827D01*
X167771373Y-124171828D01*
X168037240Y-124390019D01*
X168323213Y-124581100D01*
X168323222Y-124581105D01*
X168323224Y-124581106D01*
X168626530Y-124743227D01*
X168626532Y-124743227D01*
X168626538Y-124743231D01*
X168944295Y-124874850D01*
X169273422Y-124974690D01*
X169610750Y-125041789D01*
X169953031Y-125075500D01*
X169953034Y-125075500D01*
X170176000Y-125075500D01*
X170243039Y-125095185D01*
X170288794Y-125147989D01*
X170300000Y-125199500D01*
X170300000Y-133876000D01*
X170280315Y-133943039D01*
X170227511Y-133988794D01*
X170176000Y-134000000D01*
X169049500Y-134000000D01*
X168982461Y-133980315D01*
X168936706Y-133927511D01*
X168925500Y-133876000D01*
X168925500Y-131374997D01*
X168925499Y-131374984D01*
X168919590Y-131317147D01*
X168914999Y-131272203D01*
X168859814Y-131105666D01*
X168859797Y-131105639D01*
X168767713Y-130956348D01*
X168767710Y-130956344D01*
X168643655Y-130832289D01*
X168643651Y-130832286D01*
X168494337Y-130740187D01*
X168494335Y-130740186D01*
X168393138Y-130706653D01*
X168327797Y-130685001D01*
X168327795Y-130685000D01*
X168225015Y-130674500D01*
X168225008Y-130674500D01*
X165924992Y-130674500D01*
X165924984Y-130674500D01*
X165822204Y-130685000D01*
X165822203Y-130685001D01*
X165655664Y-130740186D01*
X165655662Y-130740187D01*
X165506348Y-130832286D01*
X165506344Y-130832289D01*
X165382289Y-130956344D01*
X165382286Y-130956348D01*
X165290187Y-131105662D01*
X165290186Y-131105664D01*
X165235001Y-131272203D01*
X165235000Y-131272204D01*
X165224500Y-131374984D01*
X165224500Y-133876000D01*
X165204815Y-133943039D01*
X165152011Y-133988794D01*
X165100500Y-134000000D01*
X164819823Y-134000000D01*
X164752784Y-133980315D01*
X164707029Y-133927511D01*
X164696884Y-133859814D01*
X164724999Y-133646262D01*
X164725000Y-133646248D01*
X164725000Y-133275000D01*
X163742904Y-133275000D01*
X163775000Y-133113642D01*
X163775000Y-132936358D01*
X163742904Y-132775000D01*
X164725000Y-132775000D01*
X164725000Y-132403751D01*
X164724998Y-132403735D01*
X164693346Y-132163312D01*
X164630578Y-131929060D01*
X164537779Y-131705021D01*
X164537772Y-131705006D01*
X164416519Y-131494990D01*
X164268889Y-131302594D01*
X164268883Y-131302587D01*
X164097412Y-131131116D01*
X164097405Y-131131110D01*
X163905009Y-130983480D01*
X163694993Y-130862227D01*
X163694978Y-130862220D01*
X163470939Y-130769421D01*
X163236687Y-130706653D01*
X163125000Y-130691948D01*
X163125000Y-132157095D01*
X162963642Y-132125000D01*
X162786358Y-132125000D01*
X162625000Y-132157095D01*
X162625000Y-130691948D01*
X162624999Y-130691948D01*
X162513312Y-130706653D01*
X162279060Y-130769421D01*
X162055021Y-130862220D01*
X162055006Y-130862227D01*
X161844990Y-130983480D01*
X161652594Y-131131110D01*
X161652587Y-131131116D01*
X161481116Y-131302587D01*
X161481110Y-131302594D01*
X161333480Y-131494990D01*
X161212227Y-131705006D01*
X161212220Y-131705021D01*
X161119421Y-131929060D01*
X161056653Y-132163312D01*
X161025001Y-132403735D01*
X161025000Y-132403751D01*
X161025000Y-132775000D01*
X162007096Y-132775000D01*
X161975000Y-132936358D01*
X161975000Y-133113642D01*
X162007096Y-133275000D01*
X161025000Y-133275000D01*
X161025000Y-133646262D01*
X161053116Y-133859814D01*
X161042351Y-133928850D01*
X160995971Y-133981106D01*
X160930177Y-134000000D01*
X157949500Y-134000000D01*
X157882461Y-133980315D01*
X157836706Y-133927511D01*
X157825500Y-133876000D01*
X157825500Y-131374997D01*
X157825499Y-131374984D01*
X157819590Y-131317147D01*
X157814999Y-131272203D01*
X157759814Y-131105666D01*
X157759797Y-131105639D01*
X157667713Y-130956348D01*
X157667710Y-130956344D01*
X157543655Y-130832289D01*
X157543651Y-130832286D01*
X157394337Y-130740187D01*
X157394335Y-130740186D01*
X157293138Y-130706653D01*
X157227797Y-130685001D01*
X157227795Y-130685000D01*
X157125015Y-130674500D01*
X157125008Y-130674500D01*
X154824992Y-130674500D01*
X154824984Y-130674500D01*
X154722204Y-130685000D01*
X154722203Y-130685001D01*
X154555664Y-130740186D01*
X154555662Y-130740187D01*
X154406348Y-130832286D01*
X154406344Y-130832289D01*
X154282289Y-130956344D01*
X154282286Y-130956348D01*
X154190187Y-131105662D01*
X154190186Y-131105664D01*
X154135001Y-131272203D01*
X154135000Y-131272204D01*
X154124500Y-131374984D01*
X154124500Y-133876000D01*
X154104815Y-133943039D01*
X154052011Y-133988794D01*
X154000500Y-134000000D01*
X153719823Y-134000000D01*
X153652784Y-133980315D01*
X153607029Y-133927511D01*
X153596884Y-133859814D01*
X153624999Y-133646262D01*
X153625000Y-133646248D01*
X153625000Y-133275000D01*
X152642904Y-133275000D01*
X152675000Y-133113642D01*
X152675000Y-132936358D01*
X152642904Y-132775000D01*
X153625000Y-132775000D01*
X153625000Y-132403751D01*
X153624998Y-132403735D01*
X153593346Y-132163312D01*
X153530578Y-131929060D01*
X153437779Y-131705021D01*
X153437772Y-131705006D01*
X153316519Y-131494990D01*
X153168888Y-131302593D01*
X153166625Y-131300012D01*
X153157759Y-131280900D01*
X153144734Y-131264338D01*
X153143349Y-131249838D01*
X153137222Y-131236630D01*
X153140095Y-131215760D01*
X153138093Y-131194785D01*
X153144766Y-131181839D01*
X153146753Y-131167414D01*
X153160454Y-131151410D01*
X153170109Y-131132682D01*
X153189629Y-131117331D01*
X153192192Y-131114338D01*
X153197838Y-131110873D01*
X153206904Y-131105639D01*
X153293716Y-131055520D01*
X153405520Y-130943716D01*
X153405520Y-130943714D01*
X153415728Y-130933507D01*
X153415730Y-130933504D01*
X154775921Y-129573312D01*
X154837242Y-129539829D01*
X154906934Y-129544813D01*
X154939081Y-129562616D01*
X154944711Y-129566936D01*
X154944718Y-129566940D01*
X154944720Y-129566942D01*
X155154784Y-129688222D01*
X155154785Y-129688222D01*
X155154788Y-129688224D01*
X155378900Y-129781054D01*
X155613211Y-129843838D01*
X155793586Y-129867584D01*
X155853711Y-129875500D01*
X155853712Y-129875500D01*
X156096289Y-129875500D01*
X156144388Y-129869167D01*
X156336789Y-129843838D01*
X156571100Y-129781054D01*
X156795212Y-129688224D01*
X157005289Y-129566936D01*
X157197738Y-129419265D01*
X157369265Y-129247738D01*
X157516936Y-129055289D01*
X157638224Y-128845212D01*
X157731054Y-128621100D01*
X157793838Y-128386789D01*
X157825500Y-128146288D01*
X157825500Y-126903751D01*
X161025000Y-126903751D01*
X161025000Y-127275000D01*
X162007096Y-127275000D01*
X161975000Y-127436358D01*
X161975000Y-127613642D01*
X162007096Y-127775000D01*
X161025000Y-127775000D01*
X161025000Y-128146248D01*
X161025001Y-128146264D01*
X161056653Y-128386687D01*
X161119421Y-128620939D01*
X161212220Y-128844978D01*
X161212227Y-128844993D01*
X161333480Y-129055009D01*
X161481110Y-129247405D01*
X161481116Y-129247412D01*
X161652587Y-129418883D01*
X161652594Y-129418889D01*
X161844990Y-129566519D01*
X162055006Y-129687772D01*
X162055021Y-129687779D01*
X162279060Y-129780578D01*
X162513312Y-129843346D01*
X162625000Y-129858049D01*
X162625000Y-128392904D01*
X162786358Y-128425000D01*
X162963642Y-128425000D01*
X163125000Y-128392904D01*
X163125000Y-129858048D01*
X163236687Y-129843346D01*
X163470939Y-129780578D01*
X163694978Y-129687779D01*
X163694993Y-129687772D01*
X163905009Y-129566519D01*
X164097405Y-129418889D01*
X164097412Y-129418883D01*
X164268883Y-129247412D01*
X164268889Y-129247405D01*
X164416519Y-129055009D01*
X164537772Y-128844993D01*
X164537779Y-128844978D01*
X164630578Y-128620939D01*
X164693346Y-128386687D01*
X164724998Y-128146264D01*
X164725000Y-128146248D01*
X164725000Y-127775000D01*
X163742904Y-127775000D01*
X163775000Y-127613642D01*
X163775000Y-127436358D01*
X163742904Y-127275000D01*
X164725000Y-127275000D01*
X164725000Y-126903743D01*
X164724996Y-126903711D01*
X165224500Y-126903711D01*
X165224500Y-128146288D01*
X165256161Y-128386785D01*
X165318947Y-128621104D01*
X165405084Y-128829057D01*
X165411776Y-128845212D01*
X165533064Y-129055289D01*
X165533066Y-129055292D01*
X165533067Y-129055293D01*
X165680733Y-129247736D01*
X165680739Y-129247743D01*
X165852256Y-129419260D01*
X165852262Y-129419265D01*
X166044711Y-129566936D01*
X166254788Y-129688224D01*
X166478900Y-129781054D01*
X166713211Y-129843838D01*
X166893586Y-129867584D01*
X166953711Y-129875500D01*
X166953712Y-129875500D01*
X167196289Y-129875500D01*
X167244388Y-129869167D01*
X167436789Y-129843838D01*
X167671100Y-129781054D01*
X167895212Y-129688224D01*
X168105289Y-129566936D01*
X168297738Y-129419265D01*
X168469265Y-129247738D01*
X168616936Y-129055289D01*
X168738224Y-128845212D01*
X168831054Y-128621100D01*
X168893838Y-128386789D01*
X168925500Y-128146288D01*
X168925500Y-126903712D01*
X168893838Y-126663211D01*
X168831054Y-126428900D01*
X168738224Y-126204788D01*
X168616936Y-125994711D01*
X168469520Y-125802594D01*
X168469266Y-125802263D01*
X168469260Y-125802256D01*
X168297743Y-125630739D01*
X168297736Y-125630733D01*
X168105293Y-125483067D01*
X168105292Y-125483066D01*
X168105289Y-125483064D01*
X167895212Y-125361776D01*
X167821685Y-125331320D01*
X167671104Y-125268947D01*
X167436785Y-125206161D01*
X167196289Y-125174500D01*
X167196288Y-125174500D01*
X166953712Y-125174500D01*
X166953711Y-125174500D01*
X166713214Y-125206161D01*
X166478895Y-125268947D01*
X166254794Y-125361773D01*
X166254790Y-125361775D01*
X166254788Y-125361776D01*
X166044723Y-125483057D01*
X166044706Y-125483067D01*
X165852263Y-125630733D01*
X165852256Y-125630739D01*
X165680739Y-125802256D01*
X165680733Y-125802263D01*
X165533067Y-125994706D01*
X165411777Y-126204785D01*
X165411773Y-126204794D01*
X165318947Y-126428895D01*
X165256161Y-126663214D01*
X165224500Y-126903711D01*
X164724996Y-126903711D01*
X164693346Y-126663312D01*
X164630578Y-126429060D01*
X164537779Y-126205021D01*
X164537772Y-126205006D01*
X164416519Y-125994990D01*
X164268889Y-125802594D01*
X164268883Y-125802587D01*
X164097412Y-125631116D01*
X164097405Y-125631110D01*
X163905009Y-125483480D01*
X163694993Y-125362227D01*
X163694978Y-125362220D01*
X163470939Y-125269421D01*
X163236687Y-125206653D01*
X163125000Y-125191948D01*
X163125000Y-126657095D01*
X162963642Y-126625000D01*
X162786358Y-126625000D01*
X162625000Y-126657095D01*
X162625000Y-125191948D01*
X162624999Y-125191948D01*
X162513312Y-125206653D01*
X162279060Y-125269421D01*
X162055021Y-125362220D01*
X162055006Y-125362227D01*
X161844990Y-125483480D01*
X161652594Y-125631110D01*
X161652587Y-125631116D01*
X161481116Y-125802587D01*
X161481110Y-125802594D01*
X161333480Y-125994990D01*
X161212227Y-126205006D01*
X161212220Y-126205021D01*
X161119421Y-126429060D01*
X161056653Y-126663312D01*
X161025001Y-126903735D01*
X161025000Y-126903751D01*
X157825500Y-126903751D01*
X157825500Y-126903712D01*
X157793838Y-126663211D01*
X157731054Y-126428900D01*
X157638224Y-126204788D01*
X157516936Y-125994711D01*
X157369520Y-125802594D01*
X157369266Y-125802263D01*
X157369260Y-125802256D01*
X157197743Y-125630739D01*
X157197736Y-125630733D01*
X157005293Y-125483067D01*
X157005292Y-125483066D01*
X157005289Y-125483064D01*
X156795212Y-125361776D01*
X156721685Y-125331320D01*
X156571104Y-125268947D01*
X156336785Y-125206161D01*
X156096289Y-125174500D01*
X156096288Y-125174500D01*
X155853712Y-125174500D01*
X155853711Y-125174500D01*
X155613214Y-125206161D01*
X155378895Y-125268947D01*
X155154794Y-125361773D01*
X155154790Y-125361775D01*
X155154788Y-125361776D01*
X154944723Y-125483057D01*
X154944706Y-125483067D01*
X154752263Y-125630733D01*
X154752256Y-125630739D01*
X154580739Y-125802256D01*
X154580733Y-125802263D01*
X154433067Y-125994706D01*
X154311777Y-126204785D01*
X154311773Y-126204794D01*
X154218947Y-126428895D01*
X154156161Y-126663214D01*
X154124500Y-126903711D01*
X154124500Y-128146288D01*
X154156162Y-128386793D01*
X154160416Y-128402667D01*
X154158753Y-128472517D01*
X154128322Y-128522441D01*
X153602447Y-129048316D01*
X153541124Y-129081801D01*
X153471432Y-129076817D01*
X153415499Y-129034945D01*
X153391082Y-128969481D01*
X153405934Y-128901208D01*
X153407331Y-128898720D01*
X153438224Y-128845212D01*
X153531054Y-128621100D01*
X153593838Y-128386789D01*
X153625500Y-128146288D01*
X153625500Y-126903712D01*
X153593838Y-126663211D01*
X153531054Y-126428900D01*
X153438224Y-126204788D01*
X153316936Y-125994711D01*
X153169520Y-125802594D01*
X153169266Y-125802263D01*
X153169260Y-125802256D01*
X152997743Y-125630739D01*
X152997736Y-125630733D01*
X152805293Y-125483067D01*
X152805292Y-125483066D01*
X152805289Y-125483064D01*
X152595212Y-125361776D01*
X152521685Y-125331320D01*
X152371104Y-125268947D01*
X152136785Y-125206161D01*
X151896289Y-125174500D01*
X151896288Y-125174500D01*
X151653712Y-125174500D01*
X151653711Y-125174500D01*
X151413214Y-125206161D01*
X151178895Y-125268947D01*
X150954794Y-125361773D01*
X150954790Y-125361775D01*
X150954788Y-125361776D01*
X150744723Y-125483057D01*
X150744706Y-125483067D01*
X150552263Y-125630733D01*
X150552256Y-125630739D01*
X150380739Y-125802256D01*
X150380733Y-125802263D01*
X150233067Y-125994706D01*
X150111777Y-126204785D01*
X150111773Y-126204794D01*
X150018947Y-126428895D01*
X149956161Y-126663214D01*
X149924500Y-126903711D01*
X149924500Y-128146288D01*
X149956162Y-128386793D01*
X149960416Y-128402667D01*
X149958753Y-128472517D01*
X149928322Y-128522441D01*
X149087584Y-129363181D01*
X149026261Y-129396666D01*
X148999903Y-129399500D01*
X146404261Y-129399500D01*
X146337222Y-129379815D01*
X146291467Y-129327011D01*
X146281523Y-129257853D01*
X146305885Y-129200014D01*
X146322527Y-129178324D01*
X146416936Y-129055289D01*
X146538224Y-128845212D01*
X146631054Y-128621100D01*
X146693838Y-128386789D01*
X146725500Y-128146288D01*
X146725500Y-126903712D01*
X146693838Y-126663211D01*
X146631054Y-126428900D01*
X146538224Y-126204788D01*
X146416936Y-125994711D01*
X146269520Y-125802594D01*
X146269266Y-125802263D01*
X146269260Y-125802256D01*
X146211819Y-125744815D01*
X146178334Y-125683492D01*
X146175500Y-125657134D01*
X146175500Y-110423615D01*
X164549500Y-110423615D01*
X164549500Y-110576384D01*
X164579300Y-110726197D01*
X164579302Y-110726205D01*
X164637759Y-110867334D01*
X164637764Y-110867343D01*
X164722629Y-110994351D01*
X164722632Y-110994355D01*
X164830644Y-111102367D01*
X164830648Y-111102370D01*
X164957656Y-111187235D01*
X164957662Y-111187238D01*
X164957663Y-111187239D01*
X165098795Y-111245698D01*
X165248615Y-111275499D01*
X165248619Y-111275500D01*
X165248620Y-111275500D01*
X165401381Y-111275500D01*
X165401382Y-111275499D01*
X165551205Y-111245698D01*
X165692337Y-111187239D01*
X165819352Y-111102370D01*
X165927370Y-110994352D01*
X166012239Y-110867337D01*
X166070698Y-110726205D01*
X166100500Y-110576380D01*
X166100500Y-110423620D01*
X166070698Y-110273795D01*
X166012239Y-110132663D01*
X166012238Y-110132662D01*
X166012235Y-110132656D01*
X165927370Y-110005648D01*
X165927367Y-110005644D01*
X165819355Y-109897632D01*
X165819351Y-109897629D01*
X165692343Y-109812764D01*
X165692334Y-109812759D01*
X165551205Y-109754302D01*
X165551197Y-109754300D01*
X165401384Y-109724500D01*
X165401380Y-109724500D01*
X165248620Y-109724500D01*
X165248615Y-109724500D01*
X165098802Y-109754300D01*
X165098794Y-109754302D01*
X164957665Y-109812759D01*
X164957656Y-109812764D01*
X164830648Y-109897629D01*
X164830644Y-109897632D01*
X164722632Y-110005644D01*
X164722629Y-110005648D01*
X164637764Y-110132656D01*
X164637759Y-110132665D01*
X164579302Y-110273794D01*
X164579300Y-110273802D01*
X164549500Y-110423615D01*
X146175500Y-110423615D01*
X146175500Y-100166742D01*
X146195185Y-100099703D01*
X146247989Y-100053948D01*
X146317147Y-100044004D01*
X146342830Y-100050559D01*
X146392517Y-100069091D01*
X146452127Y-100075500D01*
X148247872Y-100075499D01*
X148307483Y-100069091D01*
X148442331Y-100018796D01*
X148557546Y-99932546D01*
X148643796Y-99817331D01*
X148692810Y-99685916D01*
X148734681Y-99629984D01*
X148800145Y-99605566D01*
X148868418Y-99620417D01*
X148896673Y-99641569D01*
X149010213Y-99755109D01*
X149182179Y-99880048D01*
X149182181Y-99880049D01*
X149182184Y-99880051D01*
X149371588Y-99976557D01*
X149573757Y-100042246D01*
X149783713Y-100075500D01*
X149783736Y-100075500D01*
X149785218Y-100075617D01*
X149785762Y-100075824D01*
X149788525Y-100076262D01*
X149788433Y-100076842D01*
X149850509Y-100100495D01*
X149891984Y-100156723D01*
X149899500Y-100199236D01*
X149899500Y-102570064D01*
X149879815Y-102637103D01*
X149878603Y-102638954D01*
X149840608Y-102695817D01*
X149840602Y-102695828D01*
X149780264Y-102841498D01*
X149780261Y-102841510D01*
X149749500Y-102996153D01*
X149749500Y-103153846D01*
X149780261Y-103308489D01*
X149780264Y-103308501D01*
X149840602Y-103454172D01*
X149840606Y-103454179D01*
X149878602Y-103511044D01*
X149899480Y-103577721D01*
X149899500Y-103579935D01*
X149899500Y-106239069D01*
X149908115Y-106282376D01*
X149924499Y-106364744D01*
X149973535Y-106483127D01*
X150044723Y-106589669D01*
X150044726Y-106589673D01*
X150044727Y-106589674D01*
X152832984Y-109377930D01*
X152866469Y-109439253D01*
X152866920Y-109441420D01*
X152880261Y-109508489D01*
X152880264Y-109508501D01*
X152940602Y-109654172D01*
X152940609Y-109654185D01*
X153028210Y-109785288D01*
X153028213Y-109785292D01*
X153139707Y-109896786D01*
X153139711Y-109896789D01*
X153270814Y-109984390D01*
X153270827Y-109984397D01*
X153416498Y-110044735D01*
X153416503Y-110044737D01*
X153571153Y-110075499D01*
X153571156Y-110075500D01*
X153571158Y-110075500D01*
X153728844Y-110075500D01*
X153728845Y-110075499D01*
X153883497Y-110044737D01*
X154029179Y-109984394D01*
X154160289Y-109896789D01*
X154271789Y-109785289D01*
X154359394Y-109654179D01*
X154419737Y-109508497D01*
X154450500Y-109353842D01*
X154450500Y-109196158D01*
X154450500Y-109196155D01*
X154450499Y-109196153D01*
X154419738Y-109041510D01*
X154419737Y-109041503D01*
X154419735Y-109041498D01*
X154359397Y-108895827D01*
X154359390Y-108895814D01*
X154271789Y-108764711D01*
X154271786Y-108764707D01*
X154160292Y-108653213D01*
X154160288Y-108653210D01*
X154029185Y-108565609D01*
X154029172Y-108565602D01*
X153883501Y-108505264D01*
X153883489Y-108505261D01*
X153816420Y-108491920D01*
X153754509Y-108459535D01*
X153752930Y-108457984D01*
X151236819Y-105941873D01*
X151203334Y-105880550D01*
X151200500Y-105854192D01*
X151200500Y-103579935D01*
X151220185Y-103512896D01*
X151221366Y-103511090D01*
X151259394Y-103454179D01*
X151319737Y-103308497D01*
X151350500Y-103153842D01*
X151350500Y-102996158D01*
X151350500Y-102996155D01*
X151350499Y-102996153D01*
X151347169Y-102979408D01*
X151343568Y-102961304D01*
X164424500Y-102961304D01*
X164424500Y-103138695D01*
X164459103Y-103312658D01*
X164459106Y-103312667D01*
X164526983Y-103476540D01*
X164526990Y-103476553D01*
X164625535Y-103624034D01*
X164625538Y-103624038D01*
X164750961Y-103749461D01*
X164750965Y-103749464D01*
X164898446Y-103848009D01*
X164898459Y-103848016D01*
X165021363Y-103898923D01*
X165062334Y-103915894D01*
X165062336Y-103915894D01*
X165062341Y-103915896D01*
X165236304Y-103950499D01*
X165236307Y-103950500D01*
X165236309Y-103950500D01*
X165413693Y-103950500D01*
X165413694Y-103950499D01*
X165471682Y-103938964D01*
X165587658Y-103915896D01*
X165587661Y-103915894D01*
X165587666Y-103915894D01*
X165751547Y-103848013D01*
X165899035Y-103749464D01*
X166024464Y-103624035D01*
X166123013Y-103476547D01*
X166190894Y-103312666D01*
X166191723Y-103308501D01*
X166218178Y-103175499D01*
X166225500Y-103138691D01*
X166225500Y-102961309D01*
X166225500Y-102961306D01*
X166225499Y-102961304D01*
X166190896Y-102787341D01*
X166190893Y-102787332D01*
X166123016Y-102623459D01*
X166123009Y-102623446D01*
X166024464Y-102475965D01*
X166024461Y-102475961D01*
X165899038Y-102350538D01*
X165899034Y-102350535D01*
X165751553Y-102251990D01*
X165751540Y-102251983D01*
X165587667Y-102184106D01*
X165587658Y-102184103D01*
X165413694Y-102149500D01*
X165413691Y-102149500D01*
X165236309Y-102149500D01*
X165236306Y-102149500D01*
X165062341Y-102184103D01*
X165062332Y-102184106D01*
X164898459Y-102251983D01*
X164898446Y-102251990D01*
X164750965Y-102350535D01*
X164750961Y-102350538D01*
X164625538Y-102475961D01*
X164625535Y-102475965D01*
X164526990Y-102623446D01*
X164526983Y-102623459D01*
X164459106Y-102787332D01*
X164459103Y-102787341D01*
X164424500Y-102961304D01*
X151343568Y-102961304D01*
X151319738Y-102841508D01*
X151319737Y-102841507D01*
X151319737Y-102841503D01*
X151283569Y-102754185D01*
X151259397Y-102695828D01*
X151259396Y-102695827D01*
X151259394Y-102695821D01*
X151221396Y-102638953D01*
X151200520Y-102572276D01*
X151200500Y-102570064D01*
X151200500Y-99081643D01*
X151206148Y-99045991D01*
X151206108Y-99045982D01*
X151206230Y-99045470D01*
X151206572Y-99043317D01*
X151207246Y-99041243D01*
X151240500Y-98831287D01*
X151240500Y-98618713D01*
X151207246Y-98408757D01*
X151206568Y-98406669D01*
X151206224Y-98404498D01*
X151206107Y-98404010D01*
X151206145Y-98404000D01*
X151200500Y-98368353D01*
X151200500Y-92979935D01*
X151220185Y-92912896D01*
X151221366Y-92911090D01*
X151259394Y-92854179D01*
X151319737Y-92708497D01*
X151350500Y-92553842D01*
X151350500Y-92396158D01*
X151350500Y-92396156D01*
X151350500Y-92396155D01*
X151350499Y-92396153D01*
X151342417Y-92355521D01*
X151319737Y-92241503D01*
X151259394Y-92095821D01*
X151221396Y-92038953D01*
X151200520Y-91972276D01*
X151200500Y-91970064D01*
X151200500Y-91198920D01*
X166349499Y-91198920D01*
X166378340Y-91343907D01*
X166378343Y-91343917D01*
X166434912Y-91480488D01*
X166434919Y-91480501D01*
X166517048Y-91603415D01*
X166517051Y-91603419D01*
X166621580Y-91707948D01*
X166621584Y-91707951D01*
X166744498Y-91790080D01*
X166744511Y-91790087D01*
X166881082Y-91846656D01*
X166881087Y-91846658D01*
X166881091Y-91846658D01*
X166881092Y-91846659D01*
X167026079Y-91875500D01*
X167026082Y-91875500D01*
X167173920Y-91875500D01*
X167271462Y-91856096D01*
X167318913Y-91846658D01*
X167455495Y-91790084D01*
X167578416Y-91707951D01*
X167682951Y-91603416D01*
X167765084Y-91480495D01*
X167821658Y-91343913D01*
X167837235Y-91265606D01*
X167850500Y-91198920D01*
X167850500Y-91051079D01*
X167821659Y-90906092D01*
X167821658Y-90906091D01*
X167821658Y-90906087D01*
X167821656Y-90906082D01*
X167765087Y-90769511D01*
X167765080Y-90769498D01*
X167682951Y-90646584D01*
X167682948Y-90646580D01*
X167578419Y-90542051D01*
X167578415Y-90542048D01*
X167455501Y-90459919D01*
X167455488Y-90459912D01*
X167318917Y-90403343D01*
X167318907Y-90403340D01*
X167173920Y-90374500D01*
X167173918Y-90374500D01*
X167026082Y-90374500D01*
X167026080Y-90374500D01*
X166881092Y-90403340D01*
X166881082Y-90403343D01*
X166744511Y-90459912D01*
X166744498Y-90459919D01*
X166621584Y-90542048D01*
X166621580Y-90542051D01*
X166517051Y-90646580D01*
X166517048Y-90646584D01*
X166434919Y-90769498D01*
X166434912Y-90769511D01*
X166378343Y-90906082D01*
X166378340Y-90906092D01*
X166349500Y-91051079D01*
X166349500Y-91051082D01*
X166349500Y-91198918D01*
X166349500Y-91198920D01*
X166349499Y-91198920D01*
X151200500Y-91198920D01*
X151200500Y-88129935D01*
X151220185Y-88062896D01*
X151221366Y-88061090D01*
X151259394Y-88004179D01*
X151319737Y-87858497D01*
X151350500Y-87703842D01*
X151350500Y-87546158D01*
X151350500Y-87546155D01*
X151350499Y-87546153D01*
X151319738Y-87391510D01*
X151319737Y-87391503D01*
X151259394Y-87245821D01*
X151221396Y-87188953D01*
X151200520Y-87122276D01*
X151200500Y-87120064D01*
X151200500Y-83979935D01*
X151220185Y-83912896D01*
X151221366Y-83911090D01*
X151259394Y-83854179D01*
X151319737Y-83708497D01*
X151350500Y-83553842D01*
X151350500Y-83396158D01*
X151350500Y-83396155D01*
X151350499Y-83396153D01*
X151319737Y-83241503D01*
X151302099Y-83198920D01*
X166349499Y-83198920D01*
X166378340Y-83343907D01*
X166378343Y-83343917D01*
X166434912Y-83480488D01*
X166434919Y-83480501D01*
X166517048Y-83603415D01*
X166517051Y-83603419D01*
X166621580Y-83707948D01*
X166621584Y-83707951D01*
X166744498Y-83790080D01*
X166744511Y-83790087D01*
X166881082Y-83846656D01*
X166881087Y-83846658D01*
X166881091Y-83846658D01*
X166881092Y-83846659D01*
X167026079Y-83875500D01*
X167026082Y-83875500D01*
X167173920Y-83875500D01*
X167281138Y-83854172D01*
X167318913Y-83846658D01*
X167455495Y-83790084D01*
X167578416Y-83707951D01*
X167682951Y-83603416D01*
X167765084Y-83480495D01*
X167821658Y-83343913D01*
X167850500Y-83198918D01*
X167850500Y-83051082D01*
X167850500Y-83051079D01*
X167821659Y-82906092D01*
X167821658Y-82906091D01*
X167821658Y-82906087D01*
X167799756Y-82853210D01*
X167765087Y-82769511D01*
X167765080Y-82769498D01*
X167682951Y-82646584D01*
X167682948Y-82646580D01*
X167578419Y-82542051D01*
X167578415Y-82542048D01*
X167455501Y-82459919D01*
X167455488Y-82459912D01*
X167318917Y-82403343D01*
X167318907Y-82403340D01*
X167173920Y-82374500D01*
X167173918Y-82374500D01*
X167026082Y-82374500D01*
X167026080Y-82374500D01*
X166881092Y-82403340D01*
X166881082Y-82403343D01*
X166744511Y-82459912D01*
X166744498Y-82459919D01*
X166621584Y-82542048D01*
X166621580Y-82542051D01*
X166517051Y-82646580D01*
X166517048Y-82646584D01*
X166434919Y-82769498D01*
X166434912Y-82769511D01*
X166378343Y-82906082D01*
X166378340Y-82906092D01*
X166349500Y-83051079D01*
X166349500Y-83051082D01*
X166349500Y-83198918D01*
X166349500Y-83198920D01*
X166349499Y-83198920D01*
X151302099Y-83198920D01*
X151283427Y-83153842D01*
X151259397Y-83095827D01*
X151259390Y-83095814D01*
X151171789Y-82964711D01*
X151171786Y-82964707D01*
X151060292Y-82853213D01*
X151060288Y-82853210D01*
X150929185Y-82765609D01*
X150929172Y-82765602D01*
X150783501Y-82705264D01*
X150783489Y-82705261D01*
X150716420Y-82691920D01*
X150654509Y-82659535D01*
X150652930Y-82657984D01*
X146764674Y-78769727D01*
X146764673Y-78769726D01*
X146764669Y-78769723D01*
X146658127Y-78698535D01*
X146539744Y-78649499D01*
X146539738Y-78649497D01*
X146414071Y-78624500D01*
X146414069Y-78624500D01*
X144029935Y-78624500D01*
X143962896Y-78604815D01*
X143961090Y-78603633D01*
X143904179Y-78565606D01*
X143904172Y-78565602D01*
X143758501Y-78505264D01*
X143758489Y-78505261D01*
X143603845Y-78474500D01*
X143603842Y-78474500D01*
X143446158Y-78474500D01*
X143446155Y-78474500D01*
X143291510Y-78505261D01*
X143291498Y-78505264D01*
X143145827Y-78565602D01*
X143145814Y-78565609D01*
X143014711Y-78653210D01*
X143014707Y-78653213D01*
X142903213Y-78764707D01*
X142903210Y-78764711D01*
X142815609Y-78895814D01*
X142815602Y-78895827D01*
X142755264Y-79041498D01*
X142755261Y-79041510D01*
X142724500Y-79196153D01*
X142724500Y-79353846D01*
X142755261Y-79508489D01*
X142755264Y-79508501D01*
X142815602Y-79654172D01*
X142815609Y-79654185D01*
X142903210Y-79785288D01*
X142903213Y-79785292D01*
X143014707Y-79896786D01*
X143014711Y-79896789D01*
X143145814Y-79984390D01*
X143145827Y-79984397D01*
X143291498Y-80044735D01*
X143291503Y-80044737D01*
X143446153Y-80075499D01*
X143446156Y-80075500D01*
X143446158Y-80075500D01*
X143603844Y-80075500D01*
X143603845Y-80075499D01*
X143758497Y-80044737D01*
X143904179Y-79984394D01*
X143961044Y-79946397D01*
X144027721Y-79925520D01*
X144029935Y-79925500D01*
X146029192Y-79925500D01*
X146096231Y-79945185D01*
X146116873Y-79961819D01*
X149732984Y-83577930D01*
X149766469Y-83639253D01*
X149766920Y-83641420D01*
X149780261Y-83708489D01*
X149780264Y-83708501D01*
X149840602Y-83854172D01*
X149840606Y-83854179D01*
X149878602Y-83911044D01*
X149899480Y-83977721D01*
X149899500Y-83979935D01*
X149899500Y-87120064D01*
X149879815Y-87187103D01*
X149878603Y-87188954D01*
X149840608Y-87245817D01*
X149840602Y-87245828D01*
X149780264Y-87391498D01*
X149780261Y-87391510D01*
X149749500Y-87546153D01*
X149749500Y-87703846D01*
X149780261Y-87858489D01*
X149780264Y-87858501D01*
X149840602Y-88004172D01*
X149840606Y-88004179D01*
X149878602Y-88061044D01*
X149899480Y-88127721D01*
X149899500Y-88129935D01*
X149899500Y-91970064D01*
X149879815Y-92037103D01*
X149878603Y-92038954D01*
X149840608Y-92095817D01*
X149840602Y-92095828D01*
X149780264Y-92241498D01*
X149780261Y-92241510D01*
X149749500Y-92396153D01*
X149749500Y-92553846D01*
X149780261Y-92708489D01*
X149780264Y-92708501D01*
X149840602Y-92854172D01*
X149840606Y-92854179D01*
X149878602Y-92911044D01*
X149899480Y-92977721D01*
X149899500Y-92979935D01*
X149899500Y-97250763D01*
X149879815Y-97317802D01*
X149827011Y-97363557D01*
X149788493Y-97373536D01*
X149788525Y-97373738D01*
X149786440Y-97374068D01*
X149785237Y-97374380D01*
X149783714Y-97374499D01*
X149573760Y-97407753D01*
X149371585Y-97473444D01*
X149182179Y-97569951D01*
X149010215Y-97694889D01*
X148896673Y-97808431D01*
X148835350Y-97841915D01*
X148765658Y-97836931D01*
X148709725Y-97795059D01*
X148692810Y-97764082D01*
X148643797Y-97632671D01*
X148643793Y-97632664D01*
X148557547Y-97517455D01*
X148557544Y-97517452D01*
X148442335Y-97431206D01*
X148442328Y-97431202D01*
X148307482Y-97380908D01*
X148307483Y-97380908D01*
X148247883Y-97374501D01*
X148247881Y-97374500D01*
X148247873Y-97374500D01*
X148247864Y-97374500D01*
X146452129Y-97374500D01*
X146452123Y-97374501D01*
X146392514Y-97380909D01*
X146342832Y-97399439D01*
X146273140Y-97404423D01*
X146211817Y-97370937D01*
X146178333Y-97309613D01*
X146175500Y-97283257D01*
X146175500Y-94603269D01*
X146195185Y-94536230D01*
X146247989Y-94490475D01*
X146317147Y-94480531D01*
X146380703Y-94509556D01*
X146399292Y-94530626D01*
X146399347Y-94530581D01*
X146400609Y-94532119D01*
X146402603Y-94534379D01*
X146403212Y-94535291D01*
X146514707Y-94646786D01*
X146514711Y-94646789D01*
X146645814Y-94734390D01*
X146645827Y-94734397D01*
X146791498Y-94794735D01*
X146791503Y-94794737D01*
X146946153Y-94825499D01*
X146946156Y-94825500D01*
X146946158Y-94825500D01*
X147103844Y-94825500D01*
X147103845Y-94825499D01*
X147258497Y-94794737D01*
X147404179Y-94734394D01*
X147535289Y-94646789D01*
X147646789Y-94535289D01*
X147734394Y-94404179D01*
X147737475Y-94396742D01*
X147794735Y-94258501D01*
X147794737Y-94258497D01*
X147825500Y-94103842D01*
X147825500Y-93946158D01*
X147825500Y-93946155D01*
X147825499Y-93946153D01*
X147803442Y-93835268D01*
X147794737Y-93791503D01*
X147768332Y-93727754D01*
X147734397Y-93645827D01*
X147734390Y-93645814D01*
X147646789Y-93514711D01*
X147646786Y-93514707D01*
X147535292Y-93403213D01*
X147535288Y-93403210D01*
X147404185Y-93315609D01*
X147404172Y-93315602D01*
X147258501Y-93255264D01*
X147258491Y-93255261D01*
X147103151Y-93224362D01*
X147041241Y-93191977D01*
X147039662Y-93190426D01*
X142012590Y-88163355D01*
X142012588Y-88163352D01*
X141893717Y-88044481D01*
X141893716Y-88044480D01*
X141806904Y-87994360D01*
X141806904Y-87994359D01*
X141806900Y-87994358D01*
X141756785Y-87965423D01*
X141604057Y-87924499D01*
X141445943Y-87924499D01*
X141438347Y-87924499D01*
X141438331Y-87924500D01*
X136575097Y-87924500D01*
X136508058Y-87904815D01*
X136487416Y-87888181D01*
X133662590Y-85063355D01*
X133662588Y-85063352D01*
X133543717Y-84944481D01*
X133543716Y-84944480D01*
X133456904Y-84894360D01*
X133456904Y-84894359D01*
X133456900Y-84894358D01*
X133406785Y-84865423D01*
X133254057Y-84824499D01*
X133095943Y-84824499D01*
X133088347Y-84824499D01*
X133088331Y-84824500D01*
X130579766Y-84824500D01*
X130512727Y-84804815D01*
X130510875Y-84803602D01*
X130379185Y-84715609D01*
X130379172Y-84715602D01*
X130270935Y-84670770D01*
X130216531Y-84626930D01*
X130194466Y-84560636D01*
X130211745Y-84492936D01*
X130230702Y-84468532D01*
X130987416Y-83711819D01*
X131048739Y-83678334D01*
X131075097Y-83675500D01*
X133495234Y-83675500D01*
X133562273Y-83695185D01*
X133564125Y-83696398D01*
X133695814Y-83784390D01*
X133695827Y-83784397D01*
X133841498Y-83844735D01*
X133841503Y-83844737D01*
X133996153Y-83875499D01*
X133996156Y-83875500D01*
X133996158Y-83875500D01*
X134153844Y-83875500D01*
X134153845Y-83875499D01*
X134308497Y-83844737D01*
X134454179Y-83784394D01*
X134585289Y-83696789D01*
X134696789Y-83585289D01*
X134784394Y-83454179D01*
X134844737Y-83308497D01*
X134875500Y-83153842D01*
X134875500Y-82996158D01*
X134875500Y-82996155D01*
X134875499Y-82996153D01*
X134869244Y-82964707D01*
X134844737Y-82841503D01*
X134788728Y-82706284D01*
X134784397Y-82695827D01*
X134784390Y-82695814D01*
X134696789Y-82564711D01*
X134696786Y-82564707D01*
X134669760Y-82537681D01*
X134636275Y-82476358D01*
X134641259Y-82406666D01*
X134669760Y-82362319D01*
X134696786Y-82335292D01*
X134696789Y-82335289D01*
X134784394Y-82204179D01*
X134844737Y-82058497D01*
X134875500Y-81903842D01*
X134875500Y-81746158D01*
X134875500Y-81746155D01*
X134875499Y-81746153D01*
X134844738Y-81591510D01*
X134844737Y-81591503D01*
X134788728Y-81456284D01*
X134784397Y-81445827D01*
X134784390Y-81445814D01*
X134696789Y-81314711D01*
X134696786Y-81314707D01*
X134585292Y-81203213D01*
X134585288Y-81203210D01*
X134454185Y-81115609D01*
X134454172Y-81115602D01*
X134308501Y-81055264D01*
X134308489Y-81055261D01*
X134153845Y-81024500D01*
X134153842Y-81024500D01*
X133996158Y-81024500D01*
X133996155Y-81024500D01*
X133841510Y-81055261D01*
X133841498Y-81055264D01*
X133695827Y-81115602D01*
X133695814Y-81115609D01*
X133564125Y-81203602D01*
X133497447Y-81224480D01*
X133495234Y-81224500D01*
X130104057Y-81224500D01*
X129945943Y-81224500D01*
X129793215Y-81265423D01*
X129793214Y-81265423D01*
X129793212Y-81265424D01*
X129793209Y-81265425D01*
X129743096Y-81294359D01*
X129743095Y-81294360D01*
X129707853Y-81314707D01*
X129656285Y-81344479D01*
X129656282Y-81344481D01*
X127544481Y-83456282D01*
X127544479Y-83456285D01*
X127494361Y-83543094D01*
X127494359Y-83543096D01*
X127465425Y-83593209D01*
X127465424Y-83593210D01*
X127453087Y-83639253D01*
X127424499Y-83745943D01*
X127424499Y-83745945D01*
X127424499Y-83914046D01*
X127424500Y-83914059D01*
X127424500Y-93759281D01*
X127404815Y-93826320D01*
X127356795Y-93869765D01*
X127317185Y-93889947D01*
X127317184Y-93889948D01*
X127145213Y-94014890D01*
X126994890Y-94165213D01*
X126869949Y-94337182D01*
X126865484Y-94345946D01*
X126817509Y-94396742D01*
X126749688Y-94413536D01*
X126683553Y-94390998D01*
X126644516Y-94345946D01*
X126640050Y-94337182D01*
X126515109Y-94165213D01*
X126386319Y-94036423D01*
X126352834Y-93975100D01*
X126350000Y-93948742D01*
X126350000Y-85958440D01*
X126369685Y-85891401D01*
X126386314Y-85870763D01*
X126471789Y-85785289D01*
X126559394Y-85654179D01*
X126619737Y-85508497D01*
X126650500Y-85353842D01*
X126650500Y-85196158D01*
X126650500Y-85196155D01*
X126650499Y-85196153D01*
X126642668Y-85156785D01*
X126619737Y-85041503D01*
X126619735Y-85041498D01*
X126559397Y-84895827D01*
X126559390Y-84895814D01*
X126471789Y-84764711D01*
X126471786Y-84764707D01*
X126386319Y-84679240D01*
X126352834Y-84617917D01*
X126350000Y-84591559D01*
X126350000Y-77674000D01*
X126369685Y-77606961D01*
X126422489Y-77561206D01*
X126474000Y-77550000D01*
X170176000Y-77550000D01*
X170243039Y-77569685D01*
G37*
%TD.AperFunction*%
%TD*%
M02*
