%TF.GenerationSoftware,KiCad,Pcbnew,9.0.4*%
%TF.CreationDate,2025-08-28T11:20:26+09:00*%
%TF.ProjectId,monolith-mini,6d6f6e6f-6c69-4746-982d-6d696e692e6b,rev?*%
%TF.SameCoordinates,Original*%
%TF.FileFunction,Soldermask,Top*%
%TF.FilePolarity,Negative*%
%FSLAX46Y46*%
G04 Gerber Fmt 4.6, Leading zero omitted, Abs format (unit mm)*
G04 Created by KiCad (PCBNEW 9.0.4) date 2025-08-28 11:20:26*
%MOMM*%
%LPD*%
G01*
G04 APERTURE LIST*
G04 Aperture macros list*
%AMRoundRect*
0 Rectangle with rounded corners*
0 $1 Rounding radius*
0 $2 $3 $4 $5 $6 $7 $8 $9 X,Y pos of 4 corners*
0 Add a 4 corners polygon primitive as box body*
4,1,4,$2,$3,$4,$5,$6,$7,$8,$9,$2,$3,0*
0 Add four circle primitives for the rounded corners*
1,1,$1+$1,$2,$3*
1,1,$1+$1,$4,$5*
1,1,$1+$1,$6,$7*
1,1,$1+$1,$8,$9*
0 Add four rect primitives between the rounded corners*
20,1,$1+$1,$2,$3,$4,$5,0*
20,1,$1+$1,$4,$5,$6,$7,0*
20,1,$1+$1,$6,$7,$8,$9,0*
20,1,$1+$1,$8,$9,$2,$3,0*%
G04 Aperture macros list end*
%ADD10RoundRect,0.218750X0.218750X0.256250X-0.218750X0.256250X-0.218750X-0.256250X0.218750X-0.256250X0*%
%ADD11RoundRect,0.250001X1.099999X1.599999X-1.099999X1.599999X-1.099999X-1.599999X1.099999X-1.599999X0*%
%ADD12O,2.700000X3.700000*%
%ADD13R,1.600000X0.700000*%
%ADD14R,1.500000X1.200000*%
%ADD15R,2.200000X1.200000*%
%ADD16R,1.500000X1.600000*%
%ADD17RoundRect,0.200000X0.200000X0.275000X-0.200000X0.275000X-0.200000X-0.275000X0.200000X-0.275000X0*%
%ADD18RoundRect,0.225000X0.225000X0.250000X-0.225000X0.250000X-0.225000X-0.250000X0.225000X-0.250000X0*%
%ADD19RoundRect,0.250000X-1.000000X-0.650000X1.000000X-0.650000X1.000000X0.650000X-1.000000X0.650000X0*%
%ADD20R,1.800000X1.000000*%
%ADD21RoundRect,0.112500X0.112500X-0.187500X0.112500X0.187500X-0.112500X0.187500X-0.112500X-0.187500X0*%
%ADD22R,1.500000X0.900000*%
%ADD23R,0.900000X1.500000*%
%ADD24C,0.600000*%
%ADD25R,3.900000X3.900000*%
%ADD26RoundRect,0.200000X-0.275000X0.200000X-0.275000X-0.200000X0.275000X-0.200000X0.275000X0.200000X0*%
%ADD27RoundRect,0.200000X0.275000X-0.200000X0.275000X0.200000X-0.275000X0.200000X-0.275000X-0.200000X0*%
%ADD28RoundRect,0.200000X-0.200000X-0.275000X0.200000X-0.275000X0.200000X0.275000X-0.200000X0.275000X0*%
%ADD29R,1.700000X1.700000*%
%ADD30C,1.700000*%
%ADD31RoundRect,0.250000X0.650000X-0.325000X0.650000X0.325000X-0.650000X0.325000X-0.650000X-0.325000X0*%
%ADD32RoundRect,0.150000X-0.150000X0.825000X-0.150000X-0.825000X0.150000X-0.825000X0.150000X0.825000X0*%
%ADD33RoundRect,0.250000X1.500000X-0.925000X1.500000X0.925000X-1.500000X0.925000X-1.500000X-0.925000X0*%
%ADD34C,3.400000*%
%ADD35C,6.000000*%
%ADD36RoundRect,0.150000X0.150000X-0.587500X0.150000X0.587500X-0.150000X0.587500X-0.150000X-0.587500X0*%
%ADD37RoundRect,0.225000X0.250000X-0.225000X0.250000X0.225000X-0.250000X0.225000X-0.250000X-0.225000X0*%
%ADD38R,1.550000X0.600000*%
%ADD39R,2.600000X3.100000*%
%ADD40R,2.300000X4.500000*%
%ADD41RoundRect,0.150000X0.150000X-0.512500X0.150000X0.512500X-0.150000X0.512500X-0.150000X-0.512500X0*%
%ADD42RoundRect,0.225000X-0.225000X-0.250000X0.225000X-0.250000X0.225000X0.250000X-0.225000X0.250000X0*%
%ADD43RoundRect,0.225000X-0.250000X0.225000X-0.250000X-0.225000X0.250000X-0.225000X0.250000X0.225000X0*%
%ADD44R,0.750000X0.200000*%
%ADD45R,0.200000X0.750000*%
%ADD46R,1.590000X1.750000*%
%ADD47RoundRect,0.150000X0.587500X0.150000X-0.587500X0.150000X-0.587500X-0.150000X0.587500X-0.150000X0*%
%ADD48RoundRect,0.150000X-0.825000X-0.150000X0.825000X-0.150000X0.825000X0.150000X-0.825000X0.150000X0*%
%ADD49RoundRect,0.375000X0.375000X-0.625000X0.375000X0.625000X-0.375000X0.625000X-0.375000X-0.625000X0*%
%ADD50RoundRect,0.500000X1.400000X-0.500000X1.400000X0.500000X-1.400000X0.500000X-1.400000X-0.500000X0*%
%ADD51RoundRect,0.250000X-0.650000X0.325000X-0.650000X-0.325000X0.650000X-0.325000X0.650000X0.325000X0*%
G04 APERTURE END LIST*
D10*
%TO.C,D3*%
X129440000Y-83575000D03*
X127865000Y-83575000D03*
%TD*%
D11*
%TO.C,J3*%
X155975000Y-133025000D03*
D12*
X151775000Y-133025000D03*
X155975000Y-127525000D03*
X151775000Y-127525000D03*
%TD*%
D13*
%TO.C,J13*%
X156100000Y-83925000D03*
X156100000Y-85025000D03*
X156100000Y-86125000D03*
X156100000Y-87225000D03*
X156100000Y-88325000D03*
X156100000Y-89425000D03*
X156100000Y-90525000D03*
X156100000Y-91625000D03*
X156100000Y-92725000D03*
D14*
X157100000Y-93925000D03*
D15*
X166700000Y-93925000D03*
X166700000Y-78425000D03*
D16*
X157100000Y-79325000D03*
%TD*%
D17*
%TO.C,R40*%
X125975000Y-90150000D03*
X124325000Y-90150000D03*
%TD*%
D18*
%TO.C,C38*%
X127500000Y-102650000D03*
X125950000Y-102650000D03*
%TD*%
D19*
%TO.C,D6*%
X136175000Y-121575000D03*
X140175000Y-121575000D03*
%TD*%
D20*
%TO.C,Y1*%
X135875000Y-99550000D03*
X135875000Y-102050000D03*
%TD*%
D21*
%TO.C,D9*%
X131725000Y-109300000D03*
X131725000Y-107200000D03*
%TD*%
D22*
%TO.C,U2*%
X131475000Y-78005000D03*
X131475000Y-79275000D03*
X131475000Y-80545000D03*
X131475000Y-81815000D03*
X131475000Y-83085000D03*
X131475000Y-84355000D03*
X131475000Y-85625000D03*
X131475000Y-86895000D03*
X131475000Y-88165000D03*
X131475000Y-89435000D03*
X131475000Y-90705000D03*
X131475000Y-91975000D03*
X131475000Y-93245000D03*
X131475000Y-94515000D03*
D23*
X133240000Y-95765000D03*
X134510000Y-95765000D03*
X135780000Y-95765000D03*
X137050000Y-95765000D03*
X138320000Y-95765000D03*
X139590000Y-95765000D03*
X140860000Y-95765000D03*
X142130000Y-95765000D03*
X143400000Y-95765000D03*
X144670000Y-95765000D03*
X145940000Y-95765000D03*
X147210000Y-95765000D03*
D22*
X148975000Y-94515000D03*
X148975000Y-93245000D03*
X148975000Y-91975000D03*
X148975000Y-90705000D03*
X148975000Y-89435000D03*
X148975000Y-88165000D03*
X148975000Y-86895000D03*
X148975000Y-85625000D03*
X148975000Y-84355000D03*
X148975000Y-83085000D03*
X148975000Y-81815000D03*
X148975000Y-80545000D03*
X148975000Y-79275000D03*
X148975000Y-78005000D03*
D24*
X137325000Y-85025000D03*
X137325000Y-86425000D03*
X138025000Y-84325000D03*
X138025000Y-85725000D03*
X138025000Y-87125000D03*
X138725000Y-85025000D03*
D25*
X138725000Y-85725000D03*
D24*
X138725000Y-86425000D03*
X139425000Y-84325000D03*
X139425000Y-85725000D03*
X139425000Y-87125000D03*
X140125000Y-85025000D03*
X140125000Y-86425000D03*
%TD*%
D26*
%TO.C,R14*%
X153550000Y-91650000D03*
X153550000Y-93300000D03*
%TD*%
%TO.C,R15*%
X152000000Y-90825000D03*
X152000000Y-92475000D03*
%TD*%
D27*
%TO.C,R21*%
X152000000Y-84950000D03*
X152000000Y-83300000D03*
%TD*%
D28*
%TO.C,R26*%
X139850000Y-112800000D03*
X141500000Y-112800000D03*
%TD*%
D18*
%TO.C,C26*%
X135100000Y-111850000D03*
X133550000Y-111850000D03*
%TD*%
D28*
%TO.C,R41*%
X127725000Y-90150000D03*
X129375000Y-90150000D03*
%TD*%
D27*
%TO.C,R24*%
X153550000Y-84050000D03*
X153550000Y-82400000D03*
%TD*%
D11*
%TO.C,J4*%
X167075000Y-133025000D03*
D12*
X162875000Y-133025000D03*
X167075000Y-127525000D03*
X162875000Y-127525000D03*
%TD*%
D29*
%TO.C,JP8*%
X128400000Y-113665000D03*
D30*
X125860000Y-113665000D03*
%TD*%
D28*
%TO.C,R8*%
X124615000Y-83565000D03*
X126265000Y-83565000D03*
%TD*%
D31*
%TO.C,C12*%
X144975000Y-114850000D03*
X144975000Y-111900000D03*
%TD*%
D32*
%TO.C,U4*%
X128370000Y-104700000D03*
X127100000Y-104700000D03*
X125830000Y-104700000D03*
X124560000Y-104700000D03*
X124560000Y-109650000D03*
X125830000Y-109650000D03*
X127100000Y-109650000D03*
X128370000Y-109650000D03*
%TD*%
D33*
%TO.C,L1*%
X147000000Y-123175000D03*
X147000000Y-117125000D03*
%TD*%
D31*
%TO.C,C16*%
X149775000Y-114850000D03*
X149775000Y-111900000D03*
%TD*%
D26*
%TO.C,R29*%
X131625000Y-114162500D03*
X131625000Y-115812500D03*
%TD*%
D29*
%TO.C,J10*%
X128025000Y-100125000D03*
D30*
X125485000Y-100125000D03*
X128025000Y-97585000D03*
X125485000Y-97585000D03*
X128025000Y-95045000D03*
X125485000Y-95045000D03*
%TD*%
D34*
%TO.C,REF\u002A\u002A*%
X126525000Y-72925000D03*
D35*
X126525000Y-72925000D03*
%TD*%
D18*
%TO.C,C11*%
X150400000Y-108975000D03*
X148850000Y-108975000D03*
%TD*%
D36*
%TO.C,Q1*%
X127625000Y-88400000D03*
X129525000Y-88400000D03*
X128575000Y-86525000D03*
%TD*%
D37*
%TO.C,C24*%
X133950000Y-101120000D03*
X133950000Y-99570000D03*
%TD*%
%TO.C,C1*%
X127725000Y-79100000D03*
X127725000Y-77550000D03*
%TD*%
D38*
%TO.C,U5*%
X141475000Y-118280000D03*
X141475000Y-117010000D03*
X141475000Y-115740000D03*
X141475000Y-114470000D03*
X136075000Y-114470000D03*
X136075000Y-115740000D03*
X136075000Y-117010000D03*
X136075000Y-118280000D03*
D39*
X138775000Y-116375000D03*
%TD*%
D40*
%TO.C,BT1*%
X165325000Y-98575000D03*
X165325000Y-114975000D03*
%TD*%
D27*
%TO.C,R37*%
X145275000Y-102900000D03*
X145275000Y-101250000D03*
%TD*%
D37*
%TO.C,C18*%
X151300000Y-107100000D03*
X151300000Y-105550000D03*
%TD*%
D26*
%TO.C,R13*%
X129975000Y-107700000D03*
X129975000Y-109350000D03*
%TD*%
D27*
%TO.C,R18*%
X152000000Y-89275000D03*
X152000000Y-87625000D03*
%TD*%
%TO.C,R34*%
X133975000Y-105275000D03*
X133975000Y-103625000D03*
%TD*%
D26*
%TO.C,R30*%
X131625000Y-111187500D03*
X131625000Y-112837500D03*
%TD*%
D41*
%TO.C,U10*%
X133525000Y-110100000D03*
X134475000Y-110100000D03*
X135425000Y-110100000D03*
X135425000Y-107825000D03*
X133525000Y-107825000D03*
%TD*%
D26*
%TO.C,R20*%
X153550000Y-85975000D03*
X153550000Y-87625000D03*
%TD*%
D34*
%TO.C,REF\u002A\u002A*%
X170125000Y-121575000D03*
D35*
X170125000Y-121575000D03*
%TD*%
D31*
%TO.C,C17*%
X152175000Y-114850000D03*
X152175000Y-111900000D03*
%TD*%
D42*
%TO.C,C29*%
X153950000Y-103975000D03*
X155500000Y-103975000D03*
%TD*%
D43*
%TO.C,C21*%
X162325000Y-120350000D03*
X162325000Y-121900000D03*
%TD*%
D37*
%TO.C,C25*%
X135875000Y-105125000D03*
X135875000Y-103575000D03*
%TD*%
D43*
%TO.C,C9*%
X142525000Y-119925000D03*
X142525000Y-121475000D03*
%TD*%
D34*
%TO.C,REF\u002A\u002A*%
X126525000Y-121575000D03*
D35*
X126525000Y-121575000D03*
%TD*%
D43*
%TO.C,C37*%
X132375000Y-102550000D03*
X132375000Y-104100000D03*
%TD*%
D37*
%TO.C,C4*%
X129275000Y-79100000D03*
X129275000Y-77550000D03*
%TD*%
D17*
%TO.C,R5*%
X126275000Y-80575000D03*
X124625000Y-80575000D03*
%TD*%
D42*
%TO.C,C39*%
X151175000Y-94700000D03*
X152725000Y-94700000D03*
%TD*%
D44*
%TO.C,U7*%
X146825000Y-105125000D03*
X146825000Y-105525000D03*
X146825000Y-105925000D03*
X146825000Y-106325000D03*
X146825000Y-106725000D03*
X146825000Y-107125000D03*
D45*
X147325000Y-107625000D03*
X147725000Y-107625000D03*
X148125000Y-107625000D03*
X148525000Y-107625000D03*
X148925000Y-107625000D03*
X149325000Y-107625000D03*
D44*
X149825000Y-107125000D03*
X149825000Y-106725000D03*
X149825000Y-106325000D03*
X149825000Y-105925000D03*
X149825000Y-105525000D03*
X149825000Y-105125000D03*
D45*
X149325000Y-104625000D03*
X148925000Y-104625000D03*
X148525000Y-104625000D03*
X148125000Y-104625000D03*
X147725000Y-104625000D03*
X147325000Y-104625000D03*
D46*
X148325000Y-106125000D03*
%TD*%
D28*
%TO.C,R19*%
X128400000Y-116265000D03*
X130050000Y-116265000D03*
%TD*%
D42*
%TO.C,C23*%
X156325000Y-113525000D03*
X157875000Y-113525000D03*
%TD*%
D29*
%TO.C,JP5*%
X147350000Y-98725000D03*
D30*
X149890000Y-98725000D03*
%TD*%
D47*
%TO.C,D12*%
X155950000Y-107525000D03*
X155950000Y-105625000D03*
X154075000Y-106575000D03*
%TD*%
D43*
%TO.C,C5*%
X127725000Y-80550000D03*
X127725000Y-82100000D03*
%TD*%
D28*
%TO.C,R25*%
X141500000Y-111325000D03*
X143150000Y-111325000D03*
%TD*%
D27*
%TO.C,R33*%
X132325000Y-101150000D03*
X132325000Y-99500000D03*
%TD*%
D48*
%TO.C,U11*%
X138350000Y-100195000D03*
X138350000Y-101465000D03*
X138350000Y-102735000D03*
X138350000Y-104005000D03*
X143300000Y-104005000D03*
X143300000Y-102735000D03*
X143300000Y-101465000D03*
X143300000Y-100195000D03*
%TD*%
D11*
%TO.C,J2*%
X144875000Y-133025000D03*
D12*
X140675000Y-133025000D03*
X144875000Y-127525000D03*
X140675000Y-127525000D03*
%TD*%
D34*
%TO.C,REF\u002A\u002A*%
X170125000Y-72925000D03*
D35*
X170125000Y-72925000D03*
%TD*%
D36*
%TO.C,Q2*%
X124175000Y-88400000D03*
X126075000Y-88400000D03*
X125125000Y-86525000D03*
%TD*%
D43*
%TO.C,C19*%
X129275000Y-80550000D03*
X129275000Y-82100000D03*
%TD*%
D49*
%TO.C,U8*%
X155600000Y-121875000D03*
X157900000Y-121875000D03*
D50*
X157900000Y-115575000D03*
D49*
X160200000Y-121875000D03*
%TD*%
D18*
%TO.C,C20*%
X147400000Y-108975000D03*
X145850000Y-108975000D03*
%TD*%
D31*
%TO.C,C15*%
X147375000Y-114850000D03*
X147375000Y-111900000D03*
%TD*%
D51*
%TO.C,C6*%
X133675000Y-114100000D03*
X133675000Y-117050000D03*
%TD*%
D11*
%TO.C,J1*%
X133775000Y-133025000D03*
D12*
X129575000Y-133025000D03*
X133775000Y-127525000D03*
X129575000Y-127525000D03*
%TD*%
M02*
