%TF.GenerationSoftware,KiCad,Pcbnew,9.0.4*%
%TF.CreationDate,2025-08-28T10:53:28+09:00*%
%TF.ProjectId,monolith,6d6f6e6f-6c69-4746-982e-6b696361645f,rev?*%
%TF.SameCoordinates,Original*%
%TF.FileFunction,Soldermask,Bot*%
%TF.FilePolarity,Negative*%
%FSLAX46Y46*%
G04 Gerber Fmt 4.6, Leading zero omitted, Abs format (unit mm)*
G04 Created by KiCad (PCBNEW 9.0.4) date 2025-08-28 10:53:28*
%MOMM*%
%LPD*%
G01*
G04 APERTURE LIST*
G04 Aperture macros list*
%AMRoundRect*
0 Rectangle with rounded corners*
0 $1 Rounding radius*
0 $2 $3 $4 $5 $6 $7 $8 $9 X,Y pos of 4 corners*
0 Add a 4 corners polygon primitive as box body*
4,1,4,$2,$3,$4,$5,$6,$7,$8,$9,$2,$3,0*
0 Add four circle primitives for the rounded corners*
1,1,$1+$1,$2,$3*
1,1,$1+$1,$4,$5*
1,1,$1+$1,$6,$7*
1,1,$1+$1,$8,$9*
0 Add four rect primitives between the rounded corners*
20,1,$1+$1,$2,$3,$4,$5,0*
20,1,$1+$1,$4,$5,$6,$7,0*
20,1,$1+$1,$6,$7,$8,$9,0*
20,1,$1+$1,$8,$9,$2,$3,0*%
G04 Aperture macros list end*
%ADD10R,0.850000X0.850000*%
%ADD11C,0.850000*%
%ADD12R,1.700000X1.700000*%
%ADD13C,1.700000*%
%ADD14C,3.000000*%
%ADD15RoundRect,0.250001X1.099999X1.599999X-1.099999X1.599999X-1.099999X-1.599999X1.099999X-1.599999X0*%
%ADD16O,2.700000X3.700000*%
%ADD17C,1.000000*%
%ADD18C,3.400000*%
%ADD19C,6.000000*%
%ADD20C,1.050000*%
%ADD21C,1.300000*%
G04 APERTURE END LIST*
D10*
%TO.C,JP4*%
X93700000Y-97600000D03*
D11*
X92700000Y-97600000D03*
%TD*%
D10*
%TO.C,JP1*%
X93700000Y-95250000D03*
D11*
X92700000Y-95250000D03*
%TD*%
D12*
%TO.C,J10*%
X70050000Y-99940000D03*
D13*
X67510000Y-99940000D03*
X70050000Y-97400000D03*
X67510000Y-97400000D03*
X70050000Y-94860000D03*
X67510000Y-94860000D03*
%TD*%
D12*
%TO.C,JP7*%
X141900000Y-134375000D03*
D13*
X141900000Y-131835000D03*
%TD*%
D12*
%TO.C,JP8*%
X72150000Y-130100000D03*
D13*
X69610000Y-130100000D03*
%TD*%
D12*
%TO.C,JP3*%
X130800000Y-134400000D03*
D13*
X130800000Y-131860000D03*
%TD*%
D12*
%TO.C,JP6*%
X138200000Y-134375000D03*
D13*
X138200000Y-131835000D03*
%TD*%
D12*
%TO.C,JP5*%
X116500000Y-114075000D03*
D13*
X116500000Y-116615000D03*
%TD*%
D12*
%TO.C,JP2*%
X127100000Y-134375000D03*
D13*
X127100000Y-131835000D03*
%TD*%
D10*
%TO.C,TP1*%
X147300000Y-132800000D03*
%TD*%
%TO.C,TP2*%
X151500000Y-132800000D03*
%TD*%
D14*
%TO.C,J3*%
X95650000Y-155600000D03*
D15*
X97750000Y-148300000D03*
D16*
X93550000Y-148300000D03*
X97750000Y-142800000D03*
X93550000Y-142800000D03*
%TD*%
D17*
%TO.C,J13*%
X153200000Y-100000000D03*
X153200000Y-92000000D03*
%TD*%
D14*
%TO.C,J5*%
X140050000Y-155600000D03*
D15*
X142150000Y-148300000D03*
D16*
X137950000Y-148300000D03*
X142150000Y-142800000D03*
X137950000Y-142800000D03*
%TD*%
D14*
%TO.C,J4*%
X128950000Y-155600000D03*
D15*
X131050000Y-148300000D03*
D16*
X126850000Y-148300000D03*
X131050000Y-142800000D03*
X126850000Y-142800000D03*
%TD*%
D18*
%TO.C,REF\u002A\u002A*%
X68300000Y-88200000D03*
D19*
X68300000Y-88200000D03*
%TD*%
D20*
%TO.C,BT1*%
X74800000Y-106350000D03*
D21*
X82250000Y-106350000D03*
%TD*%
D14*
%TO.C,J6*%
X151150000Y-155600000D03*
D15*
X153250000Y-148300000D03*
D16*
X149050000Y-148300000D03*
X153250000Y-142800000D03*
X149050000Y-142800000D03*
%TD*%
D14*
%TO.C,J12*%
X106750000Y-155600000D03*
D15*
X108850000Y-148300000D03*
D16*
X104650000Y-148300000D03*
X108850000Y-142800000D03*
X104650000Y-142800000D03*
%TD*%
D18*
%TO.C,REF\u002A\u002A*%
X156300000Y-136850000D03*
D19*
X156300000Y-136850000D03*
%TD*%
D18*
%TO.C,REF\u002A\u002A*%
X68300000Y-136850000D03*
D19*
X68300000Y-136850000D03*
%TD*%
D14*
%TO.C,J11*%
X117850000Y-155600000D03*
D15*
X119950000Y-148300000D03*
D16*
X115750000Y-148300000D03*
X119950000Y-142800000D03*
X115750000Y-142800000D03*
%TD*%
D14*
%TO.C,J2*%
X84550000Y-155600000D03*
D15*
X86650000Y-148300000D03*
D16*
X82450000Y-148300000D03*
X86650000Y-142800000D03*
X82450000Y-142800000D03*
%TD*%
D18*
%TO.C,REF\u002A\u002A*%
X156300000Y-108350000D03*
D19*
X156300000Y-108350000D03*
%TD*%
D14*
%TO.C,J1*%
X73450000Y-155600000D03*
D15*
X75550000Y-148300000D03*
D16*
X71350000Y-148300000D03*
X75550000Y-142800000D03*
X71350000Y-142800000D03*
%TD*%
M02*
