%TF.GenerationSoftware,KiCad,Pcbnew,9.0.4*%
%TF.CreationDate,2025-08-28T10:53:28+09:00*%
%TF.ProjectId,monolith,6d6f6e6f-6c69-4746-982e-6b696361645f,rev?*%
%TF.SameCoordinates,Original*%
%TF.FileFunction,Copper,L2,Bot*%
%TF.FilePolarity,Positive*%
%FSLAX46Y46*%
G04 Gerber Fmt 4.6, Leading zero omitted, Abs format (unit mm)*
G04 Created by KiCad (PCBNEW 9.0.4) date 2025-08-28 10:53:28*
%MOMM*%
%LPD*%
G01*
G04 APERTURE LIST*
G04 Aperture macros list*
%AMRoundRect*
0 Rectangle with rounded corners*
0 $1 Rounding radius*
0 $2 $3 $4 $5 $6 $7 $8 $9 X,Y pos of 4 corners*
0 Add a 4 corners polygon primitive as box body*
4,1,4,$2,$3,$4,$5,$6,$7,$8,$9,$2,$3,0*
0 Add four circle primitives for the rounded corners*
1,1,$1+$1,$2,$3*
1,1,$1+$1,$4,$5*
1,1,$1+$1,$6,$7*
1,1,$1+$1,$8,$9*
0 Add four rect primitives between the rounded corners*
20,1,$1+$1,$2,$3,$4,$5,0*
20,1,$1+$1,$4,$5,$6,$7,0*
20,1,$1+$1,$6,$7,$8,$9,0*
20,1,$1+$1,$8,$9,$2,$3,0*%
G04 Aperture macros list end*
%TA.AperFunction,ComponentPad*%
%ADD10R,0.850000X0.850000*%
%TD*%
%TA.AperFunction,ComponentPad*%
%ADD11C,0.850000*%
%TD*%
%TA.AperFunction,ComponentPad*%
%ADD12R,1.700000X1.700000*%
%TD*%
%TA.AperFunction,ComponentPad*%
%ADD13C,1.700000*%
%TD*%
%TA.AperFunction,ComponentPad*%
%ADD14RoundRect,0.250001X1.099999X1.599999X-1.099999X1.599999X-1.099999X-1.599999X1.099999X-1.599999X0*%
%TD*%
%TA.AperFunction,ComponentPad*%
%ADD15O,2.700000X3.700000*%
%TD*%
%TA.AperFunction,HeatsinkPad*%
%ADD16C,0.600000*%
%TD*%
%TA.AperFunction,ComponentPad*%
%ADD17C,3.400000*%
%TD*%
%TA.AperFunction,ConnectorPad*%
%ADD18C,6.000000*%
%TD*%
%TA.AperFunction,ComponentPad*%
%ADD19C,0.600000*%
%TD*%
%TA.AperFunction,SMDPad,CuDef*%
%ADD20R,2.950000X4.500000*%
%TD*%
%TA.AperFunction,ViaPad*%
%ADD21C,0.600000*%
%TD*%
%TA.AperFunction,Conductor*%
%ADD22C,0.300000*%
%TD*%
%TA.AperFunction,Conductor*%
%ADD23C,0.200000*%
%TD*%
%TA.AperFunction,Conductor*%
%ADD24C,0.400000*%
%TD*%
%TA.AperFunction,Conductor*%
%ADD25C,0.600000*%
%TD*%
G04 APERTURE END LIST*
D10*
%TO.P,JP4,1,A*%
%TO.N,/BOOT*%
X93700000Y-97600000D03*
D11*
%TO.P,JP4,2,B*%
%TO.N,GND*%
X92700000Y-97600000D03*
%TD*%
D10*
%TO.P,JP1,1,A*%
%TO.N,/EN*%
X93700000Y-95250000D03*
D11*
%TO.P,JP1,2,B*%
%TO.N,GND*%
X92700000Y-95250000D03*
%TD*%
D12*
%TO.P,J10,1,Pin_1*%
%TO.N,+3V3*%
X70050000Y-99940000D03*
D13*
%TO.P,J10,2,Pin_2*%
%TO.N,GND*%
X67510000Y-99940000D03*
%TO.P,J10,3,Pin_3*%
%TO.N,/RX*%
X70050000Y-97400000D03*
%TO.P,J10,4,Pin_4*%
%TO.N,/RTS*%
X67510000Y-97400000D03*
%TO.P,J10,5,Pin_5*%
%TO.N,/TX*%
X70050000Y-94860000D03*
%TO.P,J10,6,Pin_6*%
%TO.N,/DTR*%
X67510000Y-94860000D03*
%TD*%
D12*
%TO.P,JP7,1,A*%
%TO.N,Net-(D5-A1)*%
X141900000Y-134375000D03*
D13*
%TO.P,JP7,2,B*%
%TO.N,Net-(JP7-B)*%
X141900000Y-131835000D03*
%TD*%
D12*
%TO.P,JP8,1,A*%
%TO.N,Net-(JP8-A)*%
X72150000Y-130100000D03*
D13*
%TO.P,JP8,2,B*%
%TO.N,/CANL*%
X69610000Y-130100000D03*
%TD*%
D12*
%TO.P,JP3,1,A*%
%TO.N,Net-(D2-A1)*%
X130800000Y-134400000D03*
D13*
%TO.P,JP3,2,B*%
%TO.N,Net-(JP3-B)*%
X130800000Y-131860000D03*
%TD*%
D12*
%TO.P,JP6,1,A*%
%TO.N,Net-(D4-A1)*%
X138200000Y-134375000D03*
D13*
%TO.P,JP6,2,B*%
%TO.N,Net-(JP6-B)*%
X138200000Y-131835000D03*
%TD*%
D12*
%TO.P,JP5,1,A*%
%TO.N,Net-(JP5-A)*%
X116500000Y-114075000D03*
D13*
%TO.P,JP5,2,B*%
%TO.N,+3V3*%
X116500000Y-116615000D03*
%TD*%
D12*
%TO.P,JP2,1,A*%
%TO.N,Net-(D1-A1)*%
X127100000Y-134375000D03*
D13*
%TO.P,JP2,2,B*%
%TO.N,Net-(JP2-B)*%
X127100000Y-131835000D03*
%TD*%
D10*
%TO.P,TP1,1,1*%
%TO.N,Net-(D7-A1)*%
X147300000Y-132800000D03*
%TD*%
%TO.P,TP2,1,1*%
%TO.N,Net-(D8-A1)*%
X151500000Y-132800000D03*
%TD*%
D14*
%TO.P,J3,1,Pin_1*%
%TO.N,+3V3*%
X97750000Y-148300000D03*
D15*
%TO.P,J3,2,Pin_2*%
%TO.N,GND*%
X93550000Y-148300000D03*
%TO.P,J3,3,Pin_3*%
%TO.N,/DBGRX*%
X97750000Y-142800000D03*
%TO.P,J3,4,Pin_4*%
%TO.N,/DBGTX*%
X93550000Y-142800000D03*
%TD*%
D14*
%TO.P,J5,1,Pin_1*%
%TO.N,+5V*%
X142150000Y-148300000D03*
D15*
%TO.P,J5,2,Pin_2*%
%TO.N,GNDA*%
X137950000Y-148300000D03*
%TO.P,J5,3,Pin_3*%
%TO.N,/AIN4*%
X142150000Y-142800000D03*
%TO.P,J5,4,Pin_4*%
%TO.N,/AIN3*%
X137950000Y-142800000D03*
%TD*%
D16*
%TO.P,U2,41,GND*%
%TO.N,GND*%
X109400000Y-100300000D03*
X109400000Y-101700000D03*
X110100000Y-99600000D03*
X110100000Y-101000000D03*
X110100000Y-102400000D03*
X110800000Y-100300000D03*
X110800000Y-101700000D03*
X111500000Y-99600000D03*
X111500000Y-101000000D03*
X111500000Y-102400000D03*
X112200000Y-100300000D03*
X112200000Y-101700000D03*
%TD*%
D14*
%TO.P,J4,1,Pin_1*%
%TO.N,+5V*%
X131050000Y-148300000D03*
D15*
%TO.P,J4,2,Pin_2*%
%TO.N,GNDA*%
X126850000Y-148300000D03*
%TO.P,J4,3,Pin_3*%
%TO.N,/AIN2*%
X131050000Y-142800000D03*
%TO.P,J4,4,Pin_4*%
%TO.N,/AIN1*%
X126850000Y-142800000D03*
%TD*%
D17*
%TO.P,REF\u002A\u002A,1*%
%TO.N,N/C*%
X68300000Y-88200000D03*
D18*
X68300000Y-88200000D03*
%TD*%
D19*
%TO.P,U5,9,GNDPAD*%
%TO.N,GND*%
X81400000Y-130075000D03*
X81400000Y-128875000D03*
X81400000Y-127575000D03*
X81400000Y-126475000D03*
D20*
X80800000Y-128275000D03*
D19*
X80200000Y-130075000D03*
X80200000Y-128875000D03*
X80200000Y-127575000D03*
X80200000Y-126475000D03*
%TD*%
D14*
%TO.P,J6,1,Pin_1*%
%TO.N,+5V*%
X153250000Y-148300000D03*
D15*
%TO.P,J6,2,Pin_2*%
%TO.N,GNDA*%
X149050000Y-148300000D03*
%TO.P,J6,3,Pin_3*%
%TO.N,/AIN6*%
X153250000Y-142800000D03*
%TO.P,J6,4,Pin_4*%
%TO.N,/AIN5*%
X149050000Y-142800000D03*
%TD*%
D14*
%TO.P,J12,1,Pin_1*%
%TO.N,+5V*%
X108850000Y-148300000D03*
D15*
%TO.P,J12,2,Pin_2*%
%TO.N,GND*%
X104650000Y-148300000D03*
%TO.P,J12,3,Pin_3*%
%TO.N,/DIN2*%
X108850000Y-142800000D03*
%TO.P,J12,4,Pin_4*%
%TO.N,/DIN1*%
X104650000Y-142800000D03*
%TD*%
D17*
%TO.P,REF\u002A\u002A,1*%
%TO.N,N/C*%
X156300000Y-136850000D03*
D18*
X156300000Y-136850000D03*
%TD*%
D17*
%TO.P,REF\u002A\u002A,1*%
%TO.N,N/C*%
X68300000Y-136850000D03*
D18*
X68300000Y-136850000D03*
%TD*%
D14*
%TO.P,J11,1,Pin_1*%
%TO.N,+5V*%
X119950000Y-148300000D03*
D15*
%TO.P,J11,2,Pin_2*%
%TO.N,GND*%
X115750000Y-148300000D03*
%TO.P,J11,3,Pin_3*%
%TO.N,/DIN4*%
X119950000Y-142800000D03*
%TO.P,J11,4,Pin_4*%
%TO.N,/DIN3*%
X115750000Y-142800000D03*
%TD*%
D14*
%TO.P,J2,1,Pin_1*%
%TO.N,+3V3*%
X86650000Y-148300000D03*
D15*
%TO.P,J2,2,Pin_2*%
%TO.N,GND*%
X82450000Y-148300000D03*
%TO.P,J2,3,Pin_3*%
%TO.N,/GPS_RX*%
X86650000Y-142800000D03*
%TO.P,J2,4,Pin_4*%
%TO.N,/GPS_TX*%
X82450000Y-142800000D03*
%TD*%
D17*
%TO.P,REF\u002A\u002A,1*%
%TO.N,N/C*%
X156300000Y-108350000D03*
D18*
X156300000Y-108350000D03*
%TD*%
D14*
%TO.P,J1,1,Pin_1*%
%TO.N,VBUS*%
X75550000Y-148300000D03*
D15*
%TO.P,J1,2,Pin_2*%
%TO.N,GND*%
X71350000Y-148300000D03*
%TO.P,J1,3,Pin_3*%
%TO.N,/CANH*%
X75550000Y-142800000D03*
%TO.P,J1,4,Pin_4*%
%TO.N,/CANL*%
X71350000Y-142800000D03*
%TD*%
D21*
%TO.N,GND*%
X73700000Y-127150000D03*
X98900000Y-134850000D03*
X90100000Y-142450000D03*
X90400000Y-126050000D03*
X73250000Y-97900000D03*
X109950000Y-128850000D03*
X118900000Y-107500000D03*
X96250000Y-119375000D03*
X90450000Y-122400000D03*
X79200000Y-111150000D03*
X103050000Y-128300000D03*
X81650000Y-122050000D03*
X98425000Y-97375000D03*
X109900000Y-125850000D03*
X124625000Y-108275000D03*
X104950000Y-116850000D03*
X95700000Y-136650000D03*
X112900000Y-118750000D03*
X105500000Y-98550000D03*
X136800000Y-104000000D03*
X106700000Y-132450000D03*
X89550000Y-115200000D03*
X105450000Y-138750000D03*
X113950000Y-126900000D03*
X144750000Y-104400000D03*
X86200000Y-136700000D03*
X86050000Y-120750000D03*
X97600000Y-123750000D03*
X90300000Y-112350000D03*
X105970000Y-93280000D03*
X91100000Y-95850000D03*
X82800000Y-97950000D03*
X144000000Y-98300000D03*
X93650000Y-115500000D03*
X95950000Y-126650000D03*
X121000000Y-126250000D03*
X118500000Y-117100000D03*
X149150000Y-93550000D03*
X75650000Y-122050000D03*
X121000000Y-139300000D03*
X119000000Y-99700000D03*
X117750000Y-132450000D03*
X114200000Y-123650000D03*
X95350000Y-133750000D03*
X82900000Y-135800000D03*
X130150000Y-107900000D03*
X119280000Y-93280000D03*
X95350000Y-95400000D03*
X68750000Y-102550000D03*
X88950000Y-119950000D03*
X84550000Y-111150000D03*
X96100000Y-101900000D03*
X114250000Y-119550000D03*
X118600000Y-122400000D03*
X104625000Y-126725000D03*
X149300000Y-106250000D03*
X96000000Y-113450000D03*
X91700000Y-103600000D03*
X77700000Y-136200000D03*
X100350000Y-132400000D03*
X98000000Y-115650000D03*
X70825000Y-118700000D03*
X81650000Y-116000000D03*
X86050000Y-118800000D03*
X69000000Y-140950000D03*
X107750000Y-108350000D03*
X113550000Y-130800000D03*
X86050000Y-131400000D03*
X69400000Y-109650000D03*
X75650000Y-116000000D03*
X98900000Y-139400000D03*
X104950000Y-120200000D03*
X93700000Y-123650000D03*
X91100000Y-130450000D03*
%TO.N,+3V3*%
X71050000Y-113500000D03*
X94850000Y-111400000D03*
X117550000Y-96500000D03*
X136650000Y-96500000D03*
X94850000Y-98800000D03*
X136650000Y-101350000D03*
X94850000Y-127950000D03*
X136650000Y-92350000D03*
%TO.N,Net-(BT1-+)*%
X89650000Y-108150000D03*
X93825000Y-112325000D03*
%TO.N,/D4*%
X114205000Y-134020000D03*
X114205000Y-116550000D03*
%TO.N,/D3*%
X112935000Y-134015000D03*
X112935000Y-116550000D03*
%TO.N,/D2*%
X111665000Y-112450000D03*
X111665000Y-134035000D03*
%TO.N,/D1*%
X110395000Y-112450000D03*
X110400000Y-133950000D03*
%TO.N,VBUS*%
X144900000Y-152500000D03*
X154050000Y-132000000D03*
%TO.N,+5V*%
X97318750Y-113868750D03*
X136150000Y-106250000D03*
%TO.N,/GPS_TX*%
X83950000Y-115750000D03*
%TO.N,/GPS_RX*%
X84850000Y-116250000D03*
%TO.N,/EN*%
X97150000Y-97000000D03*
%TO.N,/BOOT*%
X106200000Y-101800000D03*
%TO.N,/RX*%
X105600000Y-96700000D03*
%TO.N,/TX*%
X106600000Y-95850000D03*
%TO.N,GNDA*%
X144250000Y-145350000D03*
X149950000Y-112600000D03*
X149400000Y-133600000D03*
X134500000Y-134850000D03*
X130250000Y-113050000D03*
X145650000Y-130400000D03*
X155725000Y-116325000D03*
X146025000Y-115375000D03*
X136275000Y-127675000D03*
X128650000Y-125500000D03*
X150225000Y-121225000D03*
X140975000Y-118000000D03*
X124200000Y-122800000D03*
X129850000Y-117950000D03*
X144800000Y-122650000D03*
X124350000Y-134650000D03*
X143725000Y-127675000D03*
X157612500Y-129987500D03*
X145200000Y-136800000D03*
X135300000Y-122800000D03*
X139500000Y-125505000D03*
X153150000Y-130400000D03*
X132600000Y-127700000D03*
X154750000Y-120450000D03*
X146950000Y-145350000D03*
X147650000Y-109450000D03*
X154350000Y-122250000D03*
X125250000Y-127650000D03*
%TO.N,/DBGTX*%
X91450000Y-114750000D03*
%TO.N,/DBGRX*%
X92500000Y-114750000D03*
%TO.N,/DTR*%
X86550000Y-98550000D03*
X84700000Y-95150000D03*
%TO.N,/SCL0*%
X105550000Y-112450000D03*
X108950000Y-112450000D03*
%TD*%
D22*
%TO.N,+3V3*%
X71050000Y-113500000D02*
X71050000Y-100940000D01*
X136650000Y-96500000D02*
X136650000Y-92350000D01*
X94850000Y-113300000D02*
X94850000Y-127950000D01*
X94850000Y-111400000D02*
X94850000Y-113300000D01*
X136650000Y-96500000D02*
X136650000Y-101350000D01*
X71050000Y-100940000D02*
X70050000Y-99940000D01*
X117550000Y-96500000D02*
X136650000Y-96500000D01*
X94850000Y-98800000D02*
X94850000Y-111400000D01*
X71050000Y-113500000D02*
X94850000Y-113500000D01*
%TO.N,Net-(BT1-+)*%
X89650000Y-108150000D02*
X93825000Y-112325000D01*
D23*
%TO.N,/D4*%
X114205000Y-134020000D02*
X117500000Y-130725000D01*
X114200000Y-134025000D02*
X114205000Y-134020000D01*
X117500000Y-119845000D02*
X114205000Y-116550000D01*
X117500000Y-130725000D02*
X117500000Y-119845000D01*
%TO.N,/D3*%
X116600000Y-130350000D02*
X116600000Y-120215000D01*
X116600000Y-120215000D02*
X112935000Y-116550000D01*
X112935000Y-134015000D02*
X116600000Y-130350000D01*
%TO.N,/D2*%
X111665000Y-112450000D02*
X108700000Y-115415000D01*
X108700000Y-115415000D02*
X108700000Y-131070000D01*
X108700000Y-131070000D02*
X111665000Y-134035000D01*
%TO.N,/D1*%
X107850000Y-114995000D02*
X107850000Y-131400000D01*
X107850000Y-131400000D02*
X110400000Y-133950000D01*
X110395000Y-112450000D02*
X107850000Y-114995000D01*
D24*
%TO.N,VBUS*%
X145800000Y-140250000D02*
X145800000Y-142000000D01*
X154050000Y-132000000D02*
X145800000Y-140250000D01*
D23*
X75550000Y-147750000D02*
X75550000Y-148300000D01*
X75550000Y-147700000D02*
X75550000Y-148300000D01*
D24*
X145800000Y-142000000D02*
X145800000Y-151600000D01*
X145800000Y-151600000D02*
X144900000Y-152500000D01*
D25*
%TO.N,+5V*%
X104937500Y-106250000D02*
X136150000Y-106250000D01*
X97318750Y-113868750D02*
X104937500Y-106250000D01*
D22*
%TO.N,/GPS_TX*%
X82450000Y-141050000D02*
X82450000Y-142800000D01*
X83950000Y-141300000D02*
X82450000Y-142800000D01*
X83950000Y-115750000D02*
X83950000Y-141300000D01*
%TO.N,/GPS_RX*%
X84850000Y-116250000D02*
X84850000Y-141000000D01*
X84850000Y-141000000D02*
X86650000Y-142800000D01*
D23*
%TO.N,/EN*%
X97150000Y-97000000D02*
X95450000Y-97000000D01*
X95450000Y-97000000D02*
X93700000Y-95250000D01*
%TO.N,/BOOT*%
X100350000Y-101800000D02*
X96150000Y-97600000D01*
X96150000Y-97600000D02*
X93700000Y-97600000D01*
X106200000Y-101800000D02*
X100350000Y-101800000D01*
%TO.N,/RX*%
X105600000Y-96700000D02*
X103250000Y-94350000D01*
X103250000Y-94350000D02*
X73100000Y-94350000D01*
X73100000Y-94350000D02*
X70050000Y-97400000D01*
%TO.N,/TX*%
X71760000Y-93150000D02*
X70050000Y-94860000D01*
X106600000Y-95850000D02*
X103900000Y-93150000D01*
X103900000Y-93150000D02*
X71760000Y-93150000D01*
D22*
%TO.N,/DBGTX*%
X91450000Y-129000000D02*
X93550000Y-131100000D01*
X93550000Y-131100000D02*
X93550000Y-142800000D01*
X91450000Y-114750000D02*
X91450000Y-129000000D01*
%TO.N,/DBGRX*%
X97750000Y-133700000D02*
X97750000Y-142800000D01*
X92500000Y-128450000D02*
X97750000Y-133700000D01*
X92500000Y-114750000D02*
X92500000Y-128450000D01*
D23*
%TO.N,/DTR*%
X84700000Y-96700000D02*
X86550000Y-98550000D01*
X84700000Y-95150000D02*
X84700000Y-96700000D01*
%TO.N,/SCL0*%
X105550000Y-112450000D02*
X108950000Y-112450000D01*
%TD*%
%TA.AperFunction,Conductor*%
%TO.N,GND*%
G36*
X119743039Y-92769685D02*
G01*
X119788794Y-92822489D01*
X119800000Y-92874000D01*
X119800000Y-95725500D01*
X119780315Y-95792539D01*
X119727511Y-95838294D01*
X119676000Y-95849500D01*
X118054935Y-95849500D01*
X117987896Y-95829815D01*
X117986090Y-95828633D01*
X117929179Y-95790606D01*
X117929172Y-95790602D01*
X117783501Y-95730264D01*
X117783489Y-95730261D01*
X117628845Y-95699500D01*
X117628842Y-95699500D01*
X117471158Y-95699500D01*
X117471155Y-95699500D01*
X117316510Y-95730261D01*
X117316498Y-95730264D01*
X117170827Y-95790602D01*
X117170814Y-95790609D01*
X117039711Y-95878210D01*
X117039707Y-95878213D01*
X116928213Y-95989707D01*
X116928210Y-95989711D01*
X116840609Y-96120814D01*
X116840602Y-96120827D01*
X116780264Y-96266498D01*
X116780261Y-96266510D01*
X116749500Y-96421153D01*
X116749500Y-96578846D01*
X116780261Y-96733489D01*
X116780264Y-96733501D01*
X116840602Y-96879172D01*
X116840609Y-96879185D01*
X116928210Y-97010288D01*
X116928213Y-97010292D01*
X117039707Y-97121786D01*
X117039711Y-97121789D01*
X117170814Y-97209390D01*
X117170827Y-97209397D01*
X117316498Y-97269735D01*
X117316503Y-97269737D01*
X117437038Y-97293713D01*
X117471153Y-97300499D01*
X117471156Y-97300500D01*
X117471158Y-97300500D01*
X117628844Y-97300500D01*
X117628845Y-97300499D01*
X117783497Y-97269737D01*
X117929179Y-97209394D01*
X117986044Y-97171397D01*
X118052721Y-97150520D01*
X118054935Y-97150500D01*
X135875500Y-97150500D01*
X135942539Y-97170185D01*
X135988294Y-97222989D01*
X135999500Y-97274500D01*
X135999500Y-100845064D01*
X135979815Y-100912103D01*
X135978603Y-100913954D01*
X135940608Y-100970817D01*
X135940602Y-100970828D01*
X135880264Y-101116498D01*
X135880261Y-101116510D01*
X135849500Y-101271153D01*
X135849500Y-101428846D01*
X135880261Y-101583489D01*
X135880264Y-101583501D01*
X135940602Y-101729172D01*
X135940609Y-101729185D01*
X136028210Y-101860288D01*
X136028213Y-101860292D01*
X136139707Y-101971786D01*
X136139711Y-101971789D01*
X136270814Y-102059390D01*
X136270827Y-102059397D01*
X136416498Y-102119735D01*
X136416503Y-102119737D01*
X136571153Y-102150499D01*
X136571156Y-102150500D01*
X136571158Y-102150500D01*
X136728844Y-102150500D01*
X136728845Y-102150499D01*
X136883497Y-102119737D01*
X137029179Y-102059394D01*
X137160289Y-101971789D01*
X137271789Y-101860289D01*
X137359394Y-101729179D01*
X137362719Y-101721153D01*
X137419735Y-101583501D01*
X137419737Y-101583497D01*
X137450500Y-101428842D01*
X137450500Y-101271158D01*
X137450500Y-101271155D01*
X137450499Y-101271153D01*
X137443068Y-101233796D01*
X137419737Y-101116503D01*
X137410673Y-101094620D01*
X137359397Y-100970828D01*
X137359396Y-100970827D01*
X137359394Y-100970821D01*
X137321396Y-100913953D01*
X137300520Y-100847276D01*
X137300500Y-100845064D01*
X137300500Y-97004935D01*
X137320185Y-96937896D01*
X137321366Y-96936090D01*
X137359394Y-96879179D01*
X137419737Y-96733497D01*
X137450500Y-96578842D01*
X137450500Y-96421158D01*
X137450500Y-96421155D01*
X137450499Y-96421153D01*
X137440302Y-96369890D01*
X137419737Y-96266503D01*
X137406456Y-96234440D01*
X137359397Y-96120828D01*
X137359396Y-96120827D01*
X137359394Y-96120821D01*
X137321396Y-96063953D01*
X137300520Y-95997276D01*
X137300500Y-95995064D01*
X137300500Y-92874000D01*
X137320185Y-92806961D01*
X137372989Y-92761206D01*
X137424500Y-92750000D01*
X149926000Y-92750000D01*
X149993039Y-92769685D01*
X150038794Y-92822489D01*
X150050000Y-92874000D01*
X150050000Y-106826000D01*
X150030315Y-106893039D01*
X149977511Y-106938794D01*
X149926000Y-106950000D01*
X136877016Y-106950000D01*
X136809977Y-106930315D01*
X136764222Y-106877511D01*
X136754278Y-106808353D01*
X136773914Y-106757109D01*
X136859390Y-106629185D01*
X136859390Y-106629184D01*
X136859394Y-106629179D01*
X136919737Y-106483497D01*
X136950500Y-106328842D01*
X136950500Y-106171158D01*
X136950500Y-106171155D01*
X136950499Y-106171153D01*
X136941079Y-106123794D01*
X136919737Y-106016503D01*
X136905717Y-105982656D01*
X136859397Y-105870827D01*
X136859390Y-105870814D01*
X136771789Y-105739711D01*
X136771786Y-105739707D01*
X136660292Y-105628213D01*
X136660288Y-105628210D01*
X136529185Y-105540609D01*
X136529172Y-105540602D01*
X136383501Y-105480264D01*
X136383489Y-105480261D01*
X136228845Y-105449500D01*
X136228842Y-105449500D01*
X105016343Y-105449500D01*
X104858658Y-105449500D01*
X104858653Y-105449500D01*
X104704010Y-105480260D01*
X104704002Y-105480262D01*
X104558324Y-105540604D01*
X104558314Y-105540609D01*
X104427211Y-105628210D01*
X104427207Y-105628213D01*
X96696963Y-113358457D01*
X96696960Y-113358461D01*
X96609359Y-113489564D01*
X96609352Y-113489577D01*
X96549014Y-113635248D01*
X96549011Y-113635260D01*
X96518250Y-113789903D01*
X96518250Y-113947596D01*
X96549011Y-114102239D01*
X96549014Y-114102251D01*
X96609352Y-114247922D01*
X96609359Y-114247935D01*
X96696960Y-114379038D01*
X96696963Y-114379042D01*
X96808457Y-114490536D01*
X96808461Y-114490539D01*
X96939564Y-114578140D01*
X96939577Y-114578147D01*
X97085248Y-114638485D01*
X97085253Y-114638487D01*
X97239903Y-114669249D01*
X97239906Y-114669250D01*
X97239908Y-114669250D01*
X97397594Y-114669250D01*
X97397595Y-114669249D01*
X97552247Y-114638487D01*
X97697929Y-114578144D01*
X97829039Y-114490539D01*
X98919078Y-113400500D01*
X99948426Y-112371153D01*
X104749500Y-112371153D01*
X104749500Y-112528846D01*
X104780261Y-112683489D01*
X104780264Y-112683501D01*
X104840602Y-112829172D01*
X104840609Y-112829185D01*
X104928210Y-112960288D01*
X104928213Y-112960292D01*
X105039707Y-113071786D01*
X105039711Y-113071789D01*
X105170814Y-113159390D01*
X105170827Y-113159397D01*
X105316498Y-113219735D01*
X105316503Y-113219737D01*
X105471153Y-113250499D01*
X105471156Y-113250500D01*
X105471158Y-113250500D01*
X105628844Y-113250500D01*
X105628845Y-113250499D01*
X105783497Y-113219737D01*
X105929179Y-113159394D01*
X105929185Y-113159390D01*
X106060875Y-113071398D01*
X106127553Y-113050520D01*
X106129766Y-113050500D01*
X108370234Y-113050500D01*
X108387018Y-113055325D01*
X108403822Y-113055136D01*
X108432821Y-113068494D01*
X108436090Y-113069434D01*
X108439482Y-113071560D01*
X108439711Y-113071789D01*
X108570821Y-113159394D01*
X108596735Y-113170128D01*
X108605542Y-113175648D01*
X108622102Y-113194328D01*
X108641541Y-113209993D01*
X108644878Y-113220021D01*
X108651891Y-113227931D01*
X108655722Y-113252599D01*
X108663607Y-113276287D01*
X108660992Y-113286529D01*
X108662615Y-113296973D01*
X108652502Y-113319795D01*
X108646329Y-113343986D01*
X108635751Y-113357602D01*
X108634311Y-113360853D01*
X108632088Y-113362316D01*
X108627367Y-113368395D01*
X107481286Y-114514478D01*
X107369481Y-114626282D01*
X107369479Y-114626285D01*
X107362434Y-114638488D01*
X107335043Y-114685931D01*
X107290423Y-114763215D01*
X107249499Y-114915943D01*
X107249499Y-114915945D01*
X107249499Y-115084046D01*
X107249500Y-115084059D01*
X107249500Y-131313330D01*
X107249499Y-131313348D01*
X107249499Y-131479054D01*
X107249498Y-131479054D01*
X107290424Y-131631789D01*
X107290425Y-131631790D01*
X107311440Y-131668188D01*
X107311441Y-131668190D01*
X107369475Y-131768709D01*
X107369481Y-131768717D01*
X107488349Y-131887585D01*
X107488355Y-131887590D01*
X109565425Y-133964660D01*
X109598910Y-134025983D01*
X109599361Y-134028149D01*
X109630261Y-134183491D01*
X109630264Y-134183501D01*
X109690602Y-134329172D01*
X109690609Y-134329185D01*
X109778210Y-134460288D01*
X109778213Y-134460292D01*
X109889707Y-134571786D01*
X109889711Y-134571789D01*
X110020814Y-134659390D01*
X110020827Y-134659397D01*
X110166498Y-134719735D01*
X110166503Y-134719737D01*
X110321153Y-134750499D01*
X110321156Y-134750500D01*
X110321158Y-134750500D01*
X110478844Y-134750500D01*
X110478845Y-134750499D01*
X110633497Y-134719737D01*
X110779179Y-134659394D01*
X110910289Y-134571789D01*
X110910299Y-134571778D01*
X110910951Y-134571244D01*
X110911374Y-134571064D01*
X110915354Y-134568405D01*
X110915857Y-134569158D01*
X110975255Y-134543916D01*
X111044125Y-134555692D01*
X111077319Y-134579398D01*
X111154707Y-134656786D01*
X111154711Y-134656789D01*
X111285814Y-134744390D01*
X111285827Y-134744397D01*
X111431498Y-134804735D01*
X111431503Y-134804737D01*
X111586153Y-134835499D01*
X111586156Y-134835500D01*
X111586158Y-134835500D01*
X111743844Y-134835500D01*
X111743845Y-134835499D01*
X111898497Y-134804737D01*
X112044179Y-134744394D01*
X112175289Y-134656789D01*
X112222320Y-134609757D01*
X112283639Y-134576274D01*
X112353330Y-134581257D01*
X112397680Y-134609759D01*
X112424707Y-134636786D01*
X112424711Y-134636789D01*
X112555814Y-134724390D01*
X112555827Y-134724397D01*
X112647209Y-134762248D01*
X112701503Y-134784737D01*
X112856153Y-134815499D01*
X112856156Y-134815500D01*
X112856158Y-134815500D01*
X113013844Y-134815500D01*
X113013845Y-134815499D01*
X113168497Y-134784737D01*
X113302108Y-134729394D01*
X113314172Y-134724397D01*
X113314172Y-134724396D01*
X113314179Y-134724394D01*
X113445289Y-134636789D01*
X113479818Y-134602259D01*
X113541138Y-134568774D01*
X113610830Y-134573757D01*
X113655180Y-134602259D01*
X113694707Y-134641786D01*
X113694711Y-134641789D01*
X113825814Y-134729390D01*
X113825827Y-134729397D01*
X113959427Y-134784735D01*
X113971503Y-134789737D01*
X114126153Y-134820499D01*
X114126156Y-134820500D01*
X114126158Y-134820500D01*
X114283844Y-134820500D01*
X114283845Y-134820499D01*
X114438497Y-134789737D01*
X114584179Y-134729394D01*
X114715289Y-134641789D01*
X114826789Y-134530289D01*
X114914394Y-134399179D01*
X114974737Y-134253497D01*
X115005500Y-134098842D01*
X115005638Y-134098150D01*
X115038023Y-134036239D01*
X115039517Y-134034717D01*
X117980520Y-131093716D01*
X118059577Y-130956784D01*
X118100501Y-130804057D01*
X118100501Y-130645942D01*
X118100501Y-130638347D01*
X118100500Y-130638329D01*
X118100500Y-119934060D01*
X118100501Y-119934047D01*
X118100501Y-119765944D01*
X118059576Y-119613214D01*
X118059573Y-119613209D01*
X117980524Y-119476290D01*
X117980518Y-119476282D01*
X116660490Y-118156254D01*
X116627005Y-118094931D01*
X116631989Y-118025239D01*
X116673861Y-117969306D01*
X116728773Y-117946100D01*
X116730729Y-117945790D01*
X116816243Y-117932246D01*
X117018412Y-117866557D01*
X117207816Y-117770051D01*
X117373055Y-117649999D01*
X117379786Y-117645109D01*
X117379788Y-117645106D01*
X117379792Y-117645104D01*
X117530104Y-117494792D01*
X117530106Y-117494788D01*
X117530109Y-117494786D01*
X117655048Y-117322820D01*
X117655047Y-117322820D01*
X117655051Y-117322816D01*
X117751557Y-117133412D01*
X117817246Y-116931243D01*
X117850500Y-116721287D01*
X117850500Y-116508713D01*
X117817246Y-116298757D01*
X117751557Y-116096588D01*
X117655051Y-115907184D01*
X117655049Y-115907181D01*
X117655048Y-115907179D01*
X117530109Y-115735213D01*
X117416569Y-115621673D01*
X117383084Y-115560350D01*
X117388068Y-115490658D01*
X117429940Y-115434725D01*
X117460915Y-115417810D01*
X117592331Y-115368796D01*
X117707546Y-115282546D01*
X117793796Y-115167331D01*
X117844091Y-115032483D01*
X117850500Y-114972873D01*
X117850499Y-113177128D01*
X117844091Y-113117517D01*
X117827034Y-113071786D01*
X117793797Y-112982671D01*
X117793793Y-112982664D01*
X117707547Y-112867455D01*
X117707544Y-112867452D01*
X117592335Y-112781206D01*
X117592328Y-112781202D01*
X117457482Y-112730908D01*
X117457483Y-112730908D01*
X117397883Y-112724501D01*
X117397881Y-112724500D01*
X117397873Y-112724500D01*
X117397864Y-112724500D01*
X115602129Y-112724500D01*
X115602123Y-112724501D01*
X115542516Y-112730908D01*
X115407671Y-112781202D01*
X115407664Y-112781206D01*
X115292455Y-112867452D01*
X115292452Y-112867455D01*
X115206206Y-112982664D01*
X115206202Y-112982671D01*
X115155908Y-113117517D01*
X115151406Y-113159397D01*
X115149501Y-113177123D01*
X115149500Y-113177135D01*
X115149500Y-114972870D01*
X115149501Y-114972876D01*
X115155908Y-115032483D01*
X115206202Y-115167328D01*
X115206206Y-115167335D01*
X115292452Y-115282544D01*
X115292455Y-115282547D01*
X115407664Y-115368793D01*
X115407671Y-115368797D01*
X115539082Y-115417810D01*
X115595016Y-115459681D01*
X115619433Y-115525145D01*
X115604582Y-115593418D01*
X115583431Y-115621673D01*
X115469889Y-115735215D01*
X115344951Y-115907179D01*
X115248444Y-116096585D01*
X115248443Y-116096587D01*
X115248443Y-116096588D01*
X115232798Y-116144737D01*
X115191945Y-116270470D01*
X115152507Y-116328146D01*
X115088149Y-116355344D01*
X115019302Y-116343429D01*
X114967827Y-116296185D01*
X114959453Y-116279604D01*
X114914397Y-116170827D01*
X114914390Y-116170814D01*
X114826789Y-116039711D01*
X114826786Y-116039707D01*
X114715292Y-115928213D01*
X114715288Y-115928210D01*
X114584185Y-115840609D01*
X114584172Y-115840602D01*
X114438501Y-115780264D01*
X114438489Y-115780261D01*
X114283845Y-115749500D01*
X114283842Y-115749500D01*
X114126158Y-115749500D01*
X114126155Y-115749500D01*
X113971510Y-115780261D01*
X113971498Y-115780264D01*
X113825827Y-115840602D01*
X113825814Y-115840609D01*
X113694711Y-115928210D01*
X113694707Y-115928213D01*
X113657681Y-115965240D01*
X113596358Y-115998725D01*
X113526666Y-115993741D01*
X113482319Y-115965240D01*
X113445292Y-115928213D01*
X113445288Y-115928210D01*
X113314185Y-115840609D01*
X113314172Y-115840602D01*
X113168501Y-115780264D01*
X113168489Y-115780261D01*
X113013845Y-115749500D01*
X113013842Y-115749500D01*
X112856158Y-115749500D01*
X112856155Y-115749500D01*
X112701510Y-115780261D01*
X112701498Y-115780264D01*
X112555827Y-115840602D01*
X112555814Y-115840609D01*
X112424711Y-115928210D01*
X112424707Y-115928213D01*
X112313213Y-116039707D01*
X112313210Y-116039711D01*
X112225609Y-116170814D01*
X112225602Y-116170827D01*
X112165264Y-116316498D01*
X112165261Y-116316510D01*
X112134500Y-116471153D01*
X112134500Y-116628846D01*
X112165261Y-116783489D01*
X112165264Y-116783501D01*
X112225602Y-116929172D01*
X112225609Y-116929185D01*
X112313210Y-117060288D01*
X112313213Y-117060292D01*
X112424707Y-117171786D01*
X112424711Y-117171789D01*
X112555814Y-117259390D01*
X112555827Y-117259397D01*
X112701498Y-117319735D01*
X112701503Y-117319737D01*
X112766147Y-117332595D01*
X112856849Y-117350638D01*
X112918760Y-117383023D01*
X112920339Y-117384574D01*
X115963181Y-120427416D01*
X115996666Y-120488739D01*
X115999500Y-120515097D01*
X115999500Y-130049902D01*
X115979815Y-130116941D01*
X115963181Y-130137583D01*
X112920339Y-133180425D01*
X112859016Y-133213910D01*
X112856850Y-133214361D01*
X112701508Y-133245261D01*
X112701498Y-133245264D01*
X112555827Y-133305602D01*
X112555814Y-133305609D01*
X112424711Y-133393210D01*
X112424707Y-133393213D01*
X112377681Y-133440240D01*
X112316358Y-133473725D01*
X112246666Y-133468741D01*
X112202319Y-133440240D01*
X112175292Y-133413213D01*
X112175288Y-133413210D01*
X112044185Y-133325609D01*
X112044172Y-133325602D01*
X111898501Y-133265264D01*
X111898491Y-133265261D01*
X111743149Y-133234361D01*
X111681238Y-133201976D01*
X111679660Y-133200425D01*
X109336819Y-130857584D01*
X109303334Y-130796261D01*
X109300500Y-130769903D01*
X109300500Y-115715097D01*
X109320185Y-115648058D01*
X109336819Y-115627416D01*
X110473699Y-114490536D01*
X111679662Y-113284572D01*
X111740983Y-113251089D01*
X111743150Y-113250638D01*
X111801085Y-113239113D01*
X111898497Y-113219737D01*
X112044179Y-113159394D01*
X112175289Y-113071789D01*
X112286789Y-112960289D01*
X112374394Y-112829179D01*
X112434737Y-112683497D01*
X112465500Y-112528842D01*
X112465500Y-112371158D01*
X112465500Y-112371155D01*
X112465499Y-112371153D01*
X112446847Y-112277385D01*
X112434737Y-112216503D01*
X112387500Y-112102461D01*
X112374397Y-112070827D01*
X112374390Y-112070814D01*
X112286789Y-111939711D01*
X112286786Y-111939707D01*
X112175292Y-111828213D01*
X112175288Y-111828210D01*
X112044185Y-111740609D01*
X112044172Y-111740602D01*
X111898501Y-111680264D01*
X111898489Y-111680261D01*
X111743845Y-111649500D01*
X111743842Y-111649500D01*
X111586158Y-111649500D01*
X111586155Y-111649500D01*
X111431510Y-111680261D01*
X111431498Y-111680264D01*
X111285827Y-111740602D01*
X111285814Y-111740609D01*
X111154711Y-111828210D01*
X111154707Y-111828213D01*
X111117681Y-111865240D01*
X111056358Y-111898725D01*
X110986666Y-111893741D01*
X110942319Y-111865240D01*
X110905292Y-111828213D01*
X110905288Y-111828210D01*
X110774185Y-111740609D01*
X110774172Y-111740602D01*
X110628501Y-111680264D01*
X110628489Y-111680261D01*
X110473845Y-111649500D01*
X110473842Y-111649500D01*
X110316158Y-111649500D01*
X110316155Y-111649500D01*
X110161510Y-111680261D01*
X110161498Y-111680264D01*
X110015827Y-111740602D01*
X110015814Y-111740609D01*
X109884711Y-111828210D01*
X109884707Y-111828213D01*
X109773213Y-111939707D01*
X109769347Y-111944419D01*
X109767500Y-111942903D01*
X109721985Y-111980939D01*
X109652660Y-111989644D01*
X109589634Y-111959486D01*
X109576193Y-111943975D01*
X109575653Y-111944419D01*
X109571786Y-111939707D01*
X109460292Y-111828213D01*
X109460288Y-111828210D01*
X109329185Y-111740609D01*
X109329172Y-111740602D01*
X109183501Y-111680264D01*
X109183489Y-111680261D01*
X109028845Y-111649500D01*
X109028842Y-111649500D01*
X108871158Y-111649500D01*
X108871155Y-111649500D01*
X108716510Y-111680261D01*
X108716498Y-111680264D01*
X108570827Y-111740602D01*
X108570814Y-111740609D01*
X108439125Y-111828602D01*
X108372447Y-111849480D01*
X108370234Y-111849500D01*
X106129766Y-111849500D01*
X106062727Y-111829815D01*
X106060875Y-111828602D01*
X105929185Y-111740609D01*
X105929172Y-111740602D01*
X105783501Y-111680264D01*
X105783489Y-111680261D01*
X105628845Y-111649500D01*
X105628842Y-111649500D01*
X105471158Y-111649500D01*
X105471155Y-111649500D01*
X105316510Y-111680261D01*
X105316498Y-111680264D01*
X105170827Y-111740602D01*
X105170814Y-111740609D01*
X105039711Y-111828210D01*
X105039707Y-111828213D01*
X104928213Y-111939707D01*
X104928210Y-111939711D01*
X104840609Y-112070814D01*
X104840602Y-112070827D01*
X104780264Y-112216498D01*
X104780261Y-112216510D01*
X104749500Y-112371153D01*
X99948426Y-112371153D01*
X100042194Y-112277385D01*
X105232759Y-107086819D01*
X105294082Y-107053334D01*
X105320440Y-107050500D01*
X132500138Y-107050500D01*
X132567177Y-107070185D01*
X132612932Y-107122989D01*
X132622876Y-107192147D01*
X132593851Y-107255703D01*
X132587819Y-107262181D01*
X122200000Y-117649999D01*
X122200000Y-151376000D01*
X122180315Y-151443039D01*
X122127511Y-151488794D01*
X122076000Y-151500000D01*
X68274000Y-151500000D01*
X68206961Y-151480315D01*
X68161206Y-151427511D01*
X68150000Y-151376000D01*
X68150000Y-147678751D01*
X69500000Y-147678751D01*
X69500000Y-148050000D01*
X70482096Y-148050000D01*
X70450000Y-148211358D01*
X70450000Y-148388642D01*
X70482096Y-148550000D01*
X69500000Y-148550000D01*
X69500000Y-148921248D01*
X69500001Y-148921264D01*
X69531653Y-149161687D01*
X69594421Y-149395939D01*
X69687220Y-149619978D01*
X69687227Y-149619993D01*
X69808480Y-149830009D01*
X69956110Y-150022405D01*
X69956116Y-150022412D01*
X70127587Y-150193883D01*
X70127594Y-150193889D01*
X70319990Y-150341519D01*
X70530006Y-150462772D01*
X70530021Y-150462779D01*
X70754060Y-150555578D01*
X70988312Y-150618346D01*
X71100000Y-150633049D01*
X71100000Y-149167904D01*
X71261358Y-149200000D01*
X71438642Y-149200000D01*
X71600000Y-149167904D01*
X71600000Y-150633048D01*
X71711687Y-150618346D01*
X71945939Y-150555578D01*
X72169978Y-150462779D01*
X72169993Y-150462772D01*
X72380009Y-150341519D01*
X72572405Y-150193889D01*
X72572412Y-150193883D01*
X72743883Y-150022412D01*
X72743889Y-150022405D01*
X72891519Y-149830009D01*
X73012772Y-149619993D01*
X73012779Y-149619978D01*
X73105578Y-149395939D01*
X73168346Y-149161687D01*
X73199998Y-148921264D01*
X73200000Y-148921248D01*
X73200000Y-148550000D01*
X72217904Y-148550000D01*
X72250000Y-148388642D01*
X72250000Y-148211358D01*
X72217904Y-148050000D01*
X73200000Y-148050000D01*
X73200000Y-147678751D01*
X73199998Y-147678735D01*
X73168346Y-147438312D01*
X73105578Y-147204060D01*
X73012779Y-146980021D01*
X73012772Y-146980006D01*
X72891519Y-146769990D01*
X72854942Y-146722321D01*
X72799436Y-146649984D01*
X73699500Y-146649984D01*
X73699500Y-149950015D01*
X73710000Y-150052795D01*
X73710001Y-150052796D01*
X73765186Y-150219335D01*
X73765187Y-150219337D01*
X73857286Y-150368651D01*
X73857289Y-150368655D01*
X73981344Y-150492710D01*
X73981348Y-150492713D01*
X74130662Y-150584812D01*
X74130664Y-150584813D01*
X74130666Y-150584814D01*
X74297203Y-150639999D01*
X74399992Y-150650500D01*
X74399997Y-150650500D01*
X76700003Y-150650500D01*
X76700008Y-150650500D01*
X76802797Y-150639999D01*
X76969334Y-150584814D01*
X77118655Y-150492711D01*
X77242711Y-150368655D01*
X77334814Y-150219334D01*
X77389999Y-150052797D01*
X77400500Y-149950008D01*
X77400500Y-147678751D01*
X80600000Y-147678751D01*
X80600000Y-148050000D01*
X81582096Y-148050000D01*
X81550000Y-148211358D01*
X81550000Y-148388642D01*
X81582096Y-148550000D01*
X80600000Y-148550000D01*
X80600000Y-148921248D01*
X80600001Y-148921264D01*
X80631653Y-149161687D01*
X80694421Y-149395939D01*
X80787220Y-149619978D01*
X80787227Y-149619993D01*
X80908480Y-149830009D01*
X81056110Y-150022405D01*
X81056116Y-150022412D01*
X81227587Y-150193883D01*
X81227594Y-150193889D01*
X81419990Y-150341519D01*
X81630006Y-150462772D01*
X81630021Y-150462779D01*
X81854060Y-150555578D01*
X82088312Y-150618346D01*
X82200000Y-150633049D01*
X82200000Y-149167904D01*
X82361358Y-149200000D01*
X82538642Y-149200000D01*
X82700000Y-149167904D01*
X82700000Y-150633048D01*
X82811687Y-150618346D01*
X83045939Y-150555578D01*
X83269978Y-150462779D01*
X83269993Y-150462772D01*
X83480009Y-150341519D01*
X83672405Y-150193889D01*
X83672412Y-150193883D01*
X83843883Y-150022412D01*
X83843889Y-150022405D01*
X83991519Y-149830009D01*
X84112772Y-149619993D01*
X84112779Y-149619978D01*
X84205578Y-149395939D01*
X84268346Y-149161687D01*
X84299998Y-148921264D01*
X84300000Y-148921248D01*
X84300000Y-148550000D01*
X83317904Y-148550000D01*
X83350000Y-148388642D01*
X83350000Y-148211358D01*
X83317904Y-148050000D01*
X84300000Y-148050000D01*
X84300000Y-147678751D01*
X84299998Y-147678735D01*
X84268346Y-147438312D01*
X84205578Y-147204060D01*
X84112779Y-146980021D01*
X84112772Y-146980006D01*
X83991519Y-146769990D01*
X83954942Y-146722321D01*
X83899436Y-146649984D01*
X84799500Y-146649984D01*
X84799500Y-149950015D01*
X84810000Y-150052795D01*
X84810001Y-150052796D01*
X84865186Y-150219335D01*
X84865187Y-150219337D01*
X84957286Y-150368651D01*
X84957289Y-150368655D01*
X85081344Y-150492710D01*
X85081348Y-150492713D01*
X85230662Y-150584812D01*
X85230664Y-150584813D01*
X85230666Y-150584814D01*
X85397203Y-150639999D01*
X85499992Y-150650500D01*
X85499997Y-150650500D01*
X87800003Y-150650500D01*
X87800008Y-150650500D01*
X87902797Y-150639999D01*
X88069334Y-150584814D01*
X88218655Y-150492711D01*
X88342711Y-150368655D01*
X88434814Y-150219334D01*
X88489999Y-150052797D01*
X88500500Y-149950008D01*
X88500500Y-147678751D01*
X91700000Y-147678751D01*
X91700000Y-148050000D01*
X92682096Y-148050000D01*
X92650000Y-148211358D01*
X92650000Y-148388642D01*
X92682096Y-148550000D01*
X91700000Y-148550000D01*
X91700000Y-148921248D01*
X91700001Y-148921264D01*
X91731653Y-149161687D01*
X91794421Y-149395939D01*
X91887220Y-149619978D01*
X91887227Y-149619993D01*
X92008480Y-149830009D01*
X92156110Y-150022405D01*
X92156116Y-150022412D01*
X92327587Y-150193883D01*
X92327594Y-150193889D01*
X92519990Y-150341519D01*
X92730006Y-150462772D01*
X92730021Y-150462779D01*
X92954060Y-150555578D01*
X93188312Y-150618346D01*
X93300000Y-150633049D01*
X93300000Y-149167904D01*
X93461358Y-149200000D01*
X93638642Y-149200000D01*
X93800000Y-149167904D01*
X93800000Y-150633048D01*
X93911687Y-150618346D01*
X94145939Y-150555578D01*
X94369978Y-150462779D01*
X94369993Y-150462772D01*
X94580009Y-150341519D01*
X94772405Y-150193889D01*
X94772412Y-150193883D01*
X94943883Y-150022412D01*
X94943889Y-150022405D01*
X95091519Y-149830009D01*
X95212772Y-149619993D01*
X95212779Y-149619978D01*
X95305578Y-149395939D01*
X95368346Y-149161687D01*
X95399998Y-148921264D01*
X95400000Y-148921248D01*
X95400000Y-148550000D01*
X94417904Y-148550000D01*
X94450000Y-148388642D01*
X94450000Y-148211358D01*
X94417904Y-148050000D01*
X95400000Y-148050000D01*
X95400000Y-147678751D01*
X95399998Y-147678735D01*
X95368346Y-147438312D01*
X95305578Y-147204060D01*
X95212779Y-146980021D01*
X95212772Y-146980006D01*
X95091519Y-146769990D01*
X95054942Y-146722321D01*
X94999436Y-146649984D01*
X95899500Y-146649984D01*
X95899500Y-149950015D01*
X95910000Y-150052795D01*
X95910001Y-150052796D01*
X95965186Y-150219335D01*
X95965187Y-150219337D01*
X96057286Y-150368651D01*
X96057289Y-150368655D01*
X96181344Y-150492710D01*
X96181348Y-150492713D01*
X96330662Y-150584812D01*
X96330664Y-150584813D01*
X96330666Y-150584814D01*
X96497203Y-150639999D01*
X96599992Y-150650500D01*
X96599997Y-150650500D01*
X98900003Y-150650500D01*
X98900008Y-150650500D01*
X99002797Y-150639999D01*
X99169334Y-150584814D01*
X99318655Y-150492711D01*
X99442711Y-150368655D01*
X99534814Y-150219334D01*
X99589999Y-150052797D01*
X99600500Y-149950008D01*
X99600500Y-147678751D01*
X102800000Y-147678751D01*
X102800000Y-148050000D01*
X103782096Y-148050000D01*
X103750000Y-148211358D01*
X103750000Y-148388642D01*
X103782096Y-148550000D01*
X102800000Y-148550000D01*
X102800000Y-148921248D01*
X102800001Y-148921264D01*
X102831653Y-149161687D01*
X102894421Y-149395939D01*
X102987220Y-149619978D01*
X102987227Y-149619993D01*
X103108480Y-149830009D01*
X103256110Y-150022405D01*
X103256116Y-150022412D01*
X103427587Y-150193883D01*
X103427594Y-150193889D01*
X103619990Y-150341519D01*
X103830006Y-150462772D01*
X103830021Y-150462779D01*
X104054060Y-150555578D01*
X104288312Y-150618346D01*
X104400000Y-150633049D01*
X104400000Y-149167904D01*
X104561358Y-149200000D01*
X104738642Y-149200000D01*
X104900000Y-149167904D01*
X104900000Y-150633048D01*
X105011687Y-150618346D01*
X105245939Y-150555578D01*
X105469978Y-150462779D01*
X105469993Y-150462772D01*
X105680009Y-150341519D01*
X105872405Y-150193889D01*
X105872412Y-150193883D01*
X106043883Y-150022412D01*
X106043889Y-150022405D01*
X106191519Y-149830009D01*
X106312772Y-149619993D01*
X106312779Y-149619978D01*
X106405578Y-149395939D01*
X106468346Y-149161687D01*
X106499998Y-148921264D01*
X106500000Y-148921248D01*
X106500000Y-148550000D01*
X105517904Y-148550000D01*
X105550000Y-148388642D01*
X105550000Y-148211358D01*
X105517904Y-148050000D01*
X106500000Y-148050000D01*
X106500000Y-147678751D01*
X106499998Y-147678735D01*
X106468346Y-147438312D01*
X106405578Y-147204060D01*
X106312779Y-146980021D01*
X106312772Y-146980006D01*
X106191519Y-146769990D01*
X106154942Y-146722321D01*
X106099436Y-146649984D01*
X106999500Y-146649984D01*
X106999500Y-149950015D01*
X107010000Y-150052795D01*
X107010001Y-150052796D01*
X107065186Y-150219335D01*
X107065187Y-150219337D01*
X107157286Y-150368651D01*
X107157289Y-150368655D01*
X107281344Y-150492710D01*
X107281348Y-150492713D01*
X107430662Y-150584812D01*
X107430664Y-150584813D01*
X107430666Y-150584814D01*
X107597203Y-150639999D01*
X107699992Y-150650500D01*
X107699997Y-150650500D01*
X110000003Y-150650500D01*
X110000008Y-150650500D01*
X110102797Y-150639999D01*
X110269334Y-150584814D01*
X110418655Y-150492711D01*
X110542711Y-150368655D01*
X110634814Y-150219334D01*
X110689999Y-150052797D01*
X110700500Y-149950008D01*
X110700500Y-147678751D01*
X113900000Y-147678751D01*
X113900000Y-148050000D01*
X114882096Y-148050000D01*
X114850000Y-148211358D01*
X114850000Y-148388642D01*
X114882096Y-148550000D01*
X113900000Y-148550000D01*
X113900000Y-148921248D01*
X113900001Y-148921264D01*
X113931653Y-149161687D01*
X113994421Y-149395939D01*
X114087220Y-149619978D01*
X114087227Y-149619993D01*
X114208480Y-149830009D01*
X114356110Y-150022405D01*
X114356116Y-150022412D01*
X114527587Y-150193883D01*
X114527594Y-150193889D01*
X114719990Y-150341519D01*
X114930006Y-150462772D01*
X114930021Y-150462779D01*
X115154060Y-150555578D01*
X115388312Y-150618346D01*
X115500000Y-150633049D01*
X115500000Y-149167904D01*
X115661358Y-149200000D01*
X115838642Y-149200000D01*
X116000000Y-149167904D01*
X116000000Y-150633048D01*
X116111687Y-150618346D01*
X116345939Y-150555578D01*
X116569978Y-150462779D01*
X116569993Y-150462772D01*
X116780009Y-150341519D01*
X116972405Y-150193889D01*
X116972412Y-150193883D01*
X117143883Y-150022412D01*
X117143889Y-150022405D01*
X117291519Y-149830009D01*
X117412772Y-149619993D01*
X117412779Y-149619978D01*
X117505578Y-149395939D01*
X117568346Y-149161687D01*
X117599998Y-148921264D01*
X117600000Y-148921248D01*
X117600000Y-148550000D01*
X116617904Y-148550000D01*
X116650000Y-148388642D01*
X116650000Y-148211358D01*
X116617904Y-148050000D01*
X117600000Y-148050000D01*
X117600000Y-147678751D01*
X117599998Y-147678735D01*
X117568346Y-147438312D01*
X117505578Y-147204060D01*
X117412779Y-146980021D01*
X117412772Y-146980006D01*
X117291519Y-146769990D01*
X117254942Y-146722321D01*
X117199436Y-146649984D01*
X118099500Y-146649984D01*
X118099500Y-149950015D01*
X118110000Y-150052795D01*
X118110001Y-150052796D01*
X118165186Y-150219335D01*
X118165187Y-150219337D01*
X118257286Y-150368651D01*
X118257289Y-150368655D01*
X118381344Y-150492710D01*
X118381348Y-150492713D01*
X118530662Y-150584812D01*
X118530664Y-150584813D01*
X118530666Y-150584814D01*
X118697203Y-150639999D01*
X118799992Y-150650500D01*
X118799997Y-150650500D01*
X121100003Y-150650500D01*
X121100008Y-150650500D01*
X121202797Y-150639999D01*
X121369334Y-150584814D01*
X121518655Y-150492711D01*
X121642711Y-150368655D01*
X121734814Y-150219334D01*
X121789999Y-150052797D01*
X121800500Y-149950008D01*
X121800500Y-146649992D01*
X121789999Y-146547203D01*
X121734814Y-146380666D01*
X121642711Y-146231345D01*
X121518655Y-146107289D01*
X121518651Y-146107286D01*
X121369337Y-146015187D01*
X121369335Y-146015186D01*
X121268138Y-145981653D01*
X121202797Y-145960001D01*
X121202795Y-145960000D01*
X121100015Y-145949500D01*
X121100008Y-145949500D01*
X118799992Y-145949500D01*
X118799984Y-145949500D01*
X118697204Y-145960000D01*
X118697203Y-145960001D01*
X118530664Y-146015186D01*
X118530662Y-146015187D01*
X118381348Y-146107286D01*
X118381344Y-146107289D01*
X118257289Y-146231344D01*
X118257286Y-146231348D01*
X118165187Y-146380662D01*
X118165186Y-146380664D01*
X118110001Y-146547203D01*
X118110000Y-146547204D01*
X118099500Y-146649984D01*
X117199436Y-146649984D01*
X117143889Y-146577594D01*
X117143883Y-146577587D01*
X116972412Y-146406116D01*
X116972405Y-146406110D01*
X116780009Y-146258480D01*
X116569993Y-146137227D01*
X116569978Y-146137220D01*
X116345939Y-146044421D01*
X116111687Y-145981653D01*
X116000000Y-145966948D01*
X116000000Y-147432095D01*
X115838642Y-147400000D01*
X115661358Y-147400000D01*
X115500000Y-147432095D01*
X115500000Y-145966948D01*
X115499999Y-145966948D01*
X115388312Y-145981653D01*
X115154060Y-146044421D01*
X114930021Y-146137220D01*
X114930006Y-146137227D01*
X114719990Y-146258480D01*
X114527594Y-146406110D01*
X114527587Y-146406116D01*
X114356116Y-146577587D01*
X114356110Y-146577594D01*
X114208480Y-146769990D01*
X114087227Y-146980006D01*
X114087220Y-146980021D01*
X113994421Y-147204060D01*
X113931653Y-147438312D01*
X113900001Y-147678735D01*
X113900000Y-147678751D01*
X110700500Y-147678751D01*
X110700500Y-146649992D01*
X110689999Y-146547203D01*
X110634814Y-146380666D01*
X110542711Y-146231345D01*
X110418655Y-146107289D01*
X110418651Y-146107286D01*
X110269337Y-146015187D01*
X110269335Y-146015186D01*
X110168138Y-145981653D01*
X110102797Y-145960001D01*
X110102795Y-145960000D01*
X110000015Y-145949500D01*
X110000008Y-145949500D01*
X107699992Y-145949500D01*
X107699984Y-145949500D01*
X107597204Y-145960000D01*
X107597203Y-145960001D01*
X107430664Y-146015186D01*
X107430662Y-146015187D01*
X107281348Y-146107286D01*
X107281344Y-146107289D01*
X107157289Y-146231344D01*
X107157286Y-146231348D01*
X107065187Y-146380662D01*
X107065186Y-146380664D01*
X107010001Y-146547203D01*
X107010000Y-146547204D01*
X106999500Y-146649984D01*
X106099436Y-146649984D01*
X106043889Y-146577594D01*
X106043883Y-146577587D01*
X105872412Y-146406116D01*
X105872405Y-146406110D01*
X105680009Y-146258480D01*
X105469993Y-146137227D01*
X105469978Y-146137220D01*
X105245939Y-146044421D01*
X105011687Y-145981653D01*
X104900000Y-145966948D01*
X104900000Y-147432095D01*
X104738642Y-147400000D01*
X104561358Y-147400000D01*
X104400000Y-147432095D01*
X104400000Y-145966948D01*
X104399999Y-145966948D01*
X104288312Y-145981653D01*
X104054060Y-146044421D01*
X103830021Y-146137220D01*
X103830006Y-146137227D01*
X103619990Y-146258480D01*
X103427594Y-146406110D01*
X103427587Y-146406116D01*
X103256116Y-146577587D01*
X103256110Y-146577594D01*
X103108480Y-146769990D01*
X102987227Y-146980006D01*
X102987220Y-146980021D01*
X102894421Y-147204060D01*
X102831653Y-147438312D01*
X102800001Y-147678735D01*
X102800000Y-147678751D01*
X99600500Y-147678751D01*
X99600500Y-146649992D01*
X99589999Y-146547203D01*
X99534814Y-146380666D01*
X99442711Y-146231345D01*
X99318655Y-146107289D01*
X99318651Y-146107286D01*
X99169337Y-146015187D01*
X99169335Y-146015186D01*
X99068138Y-145981653D01*
X99002797Y-145960001D01*
X99002795Y-145960000D01*
X98900015Y-145949500D01*
X98900008Y-145949500D01*
X96599992Y-145949500D01*
X96599984Y-145949500D01*
X96497204Y-145960000D01*
X96497203Y-145960001D01*
X96330664Y-146015186D01*
X96330662Y-146015187D01*
X96181348Y-146107286D01*
X96181344Y-146107289D01*
X96057289Y-146231344D01*
X96057286Y-146231348D01*
X95965187Y-146380662D01*
X95965186Y-146380664D01*
X95910001Y-146547203D01*
X95910000Y-146547204D01*
X95899500Y-146649984D01*
X94999436Y-146649984D01*
X94943889Y-146577594D01*
X94943883Y-146577587D01*
X94772412Y-146406116D01*
X94772405Y-146406110D01*
X94580009Y-146258480D01*
X94369993Y-146137227D01*
X94369978Y-146137220D01*
X94145939Y-146044421D01*
X93911687Y-145981653D01*
X93800000Y-145966948D01*
X93800000Y-147432095D01*
X93638642Y-147400000D01*
X93461358Y-147400000D01*
X93300000Y-147432095D01*
X93300000Y-145966948D01*
X93299999Y-145966948D01*
X93188312Y-145981653D01*
X92954060Y-146044421D01*
X92730021Y-146137220D01*
X92730006Y-146137227D01*
X92519990Y-146258480D01*
X92327594Y-146406110D01*
X92327587Y-146406116D01*
X92156116Y-146577587D01*
X92156110Y-146577594D01*
X92008480Y-146769990D01*
X91887227Y-146980006D01*
X91887220Y-146980021D01*
X91794421Y-147204060D01*
X91731653Y-147438312D01*
X91700001Y-147678735D01*
X91700000Y-147678751D01*
X88500500Y-147678751D01*
X88500500Y-146649992D01*
X88489999Y-146547203D01*
X88434814Y-146380666D01*
X88342711Y-146231345D01*
X88218655Y-146107289D01*
X88218651Y-146107286D01*
X88069337Y-146015187D01*
X88069335Y-146015186D01*
X87968138Y-145981653D01*
X87902797Y-145960001D01*
X87902795Y-145960000D01*
X87800015Y-145949500D01*
X87800008Y-145949500D01*
X85499992Y-145949500D01*
X85499984Y-145949500D01*
X85397204Y-145960000D01*
X85397203Y-145960001D01*
X85230664Y-146015186D01*
X85230662Y-146015187D01*
X85081348Y-146107286D01*
X85081344Y-146107289D01*
X84957289Y-146231344D01*
X84957286Y-146231348D01*
X84865187Y-146380662D01*
X84865186Y-146380664D01*
X84810001Y-146547203D01*
X84810000Y-146547204D01*
X84799500Y-146649984D01*
X83899436Y-146649984D01*
X83843889Y-146577594D01*
X83843883Y-146577587D01*
X83672412Y-146406116D01*
X83672405Y-146406110D01*
X83480009Y-146258480D01*
X83269993Y-146137227D01*
X83269978Y-146137220D01*
X83045939Y-146044421D01*
X82811687Y-145981653D01*
X82700000Y-145966948D01*
X82700000Y-147432095D01*
X82538642Y-147400000D01*
X82361358Y-147400000D01*
X82200000Y-147432095D01*
X82200000Y-145966948D01*
X82199999Y-145966948D01*
X82088312Y-145981653D01*
X81854060Y-146044421D01*
X81630021Y-146137220D01*
X81630006Y-146137227D01*
X81419990Y-146258480D01*
X81227594Y-146406110D01*
X81227587Y-146406116D01*
X81056116Y-146577587D01*
X81056110Y-146577594D01*
X80908480Y-146769990D01*
X80787227Y-146980006D01*
X80787220Y-146980021D01*
X80694421Y-147204060D01*
X80631653Y-147438312D01*
X80600001Y-147678735D01*
X80600000Y-147678751D01*
X77400500Y-147678751D01*
X77400500Y-146649992D01*
X77389999Y-146547203D01*
X77334814Y-146380666D01*
X77242711Y-146231345D01*
X77118655Y-146107289D01*
X77118651Y-146107286D01*
X76969337Y-146015187D01*
X76969335Y-146015186D01*
X76868138Y-145981653D01*
X76802797Y-145960001D01*
X76802795Y-145960000D01*
X76700015Y-145949500D01*
X76700008Y-145949500D01*
X74399992Y-145949500D01*
X74399984Y-145949500D01*
X74297204Y-145960000D01*
X74297203Y-145960001D01*
X74130664Y-146015186D01*
X74130662Y-146015187D01*
X73981348Y-146107286D01*
X73981344Y-146107289D01*
X73857289Y-146231344D01*
X73857286Y-146231348D01*
X73765187Y-146380662D01*
X73765186Y-146380664D01*
X73710001Y-146547203D01*
X73710000Y-146547204D01*
X73699500Y-146649984D01*
X72799436Y-146649984D01*
X72743889Y-146577594D01*
X72743883Y-146577587D01*
X72572412Y-146406116D01*
X72572405Y-146406110D01*
X72380009Y-146258480D01*
X72169993Y-146137227D01*
X72169978Y-146137220D01*
X71945939Y-146044421D01*
X71711687Y-145981653D01*
X71600000Y-145966948D01*
X71600000Y-147432095D01*
X71438642Y-147400000D01*
X71261358Y-147400000D01*
X71100000Y-147432095D01*
X71100000Y-145966948D01*
X71099999Y-145966948D01*
X70988312Y-145981653D01*
X70754060Y-146044421D01*
X70530021Y-146137220D01*
X70530006Y-146137227D01*
X70319990Y-146258480D01*
X70127594Y-146406110D01*
X70127587Y-146406116D01*
X69956116Y-146577587D01*
X69956110Y-146577594D01*
X69808480Y-146769990D01*
X69687227Y-146980006D01*
X69687220Y-146980021D01*
X69594421Y-147204060D01*
X69531653Y-147438312D01*
X69500001Y-147678735D01*
X69500000Y-147678751D01*
X68150000Y-147678751D01*
X68150000Y-142178711D01*
X69499500Y-142178711D01*
X69499500Y-143421288D01*
X69531161Y-143661785D01*
X69593947Y-143896104D01*
X69686773Y-144120205D01*
X69686776Y-144120212D01*
X69808064Y-144330289D01*
X69808066Y-144330292D01*
X69808067Y-144330293D01*
X69955733Y-144522736D01*
X69955739Y-144522743D01*
X70127256Y-144694260D01*
X70127262Y-144694265D01*
X70319711Y-144841936D01*
X70529788Y-144963224D01*
X70753900Y-145056054D01*
X70988211Y-145118838D01*
X71168586Y-145142584D01*
X71228711Y-145150500D01*
X71228712Y-145150500D01*
X71471289Y-145150500D01*
X71519388Y-145144167D01*
X71711789Y-145118838D01*
X71946100Y-145056054D01*
X72170212Y-144963224D01*
X72380289Y-144841936D01*
X72572738Y-144694265D01*
X72744265Y-144522738D01*
X72891936Y-144330289D01*
X73013224Y-144120212D01*
X73106054Y-143896100D01*
X73168838Y-143661789D01*
X73200500Y-143421288D01*
X73200500Y-142178712D01*
X73200500Y-142178711D01*
X73699500Y-142178711D01*
X73699500Y-143421288D01*
X73731161Y-143661785D01*
X73793947Y-143896104D01*
X73886773Y-144120205D01*
X73886776Y-144120212D01*
X74008064Y-144330289D01*
X74008066Y-144330292D01*
X74008067Y-144330293D01*
X74155733Y-144522736D01*
X74155739Y-144522743D01*
X74327256Y-144694260D01*
X74327262Y-144694265D01*
X74519711Y-144841936D01*
X74729788Y-144963224D01*
X74953900Y-145056054D01*
X75188211Y-145118838D01*
X75368586Y-145142584D01*
X75428711Y-145150500D01*
X75428712Y-145150500D01*
X75671289Y-145150500D01*
X75719388Y-145144167D01*
X75911789Y-145118838D01*
X76146100Y-145056054D01*
X76370212Y-144963224D01*
X76580289Y-144841936D01*
X76772738Y-144694265D01*
X76944265Y-144522738D01*
X77091936Y-144330289D01*
X77213224Y-144120212D01*
X77306054Y-143896100D01*
X77368838Y-143661789D01*
X77400500Y-143421288D01*
X77400500Y-142178712D01*
X77400500Y-142178711D01*
X80599500Y-142178711D01*
X80599500Y-143421288D01*
X80631161Y-143661785D01*
X80693947Y-143896104D01*
X80786773Y-144120205D01*
X80786776Y-144120212D01*
X80908064Y-144330289D01*
X80908066Y-144330292D01*
X80908067Y-144330293D01*
X81055733Y-144522736D01*
X81055739Y-144522743D01*
X81227256Y-144694260D01*
X81227262Y-144694265D01*
X81419711Y-144841936D01*
X81629788Y-144963224D01*
X81853900Y-145056054D01*
X82088211Y-145118838D01*
X82268586Y-145142584D01*
X82328711Y-145150500D01*
X82328712Y-145150500D01*
X82571289Y-145150500D01*
X82619388Y-145144167D01*
X82811789Y-145118838D01*
X83046100Y-145056054D01*
X83270212Y-144963224D01*
X83480289Y-144841936D01*
X83672738Y-144694265D01*
X83844265Y-144522738D01*
X83991936Y-144330289D01*
X84113224Y-144120212D01*
X84206054Y-143896100D01*
X84268838Y-143661789D01*
X84300500Y-143421288D01*
X84300500Y-142178712D01*
X84272502Y-141966047D01*
X84273072Y-141962393D01*
X84271772Y-141958926D01*
X84278414Y-141928136D01*
X84283267Y-141897015D01*
X84285953Y-141893187D01*
X84286506Y-141890627D01*
X84307009Y-141863188D01*
X84307605Y-141862340D01*
X84455276Y-141714670D01*
X84456320Y-141713107D01*
X84461898Y-141707510D01*
X84487493Y-141693475D01*
X84511620Y-141677041D01*
X84517769Y-141676876D01*
X84523163Y-141673919D01*
X84552281Y-141675950D01*
X84581465Y-141675168D01*
X84587040Y-141678375D01*
X84592863Y-141678782D01*
X84610126Y-141691658D01*
X84637412Y-141707358D01*
X84792239Y-141862185D01*
X84825724Y-141923508D01*
X84827497Y-141966051D01*
X84799500Y-142178711D01*
X84799500Y-143421288D01*
X84831161Y-143661785D01*
X84893947Y-143896104D01*
X84986773Y-144120205D01*
X84986776Y-144120212D01*
X85108064Y-144330289D01*
X85108066Y-144330292D01*
X85108067Y-144330293D01*
X85255733Y-144522736D01*
X85255739Y-144522743D01*
X85427256Y-144694260D01*
X85427262Y-144694265D01*
X85619711Y-144841936D01*
X85829788Y-144963224D01*
X86053900Y-145056054D01*
X86288211Y-145118838D01*
X86468586Y-145142584D01*
X86528711Y-145150500D01*
X86528712Y-145150500D01*
X86771289Y-145150500D01*
X86819388Y-145144167D01*
X87011789Y-145118838D01*
X87246100Y-145056054D01*
X87470212Y-144963224D01*
X87680289Y-144841936D01*
X87872738Y-144694265D01*
X88044265Y-144522738D01*
X88191936Y-144330289D01*
X88313224Y-144120212D01*
X88406054Y-143896100D01*
X88468838Y-143661789D01*
X88500500Y-143421288D01*
X88500500Y-142178712D01*
X88468838Y-141938211D01*
X88406054Y-141703900D01*
X88313224Y-141479788D01*
X88191936Y-141269711D01*
X88044265Y-141077262D01*
X88044260Y-141077256D01*
X87872743Y-140905739D01*
X87872736Y-140905733D01*
X87680293Y-140758067D01*
X87680292Y-140758066D01*
X87680289Y-140758064D01*
X87470212Y-140636776D01*
X87470205Y-140636773D01*
X87246104Y-140543947D01*
X87011785Y-140481161D01*
X86771289Y-140449500D01*
X86771288Y-140449500D01*
X86528712Y-140449500D01*
X86528711Y-140449500D01*
X86288214Y-140481161D01*
X86053895Y-140543947D01*
X85829794Y-140636773D01*
X85829784Y-140636777D01*
X85686500Y-140719503D01*
X85618600Y-140735976D01*
X85552573Y-140713123D01*
X85509382Y-140658202D01*
X85500500Y-140612116D01*
X85500500Y-116754935D01*
X85520185Y-116687896D01*
X85521366Y-116686090D01*
X85559394Y-116629179D01*
X85619737Y-116483497D01*
X85650500Y-116328842D01*
X85650500Y-116171158D01*
X85650500Y-116171155D01*
X85650499Y-116171153D01*
X85650432Y-116170814D01*
X85619737Y-116016503D01*
X85606062Y-115983489D01*
X85559397Y-115870827D01*
X85559390Y-115870814D01*
X85471789Y-115739711D01*
X85471786Y-115739707D01*
X85360292Y-115628213D01*
X85360288Y-115628210D01*
X85229185Y-115540609D01*
X85229172Y-115540602D01*
X85083501Y-115480264D01*
X85083489Y-115480261D01*
X84928845Y-115449500D01*
X84928842Y-115449500D01*
X84774838Y-115449500D01*
X84707799Y-115429815D01*
X84662044Y-115377011D01*
X84660278Y-115372954D01*
X84659398Y-115370830D01*
X84659396Y-115370827D01*
X84659394Y-115370821D01*
X84609506Y-115296158D01*
X84571789Y-115239710D01*
X84460292Y-115128213D01*
X84460288Y-115128210D01*
X84329185Y-115040609D01*
X84329172Y-115040602D01*
X84183501Y-114980264D01*
X84183489Y-114980261D01*
X84028845Y-114949500D01*
X84028842Y-114949500D01*
X83871158Y-114949500D01*
X83871155Y-114949500D01*
X83716510Y-114980261D01*
X83716498Y-114980264D01*
X83570827Y-115040602D01*
X83570814Y-115040609D01*
X83439711Y-115128210D01*
X83439707Y-115128213D01*
X83328213Y-115239707D01*
X83328210Y-115239711D01*
X83240609Y-115370814D01*
X83240602Y-115370827D01*
X83180264Y-115516498D01*
X83180261Y-115516510D01*
X83149500Y-115671153D01*
X83149500Y-115828846D01*
X83180261Y-115983489D01*
X83180264Y-115983501D01*
X83240602Y-116129172D01*
X83240606Y-116129179D01*
X83278602Y-116186044D01*
X83299480Y-116252721D01*
X83299500Y-116254935D01*
X83299500Y-140463328D01*
X83279815Y-140530367D01*
X83227011Y-140576122D01*
X83157853Y-140586066D01*
X83128048Y-140577889D01*
X83046107Y-140543948D01*
X83031959Y-140540157D01*
X82811789Y-140481162D01*
X82802329Y-140479916D01*
X82776298Y-140476489D01*
X82745035Y-140468111D01*
X82639748Y-140424500D01*
X82639738Y-140424497D01*
X82514071Y-140399500D01*
X82514069Y-140399500D01*
X82385931Y-140399500D01*
X82385929Y-140399500D01*
X82260261Y-140424497D01*
X82260251Y-140424500D01*
X82154965Y-140468111D01*
X82123701Y-140476489D01*
X82088216Y-140481161D01*
X82088211Y-140481162D01*
X81853895Y-140543947D01*
X81629794Y-140636773D01*
X81629785Y-140636777D01*
X81419706Y-140758067D01*
X81227263Y-140905733D01*
X81227256Y-140905739D01*
X81055739Y-141077256D01*
X81055733Y-141077263D01*
X80908067Y-141269706D01*
X80786777Y-141479785D01*
X80786773Y-141479794D01*
X80693947Y-141703895D01*
X80631161Y-141938214D01*
X80599500Y-142178711D01*
X77400500Y-142178711D01*
X77368838Y-141938211D01*
X77306054Y-141703900D01*
X77213224Y-141479788D01*
X77091936Y-141269711D01*
X76944265Y-141077262D01*
X76944260Y-141077256D01*
X76772743Y-140905739D01*
X76772736Y-140905733D01*
X76580293Y-140758067D01*
X76580292Y-140758066D01*
X76580289Y-140758064D01*
X76370212Y-140636776D01*
X76370205Y-140636773D01*
X76146104Y-140543947D01*
X75911785Y-140481161D01*
X75671289Y-140449500D01*
X75671288Y-140449500D01*
X75428712Y-140449500D01*
X75428711Y-140449500D01*
X75188214Y-140481161D01*
X74953895Y-140543947D01*
X74729794Y-140636773D01*
X74729785Y-140636777D01*
X74519706Y-140758067D01*
X74327263Y-140905733D01*
X74327256Y-140905739D01*
X74155739Y-141077256D01*
X74155733Y-141077263D01*
X74008067Y-141269706D01*
X73886777Y-141479785D01*
X73886773Y-141479794D01*
X73793947Y-141703895D01*
X73731161Y-141938214D01*
X73699500Y-142178711D01*
X73200500Y-142178711D01*
X73168838Y-141938211D01*
X73106054Y-141703900D01*
X73013224Y-141479788D01*
X72891936Y-141269711D01*
X72744265Y-141077262D01*
X72744260Y-141077256D01*
X72572743Y-140905739D01*
X72572736Y-140905733D01*
X72380293Y-140758067D01*
X72380292Y-140758066D01*
X72380289Y-140758064D01*
X72170212Y-140636776D01*
X72170205Y-140636773D01*
X71946104Y-140543947D01*
X71711785Y-140481161D01*
X71471289Y-140449500D01*
X71471288Y-140449500D01*
X71228712Y-140449500D01*
X71228711Y-140449500D01*
X70988214Y-140481161D01*
X70753895Y-140543947D01*
X70529794Y-140636773D01*
X70529785Y-140636777D01*
X70319706Y-140758067D01*
X70127263Y-140905733D01*
X70127256Y-140905739D01*
X69955739Y-141077256D01*
X69955733Y-141077263D01*
X69808067Y-141269706D01*
X69686777Y-141479785D01*
X69686773Y-141479794D01*
X69593947Y-141703895D01*
X69531161Y-141938214D01*
X69499500Y-142178711D01*
X68150000Y-142178711D01*
X68150000Y-140474500D01*
X68169685Y-140407461D01*
X68222489Y-140361706D01*
X68274000Y-140350500D01*
X68471966Y-140350500D01*
X68471969Y-140350500D01*
X68814250Y-140316789D01*
X69151578Y-140249690D01*
X69480705Y-140149850D01*
X69798462Y-140018231D01*
X70101787Y-139856100D01*
X70387760Y-139665019D01*
X70653627Y-139446828D01*
X70896828Y-139203627D01*
X71115019Y-138937760D01*
X71306100Y-138651787D01*
X71468231Y-138348462D01*
X71599850Y-138030705D01*
X71699690Y-137701578D01*
X71766789Y-137364250D01*
X71800500Y-137021969D01*
X71800500Y-136678031D01*
X71766789Y-136335750D01*
X71699690Y-135998422D01*
X71599850Y-135669295D01*
X71468231Y-135351538D01*
X71439546Y-135297873D01*
X71306106Y-135048224D01*
X71306105Y-135048222D01*
X71306100Y-135048213D01*
X71115019Y-134762240D01*
X70896828Y-134496373D01*
X70896827Y-134496372D01*
X70896823Y-134496367D01*
X70653632Y-134253176D01*
X70387765Y-134034985D01*
X70387764Y-134034984D01*
X70387760Y-134034981D01*
X70101787Y-133843900D01*
X70101782Y-133843897D01*
X70101775Y-133843893D01*
X69798469Y-133681772D01*
X69798464Y-133681770D01*
X69791395Y-133678842D01*
X69687792Y-133635928D01*
X69480706Y-133550150D01*
X69151572Y-133450308D01*
X68814248Y-133383210D01*
X68814249Y-133383210D01*
X68556456Y-133357821D01*
X68471969Y-133349500D01*
X68274000Y-133349500D01*
X68206961Y-133329815D01*
X68161206Y-133277011D01*
X68150000Y-133225500D01*
X68150000Y-130725817D01*
X68169685Y-130658778D01*
X68222489Y-130613023D01*
X68291647Y-130603079D01*
X68355203Y-130632104D01*
X68384484Y-130669521D01*
X68420499Y-130740204D01*
X68454951Y-130807820D01*
X68579890Y-130979786D01*
X68730213Y-131130109D01*
X68902179Y-131255048D01*
X68902181Y-131255049D01*
X68902184Y-131255051D01*
X69091588Y-131351557D01*
X69293757Y-131417246D01*
X69503713Y-131450500D01*
X69503714Y-131450500D01*
X69716286Y-131450500D01*
X69716287Y-131450500D01*
X69926243Y-131417246D01*
X70128412Y-131351557D01*
X70317816Y-131255051D01*
X70404147Y-131192328D01*
X70489784Y-131130110D01*
X70489784Y-131130109D01*
X70489792Y-131130104D01*
X70603329Y-131016566D01*
X70664648Y-130983084D01*
X70734340Y-130988068D01*
X70790274Y-131029939D01*
X70807189Y-131060917D01*
X70856202Y-131192328D01*
X70856206Y-131192335D01*
X70942452Y-131307544D01*
X70942455Y-131307547D01*
X71057664Y-131393793D01*
X71057671Y-131393797D01*
X71192517Y-131444091D01*
X71192516Y-131444091D01*
X71199444Y-131444835D01*
X71252127Y-131450500D01*
X73047872Y-131450499D01*
X73107483Y-131444091D01*
X73242331Y-131393796D01*
X73357546Y-131307546D01*
X73443796Y-131192331D01*
X73494091Y-131057483D01*
X73500500Y-130997873D01*
X73500500Y-130572844D01*
X78825000Y-130572844D01*
X78831401Y-130632372D01*
X78831403Y-130632379D01*
X78881645Y-130767086D01*
X78881649Y-130767093D01*
X78967809Y-130882187D01*
X78967812Y-130882190D01*
X79082906Y-130968350D01*
X79082913Y-130968354D01*
X79217620Y-131018596D01*
X79217627Y-131018598D01*
X79277155Y-131024999D01*
X79277172Y-131025000D01*
X80550000Y-131025000D01*
X80550000Y-130778553D01*
X80549999Y-130778552D01*
X81050000Y-130778552D01*
X81050000Y-131025000D01*
X82322828Y-131025000D01*
X82322844Y-131024999D01*
X82382372Y-131018598D01*
X82382379Y-131018596D01*
X82517086Y-130968354D01*
X82517093Y-130968350D01*
X82632187Y-130882190D01*
X82632190Y-130882187D01*
X82718350Y-130767093D01*
X82718354Y-130767086D01*
X82768596Y-130632379D01*
X82768598Y-130632372D01*
X82774999Y-130572844D01*
X82775000Y-130572827D01*
X82775000Y-128525000D01*
X82103552Y-128525000D01*
X81753553Y-128875000D01*
X82146704Y-129268151D01*
X82180189Y-129329474D01*
X82183023Y-129355832D01*
X82183023Y-129594167D01*
X82176784Y-129615412D01*
X82175205Y-129637500D01*
X82166171Y-129651556D01*
X82163338Y-129661206D01*
X82155737Y-129667792D01*
X82146704Y-129681848D01*
X81576777Y-130251777D01*
X81050000Y-130778552D01*
X80549999Y-130778552D01*
X80023223Y-130251777D01*
X79816609Y-130045163D01*
X80050000Y-130045163D01*
X80050000Y-130104837D01*
X80072836Y-130159968D01*
X80115032Y-130202164D01*
X80170163Y-130225000D01*
X80229837Y-130225000D01*
X80284968Y-130202164D01*
X80327164Y-130159968D01*
X80350000Y-130104837D01*
X80350000Y-130045163D01*
X81250000Y-130045163D01*
X81250000Y-130104837D01*
X81272836Y-130159968D01*
X81315032Y-130202164D01*
X81370163Y-130225000D01*
X81429837Y-130225000D01*
X81484968Y-130202164D01*
X81527164Y-130159968D01*
X81550000Y-130104837D01*
X81550000Y-130045163D01*
X81527164Y-129990032D01*
X81484968Y-129947836D01*
X81429837Y-129925000D01*
X81370163Y-129925000D01*
X81315032Y-129947836D01*
X81272836Y-129990032D01*
X81250000Y-130045163D01*
X80350000Y-130045163D01*
X80327164Y-129990032D01*
X80284968Y-129947836D01*
X80229837Y-129925000D01*
X80170163Y-129925000D01*
X80115032Y-129947836D01*
X80072836Y-129990032D01*
X80050000Y-130045163D01*
X79816609Y-130045163D01*
X79453294Y-129681848D01*
X79419809Y-129620525D01*
X79424793Y-129550833D01*
X79425750Y-129548351D01*
X79454916Y-129474999D01*
X79953553Y-129474999D01*
X80200000Y-129721446D01*
X80446446Y-129475001D01*
X80446446Y-129475000D01*
X80446445Y-129474999D01*
X81153553Y-129474999D01*
X81400000Y-129721446D01*
X81646446Y-129475001D01*
X81646446Y-129475000D01*
X81400000Y-129228553D01*
X81153553Y-129474999D01*
X80446445Y-129474999D01*
X80200000Y-129228553D01*
X79953553Y-129474999D01*
X79454916Y-129474999D01*
X79463412Y-129453631D01*
X79453295Y-129443514D01*
X79419810Y-129382191D01*
X79424794Y-129312499D01*
X79453295Y-129268152D01*
X79846446Y-128875001D01*
X79846446Y-128874999D01*
X79816610Y-128845163D01*
X80050000Y-128845163D01*
X80050000Y-128904837D01*
X80072836Y-128959968D01*
X80115032Y-129002164D01*
X80170163Y-129025000D01*
X80229837Y-129025000D01*
X80284968Y-129002164D01*
X80327164Y-128959968D01*
X80350000Y-128904837D01*
X80350000Y-128845163D01*
X81250000Y-128845163D01*
X81250000Y-128904837D01*
X81272836Y-128959968D01*
X81315032Y-129002164D01*
X81370163Y-129025000D01*
X81429837Y-129025000D01*
X81484968Y-129002164D01*
X81527164Y-128959968D01*
X81550000Y-128904837D01*
X81550000Y-128845163D01*
X81527164Y-128790032D01*
X81484968Y-128747836D01*
X81429837Y-128725000D01*
X81370163Y-128725000D01*
X81315032Y-128747836D01*
X81272836Y-128790032D01*
X81250000Y-128845163D01*
X80350000Y-128845163D01*
X80327164Y-128790032D01*
X80284968Y-128747836D01*
X80229837Y-128725000D01*
X80170163Y-128725000D01*
X80115032Y-128747836D01*
X80072836Y-128790032D01*
X80050000Y-128845163D01*
X79816610Y-128845163D01*
X79496447Y-128525000D01*
X78825000Y-128525000D01*
X78825000Y-130572844D01*
X73500500Y-130572844D01*
X73500499Y-129202128D01*
X73494091Y-129142517D01*
X73492810Y-129139083D01*
X73443797Y-129007671D01*
X73443793Y-129007664D01*
X73357547Y-128892455D01*
X73357544Y-128892452D01*
X73242335Y-128806206D01*
X73242328Y-128806202D01*
X73107482Y-128755908D01*
X73107483Y-128755908D01*
X73047883Y-128749501D01*
X73047881Y-128749500D01*
X73047873Y-128749500D01*
X73047864Y-128749500D01*
X71252129Y-128749500D01*
X71252123Y-128749501D01*
X71192516Y-128755908D01*
X71057671Y-128806202D01*
X71057664Y-128806206D01*
X70942455Y-128892452D01*
X70942452Y-128892455D01*
X70856206Y-129007664D01*
X70856203Y-129007669D01*
X70807189Y-129139083D01*
X70765317Y-129195016D01*
X70699853Y-129219433D01*
X70631580Y-129204581D01*
X70603326Y-129183430D01*
X70489786Y-129069890D01*
X70317820Y-128944951D01*
X70128414Y-128848444D01*
X70128413Y-128848443D01*
X70128412Y-128848443D01*
X69926243Y-128782754D01*
X69926241Y-128782753D01*
X69926240Y-128782753D01*
X69764957Y-128757208D01*
X69716287Y-128749500D01*
X69503713Y-128749500D01*
X69455042Y-128757208D01*
X69293760Y-128782753D01*
X69091585Y-128848444D01*
X68902179Y-128944951D01*
X68730213Y-129069890D01*
X68579890Y-129220213D01*
X68454951Y-129392180D01*
X68384485Y-129530477D01*
X68336510Y-129581273D01*
X68268689Y-129598068D01*
X68202554Y-129575531D01*
X68159103Y-129520815D01*
X68150000Y-129474182D01*
X68150000Y-125977155D01*
X78825000Y-125977155D01*
X78825000Y-128025000D01*
X79396447Y-128025000D01*
X80103554Y-128025000D01*
X80296445Y-128025000D01*
X81303554Y-128025000D01*
X81496445Y-128025000D01*
X81400000Y-127928553D01*
X81303554Y-128025000D01*
X80296445Y-128025000D01*
X80200000Y-127928553D01*
X80103554Y-128025000D01*
X79396447Y-128025000D01*
X79396447Y-128024999D01*
X79513222Y-127908225D01*
X79846446Y-127575000D01*
X79816609Y-127545163D01*
X80050000Y-127545163D01*
X80050000Y-127604837D01*
X80072836Y-127659968D01*
X80115032Y-127702164D01*
X80170163Y-127725000D01*
X80229837Y-127725000D01*
X80284968Y-127702164D01*
X80327164Y-127659968D01*
X80350000Y-127604837D01*
X80350000Y-127545163D01*
X81250000Y-127545163D01*
X81250000Y-127604837D01*
X81272836Y-127659968D01*
X81315032Y-127702164D01*
X81370163Y-127725000D01*
X81429837Y-127725000D01*
X81484968Y-127702164D01*
X81527164Y-127659968D01*
X81550000Y-127604837D01*
X81550000Y-127545163D01*
X81527164Y-127490032D01*
X81484968Y-127447836D01*
X81429837Y-127425000D01*
X81370163Y-127425000D01*
X81315032Y-127447836D01*
X81272836Y-127490032D01*
X81250000Y-127545163D01*
X80350000Y-127545163D01*
X80327164Y-127490032D01*
X80284968Y-127447836D01*
X80229837Y-127425000D01*
X80170163Y-127425000D01*
X80115032Y-127447836D01*
X80072836Y-127490032D01*
X80050000Y-127545163D01*
X79816609Y-127545163D01*
X79453294Y-127181848D01*
X79419809Y-127120525D01*
X79418306Y-127076045D01*
X79425846Y-127024999D01*
X80003553Y-127024999D01*
X80200000Y-127221446D01*
X80396446Y-127025001D01*
X80396446Y-127025000D01*
X80396445Y-127024999D01*
X81203553Y-127024999D01*
X81400000Y-127221446D01*
X81596446Y-127025001D01*
X81596446Y-127025000D01*
X81400000Y-126828553D01*
X81203553Y-127024999D01*
X80396445Y-127024999D01*
X80200000Y-126828553D01*
X80003553Y-127024999D01*
X79425846Y-127024999D01*
X79429538Y-127000009D01*
X79419809Y-126982190D01*
X79424793Y-126912498D01*
X79453294Y-126868151D01*
X79876283Y-126445163D01*
X80050000Y-126445163D01*
X80050000Y-126504837D01*
X80072836Y-126559968D01*
X80115032Y-126602164D01*
X80170163Y-126625000D01*
X80229837Y-126625000D01*
X80284968Y-126602164D01*
X80327164Y-126559968D01*
X80350000Y-126504837D01*
X80350000Y-126445163D01*
X81250000Y-126445163D01*
X81250000Y-126504837D01*
X81272836Y-126559968D01*
X81315032Y-126602164D01*
X81370163Y-126625000D01*
X81429837Y-126625000D01*
X81484968Y-126602164D01*
X81527164Y-126559968D01*
X81550000Y-126504837D01*
X81550000Y-126445163D01*
X81527164Y-126390032D01*
X81484968Y-126347836D01*
X81429837Y-126325000D01*
X81370163Y-126325000D01*
X81315032Y-126347836D01*
X81272836Y-126390032D01*
X81250000Y-126445163D01*
X80350000Y-126445163D01*
X80327164Y-126390032D01*
X80284968Y-126347836D01*
X80229837Y-126325000D01*
X80170163Y-126325000D01*
X80115032Y-126347836D01*
X80072836Y-126390032D01*
X80050000Y-126445163D01*
X79876283Y-126445163D01*
X80023223Y-126298223D01*
X80549999Y-125771446D01*
X81050000Y-125771446D01*
X81576777Y-126298223D01*
X82146704Y-126868151D01*
X82180189Y-126929474D01*
X82183023Y-126955832D01*
X82183023Y-127094167D01*
X82176784Y-127115411D01*
X82175206Y-127137497D01*
X82166172Y-127151554D01*
X82163338Y-127161206D01*
X82155736Y-127167792D01*
X82146704Y-127181848D01*
X81753553Y-127574999D01*
X81753553Y-127575000D01*
X82203553Y-128025000D01*
X82775000Y-128025000D01*
X82775000Y-125977172D01*
X82774999Y-125977155D01*
X82768598Y-125917627D01*
X82768596Y-125917620D01*
X82718354Y-125782913D01*
X82718350Y-125782906D01*
X82632190Y-125667812D01*
X82632187Y-125667809D01*
X82517093Y-125581649D01*
X82517086Y-125581645D01*
X82382379Y-125531403D01*
X82382372Y-125531401D01*
X82322844Y-125525000D01*
X81050000Y-125525000D01*
X81050000Y-125771446D01*
X80549999Y-125771446D01*
X80550000Y-125771445D01*
X80550000Y-125525000D01*
X79277155Y-125525000D01*
X79217627Y-125531401D01*
X79217620Y-125531403D01*
X79082913Y-125581645D01*
X79082906Y-125581649D01*
X78967812Y-125667809D01*
X78967809Y-125667812D01*
X78881649Y-125782906D01*
X78881645Y-125782913D01*
X78831403Y-125917620D01*
X78831401Y-125917627D01*
X78825000Y-125977155D01*
X68150000Y-125977155D01*
X68150000Y-101205030D01*
X68169685Y-101137991D01*
X68213908Y-101097983D01*
X68213406Y-101097164D01*
X68217557Y-101094620D01*
X68271716Y-101055270D01*
X68271717Y-101055270D01*
X68150000Y-100933553D01*
X68150000Y-100226446D01*
X68663181Y-100739628D01*
X68696666Y-100800951D01*
X68699500Y-100827300D01*
X68699500Y-100837865D01*
X68699501Y-100837876D01*
X68705908Y-100897483D01*
X68756202Y-101032328D01*
X68756206Y-101032335D01*
X68842452Y-101147544D01*
X68842455Y-101147547D01*
X68957664Y-101233793D01*
X68957671Y-101233797D01*
X69092517Y-101284091D01*
X69092516Y-101284091D01*
X69099444Y-101284835D01*
X69152127Y-101290500D01*
X70275500Y-101290499D01*
X70342539Y-101310184D01*
X70388294Y-101362987D01*
X70399500Y-101414499D01*
X70399500Y-112995064D01*
X70379815Y-113062103D01*
X70378603Y-113063954D01*
X70340608Y-113120817D01*
X70340602Y-113120828D01*
X70280264Y-113266498D01*
X70280261Y-113266510D01*
X70249500Y-113421153D01*
X70249500Y-113578846D01*
X70280261Y-113733489D01*
X70280264Y-113733501D01*
X70340602Y-113879172D01*
X70340609Y-113879185D01*
X70428210Y-114010288D01*
X70428213Y-114010292D01*
X70539707Y-114121786D01*
X70539711Y-114121789D01*
X70670814Y-114209390D01*
X70670827Y-114209397D01*
X70816498Y-114269735D01*
X70816503Y-114269737D01*
X70929165Y-114292147D01*
X70971153Y-114300499D01*
X70971156Y-114300500D01*
X70971158Y-114300500D01*
X71128844Y-114300500D01*
X71128845Y-114300499D01*
X71283497Y-114269737D01*
X71429179Y-114209394D01*
X71486044Y-114171397D01*
X71552721Y-114150520D01*
X71554935Y-114150500D01*
X90655832Y-114150500D01*
X90722871Y-114170185D01*
X90768626Y-114222989D01*
X90778570Y-114292147D01*
X90758933Y-114343392D01*
X90740610Y-114370812D01*
X90740602Y-114370827D01*
X90680264Y-114516498D01*
X90680261Y-114516510D01*
X90649500Y-114671153D01*
X90649500Y-114828846D01*
X90680261Y-114983489D01*
X90680264Y-114983501D01*
X90740602Y-115129172D01*
X90740606Y-115129179D01*
X90778602Y-115186044D01*
X90799480Y-115252721D01*
X90799500Y-115254935D01*
X90799500Y-129064069D01*
X90806747Y-129100499D01*
X90806747Y-129100502D01*
X90815104Y-129142517D01*
X90824499Y-129189744D01*
X90873535Y-129308127D01*
X90944723Y-129414669D01*
X90944726Y-129414673D01*
X90944727Y-129414674D01*
X92863181Y-131333127D01*
X92896666Y-131394450D01*
X92899500Y-131420808D01*
X92899500Y-140483624D01*
X92879815Y-140550663D01*
X92827011Y-140596418D01*
X92822953Y-140598185D01*
X92729792Y-140636773D01*
X92729780Y-140636779D01*
X92519706Y-140758067D01*
X92327263Y-140905733D01*
X92327256Y-140905739D01*
X92155739Y-141077256D01*
X92155733Y-141077263D01*
X92008067Y-141269706D01*
X91886777Y-141479785D01*
X91886773Y-141479794D01*
X91793947Y-141703895D01*
X91731161Y-141938214D01*
X91699500Y-142178711D01*
X91699500Y-143421288D01*
X91731161Y-143661785D01*
X91793947Y-143896104D01*
X91886773Y-144120205D01*
X91886776Y-144120212D01*
X92008064Y-144330289D01*
X92008066Y-144330292D01*
X92008067Y-144330293D01*
X92155733Y-144522736D01*
X92155739Y-144522743D01*
X92327256Y-144694260D01*
X92327262Y-144694265D01*
X92519711Y-144841936D01*
X92729788Y-144963224D01*
X92953900Y-145056054D01*
X93188211Y-145118838D01*
X93368586Y-145142584D01*
X93428711Y-145150500D01*
X93428712Y-145150500D01*
X93671289Y-145150500D01*
X93719388Y-145144167D01*
X93911789Y-145118838D01*
X94146100Y-145056054D01*
X94370212Y-144963224D01*
X94580289Y-144841936D01*
X94772738Y-144694265D01*
X94944265Y-144522738D01*
X95091936Y-144330289D01*
X95213224Y-144120212D01*
X95306054Y-143896100D01*
X95368838Y-143661789D01*
X95400500Y-143421288D01*
X95400500Y-142178712D01*
X95368838Y-141938211D01*
X95306054Y-141703900D01*
X95213224Y-141479788D01*
X95091936Y-141269711D01*
X94944265Y-141077262D01*
X94944260Y-141077256D01*
X94772743Y-140905739D01*
X94772736Y-140905733D01*
X94580293Y-140758067D01*
X94580292Y-140758066D01*
X94580289Y-140758064D01*
X94496532Y-140709707D01*
X94370219Y-140636779D01*
X94370207Y-140636773D01*
X94277047Y-140598185D01*
X94222644Y-140554344D01*
X94200579Y-140488049D01*
X94200500Y-140483624D01*
X94200500Y-131369807D01*
X94220185Y-131302768D01*
X94272989Y-131257013D01*
X94342147Y-131247069D01*
X94405703Y-131276094D01*
X94412181Y-131282126D01*
X97063181Y-133933126D01*
X97096666Y-133994449D01*
X97099500Y-134020807D01*
X97099500Y-140483624D01*
X97079815Y-140550663D01*
X97027011Y-140596418D01*
X97022953Y-140598185D01*
X96929792Y-140636773D01*
X96929780Y-140636779D01*
X96719706Y-140758067D01*
X96527263Y-140905733D01*
X96527256Y-140905739D01*
X96355739Y-141077256D01*
X96355733Y-141077263D01*
X96208067Y-141269706D01*
X96086777Y-141479785D01*
X96086773Y-141479794D01*
X95993947Y-141703895D01*
X95931161Y-141938214D01*
X95899500Y-142178711D01*
X95899500Y-143421288D01*
X95931161Y-143661785D01*
X95993947Y-143896104D01*
X96086773Y-144120205D01*
X96086776Y-144120212D01*
X96208064Y-144330289D01*
X96208066Y-144330292D01*
X96208067Y-144330293D01*
X96355733Y-144522736D01*
X96355739Y-144522743D01*
X96527256Y-144694260D01*
X96527262Y-144694265D01*
X96719711Y-144841936D01*
X96929788Y-144963224D01*
X97153900Y-145056054D01*
X97388211Y-145118838D01*
X97568586Y-145142584D01*
X97628711Y-145150500D01*
X97628712Y-145150500D01*
X97871289Y-145150500D01*
X97919388Y-145144167D01*
X98111789Y-145118838D01*
X98346100Y-145056054D01*
X98570212Y-144963224D01*
X98780289Y-144841936D01*
X98972738Y-144694265D01*
X99144265Y-144522738D01*
X99291936Y-144330289D01*
X99413224Y-144120212D01*
X99506054Y-143896100D01*
X99568838Y-143661789D01*
X99600500Y-143421288D01*
X99600500Y-142178712D01*
X99600500Y-142178711D01*
X102799500Y-142178711D01*
X102799500Y-143421288D01*
X102831161Y-143661785D01*
X102893947Y-143896104D01*
X102986773Y-144120205D01*
X102986776Y-144120212D01*
X103108064Y-144330289D01*
X103108066Y-144330292D01*
X103108067Y-144330293D01*
X103255733Y-144522736D01*
X103255739Y-144522743D01*
X103427256Y-144694260D01*
X103427262Y-144694265D01*
X103619711Y-144841936D01*
X103829788Y-144963224D01*
X104053900Y-145056054D01*
X104288211Y-145118838D01*
X104468586Y-145142584D01*
X104528711Y-145150500D01*
X104528712Y-145150500D01*
X104771289Y-145150500D01*
X104819388Y-145144167D01*
X105011789Y-145118838D01*
X105246100Y-145056054D01*
X105470212Y-144963224D01*
X105680289Y-144841936D01*
X105872738Y-144694265D01*
X106044265Y-144522738D01*
X106191936Y-144330289D01*
X106313224Y-144120212D01*
X106406054Y-143896100D01*
X106468838Y-143661789D01*
X106500500Y-143421288D01*
X106500500Y-142178712D01*
X106500500Y-142178711D01*
X106999500Y-142178711D01*
X106999500Y-143421288D01*
X107031161Y-143661785D01*
X107093947Y-143896104D01*
X107186773Y-144120205D01*
X107186776Y-144120212D01*
X107308064Y-144330289D01*
X107308066Y-144330292D01*
X107308067Y-144330293D01*
X107455733Y-144522736D01*
X107455739Y-144522743D01*
X107627256Y-144694260D01*
X107627262Y-144694265D01*
X107819711Y-144841936D01*
X108029788Y-144963224D01*
X108253900Y-145056054D01*
X108488211Y-145118838D01*
X108668586Y-145142584D01*
X108728711Y-145150500D01*
X108728712Y-145150500D01*
X108971289Y-145150500D01*
X109019388Y-145144167D01*
X109211789Y-145118838D01*
X109446100Y-145056054D01*
X109670212Y-144963224D01*
X109880289Y-144841936D01*
X110072738Y-144694265D01*
X110244265Y-144522738D01*
X110391936Y-144330289D01*
X110513224Y-144120212D01*
X110606054Y-143896100D01*
X110668838Y-143661789D01*
X110700500Y-143421288D01*
X110700500Y-142178712D01*
X110700500Y-142178711D01*
X113899500Y-142178711D01*
X113899500Y-143421288D01*
X113931161Y-143661785D01*
X113993947Y-143896104D01*
X114086773Y-144120205D01*
X114086776Y-144120212D01*
X114208064Y-144330289D01*
X114208066Y-144330292D01*
X114208067Y-144330293D01*
X114355733Y-144522736D01*
X114355739Y-144522743D01*
X114527256Y-144694260D01*
X114527262Y-144694265D01*
X114719711Y-144841936D01*
X114929788Y-144963224D01*
X115153900Y-145056054D01*
X115388211Y-145118838D01*
X115568586Y-145142584D01*
X115628711Y-145150500D01*
X115628712Y-145150500D01*
X115871289Y-145150500D01*
X115919388Y-145144167D01*
X116111789Y-145118838D01*
X116346100Y-145056054D01*
X116570212Y-144963224D01*
X116780289Y-144841936D01*
X116972738Y-144694265D01*
X117144265Y-144522738D01*
X117291936Y-144330289D01*
X117413224Y-144120212D01*
X117506054Y-143896100D01*
X117568838Y-143661789D01*
X117600500Y-143421288D01*
X117600500Y-142178712D01*
X117600500Y-142178711D01*
X118099500Y-142178711D01*
X118099500Y-143421288D01*
X118131161Y-143661785D01*
X118193947Y-143896104D01*
X118286773Y-144120205D01*
X118286776Y-144120212D01*
X118408064Y-144330289D01*
X118408066Y-144330292D01*
X118408067Y-144330293D01*
X118555733Y-144522736D01*
X118555739Y-144522743D01*
X118727256Y-144694260D01*
X118727262Y-144694265D01*
X118919711Y-144841936D01*
X119129788Y-144963224D01*
X119353900Y-145056054D01*
X119588211Y-145118838D01*
X119768586Y-145142584D01*
X119828711Y-145150500D01*
X119828712Y-145150500D01*
X120071289Y-145150500D01*
X120119388Y-145144167D01*
X120311789Y-145118838D01*
X120546100Y-145056054D01*
X120770212Y-144963224D01*
X120980289Y-144841936D01*
X121172738Y-144694265D01*
X121344265Y-144522738D01*
X121491936Y-144330289D01*
X121613224Y-144120212D01*
X121706054Y-143896100D01*
X121768838Y-143661789D01*
X121800500Y-143421288D01*
X121800500Y-142178712D01*
X121768838Y-141938211D01*
X121706054Y-141703900D01*
X121613224Y-141479788D01*
X121491936Y-141269711D01*
X121344265Y-141077262D01*
X121344260Y-141077256D01*
X121172743Y-140905739D01*
X121172736Y-140905733D01*
X120980293Y-140758067D01*
X120980292Y-140758066D01*
X120980289Y-140758064D01*
X120770212Y-140636776D01*
X120770205Y-140636773D01*
X120546104Y-140543947D01*
X120311785Y-140481161D01*
X120071289Y-140449500D01*
X120071288Y-140449500D01*
X119828712Y-140449500D01*
X119828711Y-140449500D01*
X119588214Y-140481161D01*
X119353895Y-140543947D01*
X119129794Y-140636773D01*
X119129785Y-140636777D01*
X118919706Y-140758067D01*
X118727263Y-140905733D01*
X118727256Y-140905739D01*
X118555739Y-141077256D01*
X118555733Y-141077263D01*
X118408067Y-141269706D01*
X118286777Y-141479785D01*
X118286773Y-141479794D01*
X118193947Y-141703895D01*
X118131161Y-141938214D01*
X118099500Y-142178711D01*
X117600500Y-142178711D01*
X117568838Y-141938211D01*
X117506054Y-141703900D01*
X117413224Y-141479788D01*
X117291936Y-141269711D01*
X117144265Y-141077262D01*
X117144260Y-141077256D01*
X116972743Y-140905739D01*
X116972736Y-140905733D01*
X116780293Y-140758067D01*
X116780292Y-140758066D01*
X116780289Y-140758064D01*
X116570212Y-140636776D01*
X116570205Y-140636773D01*
X116346104Y-140543947D01*
X116111785Y-140481161D01*
X115871289Y-140449500D01*
X115871288Y-140449500D01*
X115628712Y-140449500D01*
X115628711Y-140449500D01*
X115388214Y-140481161D01*
X115153895Y-140543947D01*
X114929794Y-140636773D01*
X114929785Y-140636777D01*
X114719706Y-140758067D01*
X114527263Y-140905733D01*
X114527256Y-140905739D01*
X114355739Y-141077256D01*
X114355733Y-141077263D01*
X114208067Y-141269706D01*
X114086777Y-141479785D01*
X114086773Y-141479794D01*
X113993947Y-141703895D01*
X113931161Y-141938214D01*
X113899500Y-142178711D01*
X110700500Y-142178711D01*
X110668838Y-141938211D01*
X110606054Y-141703900D01*
X110513224Y-141479788D01*
X110391936Y-141269711D01*
X110244265Y-141077262D01*
X110244260Y-141077256D01*
X110072743Y-140905739D01*
X110072736Y-140905733D01*
X109880293Y-140758067D01*
X109880292Y-140758066D01*
X109880289Y-140758064D01*
X109670212Y-140636776D01*
X109670205Y-140636773D01*
X109446104Y-140543947D01*
X109211785Y-140481161D01*
X108971289Y-140449500D01*
X108971288Y-140449500D01*
X108728712Y-140449500D01*
X108728711Y-140449500D01*
X108488214Y-140481161D01*
X108253895Y-140543947D01*
X108029794Y-140636773D01*
X108029785Y-140636777D01*
X107819706Y-140758067D01*
X107627263Y-140905733D01*
X107627256Y-140905739D01*
X107455739Y-141077256D01*
X107455733Y-141077263D01*
X107308067Y-141269706D01*
X107186777Y-141479785D01*
X107186773Y-141479794D01*
X107093947Y-141703895D01*
X107031161Y-141938214D01*
X106999500Y-142178711D01*
X106500500Y-142178711D01*
X106468838Y-141938211D01*
X106406054Y-141703900D01*
X106313224Y-141479788D01*
X106191936Y-141269711D01*
X106044265Y-141077262D01*
X106044260Y-141077256D01*
X105872743Y-140905739D01*
X105872736Y-140905733D01*
X105680293Y-140758067D01*
X105680292Y-140758066D01*
X105680289Y-140758064D01*
X105470212Y-140636776D01*
X105470205Y-140636773D01*
X105246104Y-140543947D01*
X105011785Y-140481161D01*
X104771289Y-140449500D01*
X104771288Y-140449500D01*
X104528712Y-140449500D01*
X104528711Y-140449500D01*
X104288214Y-140481161D01*
X104053895Y-140543947D01*
X103829794Y-140636773D01*
X103829785Y-140636777D01*
X103619706Y-140758067D01*
X103427263Y-140905733D01*
X103427256Y-140905739D01*
X103255739Y-141077256D01*
X103255733Y-141077263D01*
X103108067Y-141269706D01*
X102986777Y-141479785D01*
X102986773Y-141479794D01*
X102893947Y-141703895D01*
X102831161Y-141938214D01*
X102799500Y-142178711D01*
X99600500Y-142178711D01*
X99568838Y-141938211D01*
X99506054Y-141703900D01*
X99413224Y-141479788D01*
X99291936Y-141269711D01*
X99144265Y-141077262D01*
X99144260Y-141077256D01*
X98972743Y-140905739D01*
X98972736Y-140905733D01*
X98780293Y-140758067D01*
X98780292Y-140758066D01*
X98780289Y-140758064D01*
X98696532Y-140709707D01*
X98570219Y-140636779D01*
X98570207Y-140636773D01*
X98477047Y-140598185D01*
X98422644Y-140554344D01*
X98400579Y-140488049D01*
X98400500Y-140483624D01*
X98400500Y-133635928D01*
X98375502Y-133510261D01*
X98375501Y-133510260D01*
X98375501Y-133510256D01*
X98326465Y-133391873D01*
X98326464Y-133391872D01*
X98326461Y-133391866D01*
X98255277Y-133285332D01*
X98215206Y-133245261D01*
X98164669Y-133194724D01*
X95695762Y-130725817D01*
X93186819Y-128216873D01*
X93153334Y-128155550D01*
X93150500Y-128129192D01*
X93150500Y-115254935D01*
X93170185Y-115187896D01*
X93171366Y-115186090D01*
X93209394Y-115129179D01*
X93269737Y-114983497D01*
X93300500Y-114828842D01*
X93300500Y-114671158D01*
X93300500Y-114671155D01*
X93300499Y-114671153D01*
X93291574Y-114626284D01*
X93269737Y-114516503D01*
X93268898Y-114514478D01*
X93209397Y-114370827D01*
X93209389Y-114370812D01*
X93191067Y-114343392D01*
X93170188Y-114276715D01*
X93188672Y-114209334D01*
X93240650Y-114162644D01*
X93294168Y-114150500D01*
X94075500Y-114150500D01*
X94142539Y-114170185D01*
X94188294Y-114222989D01*
X94199500Y-114274500D01*
X94199500Y-127445064D01*
X94179815Y-127512103D01*
X94178603Y-127513954D01*
X94140608Y-127570817D01*
X94140602Y-127570828D01*
X94080264Y-127716498D01*
X94080261Y-127716510D01*
X94049500Y-127871153D01*
X94049500Y-128028846D01*
X94080261Y-128183489D01*
X94080264Y-128183501D01*
X94140602Y-128329172D01*
X94140609Y-128329185D01*
X94228210Y-128460288D01*
X94228213Y-128460292D01*
X94339707Y-128571786D01*
X94339711Y-128571789D01*
X94470814Y-128659390D01*
X94470827Y-128659397D01*
X94616498Y-128719735D01*
X94616503Y-128719737D01*
X94757765Y-128747836D01*
X94771153Y-128750499D01*
X94771156Y-128750500D01*
X94771158Y-128750500D01*
X94928844Y-128750500D01*
X94928845Y-128750499D01*
X95083497Y-128719737D01*
X95229179Y-128659394D01*
X95360289Y-128571789D01*
X95471789Y-128460289D01*
X95559394Y-128329179D01*
X95619737Y-128183497D01*
X95650500Y-128028842D01*
X95650500Y-127871158D01*
X95650500Y-127871155D01*
X95650499Y-127871153D01*
X95619738Y-127716510D01*
X95619737Y-127716503D01*
X95559394Y-127570821D01*
X95521396Y-127513953D01*
X95500520Y-127447276D01*
X95500500Y-127445064D01*
X95500500Y-111904935D01*
X95520185Y-111837896D01*
X95521366Y-111836090D01*
X95559394Y-111779179D01*
X95619737Y-111633497D01*
X95650500Y-111478842D01*
X95650500Y-111321158D01*
X95650500Y-111321155D01*
X95650499Y-111321153D01*
X95619738Y-111166510D01*
X95619737Y-111166503D01*
X95559394Y-111020821D01*
X95521396Y-110963953D01*
X95500520Y-110897276D01*
X95500500Y-110895064D01*
X95500500Y-99304935D01*
X95520185Y-99237896D01*
X95521366Y-99236090D01*
X95559394Y-99179179D01*
X95619737Y-99033497D01*
X95650500Y-98878842D01*
X95650500Y-98721158D01*
X95650500Y-98721155D01*
X95650499Y-98721153D01*
X95635591Y-98646206D01*
X95619737Y-98566503D01*
X95614994Y-98555052D01*
X95559397Y-98420827D01*
X95559389Y-98420812D01*
X95541067Y-98393392D01*
X95538029Y-98383691D01*
X95531374Y-98376011D01*
X95527765Y-98350912D01*
X95520188Y-98326715D01*
X95522876Y-98316913D01*
X95521430Y-98306853D01*
X95531964Y-98283786D01*
X95538672Y-98259334D01*
X95546232Y-98252542D01*
X95550455Y-98243297D01*
X95571787Y-98229587D01*
X95590650Y-98212644D01*
X95602247Y-98210012D01*
X95609233Y-98205523D01*
X95644168Y-98200500D01*
X95849903Y-98200500D01*
X95916942Y-98220185D01*
X95937584Y-98236819D01*
X99865139Y-102164374D01*
X99865149Y-102164385D01*
X99869479Y-102168715D01*
X99869480Y-102168716D01*
X99981284Y-102280520D01*
X100032845Y-102310288D01*
X100068095Y-102330639D01*
X100068097Y-102330641D01*
X100106151Y-102352611D01*
X100118215Y-102359577D01*
X100270943Y-102400501D01*
X100270946Y-102400501D01*
X100436653Y-102400501D01*
X100436669Y-102400500D01*
X105620234Y-102400500D01*
X105687273Y-102420185D01*
X105689125Y-102421398D01*
X105820814Y-102509390D01*
X105820827Y-102509397D01*
X105966498Y-102569735D01*
X105966503Y-102569737D01*
X106121153Y-102600499D01*
X106121156Y-102600500D01*
X106121158Y-102600500D01*
X106278844Y-102600500D01*
X106278845Y-102600499D01*
X106433497Y-102569737D01*
X106579179Y-102509394D01*
X106710289Y-102421789D01*
X106821789Y-102310289D01*
X106909394Y-102179179D01*
X106969737Y-102033497D01*
X107000500Y-101878842D01*
X107000500Y-101721158D01*
X107000500Y-101721155D01*
X107000499Y-101721153D01*
X106973117Y-101583497D01*
X106969737Y-101566503D01*
X106969735Y-101566498D01*
X106909397Y-101420827D01*
X106909390Y-101420814D01*
X106821789Y-101289711D01*
X106821786Y-101289707D01*
X106710292Y-101178213D01*
X106710288Y-101178210D01*
X106579185Y-101090609D01*
X106579172Y-101090602D01*
X106433501Y-101030264D01*
X106433489Y-101030261D01*
X106278845Y-100999500D01*
X106278842Y-100999500D01*
X106121158Y-100999500D01*
X106121155Y-100999500D01*
X105966510Y-101030261D01*
X105966498Y-101030264D01*
X105820827Y-101090602D01*
X105820814Y-101090609D01*
X105689125Y-101178602D01*
X105622447Y-101199480D01*
X105620234Y-101199500D01*
X100650097Y-101199500D01*
X100583058Y-101179815D01*
X100562416Y-101163181D01*
X97363029Y-97963794D01*
X97329544Y-97902471D01*
X97334528Y-97832779D01*
X97376400Y-97776846D01*
X97403258Y-97761552D01*
X97529172Y-97709397D01*
X97529172Y-97709396D01*
X97529179Y-97709394D01*
X97660289Y-97621789D01*
X97771789Y-97510289D01*
X97859394Y-97379179D01*
X97919737Y-97233497D01*
X97950500Y-97078842D01*
X97950500Y-96921158D01*
X97950500Y-96921155D01*
X97950499Y-96921153D01*
X97922192Y-96778846D01*
X97919737Y-96766503D01*
X97905116Y-96731204D01*
X97859397Y-96620827D01*
X97859390Y-96620814D01*
X97771789Y-96489711D01*
X97771786Y-96489707D01*
X97660292Y-96378213D01*
X97660288Y-96378210D01*
X97529185Y-96290609D01*
X97529172Y-96290602D01*
X97383501Y-96230264D01*
X97383489Y-96230261D01*
X97228845Y-96199500D01*
X97228842Y-96199500D01*
X97071158Y-96199500D01*
X97071155Y-96199500D01*
X96916510Y-96230261D01*
X96916498Y-96230264D01*
X96770827Y-96290602D01*
X96770814Y-96290609D01*
X96639125Y-96378602D01*
X96572447Y-96399480D01*
X96570234Y-96399500D01*
X95750098Y-96399500D01*
X95683059Y-96379815D01*
X95662417Y-96363181D01*
X94661818Y-95362582D01*
X94647114Y-95335654D01*
X94630522Y-95309836D01*
X94629630Y-95303635D01*
X94628333Y-95301259D01*
X94625499Y-95274901D01*
X94625499Y-95074500D01*
X94645184Y-95007461D01*
X94697988Y-94961706D01*
X94749499Y-94950500D01*
X102949903Y-94950500D01*
X103016942Y-94970185D01*
X103037584Y-94986819D01*
X104765425Y-96714660D01*
X104798910Y-96775983D01*
X104799361Y-96778149D01*
X104830261Y-96933491D01*
X104830264Y-96933501D01*
X104890602Y-97079172D01*
X104890609Y-97079185D01*
X104978210Y-97210288D01*
X104978213Y-97210292D01*
X105089707Y-97321786D01*
X105089711Y-97321789D01*
X105220814Y-97409390D01*
X105220827Y-97409397D01*
X105339099Y-97458386D01*
X105366503Y-97469737D01*
X105521153Y-97500499D01*
X105521156Y-97500500D01*
X105521158Y-97500500D01*
X105678844Y-97500500D01*
X105678845Y-97500499D01*
X105833497Y-97469737D01*
X105979179Y-97409394D01*
X106110289Y-97321789D01*
X106221789Y-97210289D01*
X106309394Y-97079179D01*
X106313728Y-97068717D01*
X106369735Y-96933501D01*
X106369737Y-96933497D01*
X106400500Y-96778842D01*
X106400500Y-96774500D01*
X106420185Y-96707461D01*
X106472989Y-96661706D01*
X106524500Y-96650500D01*
X106678844Y-96650500D01*
X106678845Y-96650499D01*
X106833497Y-96619737D01*
X106979179Y-96559394D01*
X107110289Y-96471789D01*
X107221789Y-96360289D01*
X107309394Y-96229179D01*
X107369737Y-96083497D01*
X107400500Y-95928842D01*
X107400500Y-95771158D01*
X107400500Y-95771155D01*
X107400499Y-95771153D01*
X107386246Y-95699500D01*
X107369737Y-95616503D01*
X107349572Y-95567820D01*
X107309397Y-95470827D01*
X107309390Y-95470814D01*
X107221789Y-95339711D01*
X107221786Y-95339707D01*
X107110292Y-95228213D01*
X107110288Y-95228210D01*
X106979185Y-95140609D01*
X106979172Y-95140602D01*
X106833501Y-95080264D01*
X106833491Y-95080261D01*
X106678151Y-95049362D01*
X106616241Y-95016977D01*
X106614662Y-95015426D01*
X105751418Y-94152182D01*
X104560915Y-92961680D01*
X104527431Y-92900358D01*
X104532415Y-92830666D01*
X104574287Y-92774733D01*
X104639751Y-92750316D01*
X104648597Y-92750000D01*
X119676000Y-92750000D01*
X119743039Y-92769685D01*
G37*
%TD.AperFunction*%
%TA.AperFunction,Conductor*%
G36*
X83842539Y-94970185D02*
G01*
X83888294Y-95022989D01*
X83899500Y-95074500D01*
X83899500Y-95228846D01*
X83930261Y-95383489D01*
X83930264Y-95383501D01*
X83990602Y-95529172D01*
X83990609Y-95529185D01*
X84078602Y-95660874D01*
X84099480Y-95727551D01*
X84099500Y-95729765D01*
X84099500Y-96613330D01*
X84099499Y-96613348D01*
X84099499Y-96779056D01*
X84140421Y-96931781D01*
X84140422Y-96931783D01*
X84140423Y-96931785D01*
X84142222Y-96934901D01*
X84142227Y-96934918D01*
X84142231Y-96934916D01*
X84219477Y-97068712D01*
X84219481Y-97068717D01*
X84338349Y-97187585D01*
X84338355Y-97187590D01*
X85715425Y-98564660D01*
X85748910Y-98625983D01*
X85749361Y-98628149D01*
X85780261Y-98783491D01*
X85780264Y-98783501D01*
X85840602Y-98929172D01*
X85840609Y-98929185D01*
X85928210Y-99060288D01*
X85928213Y-99060292D01*
X86039707Y-99171786D01*
X86039711Y-99171789D01*
X86170814Y-99259390D01*
X86170827Y-99259397D01*
X86316498Y-99319735D01*
X86316503Y-99319737D01*
X86471153Y-99350499D01*
X86471156Y-99350500D01*
X86471158Y-99350500D01*
X86628844Y-99350500D01*
X86628845Y-99350499D01*
X86783497Y-99319737D01*
X86929179Y-99259394D01*
X87060289Y-99171789D01*
X87171789Y-99060289D01*
X87259394Y-98929179D01*
X87319737Y-98783497D01*
X87350500Y-98628842D01*
X87350500Y-98471158D01*
X87350500Y-98471155D01*
X87350499Y-98471153D01*
X87342334Y-98430104D01*
X87319737Y-98316503D01*
X87315740Y-98306853D01*
X87259397Y-98170827D01*
X87259390Y-98170814D01*
X87171789Y-98039711D01*
X87171786Y-98039707D01*
X87060292Y-97928213D01*
X87060288Y-97928210D01*
X86929185Y-97840609D01*
X86929172Y-97840602D01*
X86783501Y-97780264D01*
X86783491Y-97780261D01*
X86628149Y-97749361D01*
X86611392Y-97740595D01*
X86592914Y-97736576D01*
X86567877Y-97717833D01*
X86566238Y-97716976D01*
X86564660Y-97715425D01*
X86358125Y-97508890D01*
X91775000Y-97508890D01*
X91775000Y-97691109D01*
X91810545Y-97869805D01*
X91810548Y-97869817D01*
X91880271Y-98038145D01*
X91891498Y-98054947D01*
X92346446Y-97600000D01*
X92346446Y-97599999D01*
X91891498Y-97145050D01*
X91880274Y-97161848D01*
X91810547Y-97330186D01*
X91810545Y-97330194D01*
X91775000Y-97508890D01*
X86358125Y-97508890D01*
X85336819Y-96487584D01*
X85303334Y-96426261D01*
X85300500Y-96399903D01*
X85300500Y-95729765D01*
X85320185Y-95662726D01*
X85321398Y-95660874D01*
X85409390Y-95529185D01*
X85409390Y-95529184D01*
X85409394Y-95529179D01*
X85469737Y-95383497D01*
X85500500Y-95228842D01*
X85500500Y-95074500D01*
X85520185Y-95007461D01*
X85572989Y-94961706D01*
X85624500Y-94950500D01*
X91665358Y-94950500D01*
X91732397Y-94970185D01*
X91778152Y-95022989D01*
X91788096Y-95092147D01*
X91786975Y-95098692D01*
X91775000Y-95158893D01*
X91775000Y-95341109D01*
X91810545Y-95519805D01*
X91810548Y-95519817D01*
X91880271Y-95688145D01*
X91891498Y-95704947D01*
X92435542Y-95160904D01*
X92443487Y-95156565D01*
X92448913Y-95149318D01*
X92473672Y-95140083D01*
X92475298Y-95139194D01*
X92450000Y-95200272D01*
X92450000Y-95299728D01*
X92488060Y-95391614D01*
X92558386Y-95461940D01*
X92650272Y-95500000D01*
X92749728Y-95500000D01*
X92770472Y-95491407D01*
X92754815Y-95544729D01*
X92738181Y-95565371D01*
X92245050Y-96058500D01*
X92261849Y-96069725D01*
X92261855Y-96069728D01*
X92430182Y-96139451D01*
X92430194Y-96139454D01*
X92608890Y-96174999D01*
X92608894Y-96175000D01*
X92791106Y-96175000D01*
X92791109Y-96174999D01*
X92969805Y-96139454D01*
X92969806Y-96139454D01*
X92980755Y-96134919D01*
X93050224Y-96127447D01*
X93071538Y-96133293D01*
X93167517Y-96169091D01*
X93227127Y-96175500D01*
X93724902Y-96175499D01*
X93791941Y-96195183D01*
X93812583Y-96211818D01*
X94063583Y-96462819D01*
X94097068Y-96524142D01*
X94092084Y-96593834D01*
X94050212Y-96649767D01*
X93984748Y-96674184D01*
X93975902Y-96674500D01*
X93227129Y-96674500D01*
X93227123Y-96674501D01*
X93167515Y-96680909D01*
X93071547Y-96716702D01*
X93001855Y-96721686D01*
X92980767Y-96715083D01*
X92969822Y-96710550D01*
X92969806Y-96710545D01*
X92791108Y-96675000D01*
X92608890Y-96675000D01*
X92430194Y-96710545D01*
X92430186Y-96710547D01*
X92261848Y-96780274D01*
X92245050Y-96791498D01*
X92738181Y-97284627D01*
X92752884Y-97311554D01*
X92769477Y-97337373D01*
X92770368Y-97343573D01*
X92771666Y-97345950D01*
X92773144Y-97359699D01*
X92749728Y-97350000D01*
X92650272Y-97350000D01*
X92558386Y-97388060D01*
X92488060Y-97458386D01*
X92450000Y-97550272D01*
X92450000Y-97649728D01*
X92488060Y-97741614D01*
X92558386Y-97811940D01*
X92650272Y-97850000D01*
X92749728Y-97850000D01*
X92770472Y-97841407D01*
X92754815Y-97894729D01*
X92738181Y-97915371D01*
X92245050Y-98408500D01*
X92261849Y-98419725D01*
X92261855Y-98419728D01*
X92430182Y-98489451D01*
X92430194Y-98489454D01*
X92608890Y-98524999D01*
X92608894Y-98525000D01*
X92791106Y-98525000D01*
X92791109Y-98524999D01*
X92969805Y-98489454D01*
X92969806Y-98489454D01*
X92980755Y-98484919D01*
X93050224Y-98477447D01*
X93071538Y-98483293D01*
X93167517Y-98519091D01*
X93227127Y-98525500D01*
X93937324Y-98525499D01*
X94004363Y-98545183D01*
X94050118Y-98597987D01*
X94060062Y-98667146D01*
X94058941Y-98673690D01*
X94049500Y-98721153D01*
X94049500Y-98878846D01*
X94080261Y-99033489D01*
X94080264Y-99033501D01*
X94140602Y-99179172D01*
X94140606Y-99179179D01*
X94178602Y-99236044D01*
X94199480Y-99302721D01*
X94199500Y-99304935D01*
X94199500Y-110895064D01*
X94179815Y-110962103D01*
X94178603Y-110963954D01*
X94140608Y-111020817D01*
X94140602Y-111020828D01*
X94080264Y-111166498D01*
X94080261Y-111166510D01*
X94049500Y-111321153D01*
X94049500Y-111330192D01*
X94029815Y-111397231D01*
X93977011Y-111442986D01*
X93907853Y-111452930D01*
X93844297Y-111423905D01*
X93837819Y-111417873D01*
X90467015Y-108047069D01*
X90433530Y-107985746D01*
X90433093Y-107983652D01*
X90419737Y-107916503D01*
X90395599Y-107858230D01*
X90359397Y-107770827D01*
X90359390Y-107770814D01*
X90271789Y-107639711D01*
X90271786Y-107639707D01*
X90160292Y-107528213D01*
X90160288Y-107528210D01*
X90029185Y-107440609D01*
X90029172Y-107440602D01*
X89883501Y-107380264D01*
X89883489Y-107380261D01*
X89728845Y-107349500D01*
X89728842Y-107349500D01*
X89571158Y-107349500D01*
X89571155Y-107349500D01*
X89416510Y-107380261D01*
X89416498Y-107380264D01*
X89270827Y-107440602D01*
X89270814Y-107440609D01*
X89139711Y-107528210D01*
X89139707Y-107528213D01*
X89028213Y-107639707D01*
X89028210Y-107639711D01*
X88940609Y-107770814D01*
X88940602Y-107770827D01*
X88880264Y-107916498D01*
X88880261Y-107916510D01*
X88849500Y-108071153D01*
X88849500Y-108228846D01*
X88880261Y-108383489D01*
X88880264Y-108383501D01*
X88940602Y-108529172D01*
X88940609Y-108529185D01*
X89028210Y-108660288D01*
X89028213Y-108660292D01*
X89139707Y-108771786D01*
X89139711Y-108771789D01*
X89270814Y-108859390D01*
X89270827Y-108859397D01*
X89358230Y-108895599D01*
X89416503Y-108919737D01*
X89483580Y-108933079D01*
X89545490Y-108965463D01*
X89547069Y-108967015D01*
X93007984Y-112427930D01*
X93014789Y-112438944D01*
X93022141Y-112444865D01*
X93030267Y-112463992D01*
X93037947Y-112476421D01*
X93040403Y-112483796D01*
X93055263Y-112558497D01*
X93106470Y-112682123D01*
X93107865Y-112686310D01*
X93108968Y-112716988D01*
X93112251Y-112747517D01*
X93110213Y-112751587D01*
X93110377Y-112756135D01*
X93094721Y-112782537D01*
X93080976Y-112809996D01*
X93077061Y-112812318D01*
X93074740Y-112816233D01*
X93047292Y-112829981D01*
X93020887Y-112845648D01*
X93014383Y-112846464D01*
X93012269Y-112847524D01*
X93008861Y-112847158D01*
X92990221Y-112849500D01*
X71824500Y-112849500D01*
X71757461Y-112829815D01*
X71711706Y-112777011D01*
X71700500Y-112725500D01*
X71700500Y-106273615D01*
X74024500Y-106273615D01*
X74024500Y-106426384D01*
X74054300Y-106576197D01*
X74054302Y-106576205D01*
X74112759Y-106717334D01*
X74112764Y-106717343D01*
X74197629Y-106844351D01*
X74197632Y-106844355D01*
X74305644Y-106952367D01*
X74305648Y-106952370D01*
X74432656Y-107037235D01*
X74432662Y-107037238D01*
X74432663Y-107037239D01*
X74573795Y-107095698D01*
X74723615Y-107125499D01*
X74723619Y-107125500D01*
X74723620Y-107125500D01*
X74876381Y-107125500D01*
X74876382Y-107125499D01*
X75026205Y-107095698D01*
X75167337Y-107037239D01*
X75294352Y-106952370D01*
X75402370Y-106844352D01*
X75487239Y-106717337D01*
X75545698Y-106576205D01*
X75575500Y-106426380D01*
X75575500Y-106273620D01*
X75573050Y-106261304D01*
X81349500Y-106261304D01*
X81349500Y-106438695D01*
X81384103Y-106612658D01*
X81384106Y-106612667D01*
X81451983Y-106776540D01*
X81451990Y-106776553D01*
X81550535Y-106924034D01*
X81550538Y-106924038D01*
X81675961Y-107049461D01*
X81675965Y-107049464D01*
X81823446Y-107148009D01*
X81823459Y-107148016D01*
X81930003Y-107192147D01*
X81987334Y-107215894D01*
X81987336Y-107215894D01*
X81987341Y-107215896D01*
X82161304Y-107250499D01*
X82161307Y-107250500D01*
X82161309Y-107250500D01*
X82338693Y-107250500D01*
X82338694Y-107250499D01*
X82396682Y-107238964D01*
X82512658Y-107215896D01*
X82512661Y-107215894D01*
X82512666Y-107215894D01*
X82676547Y-107148013D01*
X82824035Y-107049464D01*
X82949464Y-106924035D01*
X83048013Y-106776547D01*
X83115894Y-106612666D01*
X83150500Y-106438691D01*
X83150500Y-106261309D01*
X83150500Y-106261306D01*
X83150499Y-106261304D01*
X83115896Y-106087341D01*
X83115893Y-106087332D01*
X83048016Y-105923459D01*
X83048009Y-105923446D01*
X82949464Y-105775965D01*
X82949461Y-105775961D01*
X82824038Y-105650538D01*
X82824034Y-105650535D01*
X82676553Y-105551990D01*
X82676540Y-105551983D01*
X82512667Y-105484106D01*
X82512658Y-105484103D01*
X82338694Y-105449500D01*
X82338691Y-105449500D01*
X82161309Y-105449500D01*
X82161306Y-105449500D01*
X81987341Y-105484103D01*
X81987332Y-105484106D01*
X81823459Y-105551983D01*
X81823446Y-105551990D01*
X81675965Y-105650535D01*
X81675961Y-105650538D01*
X81550538Y-105775961D01*
X81550535Y-105775965D01*
X81451990Y-105923446D01*
X81451983Y-105923459D01*
X81384106Y-106087332D01*
X81384103Y-106087341D01*
X81349500Y-106261304D01*
X75573050Y-106261304D01*
X75545698Y-106123795D01*
X75487239Y-105982663D01*
X75487238Y-105982662D01*
X75487235Y-105982656D01*
X75402370Y-105855648D01*
X75402367Y-105855644D01*
X75294355Y-105747632D01*
X75294351Y-105747629D01*
X75167343Y-105662764D01*
X75167334Y-105662759D01*
X75026205Y-105604302D01*
X75026197Y-105604300D01*
X74876384Y-105574500D01*
X74876380Y-105574500D01*
X74723620Y-105574500D01*
X74723615Y-105574500D01*
X74573802Y-105604300D01*
X74573794Y-105604302D01*
X74432665Y-105662759D01*
X74432656Y-105662764D01*
X74305648Y-105747629D01*
X74305644Y-105747632D01*
X74197632Y-105855644D01*
X74197629Y-105855648D01*
X74112764Y-105982656D01*
X74112759Y-105982665D01*
X74054302Y-106123794D01*
X74054300Y-106123802D01*
X74024500Y-106273615D01*
X71700500Y-106273615D01*
X71700500Y-100875928D01*
X71675502Y-100750261D01*
X71675501Y-100750260D01*
X71675501Y-100750256D01*
X71654477Y-100699500D01*
X71626466Y-100631874D01*
X71555277Y-100525331D01*
X71555272Y-100525325D01*
X71436818Y-100406871D01*
X71403333Y-100345548D01*
X71400499Y-100319190D01*
X71400499Y-99042129D01*
X71400498Y-99042123D01*
X71400497Y-99042116D01*
X71394091Y-98982517D01*
X71374199Y-98929185D01*
X71343797Y-98847671D01*
X71343793Y-98847664D01*
X71257547Y-98732455D01*
X71257544Y-98732452D01*
X71142335Y-98646206D01*
X71142328Y-98646202D01*
X71010917Y-98597189D01*
X70954983Y-98555318D01*
X70930566Y-98489853D01*
X70945418Y-98421580D01*
X70966563Y-98393332D01*
X71080104Y-98279792D01*
X71089158Y-98267331D01*
X71163402Y-98165141D01*
X71205051Y-98107816D01*
X71301557Y-97918412D01*
X71367246Y-97716243D01*
X71400500Y-97506287D01*
X71400500Y-97293713D01*
X71367246Y-97083757D01*
X71353506Y-97041473D01*
X71351512Y-96971635D01*
X71383755Y-96915478D01*
X73312416Y-94986819D01*
X73373739Y-94953334D01*
X73400097Y-94950500D01*
X83775500Y-94950500D01*
X83842539Y-94970185D01*
G37*
%TD.AperFunction*%
%TA.AperFunction,Conductor*%
G36*
X68851444Y-98053999D02*
G01*
X68890486Y-98099056D01*
X68894951Y-98107820D01*
X69019890Y-98279786D01*
X69133430Y-98393326D01*
X69166915Y-98454649D01*
X69161931Y-98524341D01*
X69120059Y-98580274D01*
X69089083Y-98597189D01*
X68957669Y-98646203D01*
X68957664Y-98646206D01*
X68842455Y-98732452D01*
X68842452Y-98732455D01*
X68756206Y-98847664D01*
X68756202Y-98847671D01*
X68705908Y-98982517D01*
X68700428Y-99033497D01*
X68699501Y-99042123D01*
X68699500Y-99042135D01*
X68699500Y-99052690D01*
X68679815Y-99119729D01*
X68663181Y-99140371D01*
X68150000Y-99653552D01*
X68150000Y-98946444D01*
X68271716Y-98824728D01*
X68217547Y-98785373D01*
X68213396Y-98782829D01*
X68213956Y-98781914D01*
X68206639Y-98775003D01*
X68192797Y-98768682D01*
X68181755Y-98751501D01*
X68166908Y-98737478D01*
X68162666Y-98721797D01*
X68155023Y-98709904D01*
X68150000Y-98674969D01*
X68150000Y-98665592D01*
X68169685Y-98598553D01*
X68214117Y-98558359D01*
X68213653Y-98557602D01*
X68217690Y-98555127D01*
X68217721Y-98555098D01*
X68217816Y-98555051D01*
X68389792Y-98430104D01*
X68540104Y-98279792D01*
X68540106Y-98279788D01*
X68540109Y-98279786D01*
X68665048Y-98107820D01*
X68665047Y-98107820D01*
X68665051Y-98107816D01*
X68669514Y-98099054D01*
X68717488Y-98048259D01*
X68785308Y-98031463D01*
X68851444Y-98053999D01*
G37*
%TD.AperFunction*%
%TD*%
%TA.AperFunction,Conductor*%
%TO.N,GNDA*%
G36*
X149465677Y-109019685D02*
G01*
X149486319Y-109036319D01*
X159063681Y-118613681D01*
X159097166Y-118675004D01*
X159100000Y-118701362D01*
X159100000Y-134400182D01*
X159080315Y-134467221D01*
X159027511Y-134512976D01*
X158958353Y-134522920D01*
X158894797Y-134493895D01*
X158888319Y-134487863D01*
X158653632Y-134253176D01*
X158387765Y-134034985D01*
X158387764Y-134034984D01*
X158387760Y-134034981D01*
X158101787Y-133843900D01*
X158101782Y-133843897D01*
X158101775Y-133843893D01*
X157798469Y-133681772D01*
X157798464Y-133681770D01*
X157767144Y-133668797D01*
X157705394Y-133643219D01*
X157480706Y-133550150D01*
X157151572Y-133450308D01*
X156814248Y-133383210D01*
X156814249Y-133383210D01*
X156556456Y-133357821D01*
X156471969Y-133349500D01*
X156128031Y-133349500D01*
X156049966Y-133357188D01*
X155785750Y-133383210D01*
X155448427Y-133450308D01*
X155119293Y-133550150D01*
X154801535Y-133681770D01*
X154801530Y-133681772D01*
X154498224Y-133843893D01*
X154498206Y-133843904D01*
X154212248Y-134034975D01*
X154212234Y-134034985D01*
X153946367Y-134253176D01*
X153703176Y-134496367D01*
X153484985Y-134762234D01*
X153484975Y-134762248D01*
X153293904Y-135048206D01*
X153293893Y-135048224D01*
X153131772Y-135351530D01*
X153131770Y-135351535D01*
X153000150Y-135669293D01*
X152900308Y-135998427D01*
X152833210Y-136335750D01*
X152799500Y-136678034D01*
X152799500Y-137021965D01*
X152833210Y-137364249D01*
X152900308Y-137701572D01*
X153000150Y-138030706D01*
X153131770Y-138348464D01*
X153131772Y-138348469D01*
X153293893Y-138651775D01*
X153293904Y-138651793D01*
X153484975Y-138937751D01*
X153484985Y-138937765D01*
X153703176Y-139203632D01*
X153946367Y-139446823D01*
X153946372Y-139446827D01*
X153946373Y-139446828D01*
X154212240Y-139665019D01*
X154498213Y-139856100D01*
X154498222Y-139856105D01*
X154498224Y-139856106D01*
X154801530Y-140018227D01*
X154801532Y-140018227D01*
X154801538Y-140018231D01*
X155119295Y-140149850D01*
X155448422Y-140249690D01*
X155785750Y-140316789D01*
X156128031Y-140350500D01*
X156128034Y-140350500D01*
X156471966Y-140350500D01*
X156471969Y-140350500D01*
X156814250Y-140316789D01*
X157151578Y-140249690D01*
X157480705Y-140149850D01*
X157798462Y-140018231D01*
X158101787Y-139856100D01*
X158387760Y-139665019D01*
X158653627Y-139446828D01*
X158653632Y-139446823D01*
X158888319Y-139212137D01*
X158949642Y-139178652D01*
X159019334Y-139183636D01*
X159075267Y-139225508D01*
X159099684Y-139290972D01*
X159100000Y-139299818D01*
X159100000Y-151376000D01*
X159080315Y-151443039D01*
X159027511Y-151488794D01*
X158976000Y-151500000D01*
X146624500Y-151500000D01*
X146557461Y-151480315D01*
X146511706Y-151427511D01*
X146500500Y-151376000D01*
X146500500Y-147678751D01*
X147200000Y-147678751D01*
X147200000Y-148050000D01*
X148182096Y-148050000D01*
X148150000Y-148211358D01*
X148150000Y-148388642D01*
X148182096Y-148550000D01*
X147200000Y-148550000D01*
X147200000Y-148921248D01*
X147200001Y-148921264D01*
X147231653Y-149161687D01*
X147294421Y-149395939D01*
X147387220Y-149619978D01*
X147387227Y-149619993D01*
X147508480Y-149830009D01*
X147656110Y-150022405D01*
X147656116Y-150022412D01*
X147827587Y-150193883D01*
X147827594Y-150193889D01*
X148019990Y-150341519D01*
X148230006Y-150462772D01*
X148230021Y-150462779D01*
X148454060Y-150555578D01*
X148688312Y-150618346D01*
X148800000Y-150633049D01*
X148800000Y-149167904D01*
X148961358Y-149200000D01*
X149138642Y-149200000D01*
X149300000Y-149167904D01*
X149300000Y-150633048D01*
X149411687Y-150618346D01*
X149645939Y-150555578D01*
X149869978Y-150462779D01*
X149869993Y-150462772D01*
X150080009Y-150341519D01*
X150272405Y-150193889D01*
X150272412Y-150193883D01*
X150443883Y-150022412D01*
X150443889Y-150022405D01*
X150591519Y-149830009D01*
X150712772Y-149619993D01*
X150712779Y-149619978D01*
X150805578Y-149395939D01*
X150868346Y-149161687D01*
X150899998Y-148921264D01*
X150900000Y-148921248D01*
X150900000Y-148550000D01*
X149917904Y-148550000D01*
X149950000Y-148388642D01*
X149950000Y-148211358D01*
X149917904Y-148050000D01*
X150900000Y-148050000D01*
X150900000Y-147678751D01*
X150899998Y-147678735D01*
X150868346Y-147438312D01*
X150805578Y-147204060D01*
X150712779Y-146980021D01*
X150712772Y-146980006D01*
X150591519Y-146769990D01*
X150554942Y-146722321D01*
X150499436Y-146649984D01*
X151399500Y-146649984D01*
X151399500Y-149950015D01*
X151410000Y-150052795D01*
X151410001Y-150052796D01*
X151465186Y-150219335D01*
X151465187Y-150219337D01*
X151557286Y-150368651D01*
X151557289Y-150368655D01*
X151681344Y-150492710D01*
X151681348Y-150492713D01*
X151830662Y-150584812D01*
X151830664Y-150584813D01*
X151830666Y-150584814D01*
X151997203Y-150639999D01*
X152099992Y-150650500D01*
X152099997Y-150650500D01*
X154400003Y-150650500D01*
X154400008Y-150650500D01*
X154502797Y-150639999D01*
X154669334Y-150584814D01*
X154818655Y-150492711D01*
X154942711Y-150368655D01*
X155034814Y-150219334D01*
X155089999Y-150052797D01*
X155100500Y-149950008D01*
X155100500Y-146649992D01*
X155089999Y-146547203D01*
X155034814Y-146380666D01*
X154942711Y-146231345D01*
X154818655Y-146107289D01*
X154818651Y-146107286D01*
X154669337Y-146015187D01*
X154669335Y-146015186D01*
X154568138Y-145981653D01*
X154502797Y-145960001D01*
X154502795Y-145960000D01*
X154400015Y-145949500D01*
X154400008Y-145949500D01*
X152099992Y-145949500D01*
X152099984Y-145949500D01*
X151997204Y-145960000D01*
X151997203Y-145960001D01*
X151830664Y-146015186D01*
X151830662Y-146015187D01*
X151681348Y-146107286D01*
X151681344Y-146107289D01*
X151557289Y-146231344D01*
X151557286Y-146231348D01*
X151465187Y-146380662D01*
X151465186Y-146380664D01*
X151410001Y-146547203D01*
X151410000Y-146547204D01*
X151399500Y-146649984D01*
X150499436Y-146649984D01*
X150443889Y-146577594D01*
X150443883Y-146577587D01*
X150272412Y-146406116D01*
X150272405Y-146406110D01*
X150080009Y-146258480D01*
X149869993Y-146137227D01*
X149869978Y-146137220D01*
X149645939Y-146044421D01*
X149411687Y-145981653D01*
X149300000Y-145966948D01*
X149300000Y-147432095D01*
X149138642Y-147400000D01*
X148961358Y-147400000D01*
X148800000Y-147432095D01*
X148800000Y-145966948D01*
X148799999Y-145966948D01*
X148688312Y-145981653D01*
X148454060Y-146044421D01*
X148230021Y-146137220D01*
X148230006Y-146137227D01*
X148019990Y-146258480D01*
X147827594Y-146406110D01*
X147827587Y-146406116D01*
X147656116Y-146577587D01*
X147656110Y-146577594D01*
X147508480Y-146769990D01*
X147387227Y-146980006D01*
X147387220Y-146980021D01*
X147294421Y-147204060D01*
X147231653Y-147438312D01*
X147200001Y-147678735D01*
X147200000Y-147678751D01*
X146500500Y-147678751D01*
X146500500Y-142178711D01*
X147199500Y-142178711D01*
X147199500Y-143421288D01*
X147231161Y-143661785D01*
X147293947Y-143896104D01*
X147386773Y-144120205D01*
X147386776Y-144120212D01*
X147508064Y-144330289D01*
X147508066Y-144330292D01*
X147508067Y-144330293D01*
X147655733Y-144522736D01*
X147655739Y-144522743D01*
X147827256Y-144694260D01*
X147827262Y-144694265D01*
X148019711Y-144841936D01*
X148229788Y-144963224D01*
X148453900Y-145056054D01*
X148688211Y-145118838D01*
X148868586Y-145142584D01*
X148928711Y-145150500D01*
X148928712Y-145150500D01*
X149171289Y-145150500D01*
X149219388Y-145144167D01*
X149411789Y-145118838D01*
X149646100Y-145056054D01*
X149870212Y-144963224D01*
X150080289Y-144841936D01*
X150272738Y-144694265D01*
X150444265Y-144522738D01*
X150591936Y-144330289D01*
X150713224Y-144120212D01*
X150806054Y-143896100D01*
X150868838Y-143661789D01*
X150900500Y-143421288D01*
X150900500Y-142178712D01*
X150900500Y-142178711D01*
X151399500Y-142178711D01*
X151399500Y-143421288D01*
X151431161Y-143661785D01*
X151493947Y-143896104D01*
X151586773Y-144120205D01*
X151586776Y-144120212D01*
X151708064Y-144330289D01*
X151708066Y-144330292D01*
X151708067Y-144330293D01*
X151855733Y-144522736D01*
X151855739Y-144522743D01*
X152027256Y-144694260D01*
X152027262Y-144694265D01*
X152219711Y-144841936D01*
X152429788Y-144963224D01*
X152653900Y-145056054D01*
X152888211Y-145118838D01*
X153068586Y-145142584D01*
X153128711Y-145150500D01*
X153128712Y-145150500D01*
X153371289Y-145150500D01*
X153419388Y-145144167D01*
X153611789Y-145118838D01*
X153846100Y-145056054D01*
X154070212Y-144963224D01*
X154280289Y-144841936D01*
X154472738Y-144694265D01*
X154644265Y-144522738D01*
X154791936Y-144330289D01*
X154913224Y-144120212D01*
X155006054Y-143896100D01*
X155068838Y-143661789D01*
X155100500Y-143421288D01*
X155100500Y-142178712D01*
X155068838Y-141938211D01*
X155006054Y-141703900D01*
X154913224Y-141479788D01*
X154791936Y-141269711D01*
X154644265Y-141077262D01*
X154644260Y-141077256D01*
X154472743Y-140905739D01*
X154472736Y-140905733D01*
X154280293Y-140758067D01*
X154280292Y-140758066D01*
X154280289Y-140758064D01*
X154070212Y-140636776D01*
X154070205Y-140636773D01*
X153846104Y-140543947D01*
X153728944Y-140512554D01*
X153611789Y-140481162D01*
X153611788Y-140481161D01*
X153611785Y-140481161D01*
X153371289Y-140449500D01*
X153371288Y-140449500D01*
X153128712Y-140449500D01*
X153128711Y-140449500D01*
X152888214Y-140481161D01*
X152653895Y-140543947D01*
X152429794Y-140636773D01*
X152429785Y-140636777D01*
X152219706Y-140758067D01*
X152027263Y-140905733D01*
X152027256Y-140905739D01*
X151855739Y-141077256D01*
X151855733Y-141077263D01*
X151708067Y-141269706D01*
X151586777Y-141479785D01*
X151586773Y-141479794D01*
X151493947Y-141703895D01*
X151431161Y-141938214D01*
X151399500Y-142178711D01*
X150900500Y-142178711D01*
X150868838Y-141938211D01*
X150806054Y-141703900D01*
X150713224Y-141479788D01*
X150591936Y-141269711D01*
X150444265Y-141077262D01*
X150444260Y-141077256D01*
X150272743Y-140905739D01*
X150272736Y-140905733D01*
X150080293Y-140758067D01*
X150080292Y-140758066D01*
X150080289Y-140758064D01*
X149870212Y-140636776D01*
X149870205Y-140636773D01*
X149646104Y-140543947D01*
X149528944Y-140512554D01*
X149411789Y-140481162D01*
X149411788Y-140481161D01*
X149411785Y-140481161D01*
X149171289Y-140449500D01*
X149171288Y-140449500D01*
X148928712Y-140449500D01*
X148928711Y-140449500D01*
X148688214Y-140481161D01*
X148453895Y-140543947D01*
X148229794Y-140636773D01*
X148229785Y-140636777D01*
X148019706Y-140758067D01*
X147827263Y-140905733D01*
X147827256Y-140905739D01*
X147655739Y-141077256D01*
X147655733Y-141077263D01*
X147508067Y-141269706D01*
X147386777Y-141479785D01*
X147386773Y-141479794D01*
X147293947Y-141703895D01*
X147231161Y-141938214D01*
X147199500Y-142178711D01*
X146500500Y-142178711D01*
X146500500Y-140591518D01*
X146520185Y-140524479D01*
X146536814Y-140503842D01*
X154244586Y-132796069D01*
X154284810Y-132769192D01*
X154355806Y-132739786D01*
X154429173Y-132709397D01*
X154429176Y-132709395D01*
X154429179Y-132709394D01*
X154560289Y-132621789D01*
X154671789Y-132510289D01*
X154759394Y-132379179D01*
X154819737Y-132233497D01*
X154850500Y-132078842D01*
X154850500Y-131921158D01*
X154850500Y-131921155D01*
X154850499Y-131921153D01*
X154841219Y-131874500D01*
X154819737Y-131766503D01*
X154814439Y-131753712D01*
X154759397Y-131620827D01*
X154759390Y-131620814D01*
X154671789Y-131489711D01*
X154671786Y-131489707D01*
X154560292Y-131378213D01*
X154560288Y-131378210D01*
X154429185Y-131290609D01*
X154429172Y-131290602D01*
X154283501Y-131230264D01*
X154283489Y-131230261D01*
X154128845Y-131199500D01*
X154128842Y-131199500D01*
X153971158Y-131199500D01*
X153971155Y-131199500D01*
X153816510Y-131230261D01*
X153816498Y-131230264D01*
X153670827Y-131290602D01*
X153670814Y-131290609D01*
X153539711Y-131378210D01*
X153539707Y-131378213D01*
X153428213Y-131489707D01*
X153428210Y-131489711D01*
X153340609Y-131620814D01*
X153340604Y-131620823D01*
X153280809Y-131765184D01*
X153253929Y-131805412D01*
X152637180Y-132422162D01*
X152575857Y-132455647D01*
X152506166Y-132450663D01*
X152450232Y-132408792D01*
X152425815Y-132343327D01*
X152425499Y-132334481D01*
X152425499Y-132327129D01*
X152425498Y-132327123D01*
X152425497Y-132327116D01*
X152419091Y-132267517D01*
X152406402Y-132233497D01*
X152368797Y-132132671D01*
X152368793Y-132132664D01*
X152282547Y-132017455D01*
X152282544Y-132017452D01*
X152167335Y-131931206D01*
X152167328Y-131931202D01*
X152032482Y-131880908D01*
X152032483Y-131880908D01*
X151972883Y-131874501D01*
X151972881Y-131874500D01*
X151972873Y-131874500D01*
X151972864Y-131874500D01*
X151027129Y-131874500D01*
X151027123Y-131874501D01*
X150967516Y-131880908D01*
X150832671Y-131931202D01*
X150832664Y-131931206D01*
X150717455Y-132017452D01*
X150717452Y-132017455D01*
X150631206Y-132132664D01*
X150631202Y-132132671D01*
X150580908Y-132267517D01*
X150574501Y-132327116D01*
X150574501Y-132327123D01*
X150574500Y-132327135D01*
X150574500Y-133272870D01*
X150574501Y-133272876D01*
X150580908Y-133332483D01*
X150631202Y-133467328D01*
X150631206Y-133467335D01*
X150717452Y-133582544D01*
X150717455Y-133582547D01*
X150832664Y-133668793D01*
X150832671Y-133668797D01*
X150867451Y-133681769D01*
X150967517Y-133719091D01*
X151027127Y-133725500D01*
X151034471Y-133725499D01*
X151101510Y-133745177D01*
X151147270Y-133797977D01*
X151157220Y-133867135D01*
X151128201Y-133930693D01*
X151122161Y-133937180D01*
X145255887Y-139803454D01*
X145179222Y-139918192D01*
X145126421Y-140045667D01*
X145126418Y-140045679D01*
X145105698Y-140149848D01*
X145105698Y-140149851D01*
X145099500Y-140181006D01*
X145099500Y-151258481D01*
X145090855Y-151287921D01*
X145084332Y-151317908D01*
X145080577Y-151322923D01*
X145079815Y-151325520D01*
X145063181Y-151346162D01*
X144945662Y-151463681D01*
X144884339Y-151497166D01*
X144857981Y-151500000D01*
X123474000Y-151500000D01*
X123406961Y-151480315D01*
X123361206Y-151427511D01*
X123350000Y-151376000D01*
X123350000Y-147678751D01*
X125000000Y-147678751D01*
X125000000Y-148050000D01*
X125982096Y-148050000D01*
X125950000Y-148211358D01*
X125950000Y-148388642D01*
X125982096Y-148550000D01*
X125000000Y-148550000D01*
X125000000Y-148921248D01*
X125000001Y-148921264D01*
X125031653Y-149161687D01*
X125094421Y-149395939D01*
X125187220Y-149619978D01*
X125187227Y-149619993D01*
X125308480Y-149830009D01*
X125456110Y-150022405D01*
X125456116Y-150022412D01*
X125627587Y-150193883D01*
X125627594Y-150193889D01*
X125819990Y-150341519D01*
X126030006Y-150462772D01*
X126030021Y-150462779D01*
X126254060Y-150555578D01*
X126488312Y-150618346D01*
X126600000Y-150633049D01*
X126600000Y-149167904D01*
X126761358Y-149200000D01*
X126938642Y-149200000D01*
X127100000Y-149167904D01*
X127100000Y-150633048D01*
X127211687Y-150618346D01*
X127445939Y-150555578D01*
X127669978Y-150462779D01*
X127669993Y-150462772D01*
X127880009Y-150341519D01*
X128072405Y-150193889D01*
X128072412Y-150193883D01*
X128243883Y-150022412D01*
X128243889Y-150022405D01*
X128391519Y-149830009D01*
X128512772Y-149619993D01*
X128512779Y-149619978D01*
X128605578Y-149395939D01*
X128668346Y-149161687D01*
X128699998Y-148921264D01*
X128700000Y-148921248D01*
X128700000Y-148550000D01*
X127717904Y-148550000D01*
X127750000Y-148388642D01*
X127750000Y-148211358D01*
X127717904Y-148050000D01*
X128700000Y-148050000D01*
X128700000Y-147678751D01*
X128699998Y-147678735D01*
X128668346Y-147438312D01*
X128605578Y-147204060D01*
X128512779Y-146980021D01*
X128512772Y-146980006D01*
X128391519Y-146769990D01*
X128354942Y-146722321D01*
X128299436Y-146649984D01*
X129199500Y-146649984D01*
X129199500Y-149950015D01*
X129210000Y-150052795D01*
X129210001Y-150052796D01*
X129265186Y-150219335D01*
X129265187Y-150219337D01*
X129357286Y-150368651D01*
X129357289Y-150368655D01*
X129481344Y-150492710D01*
X129481348Y-150492713D01*
X129630662Y-150584812D01*
X129630664Y-150584813D01*
X129630666Y-150584814D01*
X129797203Y-150639999D01*
X129899992Y-150650500D01*
X129899997Y-150650500D01*
X132200003Y-150650500D01*
X132200008Y-150650500D01*
X132302797Y-150639999D01*
X132469334Y-150584814D01*
X132618655Y-150492711D01*
X132742711Y-150368655D01*
X132834814Y-150219334D01*
X132889999Y-150052797D01*
X132900500Y-149950008D01*
X132900500Y-147678751D01*
X136100000Y-147678751D01*
X136100000Y-148050000D01*
X137082096Y-148050000D01*
X137050000Y-148211358D01*
X137050000Y-148388642D01*
X137082096Y-148550000D01*
X136100000Y-148550000D01*
X136100000Y-148921248D01*
X136100001Y-148921264D01*
X136131653Y-149161687D01*
X136194421Y-149395939D01*
X136287220Y-149619978D01*
X136287227Y-149619993D01*
X136408480Y-149830009D01*
X136556110Y-150022405D01*
X136556116Y-150022412D01*
X136727587Y-150193883D01*
X136727594Y-150193889D01*
X136919990Y-150341519D01*
X137130006Y-150462772D01*
X137130021Y-150462779D01*
X137354060Y-150555578D01*
X137588312Y-150618346D01*
X137700000Y-150633049D01*
X137700000Y-149167904D01*
X137861358Y-149200000D01*
X138038642Y-149200000D01*
X138200000Y-149167904D01*
X138200000Y-150633048D01*
X138311687Y-150618346D01*
X138545939Y-150555578D01*
X138769978Y-150462779D01*
X138769993Y-150462772D01*
X138980009Y-150341519D01*
X139172405Y-150193889D01*
X139172412Y-150193883D01*
X139343883Y-150022412D01*
X139343889Y-150022405D01*
X139491519Y-149830009D01*
X139612772Y-149619993D01*
X139612779Y-149619978D01*
X139705578Y-149395939D01*
X139768346Y-149161687D01*
X139799998Y-148921264D01*
X139800000Y-148921248D01*
X139800000Y-148550000D01*
X138817904Y-148550000D01*
X138850000Y-148388642D01*
X138850000Y-148211358D01*
X138817904Y-148050000D01*
X139800000Y-148050000D01*
X139800000Y-147678751D01*
X139799998Y-147678735D01*
X139768346Y-147438312D01*
X139705578Y-147204060D01*
X139612779Y-146980021D01*
X139612772Y-146980006D01*
X139491519Y-146769990D01*
X139454942Y-146722321D01*
X139399436Y-146649984D01*
X140299500Y-146649984D01*
X140299500Y-149950015D01*
X140310000Y-150052795D01*
X140310001Y-150052796D01*
X140365186Y-150219335D01*
X140365187Y-150219337D01*
X140457286Y-150368651D01*
X140457289Y-150368655D01*
X140581344Y-150492710D01*
X140581348Y-150492713D01*
X140730662Y-150584812D01*
X140730664Y-150584813D01*
X140730666Y-150584814D01*
X140897203Y-150639999D01*
X140999992Y-150650500D01*
X140999997Y-150650500D01*
X143300003Y-150650500D01*
X143300008Y-150650500D01*
X143402797Y-150639999D01*
X143569334Y-150584814D01*
X143718655Y-150492711D01*
X143842711Y-150368655D01*
X143934814Y-150219334D01*
X143989999Y-150052797D01*
X144000500Y-149950008D01*
X144000500Y-146649992D01*
X143989999Y-146547203D01*
X143934814Y-146380666D01*
X143842711Y-146231345D01*
X143718655Y-146107289D01*
X143718651Y-146107286D01*
X143569337Y-146015187D01*
X143569335Y-146015186D01*
X143468138Y-145981653D01*
X143402797Y-145960001D01*
X143402795Y-145960000D01*
X143300015Y-145949500D01*
X143300008Y-145949500D01*
X140999992Y-145949500D01*
X140999984Y-145949500D01*
X140897204Y-145960000D01*
X140897203Y-145960001D01*
X140730664Y-146015186D01*
X140730662Y-146015187D01*
X140581348Y-146107286D01*
X140581344Y-146107289D01*
X140457289Y-146231344D01*
X140457286Y-146231348D01*
X140365187Y-146380662D01*
X140365186Y-146380664D01*
X140310001Y-146547203D01*
X140310000Y-146547204D01*
X140299500Y-146649984D01*
X139399436Y-146649984D01*
X139343889Y-146577594D01*
X139343883Y-146577587D01*
X139172412Y-146406116D01*
X139172405Y-146406110D01*
X138980009Y-146258480D01*
X138769993Y-146137227D01*
X138769978Y-146137220D01*
X138545939Y-146044421D01*
X138311687Y-145981653D01*
X138200000Y-145966948D01*
X138200000Y-147432095D01*
X138038642Y-147400000D01*
X137861358Y-147400000D01*
X137700000Y-147432095D01*
X137700000Y-145966948D01*
X137699999Y-145966948D01*
X137588312Y-145981653D01*
X137354060Y-146044421D01*
X137130021Y-146137220D01*
X137130006Y-146137227D01*
X136919990Y-146258480D01*
X136727594Y-146406110D01*
X136727587Y-146406116D01*
X136556116Y-146577587D01*
X136556110Y-146577594D01*
X136408480Y-146769990D01*
X136287227Y-146980006D01*
X136287220Y-146980021D01*
X136194421Y-147204060D01*
X136131653Y-147438312D01*
X136100001Y-147678735D01*
X136100000Y-147678751D01*
X132900500Y-147678751D01*
X132900500Y-146649992D01*
X132889999Y-146547203D01*
X132834814Y-146380666D01*
X132742711Y-146231345D01*
X132618655Y-146107289D01*
X132618651Y-146107286D01*
X132469337Y-146015187D01*
X132469335Y-146015186D01*
X132368138Y-145981653D01*
X132302797Y-145960001D01*
X132302795Y-145960000D01*
X132200015Y-145949500D01*
X132200008Y-145949500D01*
X129899992Y-145949500D01*
X129899984Y-145949500D01*
X129797204Y-145960000D01*
X129797203Y-145960001D01*
X129630664Y-146015186D01*
X129630662Y-146015187D01*
X129481348Y-146107286D01*
X129481344Y-146107289D01*
X129357289Y-146231344D01*
X129357286Y-146231348D01*
X129265187Y-146380662D01*
X129265186Y-146380664D01*
X129210001Y-146547203D01*
X129210000Y-146547204D01*
X129199500Y-146649984D01*
X128299436Y-146649984D01*
X128243889Y-146577594D01*
X128243883Y-146577587D01*
X128072412Y-146406116D01*
X128072405Y-146406110D01*
X127880009Y-146258480D01*
X127669993Y-146137227D01*
X127669978Y-146137220D01*
X127445939Y-146044421D01*
X127211687Y-145981653D01*
X127100000Y-145966948D01*
X127100000Y-147432095D01*
X126938642Y-147400000D01*
X126761358Y-147400000D01*
X126600000Y-147432095D01*
X126600000Y-145966948D01*
X126599999Y-145966948D01*
X126488312Y-145981653D01*
X126254060Y-146044421D01*
X126030021Y-146137220D01*
X126030006Y-146137227D01*
X125819990Y-146258480D01*
X125627594Y-146406110D01*
X125627587Y-146406116D01*
X125456116Y-146577587D01*
X125456110Y-146577594D01*
X125308480Y-146769990D01*
X125187227Y-146980006D01*
X125187220Y-146980021D01*
X125094421Y-147204060D01*
X125031653Y-147438312D01*
X125000001Y-147678735D01*
X125000000Y-147678751D01*
X123350000Y-147678751D01*
X123350000Y-142178711D01*
X124999500Y-142178711D01*
X124999500Y-143421288D01*
X125031161Y-143661785D01*
X125093947Y-143896104D01*
X125186773Y-144120205D01*
X125186776Y-144120212D01*
X125308064Y-144330289D01*
X125308066Y-144330292D01*
X125308067Y-144330293D01*
X125455733Y-144522736D01*
X125455739Y-144522743D01*
X125627256Y-144694260D01*
X125627262Y-144694265D01*
X125819711Y-144841936D01*
X126029788Y-144963224D01*
X126253900Y-145056054D01*
X126488211Y-145118838D01*
X126668586Y-145142584D01*
X126728711Y-145150500D01*
X126728712Y-145150500D01*
X126971289Y-145150500D01*
X127019388Y-145144167D01*
X127211789Y-145118838D01*
X127446100Y-145056054D01*
X127670212Y-144963224D01*
X127880289Y-144841936D01*
X128072738Y-144694265D01*
X128244265Y-144522738D01*
X128391936Y-144330289D01*
X128513224Y-144120212D01*
X128606054Y-143896100D01*
X128668838Y-143661789D01*
X128700500Y-143421288D01*
X128700500Y-142178712D01*
X128700500Y-142178711D01*
X129199500Y-142178711D01*
X129199500Y-143421288D01*
X129231161Y-143661785D01*
X129293947Y-143896104D01*
X129386773Y-144120205D01*
X129386776Y-144120212D01*
X129508064Y-144330289D01*
X129508066Y-144330292D01*
X129508067Y-144330293D01*
X129655733Y-144522736D01*
X129655739Y-144522743D01*
X129827256Y-144694260D01*
X129827262Y-144694265D01*
X130019711Y-144841936D01*
X130229788Y-144963224D01*
X130453900Y-145056054D01*
X130688211Y-145118838D01*
X130868586Y-145142584D01*
X130928711Y-145150500D01*
X130928712Y-145150500D01*
X131171289Y-145150500D01*
X131219388Y-145144167D01*
X131411789Y-145118838D01*
X131646100Y-145056054D01*
X131870212Y-144963224D01*
X132080289Y-144841936D01*
X132272738Y-144694265D01*
X132444265Y-144522738D01*
X132591936Y-144330289D01*
X132713224Y-144120212D01*
X132806054Y-143896100D01*
X132868838Y-143661789D01*
X132900500Y-143421288D01*
X132900500Y-142178712D01*
X132900500Y-142178711D01*
X136099500Y-142178711D01*
X136099500Y-143421288D01*
X136131161Y-143661785D01*
X136193947Y-143896104D01*
X136286773Y-144120205D01*
X136286776Y-144120212D01*
X136408064Y-144330289D01*
X136408066Y-144330292D01*
X136408067Y-144330293D01*
X136555733Y-144522736D01*
X136555739Y-144522743D01*
X136727256Y-144694260D01*
X136727262Y-144694265D01*
X136919711Y-144841936D01*
X137129788Y-144963224D01*
X137353900Y-145056054D01*
X137588211Y-145118838D01*
X137768586Y-145142584D01*
X137828711Y-145150500D01*
X137828712Y-145150500D01*
X138071289Y-145150500D01*
X138119388Y-145144167D01*
X138311789Y-145118838D01*
X138546100Y-145056054D01*
X138770212Y-144963224D01*
X138980289Y-144841936D01*
X139172738Y-144694265D01*
X139344265Y-144522738D01*
X139491936Y-144330289D01*
X139613224Y-144120212D01*
X139706054Y-143896100D01*
X139768838Y-143661789D01*
X139800500Y-143421288D01*
X139800500Y-142178712D01*
X139800500Y-142178711D01*
X140299500Y-142178711D01*
X140299500Y-143421288D01*
X140331161Y-143661785D01*
X140393947Y-143896104D01*
X140486773Y-144120205D01*
X140486776Y-144120212D01*
X140608064Y-144330289D01*
X140608066Y-144330292D01*
X140608067Y-144330293D01*
X140755733Y-144522736D01*
X140755739Y-144522743D01*
X140927256Y-144694260D01*
X140927262Y-144694265D01*
X141119711Y-144841936D01*
X141329788Y-144963224D01*
X141553900Y-145056054D01*
X141788211Y-145118838D01*
X141968586Y-145142584D01*
X142028711Y-145150500D01*
X142028712Y-145150500D01*
X142271289Y-145150500D01*
X142319388Y-145144167D01*
X142511789Y-145118838D01*
X142746100Y-145056054D01*
X142970212Y-144963224D01*
X143180289Y-144841936D01*
X143372738Y-144694265D01*
X143544265Y-144522738D01*
X143691936Y-144330289D01*
X143813224Y-144120212D01*
X143906054Y-143896100D01*
X143968838Y-143661789D01*
X144000500Y-143421288D01*
X144000500Y-142178712D01*
X143968838Y-141938211D01*
X143906054Y-141703900D01*
X143813224Y-141479788D01*
X143691936Y-141269711D01*
X143544265Y-141077262D01*
X143544260Y-141077256D01*
X143372743Y-140905739D01*
X143372736Y-140905733D01*
X143180293Y-140758067D01*
X143180292Y-140758066D01*
X143180289Y-140758064D01*
X142970212Y-140636776D01*
X142970205Y-140636773D01*
X142746104Y-140543947D01*
X142628944Y-140512554D01*
X142511789Y-140481162D01*
X142511788Y-140481161D01*
X142511785Y-140481161D01*
X142271289Y-140449500D01*
X142271288Y-140449500D01*
X142028712Y-140449500D01*
X142028711Y-140449500D01*
X141788214Y-140481161D01*
X141553895Y-140543947D01*
X141329794Y-140636773D01*
X141329785Y-140636777D01*
X141119706Y-140758067D01*
X140927263Y-140905733D01*
X140927256Y-140905739D01*
X140755739Y-141077256D01*
X140755733Y-141077263D01*
X140608067Y-141269706D01*
X140486777Y-141479785D01*
X140486773Y-141479794D01*
X140393947Y-141703895D01*
X140331161Y-141938214D01*
X140299500Y-142178711D01*
X139800500Y-142178711D01*
X139768838Y-141938211D01*
X139706054Y-141703900D01*
X139613224Y-141479788D01*
X139491936Y-141269711D01*
X139344265Y-141077262D01*
X139344260Y-141077256D01*
X139172743Y-140905739D01*
X139172736Y-140905733D01*
X138980293Y-140758067D01*
X138980292Y-140758066D01*
X138980289Y-140758064D01*
X138770212Y-140636776D01*
X138770205Y-140636773D01*
X138546104Y-140543947D01*
X138428944Y-140512554D01*
X138311789Y-140481162D01*
X138311788Y-140481161D01*
X138311785Y-140481161D01*
X138071289Y-140449500D01*
X138071288Y-140449500D01*
X137828712Y-140449500D01*
X137828711Y-140449500D01*
X137588214Y-140481161D01*
X137353895Y-140543947D01*
X137129794Y-140636773D01*
X137129785Y-140636777D01*
X136919706Y-140758067D01*
X136727263Y-140905733D01*
X136727256Y-140905739D01*
X136555739Y-141077256D01*
X136555733Y-141077263D01*
X136408067Y-141269706D01*
X136286777Y-141479785D01*
X136286773Y-141479794D01*
X136193947Y-141703895D01*
X136131161Y-141938214D01*
X136099500Y-142178711D01*
X132900500Y-142178711D01*
X132868838Y-141938211D01*
X132806054Y-141703900D01*
X132713224Y-141479788D01*
X132591936Y-141269711D01*
X132444265Y-141077262D01*
X132444260Y-141077256D01*
X132272743Y-140905739D01*
X132272736Y-140905733D01*
X132080293Y-140758067D01*
X132080292Y-140758066D01*
X132080289Y-140758064D01*
X131870212Y-140636776D01*
X131870205Y-140636773D01*
X131646104Y-140543947D01*
X131528944Y-140512554D01*
X131411789Y-140481162D01*
X131411788Y-140481161D01*
X131411785Y-140481161D01*
X131171289Y-140449500D01*
X131171288Y-140449500D01*
X130928712Y-140449500D01*
X130928711Y-140449500D01*
X130688214Y-140481161D01*
X130453895Y-140543947D01*
X130229794Y-140636773D01*
X130229785Y-140636777D01*
X130019706Y-140758067D01*
X129827263Y-140905733D01*
X129827256Y-140905739D01*
X129655739Y-141077256D01*
X129655733Y-141077263D01*
X129508067Y-141269706D01*
X129386777Y-141479785D01*
X129386773Y-141479794D01*
X129293947Y-141703895D01*
X129231161Y-141938214D01*
X129199500Y-142178711D01*
X128700500Y-142178711D01*
X128668838Y-141938211D01*
X128606054Y-141703900D01*
X128513224Y-141479788D01*
X128391936Y-141269711D01*
X128244265Y-141077262D01*
X128244260Y-141077256D01*
X128072743Y-140905739D01*
X128072736Y-140905733D01*
X127880293Y-140758067D01*
X127880292Y-140758066D01*
X127880289Y-140758064D01*
X127670212Y-140636776D01*
X127670205Y-140636773D01*
X127446104Y-140543947D01*
X127328944Y-140512554D01*
X127211789Y-140481162D01*
X127211788Y-140481161D01*
X127211785Y-140481161D01*
X126971289Y-140449500D01*
X126971288Y-140449500D01*
X126728712Y-140449500D01*
X126728711Y-140449500D01*
X126488214Y-140481161D01*
X126253895Y-140543947D01*
X126029794Y-140636773D01*
X126029785Y-140636777D01*
X125819706Y-140758067D01*
X125627263Y-140905733D01*
X125627256Y-140905739D01*
X125455739Y-141077256D01*
X125455733Y-141077263D01*
X125308067Y-141269706D01*
X125186777Y-141479785D01*
X125186773Y-141479794D01*
X125093947Y-141703895D01*
X125031161Y-141938214D01*
X124999500Y-142178711D01*
X123350000Y-142178711D01*
X123350000Y-131728713D01*
X125749500Y-131728713D01*
X125749500Y-131941287D01*
X125753460Y-131966287D01*
X125782753Y-132151239D01*
X125782753Y-132151241D01*
X125782754Y-132151243D01*
X125845166Y-132343327D01*
X125848444Y-132353414D01*
X125944951Y-132542820D01*
X126069890Y-132714786D01*
X126183430Y-132828326D01*
X126216915Y-132889649D01*
X126211931Y-132959341D01*
X126170059Y-133015274D01*
X126139083Y-133032189D01*
X126007669Y-133081203D01*
X126007664Y-133081206D01*
X125892455Y-133167452D01*
X125892452Y-133167455D01*
X125806206Y-133282664D01*
X125806202Y-133282671D01*
X125755908Y-133417517D01*
X125749501Y-133477116D01*
X125749501Y-133477123D01*
X125749500Y-133477135D01*
X125749500Y-135272870D01*
X125749501Y-135272876D01*
X125755908Y-135332483D01*
X125806202Y-135467328D01*
X125806206Y-135467335D01*
X125892452Y-135582544D01*
X125892455Y-135582547D01*
X126007664Y-135668793D01*
X126007671Y-135668797D01*
X126142517Y-135719091D01*
X126142516Y-135719091D01*
X126149444Y-135719835D01*
X126202127Y-135725500D01*
X127997872Y-135725499D01*
X128057483Y-135719091D01*
X128192331Y-135668796D01*
X128307546Y-135582546D01*
X128393796Y-135467331D01*
X128444091Y-135332483D01*
X128450500Y-135272873D01*
X128450499Y-133477128D01*
X128444091Y-133417517D01*
X128431295Y-133383210D01*
X128393797Y-133282671D01*
X128393793Y-133282664D01*
X128307547Y-133167455D01*
X128307544Y-133167452D01*
X128192335Y-133081206D01*
X128192328Y-133081202D01*
X128060917Y-133032189D01*
X128004983Y-132990318D01*
X127980566Y-132924853D01*
X127995418Y-132856580D01*
X128016563Y-132828332D01*
X128130104Y-132714792D01*
X128188917Y-132633843D01*
X128255048Y-132542820D01*
X128255047Y-132542820D01*
X128255051Y-132542816D01*
X128351557Y-132353412D01*
X128417246Y-132151243D01*
X128450500Y-131941287D01*
X128450500Y-131753713D01*
X129449500Y-131753713D01*
X129449500Y-131966286D01*
X129478793Y-132151239D01*
X129482754Y-132176243D01*
X129540321Y-132353416D01*
X129548444Y-132378414D01*
X129644951Y-132567820D01*
X129769890Y-132739786D01*
X129883430Y-132853326D01*
X129916915Y-132914649D01*
X129911931Y-132984341D01*
X129870059Y-133040274D01*
X129839083Y-133057189D01*
X129707669Y-133106203D01*
X129707664Y-133106206D01*
X129592455Y-133192452D01*
X129592452Y-133192455D01*
X129506206Y-133307664D01*
X129506202Y-133307671D01*
X129455908Y-133442517D01*
X129452187Y-133477135D01*
X129449501Y-133502123D01*
X129449500Y-133502135D01*
X129449500Y-135297870D01*
X129449501Y-135297876D01*
X129455908Y-135357483D01*
X129506202Y-135492328D01*
X129506206Y-135492335D01*
X129592452Y-135607544D01*
X129592455Y-135607547D01*
X129707664Y-135693793D01*
X129707671Y-135693797D01*
X129842517Y-135744091D01*
X129842516Y-135744091D01*
X129849444Y-135744835D01*
X129902127Y-135750500D01*
X131697872Y-135750499D01*
X131757483Y-135744091D01*
X131892331Y-135693796D01*
X132007546Y-135607546D01*
X132093796Y-135492331D01*
X132144091Y-135357483D01*
X132150500Y-135297873D01*
X132150499Y-133502128D01*
X132144091Y-133442517D01*
X132134766Y-133417516D01*
X132093797Y-133307671D01*
X132093793Y-133307664D01*
X132007547Y-133192455D01*
X132007544Y-133192452D01*
X131892335Y-133106206D01*
X131892328Y-133106202D01*
X131760917Y-133057189D01*
X131704983Y-133015318D01*
X131680566Y-132949853D01*
X131695418Y-132881580D01*
X131716563Y-132853332D01*
X131830104Y-132739792D01*
X131848268Y-132714792D01*
X131955048Y-132567820D01*
X131955047Y-132567820D01*
X131955051Y-132567816D01*
X132051557Y-132378412D01*
X132117246Y-132176243D01*
X132150500Y-131966287D01*
X132150500Y-131753713D01*
X132146540Y-131728713D01*
X136849500Y-131728713D01*
X136849500Y-131941287D01*
X136853460Y-131966287D01*
X136882753Y-132151239D01*
X136882753Y-132151241D01*
X136882754Y-132151243D01*
X136945166Y-132343327D01*
X136948444Y-132353414D01*
X137044951Y-132542820D01*
X137169890Y-132714786D01*
X137283430Y-132828326D01*
X137316915Y-132889649D01*
X137311931Y-132959341D01*
X137270059Y-133015274D01*
X137239083Y-133032189D01*
X137107669Y-133081203D01*
X137107664Y-133081206D01*
X136992455Y-133167452D01*
X136992452Y-133167455D01*
X136906206Y-133282664D01*
X136906202Y-133282671D01*
X136855908Y-133417517D01*
X136849501Y-133477116D01*
X136849501Y-133477123D01*
X136849500Y-133477135D01*
X136849500Y-135272870D01*
X136849501Y-135272876D01*
X136855908Y-135332483D01*
X136906202Y-135467328D01*
X136906206Y-135467335D01*
X136992452Y-135582544D01*
X136992455Y-135582547D01*
X137107664Y-135668793D01*
X137107671Y-135668797D01*
X137242517Y-135719091D01*
X137242516Y-135719091D01*
X137249444Y-135719835D01*
X137302127Y-135725500D01*
X139097872Y-135725499D01*
X139157483Y-135719091D01*
X139292331Y-135668796D01*
X139407546Y-135582546D01*
X139493796Y-135467331D01*
X139544091Y-135332483D01*
X139550500Y-135272873D01*
X139550499Y-133477128D01*
X139544091Y-133417517D01*
X139531295Y-133383210D01*
X139493797Y-133282671D01*
X139493793Y-133282664D01*
X139407547Y-133167455D01*
X139407544Y-133167452D01*
X139292335Y-133081206D01*
X139292328Y-133081202D01*
X139160917Y-133032189D01*
X139104983Y-132990318D01*
X139080566Y-132924853D01*
X139095418Y-132856580D01*
X139116563Y-132828332D01*
X139230104Y-132714792D01*
X139288917Y-132633843D01*
X139355048Y-132542820D01*
X139355047Y-132542820D01*
X139355051Y-132542816D01*
X139451557Y-132353412D01*
X139517246Y-132151243D01*
X139550500Y-131941287D01*
X139550500Y-131728713D01*
X140549500Y-131728713D01*
X140549500Y-131941287D01*
X140553460Y-131966287D01*
X140582753Y-132151239D01*
X140582753Y-132151241D01*
X140582754Y-132151243D01*
X140645166Y-132343327D01*
X140648444Y-132353414D01*
X140744951Y-132542820D01*
X140869890Y-132714786D01*
X140983430Y-132828326D01*
X141016915Y-132889649D01*
X141011931Y-132959341D01*
X140970059Y-133015274D01*
X140939083Y-133032189D01*
X140807669Y-133081203D01*
X140807664Y-133081206D01*
X140692455Y-133167452D01*
X140692452Y-133167455D01*
X140606206Y-133282664D01*
X140606202Y-133282671D01*
X140555908Y-133417517D01*
X140549501Y-133477116D01*
X140549501Y-133477123D01*
X140549500Y-133477135D01*
X140549500Y-135272870D01*
X140549501Y-135272876D01*
X140555908Y-135332483D01*
X140606202Y-135467328D01*
X140606206Y-135467335D01*
X140692452Y-135582544D01*
X140692455Y-135582547D01*
X140807664Y-135668793D01*
X140807671Y-135668797D01*
X140942517Y-135719091D01*
X140942516Y-135719091D01*
X140949444Y-135719835D01*
X141002127Y-135725500D01*
X142797872Y-135725499D01*
X142857483Y-135719091D01*
X142992331Y-135668796D01*
X143107546Y-135582546D01*
X143193796Y-135467331D01*
X143244091Y-135332483D01*
X143250500Y-135272873D01*
X143250499Y-133477128D01*
X143244091Y-133417517D01*
X143231295Y-133383210D01*
X143193797Y-133282671D01*
X143193793Y-133282664D01*
X143107547Y-133167455D01*
X143107544Y-133167452D01*
X142992335Y-133081206D01*
X142992328Y-133081202D01*
X142860917Y-133032189D01*
X142804983Y-132990318D01*
X142780566Y-132924853D01*
X142795418Y-132856580D01*
X142816563Y-132828332D01*
X142930104Y-132714792D01*
X142988917Y-132633843D01*
X143055048Y-132542820D01*
X143055047Y-132542820D01*
X143055051Y-132542816D01*
X143151557Y-132353412D01*
X143160095Y-132327135D01*
X146374500Y-132327135D01*
X146374500Y-133272870D01*
X146374501Y-133272876D01*
X146380908Y-133332483D01*
X146431202Y-133467328D01*
X146431206Y-133467335D01*
X146517452Y-133582544D01*
X146517455Y-133582547D01*
X146632664Y-133668793D01*
X146632671Y-133668797D01*
X146767517Y-133719091D01*
X146767516Y-133719091D01*
X146774444Y-133719835D01*
X146827127Y-133725500D01*
X147772872Y-133725499D01*
X147832483Y-133719091D01*
X147967331Y-133668796D01*
X148082546Y-133582546D01*
X148168796Y-133467331D01*
X148219091Y-133332483D01*
X148225500Y-133272873D01*
X148225499Y-132327128D01*
X148219091Y-132267517D01*
X148206402Y-132233497D01*
X148168797Y-132132671D01*
X148168793Y-132132664D01*
X148082547Y-132017455D01*
X148082544Y-132017452D01*
X147967335Y-131931206D01*
X147967328Y-131931202D01*
X147832482Y-131880908D01*
X147832483Y-131880908D01*
X147772883Y-131874501D01*
X147772881Y-131874500D01*
X147772873Y-131874500D01*
X147772864Y-131874500D01*
X146827129Y-131874500D01*
X146827123Y-131874501D01*
X146767516Y-131880908D01*
X146632671Y-131931202D01*
X146632664Y-131931206D01*
X146517455Y-132017452D01*
X146517452Y-132017455D01*
X146431206Y-132132664D01*
X146431202Y-132132671D01*
X146380908Y-132267517D01*
X146374501Y-132327116D01*
X146374501Y-132327123D01*
X146374500Y-132327135D01*
X143160095Y-132327135D01*
X143217246Y-132151243D01*
X143250500Y-131941287D01*
X143250500Y-131728713D01*
X143217246Y-131518757D01*
X143151557Y-131316588D01*
X143055051Y-131127184D01*
X143055049Y-131127181D01*
X143055048Y-131127179D01*
X142930109Y-130955213D01*
X142779786Y-130804890D01*
X142607820Y-130679951D01*
X142418414Y-130583444D01*
X142418413Y-130583443D01*
X142418412Y-130583443D01*
X142216243Y-130517754D01*
X142216241Y-130517753D01*
X142216240Y-130517753D01*
X142054957Y-130492208D01*
X142006287Y-130484500D01*
X141793713Y-130484500D01*
X141745042Y-130492208D01*
X141583760Y-130517753D01*
X141381585Y-130583444D01*
X141192179Y-130679951D01*
X141020213Y-130804890D01*
X140869890Y-130955213D01*
X140744951Y-131127179D01*
X140648444Y-131316585D01*
X140582753Y-131518760D01*
X140549500Y-131728713D01*
X139550500Y-131728713D01*
X139517246Y-131518757D01*
X139451557Y-131316588D01*
X139355051Y-131127184D01*
X139355049Y-131127181D01*
X139355048Y-131127179D01*
X139230109Y-130955213D01*
X139079786Y-130804890D01*
X138907820Y-130679951D01*
X138718414Y-130583444D01*
X138718413Y-130583443D01*
X138718412Y-130583443D01*
X138516243Y-130517754D01*
X138516241Y-130517753D01*
X138516240Y-130517753D01*
X138354957Y-130492208D01*
X138306287Y-130484500D01*
X138093713Y-130484500D01*
X138045042Y-130492208D01*
X137883760Y-130517753D01*
X137681585Y-130583444D01*
X137492179Y-130679951D01*
X137320213Y-130804890D01*
X137169890Y-130955213D01*
X137044951Y-131127179D01*
X136948444Y-131316585D01*
X136882753Y-131518760D01*
X136849500Y-131728713D01*
X132146540Y-131728713D01*
X132117246Y-131543757D01*
X132051557Y-131341588D01*
X131955051Y-131152184D01*
X131955049Y-131152181D01*
X131955048Y-131152179D01*
X131830109Y-130980213D01*
X131679786Y-130829890D01*
X131507820Y-130704951D01*
X131318414Y-130608444D01*
X131318413Y-130608443D01*
X131318412Y-130608443D01*
X131116243Y-130542754D01*
X131116241Y-130542753D01*
X131116240Y-130542753D01*
X130954957Y-130517208D01*
X130906287Y-130509500D01*
X130693713Y-130509500D01*
X130645042Y-130517208D01*
X130483760Y-130542753D01*
X130281585Y-130608444D01*
X130092179Y-130704951D01*
X129920213Y-130829890D01*
X129769890Y-130980213D01*
X129644951Y-131152179D01*
X129548444Y-131341585D01*
X129482753Y-131543760D01*
X129449500Y-131753713D01*
X128450500Y-131753713D01*
X128450500Y-131728713D01*
X128417246Y-131518757D01*
X128351557Y-131316588D01*
X128255051Y-131127184D01*
X128255049Y-131127181D01*
X128255048Y-131127179D01*
X128130109Y-130955213D01*
X127979786Y-130804890D01*
X127807820Y-130679951D01*
X127618414Y-130583444D01*
X127618413Y-130583443D01*
X127618412Y-130583443D01*
X127416243Y-130517754D01*
X127416241Y-130517753D01*
X127416240Y-130517753D01*
X127254957Y-130492208D01*
X127206287Y-130484500D01*
X126993713Y-130484500D01*
X126945042Y-130492208D01*
X126783760Y-130517753D01*
X126581585Y-130583444D01*
X126392179Y-130679951D01*
X126220213Y-130804890D01*
X126069890Y-130955213D01*
X125944951Y-131127179D01*
X125848444Y-131316585D01*
X125782753Y-131518760D01*
X125749500Y-131728713D01*
X123350000Y-131728713D01*
X123350000Y-118701362D01*
X123369685Y-118634323D01*
X123386319Y-118613681D01*
X132963681Y-109036319D01*
X133025004Y-109002834D01*
X133051362Y-109000000D01*
X149398638Y-109000000D01*
X149465677Y-109019685D01*
G37*
%TD.AperFunction*%
%TD*%
M02*
